<svg xmlns="http://www.w3.org/2000/svg" xmlns:xlink="http://www.w3.org/1999/xlink" viewBox="0 0 250 250" version="1.1">
    <g id="surface1">
        <path style=" stroke:none;fill-rule:nonzero;fill:rgb(32.549021%,68.235296%,58.039218%);fill-opacity:1;" d="M 125 0 C 194.03125 0 250 55.96875 250 125 C 250 194.03125 194.03125 250 125 250 C 55.96875 250 0 194.046875 0 125 C 0 55.953125 55.960938 0 125 0 "></path>
        <path style=" stroke:none;fill-rule:nonzero;fill:rgb(100%,100%,100%);fill-opacity:1;" d="M 140.425781 108.34375 L 140.425781 89.75 L 182.949219 89.75 L 182.949219 61.417969 L 67.160156 61.417969 L 67.160156 89.75 L 109.6875 89.75 L 109.6875 108.328125 C 75.125 109.917969 49.136719 116.761719 49.136719 124.960938 C 49.136719 133.164062 75.136719 140.007812 109.6875 141.605469 L 109.6875 201.167969 L 140.4375 201.167969 L 140.4375 141.601562 C 174.9375 140.007812 200.871094 133.167969 200.871094 124.976562 C 200.871094 116.78125 174.9375 109.941406 140.4375 108.351562 M 140.4375 136.554688 L 140.4375 136.539062 C 139.570312 136.59375 135.113281 136.863281 125.1875 136.863281 C 117.253906 136.863281 111.671875 136.636719 109.703125 136.535156 L 109.703125 136.558594 C 79.167969 135.207031 56.375 129.890625 56.375 123.527344 C 56.375 117.164062 79.171875 111.855469 109.703125 110.5 L 109.703125 131.261719 C 111.703125 131.398438 117.421875 131.738281 125.316406 131.738281 C 134.800781 131.738281 139.566406 131.34375 140.441406 131.261719 L 140.441406 110.5 C 170.917969 111.859375 193.65625 117.179688 193.65625 123.519531 C 193.65625 129.859375 170.90625 135.183594 140.441406 136.542969 "></path>
    </g>
</svg>