<svg version="1.2" baseProfile="tiny-ps" xmlns="http://www.w3.org/2000/svg" viewBox="0 0 13 14" width="13" height="14"><style/><g id="checkbox"><g id="чекбокс"><g id="создать группу"><path id="29" d="M6.5 13.54c-3.59 0-6.5-2.92-6.5-6.5S2.91.54 6.5.54c3.58 0 6.5 2.92 6.5 6.5s-2.92 6.5-6.5 6.5zm0-12.43C3.23 1.11.56 3.77.56 7.04c0 3.27 2.67 5.94 5.94 5.94 3.27 0 5.93-2.67 5.93-5.94 0-3.27-2.66-5.93-5.93-5.93zm3.39 5.93a.28.28 0 00-.28-.28H3.39c-.16 0-.28.12-.28.28 0 .16.12.28.28.28h6.22c.15 0 .28-.12.28-.28zm-3.11 3.11V3.93a.28.28 0 10-.56 0v6.22c0 .16.12.28.28.28.16 0 .28-.12.28-.28z" fill="#636569"/></g></g></g></svg>