<svg version="1.2" baseProfile="tiny-ps" xmlns="http://www.w3.org/2000/svg" viewBox="0 0 14 16" width="14" height="16"><style/><g id="checkbox"><g id="чекбокс"><g id="сбросить"><path id="102" d="M7.6 1.14L6.52 3.11l-.48-.27.67-1.21a6.133 6.133 0 00-5.64 6.14c0 2.52 1.5 4.76 3.83 5.71l-.2.51A6.689 6.689 0 01.53 7.77c0-3.46 2.58-6.3 5.96-6.67L5.43.46 5.72 0 7.6 1.14zm6.36 6.63c0-2.74-1.64-5.18-4.18-6.21l-.2.5c2.33.95 3.83 3.2 3.83 5.71 0 3.18-2.36 5.78-5.45 6.13l.67-1.22-.48-.26-1.08 1.97 1.88 1.14.28-.47-1.05-.64a6.685 6.685 0 005.78-6.65z" fill="#636569"/></g></g></g></svg>