<?xml version="1.0" encoding="UTF-8" standalone="no"?>
<svg
   viewBox="0 0 170.0787 143.75055"
   id="svg134"
   height="143.75055"
   width="170.0787"
   version="1.1"
   sodipodi:docname="logo-dark.svg"
   inkscape:version="1.1.1 (3bf5ae0d25, 2021-09-20)"
   xmlns:inkscape="http://www.inkscape.org/namespaces/inkscape"
   xmlns:sodipodi="http://sodipodi.sourceforge.net/DTD/sodipodi-0.dtd"
   xmlns="http://www.w3.org/2000/svg"
   xmlns:svg="http://www.w3.org/2000/svg"
   xmlns:rdf="http://www.w3.org/1999/02/22-rdf-syntax-ns#"
   xmlns:cc="http://creativecommons.org/ns#"
   xmlns:dc="http://purl.org/dc/elements/1.1/">
  <sodipodi:namedview
     id="namedview149"
     pagecolor="#ffffff"
     bordercolor="#666666"
     borderopacity="1.0"
     inkscape:pageshadow="2"
     inkscape:pageopacity="0.0"
     inkscape:pagecheckerboard="0"
     showgrid="false"
     inkscape:zoom="4.4823475"
     inkscape:cx="108.31378"
     inkscape:cy="89.127405"
     inkscape:window-width="1920"
     inkscape:window-height="1009"
     inkscape:window-x="-8"
     inkscape:window-y="-8"
     inkscape:window-maximized="1"
     inkscape:current-layer="svg134" />
  <metadata
     id="metadata140">
    <rdf:RDF>
      <cc:Work
         rdf:about="">
        <dc:format>image/svg+xml</dc:format>
        <dc:type
           rdf:resource="http://purl.org/dc/dcmitype/StillImage" />
      </cc:Work>
    </rdf:RDF>
  </metadata>
  <defs
     id="defs138" />
  <path
     id="path4"
     style="fill:none;stroke:#1b1918;stroke-width:2.00009;stroke-linecap:butt;stroke-linejoin:miter;stroke-dasharray:none"
     d="M 156.0063,84.215845 V 104.24832" />
  <path
     id="path6"
     style="fill:none;stroke:#1b1918;stroke-width:2.00009;stroke-linecap:butt;stroke-linejoin:miter;stroke-dasharray:none"
     d="M 14.274,84.215845 V 104.24832" />
  <path
     id="path8"
     style="fill:none;stroke:#1b1918;stroke-width:2.00009;stroke-linecap:butt;stroke-linejoin:miter;stroke-dasharray:none"
     d="m 19.4464,1.0000449 h 131.3875 c 2.8451,0 5.1724,2.33517 5.1724,5.19014 V 84.891535 H 14.274 V 6.1901849 c 0,-2.85497 2.3272,-5.19014 5.1724,-5.19014 z" />
  <path
     id="path10"
     style="fill:none;stroke:#1b1918;stroke-width:2.00009;stroke-linecap:butt;stroke-linejoin:miter;stroke-dasharray:none"
     d="m 84.9984,89.423585 c 3.1309,0 5.6693,2.53838 5.6693,5.66924 0,3.13077 -2.5384,5.669235 -5.6693,5.669235 -3.1309,0 -5.6693,-2.538465 -5.6693,-5.669235 0,-3.13086 2.5384,-5.66924 5.6693,-5.66924 z" />
  <path
     id="path12"
     style="fill:none;stroke:#1b1918;stroke-width:2.00009;stroke-linecap:butt;stroke-linejoin:miter;stroke-dasharray:none"
     d="m 58.2026,142.75051 53.7359,-0.3063" />
  <path
     id="path14"
     style="fill:none;stroke:#1b1918;stroke-width:2.00009;stroke-linecap:butt;stroke-linejoin:miter;stroke-dasharray:none"
     d="m 84.7541,23.157295 h 0.1196 m 35.7451,0 h 4.0584 c 1.4615,0 2.6575,1.33099 2.6575,2.95797 v 44.37353 c -3.3761,0 -36.195,-0.0602 -36.4456,0.0333 -0.4901,0.18311 -2.0469,5.08256 -6.812,4.47756 -3.9016,-0.49489 -4.9045,-4.22025 -5.3878,-4.45686 -0.2834,-0.13889 -33.0072,-0.0539 -36.394,-0.0539 v -44.37353 c 0,-1.62698 1.1959,-2.95797 2.6575,-2.95797 h 4.1655" />
  <path
     id="path16"
     style="fill:none;stroke:#1b1918;stroke-width:2.00009;stroke-linecap:butt;stroke-linejoin:miter;stroke-dasharray:none"
     d="m 48.413,19.187445 c 3.9725,-0.0762 6.2655,-1.83998 10.4366,-2.70077 7.9756,-1.64549 14.6971,-0.8 22.2466,1.94077 1.6625,0.6035 2.3842,0.5908 4.174,0.595" />
  <path
     id="path18"
     style="fill:none;stroke:#1b1918;stroke-width:2.00009;stroke-linecap:butt;stroke-linejoin:miter;stroke-dasharray:none"
     d="m 120.906,18.853855 -0.0349,47.31689 m -35.8302,-47.14039 -0.0348,47.31678 m -35.6009,-47.18889 -0.0349,47.31679 m 35.6706,-47.44468 c 3.9725,-0.0816 6.2654,-1.96789 10.4366,-2.88858 7.9756,-1.75978 14.6971,-0.85549 22.2466,2.07578 1.6722,0.63749 2.4375,0.63329 4.174,0.6363 m -73.5199,47.62118 c 3.9724,-0.0815 6.2654,-1.96778 10.4366,-2.88847 7.9755,-1.75988 14.697,-0.85549 22.2466,2.07578 1.6625,0.64539 2.3842,0.63179 4.174,0.63629 m -0.2293,0.0485 c 3.9724,-0.0815 6.2654,-1.96777 10.4365,-2.88846 7.9756,-1.75988 14.6971,-0.8556 22.2466,2.07567 1.6626,0.64549 2.3843,0.6318 4.174,0.6364" />
  <path
     id="path20"
     style="fill:none;stroke:#1b1918;stroke-width:1.00009;stroke-linecap:butt;stroke-linejoin:miter;stroke-dasharray:none"
     d="m 56.4437,49.076825 h 20.3006 c 0.6535,0 1.1882,0.15939 1.1882,0.3543 v 0 c 0,0.19489 -0.5347,0.35429 -1.1882,0.35429 H 56.4437 c -0.6537,0 -1.1884,-0.1594 -1.1884,-0.35429 v 0 c 0,-0.19491 0.5347,-0.3543 1.1884,-0.3543 z" />
  <path
     id="path22"
     style="fill:none;stroke:#1b1918;stroke-width:1.00009;stroke-linecap:butt;stroke-linejoin:miter;stroke-dasharray:none"
     d="m 56.4437,41.565005 h 20.3006 c 0.6535,0 1.1882,0.15949 1.1882,0.3544 v 0 c 0,0.19489 -0.5347,0.35429 -1.1882,0.35429 H 56.4437 c -0.6537,0 -1.1884,-0.1594 -1.1884,-0.35429 v 0 c 0,-0.19491 0.5347,-0.3544 1.1884,-0.3544 z" />
  <path
     id="path24"
     style="fill:none;stroke:#1b1918;stroke-width:1.00009;stroke-linecap:butt;stroke-linejoin:miter;stroke-dasharray:none"
     d="m 56.4437,34.478485 h 20.3006 c 0.6535,0 1.1882,0.15949 1.1882,0.35439 v 0 c 0,0.1948 -0.5347,0.3543 -1.1882,0.3543 H 56.4437 c -0.6537,0 -1.1884,-0.1595 -1.1884,-0.3543 v 0 c 0,-0.1949 0.5347,-0.35439 1.1884,-0.35439 z" />
  <path
     id="path26"
     style="fill:none;stroke:#1b1918;stroke-width:1.00009;stroke-linecap:butt;stroke-linejoin:miter;stroke-dasharray:none"
     d="m 56.4437,27.250255 h 20.3006 c 0.6535,0 1.1882,0.1594 1.1882,0.35429 v 0 c 0,0.19491 -0.5347,0.35431 -1.1882,0.35431 H 56.4437 c -0.6537,0 -1.1884,-0.1594 -1.1884,-0.35431 v 0 c 0,-0.19489 0.5347,-0.35429 1.1884,-0.35429 z" />
  <path
     id="path28"
     style="fill:none;stroke:#1b1918;stroke-width:1.00009;stroke-linecap:butt;stroke-linejoin:miter;stroke-dasharray:none"
     d="m 93.8565,49.019815 h 20.3006 c 0.6535,0 1.1882,0.15941 1.1882,0.3543 v 0 c 0,0.1949 -0.5347,0.3543 -1.1882,0.3543 H 93.8565 c -0.6537,0 -1.1884,-0.1594 -1.1884,-0.3543 v 0 c 0,-0.19489 0.5347,-0.3543 1.1884,-0.3543 z" />
  <path
     id="path30"
     style="fill:none;stroke:#1b1918;stroke-width:1.00009;stroke-linecap:butt;stroke-linejoin:miter;stroke-dasharray:none"
     d="m 93.8565,41.508105 h 20.3006 c 0.6535,0 1.1882,0.1594 1.1882,0.35429 v 0 c 0,0.19491 -0.5347,0.3543 -1.1882,0.3543 H 93.8565 c -0.6537,0 -1.1884,-0.15939 -1.1884,-0.3543 v 0 c 0,-0.19489 0.5347,-0.35429 1.1884,-0.35429 z" />
  <path
     id="path32"
     style="fill:none;stroke:#1b1918;stroke-width:1.00009;stroke-linecap:butt;stroke-linejoin:miter;stroke-dasharray:none"
     d="m 93.8565,34.421575 h 20.3006 c 0.6535,0 1.1882,0.1594 1.1882,0.35431 v 0 c 0,0.19489 -0.5347,0.35429 -1.1882,0.35429 H 93.8565 c -0.6537,0 -1.1884,-0.1594 -1.1884,-0.35429 v 0 c 0,-0.19491 0.5347,-0.35431 1.1884,-0.35431 z" />
  <path
     id="path34"
     style="fill:none;stroke:#1b1918;stroke-width:1.00009;stroke-linecap:butt;stroke-linejoin:miter;stroke-dasharray:none"
     d="m 93.8565,27.193255 h 20.3006 c 0.6535,0 1.1882,0.1595 1.1882,0.3543 v 0 c 0,0.1949 -0.5347,0.3544 -1.1882,0.3544 H 93.8565 c -0.6537,0 -1.1884,-0.1595 -1.1884,-0.3544 v 0 c 0,-0.1948 0.5347,-0.3543 1.1884,-0.3543 z" />
  <path
     id="path36"
     style="fill:#1b1918;fill-rule:evenodd;stroke-width:0.999995"
     d="m 13.8718,128.28606 h -1.9701 v -10.56168 l -4.9658,5.86314 -4.9656,-5.86314 v 10.56168 H 0 v -13.57125 h 2.0105 l 4.9254,5.80533 4.9254,-5.80533 h 2.0105 z m 12.3035,-13.59045 -4.5034,6.81462 v 6.77583 h -2.0102 v -6.77583 l -4.5034,-6.81462 h 2.3723 l 3.1363,4.73705 3.136,-4.73705 z m 18.9582,13.59045 H 43.123 l -8.7453,-10.54238 v 10.54238 h -1.9501 v -13.59045 h 2.0105 l 8.725,10.50358 v -10.50358 h 1.9704 z m 14.4949,-7.02812 c 0,-0.67309 -0.1408,-1.30739 -0.4223,-1.90288 -0.2815,-0.5952 -0.6636,-1.11639 -1.146,-1.56298 -0.4824,-0.4463 -1.042,-0.79909 -1.6785,-1.05799 -0.6369,-0.259 -1.3102,-0.3883 -2.0205,-0.3883 -0.7371,0 -1.4341,0.1293 -2.0909,0.3883 -0.6567,0.2589 -1.2298,0.60839 -1.719,1.04839 -0.4889,0.43999 -0.8745,0.95458 -1.1557,1.54349 -0.2815,0.58908 -0.4223,1.21348 -0.4223,1.87357 0,0.7507 0.1439,1.45628 0.4323,2.11637 0.2881,0.6602 0.6767,1.2361 1.1659,1.72778 0.4893,0.4921 1.0623,0.8803 1.7191,1.16509 0.6565,0.2846 1.3602,0.4271 2.1108,0.4271 0.7103,0 1.3805,-0.1425 2.0105,-0.4271 0.6297,-0.28479 1.1827,-0.67299 1.6583,-1.16509 0.4758,-0.49168 0.8545,-1.06128 1.136,-1.70847 0.2815,-0.6472 0.4223,-1.33959 0.4223,-2.07728 z m 2.0102,-0.0584 c 0,1.00959 -0.1943,1.96417 -0.583,2.86376 -0.3886,0.89949 -0.9146,1.68269 -1.5782,2.34918 -0.6633,0.66669 -1.4406,1.19419 -2.3319,1.58248 -0.8913,0.3883 -1.8396,0.58229 -2.8448,0.58229 -1.0053,0 -1.9535,-0.19399 -2.8445,-0.58229 -0.8913,-0.38829 -1.6689,-0.91579 -2.3322,-1.58248 -0.6634,-0.66649 -1.1896,-1.44969 -1.5783,-2.34918 -0.3886,-0.89959 -0.583,-1.85417 -0.583,-2.86376 0,-0.93199 0.1944,-1.80868 0.583,-2.63068 0.3887,-0.82189 0.9149,-1.54038 1.5783,-2.15507 0.6633,-0.6148 1.4409,-1.10349 2.3322,-1.46589 0.891,-0.3624 1.8392,-0.54379 2.8445,-0.54379 1.0052,0 1.9535,0.18139 2.8448,0.54379 0.8913,0.3624 1.6686,0.85109 2.3319,1.46589 0.6636,0.61469 1.1896,1.33318 1.5782,2.15507 0.3887,0.822 0.583,1.69869 0.583,2.63068 z m 13.7912,-6.50393 -5.6893,13.57095 h -1.5883 l -5.6893,-13.57095 h 2.151 l 4.3424,10.32889 4.3225,-10.32889 z m 10.1927,13.59044 h -8.8458 v -13.59044 h 8.4437 v 1.94127 h -6.4332 v 3.39787 h 4.8852 v 1.94138 h -4.8852 v 4.32955 h 6.8353 z m 9.9112,-0.0195 h -8.4036 v -13.59053 h 2.0105 v 11.64918 h 6.3931 z m 18.5359,-7.00862 c 0,-0.6731 -0.1408,-1.30739 -0.4223,-1.90289 -0.2815,-0.59519 -0.6636,-1.11638 -1.146,-1.56298 -0.4824,-0.44629 -1.042,-0.79909 -1.6786,-1.05798 -0.6368,-0.259 -1.3101,-0.3883 -2.0205,-0.3883 -0.7371,0 -1.434,0.1293 -2.0908,0.3883 -0.6568,0.25889 -1.2298,0.60839 -1.719,1.04838 -0.489,0.43999 -0.8745,0.95459 -1.1557,1.54349 -0.2815,0.58909 -0.4223,1.21349 -0.4223,1.87358 0,0.75069 0.1439,1.45628 0.4323,2.11637 0.288,0.6602 0.6767,1.2361 1.1659,1.72778 0.4892,0.4921 1.0622,0.8803 1.719,1.16509 0.6565,0.28459 1.3603,0.42709 2.1108,0.42709 0.7104,0 1.3805,-0.1425 2.0105,-0.42709 0.6297,-0.28479 1.1828,-0.67299 1.6584,-1.16509 0.4758,-0.49168 0.8545,-1.06128 1.136,-1.70848 0.2815,-0.64719 0.4223,-1.33958 0.4223,-2.07727 z m 2.0102,-0.0584 c 0,1.00959 -0.1943,1.96418 -0.583,2.86377 -0.3886,0.89949 -0.9146,1.68268 -1.5783,2.34917 -0.6633,0.6667 -1.4406,1.19419 -2.3319,1.58248 -0.8912,0.3883 -1.8395,0.5823 -2.8448,0.5823 -1.0052,0 -1.9535,-0.194 -2.8445,-0.5823 -0.8912,-0.38829 -1.6688,-0.91578 -2.3322,-1.58248 -0.6633,-0.66649 -1.1896,-1.44968 -1.5782,-2.34917 -0.3887,-0.89959 -0.583,-1.85418 -0.583,-2.86377 0,-0.93198 0.1943,-1.80867 0.583,-2.63067 0.3886,-0.82189 0.9149,-1.54038 1.5782,-2.15508 0.6634,-0.6148 1.441,-1.10348 2.3322,-1.46589 0.891,-0.36239 1.8393,-0.54379 2.8445,-0.54379 1.0053,0 1.9536,0.1814 2.8448,0.54379 0.8913,0.36241 1.6686,0.85109 2.3319,1.46589 0.6637,0.6147 1.1897,1.33319 1.5783,2.15508 0.3887,0.822 0.583,1.69869 0.583,2.63067 z m 14.314,7.08652 h -2.0105 l -8.7452,-10.54238 v 10.54238 H 117.688 V 114.6956 h 2.0105 l 8.725,10.50359 V 114.6956 h 1.9703 z m 10.6349,-0.0195 h -8.4036 v -13.59051 h 2.0105 v 11.64918 h 6.3931 z m 3.2366,0.0195 h -2.0102 V 114.6956 h 2.0102 z m 14.7363,0 h -2.0105 l -8.7453,-10.54238 v 10.54238 h -1.9501 V 114.6956 h 2.0106 l 8.725,10.50359 V 114.6956 h 1.9703 z m 11.0771,0 h -8.8458 V 114.6956 h 8.4438 v 1.94128 h -6.4333 v 3.39787 h 4.8852 v 1.94138 h -4.8852 v 4.32955 h 6.8353 z" />
  <path
     style="fill:none;stroke-width:0.221596"
     d="m 146.36412,121.54538 v -6.64788 h 0.96304 0.96304 l 4.29987,5.19515 c 2.36492,2.85733 4.37465,5.20071 4.46606,5.20751 0.0914,0.007 0.1662,-2.33103 0.1662,-5.19516 v -5.2075 h 0.88638 0.88638 v 6.64788 6.64788 h -0.9506 -0.95061 l -4.42309,-5.33477 -4.4231,-5.33476 -0.0593,5.33476 -0.0593,5.33477 h -0.88244 -0.88245 z"
     id="path901" />
  <path
     style="fill:#f9f9f9;fill-opacity:1;stroke:#9d9b9d;stroke-width:0.0844649;stroke-opacity:1"
     d="m 0,121.50272 v -6.75719 l 0.99246225,0.003 0.99246225,0.003 2.4494813,2.90675 c 1.3472147,1.59871 2.4753127,2.89939 2.5068845,2.8904 0.031572,-0.009 1.1542227,-1.30865 2.4947797,-2.88814 l 2.437377,-2.87181 0.989396,-0.0238 0.989396,-0.0238 v 6.75987 6.75987 h -0.970712 -0.970711 l -0.02175,-5.28934 -0.02175,-5.28934 -2.441738,2.88467 c -1.3429556,1.58657 -2.4722559,2.87401 -2.5095563,2.86098 -0.0373,-0.013 -1.1620562,-1.31601 -2.4994575,-2.89551 l -2.4316387,-2.8718 -0.021751,5.30017 -0.021751,5.30017 H 0.97071144 0 Z"
     id="path5802" />
  <path
     style="fill:#f9f9f9;fill-opacity:1;stroke:#9d9b9d;stroke-width:0.0844649;stroke-opacity:1"
     d="m 19.680315,124.84985 v -3.41005 l -2.118197,-3.19932 c -1.165008,-1.75963 -2.154584,-3.26584 -2.199058,-3.34714 -0.07522,-0.13751 -0.0026,-0.1475 1.04127,-0.14339 l 1.122131,0.004 1.453089,2.21278 c 0.799199,1.21702 1.507059,2.2864 1.573021,2.37639 0.111299,0.15184 0.234146,-0.008 1.706869,-2.2172 l 1.586937,-2.38082 h 1.084402 c 0.596421,0 1.084402,0.0225 1.084402,0.05 0,0.0275 -0.988239,1.54438 -2.196087,3.37078 l -2.196087,3.32072 v 3.38641 3.38642 h -0.971346 -0.971346 z"
     id="path5841" />
  <path
     style="fill:#f9f9f9;fill-opacity:1;stroke:#9d9b9d;stroke-width:0.0844649;stroke-opacity:1"
     d="m 32.434511,121.50272 v -6.75719 l 0.992462,0.002 0.992462,0.002 4.347279,5.23514 c 2.391004,2.87932 4.376984,5.23513 4.41329,5.23513 0.03631,0 0.06601,-2.35657 0.06601,-5.23682 v -5.23682 h 0.929113 0.929114 v 6.75719 6.75719 H 44.1379 43.171558 l -4.376061,-5.2745 -4.376062,-5.27449 -0.02175,5.27449 -0.02175,5.2745 h -0.970712 -0.970711 z"
     id="path5880" />
  <path
     style="fill:#f9f9f9;fill-opacity:1;stroke:#9d9b9d;stroke-width:0.0844649;stroke-opacity:1"
     d="m 52.87501,128.39048 c -2.766268,-0.59158 -4.964463,-2.73418 -5.666737,-5.52342 -0.261132,-1.03715 -0.206386,-2.64818 0.122427,-3.60266 0.61354,-1.78099 1.964581,-3.23999 3.794154,-4.09736 3.218676,-1.50832 7.213753,-0.49974 9.233826,2.33114 0.893491,1.25211 1.264465,2.51926 1.194389,4.0797 -0.07835,1.74475 -0.713058,3.24776 -1.954013,4.62718 -0.795855,0.88466 -2.235431,1.75396 -3.472149,2.0967 -0.695542,0.19275 -2.531225,0.24284 -3.251897,0.0887 z m 3.197674,-1.98979 c 0.777208,-0.27441 1.720602,-0.93858 2.263545,-1.59358 0.525977,-0.63454 1.067525,-1.69538 1.203896,-2.35832 0.114718,-0.55767 0.116069,-1.79543 0.0025,-2.28807 -0.393864,-1.70844 -2.124136,-3.33207 -3.96474,-3.72039 -0.658475,-0.13892 -2.056505,-0.11885 -2.660644,0.0382 -1.602867,0.41667 -2.885546,1.45167 -3.557198,2.87033 -1.295502,2.73637 0.506946,6.30135 3.609231,7.13855 0.854183,0.23051 2.320989,0.18953 3.103409,-0.0867 z"
     id="path5919" />
  <path
     style="fill:#f9f9f9;fill-opacity:1;stroke:#9d9b9d;stroke-width:0.0844649;stroke-opacity:1"
     d="m 65.396927,121.5656 c -1.544651,-3.68473 -2.808457,-6.72664 -2.808457,-6.75979 0,-0.0332 0.44852,-0.0603 0.99671,-0.0603 h 0.99671 l 2.151172,5.11834 c 1.183145,2.81509 2.188477,5.1073 2.234072,5.09381 0.04559,-0.0135 1.0376,-2.30724 2.204458,-5.09722 l 2.121559,-5.0727 1.024758,-0.0237 c 0.563616,-0.013 1.024237,-0.013 1.0236,0 -6.36e-4,0.013 -1.268417,3.04544 -2.81729,6.73867 l -2.816132,6.71496 -0.751352,0.0237 -0.751351,0.0237 z"
     id="path5958" />
  <path
     style="fill:#f9f9f9;fill-opacity:1;stroke:#9d9b9d;stroke-width:0.0844649;stroke-opacity:1"
     d="m 76.778569,121.50272 v -6.75719 h 4.181011 4.181011 v 0.92911 0.92912 h -3.209665 -3.209665 v 1.73153 1.73153 h 2.449481 2.449481 v 0.92911 0.92911 h -2.449481 -2.449481 v 2.19609 2.19609 h 3.420827 3.420827 v 0.97134 0.97135 h -4.392173 -4.392173 z"
     id="path5997" />
  <path
     style="fill:#f9f9f9;fill-opacity:1;stroke:#9d9b9d;stroke-width:0.0844649;stroke-opacity:1"
     d="m 87.167748,121.50272 v -6.75719 h 0.971346 0.971346 v 5.82807 5.82808 h 3.209665 3.209665 v 0.92911 0.92912 h -4.181011 -4.181011 z"
     id="path6036" />
  <path
     style="fill:#f9f9f9;fill-opacity:1;stroke:#9d9b9d;stroke-width:0.0844649;stroke-opacity:1"
     d="m 58.280762,142.76862 v -0.97228 l 9.861274,-0.0578 c 5.4237,-0.0318 15.543648,-0.0933 22.488772,-0.13659 6.945124,-0.0433 14.575472,-0.0793 16.956322,-0.0799 l 4.32883,-0.001 v 0.9193 0.91929 l -2.97739,0.0509 c -1.63756,0.028 -10.921309,0.0893 -20.630546,0.13607 -9.709237,0.0468 -20.437332,0.10971 -23.84021,0.13977 l -6.187052,0.0546 z"
     id="path6075" />
  <path
     style="fill:#f9f9f9;fill-opacity:1;stroke:#9d9b9d;stroke-width:0.0874461;stroke-opacity:1"
     d="m 107.39039,128.4123 c -3.24546,-0.6814 -5.66984,-3.43596 -5.91806,-6.72406 -0.23911,-3.16743 2.04422,-6.11698 5.43053,-7.01504 0.98856,-0.26216 2.68856,-0.26155 3.67274,0.001 3.59505,0.96027 5.90661,4.19056 5.38544,7.5259 -0.26258,1.68052 -0.89497,2.90404 -2.14993,4.1596 -0.71506,0.71541 -1.01792,0.94904 -1.66148,1.28173 -1.23948,0.64076 -1.81473,0.78905 -3.19178,0.82282 -0.64929,0.0159 -1.35464,-0.008 -1.56746,-0.0523 z m 2.661,-1.88158 c 0.97333,-0.25352 1.6051,-0.63004 2.40656,-1.43425 0.84838,-0.85129 1.31383,-1.66817 1.52889,-2.68321 0.36997,-1.74626 -0.0691,-3.20613 -1.35331,-4.50012 -1.08476,-1.09298 -2.23792,-1.56322 -3.83795,-1.56506 -1.59794,-0.002 -2.82619,0.47346 -3.92824,1.52009 -1.62096,1.53944 -1.94454,3.69134 -0.87581,5.82435 0.67849,1.35414 2.08841,2.48414 3.53713,2.83488 0.68998,0.16705 1.88809,0.16862 2.52273,0.003 z"
     id="path6114" />
  <path
     style="fill:#f9f9f9;fill-opacity:1;stroke:#9d9b9d;stroke-width:0.0874461;stroke-opacity:1"
     d="m 117.70246,121.50636 v -6.73335 h 0.99389 0.9939 l 4.36218,5.24934 4.36218,5.24934 0.0225,-5.24934 0.0225,-5.24934 h 0.96123 0.96122 v 6.73335 6.73335 h -0.98464 -0.98464 l -4.27721,-5.16113 c -2.35246,-2.83862 -4.32944,-5.20448 -4.39329,-5.25747 -0.0963,-0.0799 -0.11609,0.80131 -0.11609,5.16113 v 5.25747 h -0.9619 -0.96191 z"
     id="path6153" />
  <path
     style="fill:#f9f9f9;fill-opacity:1;stroke:#9d9b9d;stroke-width:0.0874461;stroke-opacity:1"
     d="m 132.65574,121.46264 v -6.77707 h 0.96191 0.96191 v 5.85889 5.85889 h 3.19178 3.19178 v 0.91818 0.91818 h -4.15369 -4.15369 z"
     id="path6192" />
  <path
     style="fill:#f9f9f9;fill-opacity:1;stroke:#9d9b9d;stroke-width:0.0874461;stroke-opacity:1"
     d="m 142.27481,121.50636 v -6.73335 h 0.96191 0.96191 v 6.73335 6.73335 h -0.96191 -0.96191 z"
     id="path6231" />
  <path
     style="fill:#f9f9f9;fill-opacity:1;stroke:#9d9b9d;stroke-width:0.0874461;stroke-opacity:1"
     d="m 146.29734,121.50636 v -6.73335 h 1.00076 1.00077 l 4.35531,5.24273 4.3553,5.24272 0.0225,-5.24272 0.0225,-5.24273 h 0.96123 0.96122 v 6.73335 6.73335 l -0.98377,-0.002 -0.98377,-0.002 -4.32858,-5.23899 c -2.38072,-2.88144 -4.35809,-5.24148 -4.39417,-5.24453 -0.0361,-0.003 -0.0656,2.3555 -0.0656,5.24122 v 5.24676 h -0.96191 -0.9619 z"
     id="path6270" />
  <path
     style="fill:#f9f9f9;fill-opacity:1;stroke:#9d9b9d;stroke-width:0.0874461;stroke-opacity:1"
     d="m 161.25062,121.50636 v -6.73335 h 4.19741 4.19742 v 0.91819 0.91818 h -3.23551 -3.23551 v 1.74892 1.74893 h 2.44849 2.4485 v 0.91818 0.91818 h -2.4485 -2.44849 v 2.18616 2.18615 h 3.4104 3.4104 v 0.96191 0.9619 h -4.37231 -4.3723 z"
     id="path6309" />
  <path
     style="fill:#f9f9f9;fill-opacity:1;stroke:#9d9b9d;stroke-width:0.0874461;stroke-opacity:1"
     d="M 155.04195,95.010194 V 85.828353 H 88.233121 21.424296 V 84.866446 83.904539 H 88.233121 155.04195 V 65.01618 46.127821 h 0.9619 0.96191 v 29.032107 29.032112 h -0.96191 -0.9619 z"
     id="path6348" />
  <path
     style="fill:#f9f9f9;fill-opacity:1;stroke:#9d9b9d;stroke-width:0.0874461;stroke-opacity:1"
     d="m 84.298046,101.68594 c -2.26479,-0.29794 -4.219514,-1.66708 -5.192579,-3.637023 -0.529779,-1.072521 -0.698172,-1.795961 -0.697137,-2.995 10e-4,-1.174303 0.218096,-2.047349 0.755963,-3.040281 0.882009,-1.628234 2.366194,-2.819481 4.128123,-3.313344 0.980864,-0.274933 2.429534,-0.274933 3.410398,0 1.761929,0.493863 3.246113,1.68511 4.128123,3.313344 0.548173,1.011957 0.756983,1.864091 0.755714,3.084004 -0.0013,1.217147 -0.145181,1.82167 -0.707811,2.973168 -0.347383,0.710969 -0.526388,0.951223 -1.241611,1.666446 -0.712758,0.712756 -0.957927,0.895756 -1.666446,1.243886 -0.456906,0.2245 -1.086518,0.46662 -1.399138,0.53805 -0.6279,0.14346 -1.798193,0.22929 -2.273599,0.16675 z m 1.686561,-1.995005 c 1.276017,-0.270385 2.483799,-1.142808 3.108163,-2.245134 0.339895,-0.600091 0.626935,-1.675187 0.626935,-2.348161 0,-0.627525 -0.277208,-1.723076 -0.573944,-2.268278 -0.538286,-0.989008 -1.542923,-1.828465 -2.638282,-2.204501 -0.472095,-0.16207 -0.777254,-0.203123 -1.509864,-0.203123 -1.08945,0 -1.798864,0.204124 -2.623715,0.754939 -0.984994,0.657754 -1.624106,1.569892 -1.925393,2.747912 -0.420487,1.644088 0.03115,3.29497 1.229171,4.492988 1.150734,1.150734 2.710015,1.611743 4.306929,1.273358 z"
     id="path6387" />
  <path
     style="fill:#f9f9f9;fill-opacity:1;stroke:#9d9b9d;stroke-width:0.151388;stroke-opacity:1"
     d="m 13.322164,55.037071 c 0,-35.870358 0.04614,-49.4109956 0.170351,-49.9959611 C 13.994109,2.6789416 15.931084,0.70493916 18.208308,0.23517048 18.768332,0.11964307 38.444797,0.0835987 85.610041,0.11170047 l 66.610819,0.0396877 1.01783,0.48216847 c 1.95077,0.92412106 3.26782,2.63052716 3.60058,4.66503106 0.0918,0.5610233 0.1489,8.5056503 0.14944,20.7780343 l 8.8e-4,19.869704 h -0.98403 -0.98402 l -0.002,-20.399563 -0.002,-20.3995635 -0.35323,-0.7569411 C 154.27384,3.551303 153.3138,2.601884 152.46907,2.2182659 151.95933,1.9867773 146.92055,1.9680469 85.155876,1.9680469 H 18.393669 l -0.681247,0.320098 c -0.855249,0.4018567 -1.709734,1.2594778 -2.154781,2.1626907 l -0.343125,0.696364 -0.03954,39.3987854 -0.03954,39.398785 h 3.105151 3.105152 v 0.908329 0.90833 H 18.24228 15.138821 v 9.234681 9.23468 h -0.908329 -0.908329 z"
     id="path6465" />
  <path
     style="fill:#f9f9f9;fill-opacity:1;stroke:#9d9b9d;stroke-width:0.151388;stroke-opacity:1"
     d="m 82.653899,75.584967 c -1.661078,-0.580548 -3.12943,-1.870123 -4.104207,-3.604504 L 78.211958,71.379548 H 59.768107 41.324256 l 0.04021,-23.124552 c 0.04456,-25.624427 -0.04147,-23.552917 1.02881,-24.771903 0.899872,-1.024897 1.452159,-1.205923 3.893671,-1.276249 l 2.157283,-0.06214 v -1.92062 -1.920619 l 1.346832,-0.170002 c 0.92226,-0.11641 2.342027,-0.504496 4.503799,-1.231089 5.086431,-1.709599 8.426314,-2.232843 13.375673,-2.095505 4.405387,0.122244 7.373044,0.670695 12.233844,2.260928 2.536616,0.829865 2.988306,0.932375 4.366579,0.99099 2.04629,0.08702 3.335695,-0.188605 6.677687,-1.427446 4.498497,-1.667545 7.643984,-2.23593 12.373816,-2.23593 4.57726,0 8.48188,0.715603 13.17078,2.413814 2.29719,0.831992 3.47856,1.122753 4.57949,1.127124 l 0.79479,0.0032 v 2.119435 2.119435 h 1.48641 c 1.99051,0 2.89412,0.276769 3.73781,1.144861 1.22338,1.258764 1.13409,-0.715368 1.13409,25.07227 v 22.984042 l -18.43152,0.0014 -18.431519,0.0014 -0.584758,0.907602 c -0.85257,1.323273 -2.089747,2.490589 -3.239582,3.056651 -0.876959,0.431726 -1.169786,0.496022 -2.446333,0.537145 -1.201159,0.03869 -1.619769,-0.01258 -2.438221,-0.298627 z m 4.211376,-1.915797 c 0.85405,-0.439247 1.712349,-1.313197 2.528065,-2.574166 0.364399,-0.563303 0.77971,-1.12144 0.922915,-1.240304 0.221724,-0.184038 2.919787,-0.222095 18.176645,-0.256389 l 17.91627,-0.04027 V 47.604309 c 0,-23.669177 0.0342,-22.644492 -0.77464,-23.21102 -0.27526,-0.192802 -0.72635,-0.246867 -2.05973,-0.246867 h -1.70728 l -0.001,20.702339 c -7.6e-4,11.386287 -0.0453,21.06891 -0.0991,21.51694 l -0.0978,0.814599 -1.14983,-0.09655 c -1.38579,-0.116368 -1.81429,-0.227874 -4.25242,-1.106595 -2.48867,-0.896935 -5.12638,-1.611619 -7.51984,-2.037492 -1.63635,-0.29116 -2.48005,-0.346204 -5.34902,-0.348977 -4.952145,-0.0048 -7.174648,0.387434 -11.953168,2.109462 -3.844199,1.385329 -4.386378,1.504587 -6.76388,1.487777 -1.965808,-0.0139 -2.011885,-0.02223 -4.011788,-0.725621 -6.49464,-2.284238 -10.001875,-2.924793 -15.106843,-2.759088 -4.196153,0.136205 -6.874069,0.668794 -10.822326,2.152363 -2.253313,0.846691 -3.998715,1.323651 -5.501132,1.503281 l -0.794741,0.09503 V 45.800152 24.146422 h -2.041353 c -2.0181,0 -2.046715,0.0048 -2.512097,0.42061 -0.321617,0.287365 -0.512119,0.635064 -0.601349,1.097565 -0.07183,0.372325 -0.13357,10.400663 -0.137196,22.285198 l -0.0066,21.608242 17.92364,0.04027 c 17.356108,0.039 17.933687,0.04936 18.240929,0.327442 0.17451,0.157943 0.497897,0.600754 0.718639,0.984023 1.343231,2.332219 2.824825,3.255634 5.05133,3.148279 0.789309,-0.03806 1.333451,-0.156601 1.785093,-0.388885 z M 52.758796,64.616005 c 0.832635,-0.292165 2.263254,-0.79576 3.179153,-1.119101 3.101301,-1.09486 6.738396,-1.654815 10.748564,-1.654815 4.891804,0 8.584588,0.737786 14.684657,2.933865 0.832636,0.299756 1.758111,0.545698 2.056612,0.546539 l 0.54273,0.0015 0.100586,-14.873893 c 0.05532,-8.180642 0.100623,-18.389496 0.10067,-22.686342 l 8.4e-5,-7.812453 -0.946176,-0.09008 c -0.527296,-0.0502 -2.152554,-0.488589 -3.671164,-0.990235 -5.130364,-1.694722 -8.052578,-2.198209 -12.792305,-2.20407 -4.920301,-0.0061 -7.563037,0.444391 -12.286773,2.094378 -1.285098,0.448881 -2.759093,0.899279 -3.275543,1.000884 L 50.26089,19.946944 V 42.64751 65.348076 l 0.492012,-0.100433 c 0.270606,-0.05524 1.173259,-0.339474 2.005894,-0.631638 z m 35.954703,0.103021 c 0.70774,-0.234505 2.243678,-0.767249 3.413195,-1.183876 3.569952,-1.271753 7.046199,-1.844449 11.195766,-1.844449 4.42462,0 7.61204,0.586171 12.97732,2.386551 1.89193,0.634855 3.46895,1.123998 3.50449,1.086984 0.0355,-0.03701 0.0885,-10.266981 0.11776,-22.73326 l 0.0531,-22.665959 -0.75694,-0.159924 c -0.41632,-0.08796 -1.71069,-0.505656 -2.87638,-0.928215 -4.64848,-1.685066 -8.65068,-2.442467 -12.94369,-2.449548 -4.369182,-0.0072 -7.686194,0.583517 -11.73259,2.089447 -2.537481,0.944363 -3.771081,1.315785 -5.033659,1.515576 l -0.6434,0.101812 v 22.712116 22.712116 l 0.719094,-0.106498 c 0.395502,-0.05857 1.298154,-0.298367 2.005894,-0.532873 z"
     id="path6504" />
  <path
     style="fill:#f9f9f9;fill-opacity:1;stroke:#9d9b9d;stroke-width:0.151388;stroke-opacity:1"
     d="m 92.861485,49.969023 c -0.960862,-0.418288 -0.704594,-1.114059 0.482086,-1.308873 0.970659,-0.159351 20.349619,-0.159351 21.320279,0 1.2292,0.201795 1.44345,0.984158 0.37181,1.357734 -0.76394,0.266308 -21.555432,0.220494 -22.174175,-0.04886 z"
     id="path6543" />
  <path
     style="fill:#f9f9f9;fill-opacity:1;stroke:#9d9b9d;stroke-width:0.151388;stroke-opacity:1"
     d="m 92.800981,42.419847 c -0.248039,-0.125487 -0.37847,-0.318825 -0.37847,-0.561003 0,-0.755429 -0.04543,-0.752478 11.581199,-0.752478 8.40541,0 10.90883,0.04264 11.20273,0.190793 0.50553,0.254846 0.56584,0.769068 0.12632,1.076926 -0.30833,0.215962 -1.50624,0.241462 -11.24919,0.239468 -8.487265,-0.0017 -10.988005,-0.04467 -11.282589,-0.193706 z"
     id="path6582" />
  <path
     style="fill:#f9f9f9;fill-opacity:1;stroke:#9d9b9d;stroke-width:0.151388;stroke-opacity:1"
     d="m 92.68744,35.31577 c -0.201941,-0.09739 -0.340623,-0.301403 -0.340623,-0.501076 0,-0.772817 -0.318216,-0.752344 11.693533,-0.752344 h 11.19284 l 0.28181,0.348022 c 0.33609,0.415051 0.26301,0.685296 -0.24832,0.918273 -0.51982,0.236847 -22.086946,0.224549 -22.57924,-0.01288 z"
     id="path6621" />
  <path
     style="fill:#f9f9f9;fill-opacity:1;stroke:#9d9b9d;stroke-width:0.151388;stroke-opacity:1"
     d="m 93.111154,28.2313 c -1.070861,-0.252105 -1.09682,-1.059884 -0.04346,-1.352422 0.776206,-0.215567 21.095826,-0.215567 21.872036,0 1.09139,0.3031 1.0239,1.095497 -0.11582,1.359735 -0.74043,0.171666 -20.981467,0.164848 -21.712754,-0.0073 z"
     id="path6660" />
  <path
     style="fill:#f9f9f9;fill-opacity:1;stroke:#9d9b9d;stroke-width:0.151388;stroke-opacity:1"
     d="m 55.478528,28.243251 c -0.749084,-0.308518 -0.812341,-0.889362 -0.130681,-1.199948 0.27039,-0.123197 3.47502,-0.171893 11.312104,-0.171893 9.651866,0 10.974315,0.02765 11.271299,0.235666 0.185054,0.129617 0.336462,0.359712 0.336462,0.511322 0,0.699618 0.163189,0.689372 -11.490848,0.72146 -6.044667,0.01664 -11.128918,-0.02683 -11.298336,-0.09661 z"
     id="path6777" />
  <path
     style="fill:#f9f9f9;fill-opacity:1;stroke:#9d9b9d;stroke-width:0.151388;stroke-opacity:1"
     d="m 55.60082,35.483462 c -0.268685,-0.07764 -0.559776,-0.274305 -0.64687,-0.437042 -0.263707,-0.492742 0.261928,-0.864338 1.386822,-0.980408 0.527819,-0.05446 5.524026,-0.07757 11.102682,-0.05134 11.012747,0.05177 10.889137,0.04201 10.795483,0.852651 -0.08767,0.758834 -0.226604,0.767944 -11.628119,0.762408 -6.038668,-0.0029 -10.72962,-0.06525 -11.009998,-0.146267 z"
     id="path6816" />
  <path
     style="fill:#f9f9f9;fill-opacity:1;stroke:#9d9b9d;stroke-width:0.151388;stroke-opacity:1"
     d="m 55.798927,42.620964 c -1.090979,-0.215531 -1.219243,-1.00343 -0.220054,-1.351749 0.704403,-0.245557 21.357428,-0.217062 22.083286,0.03047 0.405461,0.138269 0.540874,0.276041 0.576778,0.586826 0.09418,0.815227 0.2608,0.802959 -11.249648,0.828307 -5.828447,0.01284 -10.86411,-0.0294 -11.190362,-0.09385 z"
     id="path6855" />
  <path
     style="fill:#f9f9f9;fill-opacity:1;stroke:#9d9b9d;stroke-width:0.151388;stroke-opacity:1"
     d="m 55.30338,50.004368 c -0.664308,-0.321021 -0.593515,-0.915578 0.139438,-1.171087 0.313364,-0.10924 3.968717,-0.161241 11.228438,-0.159735 11.561131,0.0024 11.520762,-2.48e-4 11.520762,0.754709 0,0.756498 0.05362,0.753074 -11.656894,0.744463 -7.346393,-0.0054 -11.008121,-0.06029 -11.231744,-0.16835 z"
     id="path6894" />
</svg>
