<?xml version="1.0" encoding="UTF-8"?>
<svg width="170.08" height="143.75" version="1.1" viewBox="0 0 170.08 143.75" xmlns="http://www.w3.org/2000/svg" xmlns:cc="http://creativecommons.org/ns#" xmlns:dc="http://purl.org/dc/elements/1.1/" xmlns:rdf="http://www.w3.org/1999/02/22-rdf-syntax-ns#">
 <metadata>
  <rdf:RDF>
   <cc:Work rdf:about="">
    <dc:format>image/svg+xml</dc:format>
    <dc:type rdf:resource="http://purl.org/dc/dcmitype/StillImage"/>
   </cc:Work>
  </rdf:RDF>
 </metadata>
 <g fill="none" stroke="#1b1918">
  <g stroke-width="2.0001">
   <path d="m156.01 84.216v20.032"/>
   <path d="m14.274 84.216v20.032"/>
   <path d="m19.446 1h131.39c2.8451 0 5.1724 2.3352 5.1724 5.1901v78.701h-141.73v-78.701c0-2.855 2.3272-5.1901 5.1724-5.1901z"/>
   <path d="m84.998 89.424c3.1309 0 5.6693 2.5384 5.6693 5.6692 0 3.1308-2.5384 5.6692-5.6693 5.6692s-5.6693-2.5385-5.6693-5.6692c0-3.1309 2.5384-5.6692 5.6693-5.6692z"/>
   <path d="m58.203 142.75 53.736-0.3063"/>
   <path d="m84.754 23.157h0.1196m35.745 0h4.0584c1.4615 0 2.6575 1.331 2.6575 2.958v44.374c-3.3761 0-36.195-0.0602-36.446 0.0333-0.4901 0.18311-2.0469 5.0826-6.812 4.4776-3.9016-0.49489-4.9045-4.2202-5.3878-4.4569-0.2834-0.13889-33.007-0.0539-36.394-0.0539v-44.374c0-1.627 1.1959-2.958 2.6575-2.958h4.1655"/>
   <path d="m48.413 19.187c3.9725-0.0762 6.2655-1.84 10.437-2.7008 7.9756-1.6455 14.697-0.8 22.247 1.9408 1.6625 0.6035 2.3842 0.5908 4.174 0.595"/>
   <path d="m120.91 18.854-0.0349 47.317m-35.83-47.14-0.0348 47.317m-35.601-47.189-0.0349 47.317m35.671-47.445c3.9725-0.0816 6.2654-1.9679 10.437-2.8886 7.9756-1.7598 14.697-0.85549 22.247 2.0758 1.6722 0.63749 2.4375 0.63329 4.174 0.6363m-73.52 47.621c3.9724-0.0815 6.2654-1.9678 10.437-2.8885 7.9755-1.7599 14.697-0.85549 22.247 2.0758 1.6625 0.64539 2.3842 0.63179 4.174 0.63629m-0.2293 0.0485c3.9724-0.0815 6.2654-1.9678 10.436-2.8885 7.9756-1.7599 14.697-0.8556 22.247 2.0757 1.6626 0.64549 2.3843 0.6318 4.174 0.6364"/>
  </g>
  <g stroke-width="1.0001">
   <path d="m56.444 49.077h20.301c0.6535 0 1.1882 0.15939 1.1882 0.3543 0 0.19489-0.5347 0.35429-1.1882 0.35429h-20.301c-0.6537 0-1.1884-0.1594-1.1884-0.35429 0-0.19491 0.5347-0.3543 1.1884-0.3543z"/>
   <path d="m56.444 41.565h20.301c0.6535 0 1.1882 0.15949 1.1882 0.3544 0 0.19489-0.5347 0.35429-1.1882 0.35429h-20.301c-0.6537 0-1.1884-0.1594-1.1884-0.35429 0-0.19491 0.5347-0.3544 1.1884-0.3544z"/>
   <path d="m56.444 34.478h20.301c0.6535 0 1.1882 0.15949 1.1882 0.35439 0 0.1948-0.5347 0.3543-1.1882 0.3543h-20.301c-0.6537 0-1.1884-0.1595-1.1884-0.3543 0-0.1949 0.5347-0.35439 1.1884-0.35439z"/>
   <path d="m56.444 27.25h20.301c0.6535 0 1.1882 0.1594 1.1882 0.35429 0 0.19491-0.5347 0.35431-1.1882 0.35431h-20.301c-0.6537 0-1.1884-0.1594-1.1884-0.35431 0-0.19489 0.5347-0.35429 1.1884-0.35429z"/>
   <path d="m93.856 49.02h20.301c0.6535 0 1.1882 0.15941 1.1882 0.3543 0 0.1949-0.5347 0.3543-1.1882 0.3543h-20.301c-0.6537 0-1.1884-0.1594-1.1884-0.3543 0-0.19489 0.5347-0.3543 1.1884-0.3543z"/>
   <path d="m93.856 41.508h20.301c0.6535 0 1.1882 0.1594 1.1882 0.35429 0 0.19491-0.5347 0.3543-1.1882 0.3543h-20.301c-0.6537 0-1.1884-0.15939-1.1884-0.3543 0-0.19489 0.5347-0.35429 1.1884-0.35429z"/>
   <path d="m93.856 34.422h20.301c0.6535 0 1.1882 0.1594 1.1882 0.35431 0 0.19489-0.5347 0.35429-1.1882 0.35429h-20.301c-0.6537 0-1.1884-0.1594-1.1884-0.35429 0-0.19491 0.5347-0.35431 1.1884-0.35431z"/>
   <path d="m93.856 27.193h20.301c0.6535 0 1.1882 0.1595 1.1882 0.3543 0 0.1949-0.5347 0.3544-1.1882 0.3544h-20.301c-0.6537 0-1.1884-0.1595-1.1884-0.3544 0-0.1948 0.5347-0.3543 1.1884-0.3543z"/>
  </g>
 </g>
 <path d="m13.872 128.29h-1.9701v-10.562l-4.9658 5.8631-4.9656-5.8631v10.562h-1.9703v-13.571h2.0105l4.9254 5.8053 4.9254-5.8053h2.0105zm12.304-13.59-4.5034 6.8146v6.7758h-2.0102v-6.7758l-4.5034-6.8146h2.3723l3.1363 4.737 3.136-4.737zm18.958 13.59h-2.0105l-8.7453-10.542v10.542h-1.9501v-13.59h2.0105l8.725 10.504v-10.504h1.9704zm14.495-7.0281c0-0.67309-0.1408-1.3074-0.4223-1.9029-0.2815-0.5952-0.6636-1.1164-1.146-1.563-0.4824-0.4463-1.042-0.79909-1.6785-1.058-0.6369-0.259-1.3102-0.3883-2.0205-0.3883-0.7371 0-1.4341 0.1293-2.0909 0.3883-0.6567 0.2589-1.2298 0.60839-1.719 1.0484-0.4889 0.43999-0.8745 0.95458-1.1557 1.5435-0.2815 0.58908-0.4223 1.2135-0.4223 1.8736 0 0.7507 0.1439 1.4563 0.4323 2.1164 0.2881 0.6602 0.6767 1.2361 1.1659 1.7278 0.4893 0.4921 1.0623 0.8803 1.7191 1.1651 0.6565 0.2846 1.3602 0.4271 2.1108 0.4271 0.7103 0 1.3805-0.1425 2.0105-0.4271 0.6297-0.28479 1.1827-0.67299 1.6583-1.1651 0.4758-0.49168 0.8545-1.0613 1.136-1.7085 0.2815-0.6472 0.4223-1.3396 0.4223-2.0773zm2.0102-0.0584c0 1.0096-0.1943 1.9642-0.583 2.8638-0.3886 0.89949-0.9146 1.6827-1.5782 2.3492-0.6633 0.66669-1.4406 1.1942-2.3319 1.5825-0.8913 0.3883-1.8396 0.58229-2.8448 0.58229-1.0053 0-1.9535-0.19399-2.8445-0.58229-0.8913-0.38829-1.6689-0.91579-2.3322-1.5825-0.6634-0.66649-1.1896-1.4497-1.5783-2.3492-0.3886-0.89959-0.583-1.8542-0.583-2.8638 0-0.93199 0.1944-1.8087 0.583-2.6307 0.3887-0.82189 0.9149-1.5404 1.5783-2.1551 0.6633-0.6148 1.4409-1.1035 2.3322-1.4659 0.891-0.3624 1.8392-0.54379 2.8445-0.54379 1.0052 0 1.9535 0.18139 2.8448 0.54379s1.6686 0.85109 2.3319 1.4659c0.6636 0.61469 1.1896 1.3332 1.5782 2.1551 0.3887 0.822 0.583 1.6987 0.583 2.6307zm13.791-6.5039-5.6893 13.571h-1.5883l-5.6893-13.571h2.151l4.3424 10.329 4.3225-10.329zm10.193 13.59h-8.8458v-13.59h8.4437v1.9413h-6.4332v3.3979h4.8852v1.9414h-4.8852v4.3296h6.8353zm9.9112-0.0195h-8.4036v-13.591h2.0105v11.649h6.3931zm18.536-7.0086c0-0.6731-0.1408-1.3074-0.4223-1.9029-0.2815-0.59519-0.6636-1.1164-1.146-1.563-0.4824-0.44629-1.042-0.79909-1.6786-1.058-0.6368-0.259-1.3101-0.3883-2.0205-0.3883-0.7371 0-1.434 0.1293-2.0908 0.3883-0.6568 0.25889-1.2298 0.60839-1.719 1.0484-0.489 0.43999-0.8745 0.95459-1.1557 1.5435-0.2815 0.58909-0.4223 1.2135-0.4223 1.8736 0 0.75069 0.1439 1.4563 0.4323 2.1164 0.288 0.6602 0.6767 1.2361 1.1659 1.7278 0.4892 0.4921 1.0622 0.8803 1.719 1.1651 0.6565 0.28459 1.3603 0.42709 2.1108 0.42709 0.7104 0 1.3805-0.1425 2.0105-0.42709 0.6297-0.28479 1.1828-0.67299 1.6584-1.1651 0.4758-0.49168 0.8545-1.0613 1.136-1.7085 0.2815-0.64719 0.4223-1.3396 0.4223-2.0773zm2.0102-0.0584c0 1.0096-0.1943 1.9642-0.583 2.8638-0.3886 0.89949-0.9146 1.6827-1.5783 2.3492-0.6633 0.6667-1.4406 1.1942-2.3319 1.5825-0.8912 0.3883-1.8395 0.5823-2.8448 0.5823-1.0052 0-1.9535-0.194-2.8445-0.5823-0.8912-0.38829-1.6688-0.91578-2.3322-1.5825-0.6633-0.66649-1.1896-1.4497-1.5782-2.3492-0.3887-0.89959-0.583-1.8542-0.583-2.8638 0-0.93198 0.1943-1.8087 0.583-2.6307 0.3886-0.82189 0.9149-1.5404 1.5782-2.1551 0.6634-0.6148 1.441-1.1035 2.3322-1.4659 0.891-0.36239 1.8393-0.54379 2.8445-0.54379 1.0053 0 1.9536 0.1814 2.8448 0.54379 0.8913 0.36241 1.6686 0.85109 2.3319 1.4659 0.6637 0.6147 1.1897 1.3332 1.5783 2.1551 0.3887 0.822 0.583 1.6987 0.583 2.6307zm14.314 7.0865h-2.0105l-8.7452-10.542v10.542h-1.9501v-13.59h2.0105l8.725 10.504v-10.504h1.9703zm10.635-0.0195h-8.4036v-13.591h2.0105v11.649h6.3931zm3.2366 0.0195h-2.0102v-13.59h2.0102zm14.736 0h-2.0105l-8.7453-10.542v10.542h-1.9501v-13.59h2.0106l8.725 10.504v-10.504h1.9703zm11.077 0h-8.8458v-13.59h8.4438v1.9413h-6.4333v3.3979h4.8852v1.9414h-4.8852v4.3296h6.8353z" fill="#1b1918" fill-rule="evenodd"/>
</svg>
