<?xml version="1.0" encoding="utf-8"?>
<!-- Generator: Adobe Illustrator 24.2.0, SVG Export Plug-In . SVG Version: 6.00 Build 0)  -->
<svg version="1.1" id="Layer_2" xmlns="http://www.w3.org/2000/svg" xmlns:xlink="http://www.w3.org/1999/xlink" x="0px" y="0px"
	 viewBox="0 0 500 500" style="enable-background:new 0 0 500 500;" xml:space="preserve">
<path d="M251.9,417.8c-43.5,0.2-86.9,0.7-130.4,0.2c-10.9-0.1-21.7-0.8-31.9-5.3c-13.5-5.9-23.5-15-25.3-30.3
	c-1.8-15.1,4.1-27.6,15.3-37.6c11.1-9.9,24.5-14.6,38.9-16.7c21.5-3.1,43.1-2.8,64.7-3c53.8-0.4,107.6,1.5,161.4,4.3
	c14.8,0.8,29.7,1.4,44.5,2.2c2,0.1,4.4,0,4.1,3c-0.3,2.6-2.4,2.4-4.3,2.3c-6.8-0.4-6.9-0.4-9.8,5.9c-9.9,21.6-11.7,43.8-4.7,66.7
	c0.7,2.3,1.6,3.2,4.1,3.1c4.1-0.2,8.2-0.1,12.4-0.1c1.9,0,4.1-0.1,4.1,2.6c0,2.7-2.1,2.6-4,2.6c-17.4,0.1-34.7,0.3-52.1,0.3
	C309.9,417.9,280.9,417.8,251.9,417.8z M120.5,342.3c0.8,0.6,1.5,1.5,0.5,2.5c-0.9,0.9-1.5,0-2.2-0.5c-1.5-1.2-2.5-3.9-4.4-3.5
	c-1.7,0.4-2.9,2.5-4.4,3.9c-0.2,0.2-0.3,0.4-0.5,0.5c-2,1.4-2.5,2.9-0.2,4.5c1.4,1,1.5,2.2,0.3,3.4c-4.5,4.6-9,9.1-13.6,13.7
	c-0.5,0.5-1.2,1-2,0.4c-1-0.8-0.5-1.5,0.1-2.2c0.9-0.9,1.8-1.8,2.6-2.7c0.5-0.5,1.2-1,0.3-1.8c-1.9-1.8-3.7-3.7-5.6-5.5
	c-1-0.9-1.5,0.1-2.1,0.6c-8.2,7.1-8.2,7.1-0.5,14.6c0.1,0.1,0.2,0.2,0.3,0.3c1.2,1.7,2.4,1.9,3.8,0.1c0.7-0.9,1.8-2.4,3-1
	c1.2,1.3-0.5,2.2-1.3,3c-3,3-5.8,6.3-9.1,8.9c-2.2,1.7-0.7,3.7-1.3,5.2c-0.7,1.7-4-1.6-5.4,1.5c-0.7,1.5-2.3,2.7-3.6,3.7
	c-1.6,1.3-1.3,2.3-0.2,3.7c4.2,5.4,9.5,9.1,15.6,11.9c9.7,4.4,20,5.2,30.4,5.3c29.1,0,58.2,0.2,87.3,0.1
	c52.6-0.1,105.2-0.3,157.8-0.4c2.8,0,3.7-0.2,2.7-3.4c-5-16.4-5.3-32.9-1.4-49.5c1.9-8,4.9-15.6,8.9-23.5
	c-83.3-3.9-166-8.2-249.2-3.5c1.4,2,3.1,3.4,4.8,4.9c0.6,0.6,1.4,1.3,0.6,2.2c-0.9,1-1.8,0.3-2.5-0.4c-1.1-1.1-2.1-2.1-3.2-3.2
	c-4.3-4.3-4.3-4.3-8.2-0.1c-0.7,0.7-1.5,1.3-3.1,2.7C117.6,340,119.1,341.1,120.5,342.3z M93.5,351.6c-0.8,1.4,0.2,1.8,0.8,2.4
	c1.2,1.3,2.6,2.4,3.7,3.7c1.4,1.7,2.2,1.4,3.7,0c6-5.9,6-5.9,0-11.9c-0.3-0.3-0.5-0.5-0.8-0.8c-5.2-5.2-5.2-5.2-11.4-1
	c-1,0.7-3.2,1.1-2.3,2.6c0.9,1.5,2.2,3.5,4.6,3.3C93,349.8,94.6,349.6,93.5,351.6z M73.1,362c-3.8,8.1-3.8,8.1,2.3,14.2
	c0.9,0.9,1.8,1.8,2.6,2.6c3.4,3.4,3.4,3.4,6.9-0.1c4.4-4.4,4.4-4.4-0.1-9c-4.4-4.4-4.4-4.4-9-0.2c-0.2,0.2-0.4,0.4-0.5,0.5
	c-0.7,0.6-1.4,1.2-2.2,0.2c-0.7-0.8-0.1-1.4,0.3-2c0.5-0.6,1-1.1,1.6-1.6c3.7-3.7,3.7-3.7-0.7-6.9C73.8,360.4,73.4,361.2,73.1,362z
	 M78.4,385.3c1-0.9,0.8-1.5-0.1-2.4c-2.8-2.8-5.4-5.6-8.7-9c-0.6,6.6,0,11.9,2.9,17.4C74.6,389.1,76.5,387.1,78.4,385.3z M86,349.4
	c-1.4-1.8-2.7-1.4-3.8,0.1c-1.9,2.8-7,4.3-5.1,8.5c1.7,3.8,2.8,3.5,5.9,0.5c2-2,4.2-3.8,6.6-5.9C88,351.2,86.9,350.4,86,349.4z
	 M100.2,340.7c5,5.2,5.1,5.3,10.1,0c0.8-0.8,2.7-1.4,1.7-3.1c-1.1-1.7-2.6-2.8-5-1.8c-2.6,1.2-5.3,1.9-8.4,3
	C99.5,339.7,99.8,340.2,100.2,340.7z M113.4,334.7c-0.1,0.2,0.3,0.9,0.7,1.1c1.5,0.9,1.7-0.8,3.1-1.6
	C115.4,333.9,114.2,333.5,113.4,334.7z M240.4,383.7c-31.3,0-62.7,0-94,0c-0.4,0-0.8,0-1.1,0c-1.1-0.2-3,0.6-2.9-1.3
	c0.1-1.8,1.9-1.2,3-1.2c28.7,0.1,57.4,0.2,86.1,0.4c34.3,0.2,68.7,0.4,103,0.6c0.4,0,0.8,0,1.1,0c1.3,0.1,3.3-0.5,3.2,1.5
	c-0.1,1.9-2.1,1.2-3.3,1.2c-30.3-0.2-60.7-0.4-91-0.6c-1.4,0-2.7,0-4.1,0C240.4,384.1,240.4,383.9,240.4,383.7z M223.7,359.1
	c-30.6-0.8-61.2-1.6-91.7-2.5c-0.6,0-1.3,0-1.9,0c-1.1-0.1-2.6,0.3-2.4-1.4c0.1-1.4,1.5-1.1,2.4-1.1c7,0.1,14,0.3,21,0.4
	c46.9,1.2,93.9,2.4,140.8,3.7c8.4,0.2,16.7,0.4,25.1,0.7c1.3,0,3.3-0.5,3.3,1.4c0,1.9-2,1.3-3.3,1.3
	C285.8,360.8,254.8,359.9,223.7,359.1C223.7,359.1,223.7,359.1,223.7,359.1z M176.6,398.7c20.9,0,41.7,0,62.6,0c0.5,0,1,0,1.5,0
	c1.1,0.1,2.6-0.3,2.7,1.2c0.1,2-1.6,1.5-2.8,1.5c-12.1-0.1-24.2-0.2-36.3-0.3c-29.7-0.2-59.4-0.4-89.2-0.7c-1.7,0-4.8,0.8-4.8-1.2
	c0-2.8,3.2-1.3,4.9-1.3c20.5-0.1,41-0.1,61.4-0.1C176.6,398,176.6,398.4,176.6,398.7z M242.8,266.4c-33.6,0.8-67.2,1.6-100.8,2.4
	c-7.1,0.2-14.2,0-21.3-1.3c-17.3-3.2-27.5-13.3-30.3-30.6c-2.5-15.3-2-30.7,1-45.8c3.5-17,15.1-26.7,31.1-31.7
	c7.7-2.4,15.6-3.2,23.6-3.1c27.1,0,54.2,1.2,81.3,1.9c30.1,0.8,60.2,1.8,90.3,2.8c13.1,0.4,26.2,0.9,39.3,1.3
	c1.8,0.1,4.1-0.2,4.1,2.6c0,2.9-2.3,2.7-4.4,2.7c-8.5-0.1-8.6-0.1-11.2,8.1c-8.3,25.6-9.5,51.6-3.9,78c1,4.8,1.8,5.4,6.7,5.2
	c2.4-0.1,4.7-0.1,7.1-0.2c1.9-0.1,3.8,0.5,3.8,2.6c0,2.2-1.8,2.6-3.7,2.6c-16.6,0.4-33.2,0.9-49.8,1.3
	C284.7,265.5,263.8,265.9,242.8,266.4C242.8,266.3,242.8,266.4,242.8,266.4z M98.7,185.6c-2.1,3.2-2,6,1.4,8.3
	c0.9,0.6,1.7,1.5,2.4,2.4c1.4,1.7,2.8,2.9,4.5,0.3c0.4-0.7,1.3-0.9,2-0.4c0.6,0.4,0.8,1.2,0.3,1.6c-3.4,2.4-1.4,4.2,0.7,5.9
	c0.7,0.6,1.2,1.4,0.3,2.3c-0.9,0.9-1.8,0.2-2.2-0.5c-2.5-3.8-4.6-2.3-6.7,0.4c-0.8,1.1-1.9,1.9-2.9,2.9c-0.4,0.4-1,0.7-0.8,1.5
	c0.5,1.7,7.3,6.9,9.4,7c0.9,0.1,1.7,0.7,1.3,1.4c-1.2,2.1,0.5,2.8,1.5,4c0.6,0.8,2.2,1.4,0.9,2.7c-1.2,1.2-2.1-0.1-2.7-0.9
	c-1.7-2.2-2.9-2.2-4.8-0.1c-4.5,4.8-4.6,4.7,0,9.4c0.7,0.7,1.4,1.4,2.1,2.1c1.1,1.2,2,2.2,3.5,0.4c0.8-1,2.8-0.7,2.2,0.3
	c-1,1.7-0.7,4.5-3.4,5.3c-2.5,0.7-4.2,2.9-5.3,4.9c-0.6,1.2,1.8,2.5,2.9,3.5c2,1.8,2.5,3.2-1,3.9c3.9,3.7,8.3,5.8,13,7.1
	c11.3,3.1,22.8,2.2,34.3,2c60.6-1.4,121.1-2.9,181.7-4.2c3.6-0.1,4.1-0.8,3.4-4.2c-5.1-22.3-5-44.5-0.1-66.8c1.6-7.1,3.9-14,6.1-21
	c-50.1-1.5-99.8-3-149.5-4.5c-10-0.3-20-0.6-30-0.8c-3.2-0.1-4.6,2.2-3.1,5c0.3,0.6,0.7,1.1,0.1,1.7c-0.3,0.3-1.2,0.6-1.2,0.5
	c-2.4-3-3.8-0.6-5.4,0.9c-0.5,0.5-1.2,0.9-2,0.2c-0.7-0.7-0.4-1.4,0.1-1.9c1-0.9,2.2-1.7,3.2-2.5c-0.6-0.8-0.7-1-0.8-1.2
	c-1.6-1.8-3.5-4.1-5.8-2.7c-1.4,0.9-4.8,2.8-1.9,6c0.6,0.7-0.8,1.9-1.5,1.3c-2.8-2.7-3.7,0.3-5.2,1.5c-0.8,0.6-1.5,2.2-2.7,1
	c-1.2-1.1,0-2,0.8-2.8c0.3-0.4,0.8-0.7,1-1.1c0.6-0.9,2.4-1.3,1.6-2.6c-0.9-1.3-1.9-3.2-4-3c-3.3,0.4-6.7,0.6-10.1,1.9
	c1.6,1.7,2.6,4.4,5,1.2c0.6-0.8,1.6-2.1,2.7-0.7c1.1,1.3-0.3,2.1-1.1,2.7c-1.7,1.4-1.6,2.5,0,3.8c0.6,0.4,1.1,1.1,1.6,1.6
	c0.7,0.7,1.1,1.5,0.3,2.3c-0.9,0.8-1.7,0.2-2.2-0.5c-2.7-4.2-5-2.5-7.2,0.4c-0.5,0.6-1,1.1-1.6,1.6c-1.5,1.3-2.4,2.4-0.2,4
	c0.7,0.5,1.8,1.4,0.7,2.4c-1.1,1.1-1.9,0.1-2.5-0.6c-1.5-2.2-2.7-1.3-4,0.2c-0.6,0.7-1.5,1.7-2.5,0.8c-1.2-1.1-0.1-2.1,0.8-2.8
	c1.9-1.4,1.6-2.4,0.1-4c-2-2.1-2.7-0.3-3.7,0.7c-1.3,1.2-2.4,2.6-3.7,3.7c-1.4,1.2-1.4,2,0,3.2c1.9,1.7,3.6,3.5,5.3,5.3
	c0.7,0.7,1.6,1.5,0.6,2.5c-1.1,1-1.8-0.1-2.5-0.7c-1-0.9-2-1.9-2.9-2.9c-2.2-2.6-4.4-5.1-7.3-0.7c-0.2,0.4-1.1,0.3-1.7,0.4
	C99.2,187.5,100.6,185.4,98.7,185.6z M122.1,165c-2.7,1-5.2,2.3-7.8,3.4c-1.1,0.5-1.2,1.7-0.2,1.8c2.4,0.4,2.5,2.6,3.8,3.9
	c0.7,0.7,1.4,1.4,2.2,1.9c0.3,0.2,7-6.6,7-7.1C127.2,167.9,123.3,164.6,122.1,165z M94.3,212.9c0,3.9-0.3,7.8,0.1,11.6
	c0.2,1.4,1.5,3.6,4,1.3c5.7-5.3,5.8-5.2,0.3-10.6c-0.8-0.8-1.6-1.6-2.4-2.4c-0.3-0.3-0.7-0.6-0.9-0.8
	C94.6,211.9,94.3,212.3,94.3,212.9z M97,241.4c1.4,3.5,2.8,3.5,5.6,1.3c2.9-2.3,2.9-4,0-6.2c-1.6-1.2-2.8-2.8-4.3-4.2
	c-0.5-0.5-0.9-1.4-1.8-0.9c-0.8,0.5-1.6,1.2-1.5,2.4C95.6,236.4,96,239.1,97,241.4z M95.1,208.1c8.7-7.1,8.8-7.7,2-13.6
	c-0.2-0.1-0.4-0.1-1.1-0.3C95.4,198.9,94.3,203.3,95.1,208.1z M106.6,179.3c1.7-1.7,3.3-3.4,5-5c0.8-0.8,1.2-1.4,0.2-2.4
	c-0.9-0.9-1.7-0.9-2.5-0.1c-1.8,1.7-3.6,3.4-5.4,5.1c-0.6,0.6-0.9,1.2-0.2,1.9c0.5,0.5,1.1,1,1.7,1.6
	C105.9,179.9,106.3,179.6,106.6,179.3z M101.9,184.1c1.9-1.6,1.5-2.7-0.6-3.7c-1.1,1.6-2.2,3.2-2.5,5.2c0.9,0.5,0.4,1.9,1.6,2.2
	C99.4,185.9,100.8,185,101.9,184.1z M141.6,161.9c1,1.5,1.9,1.6,2.9-0.3C143.5,161.5,142.5,161.2,141.6,161.9z M217.8,187.9
	c25.6,0.7,51.2,1.4,76.7,2.1c1.1,0,3-0.6,3,1.2c0,2.1-1.9,1.4-3.2,1.4c-50.7-1.3-101.3-2.7-152-4.1c-0.7,0-1.5,0-2.2-0.1
	c-0.7-0.1-1.2-0.5-1.2-1.2c-0.1-0.9,0.6-1.3,1.4-1.4c0.7-0.1,1.5,0,2.2,0C167.7,186.5,192.7,187.3,217.8,187.9
	C217.8,188,217.8,187.9,217.8,187.9z M214.3,243.3c-23.5,0-47,0-70.4,0c-0.4,0-0.8,0.1-1.1,0c-1.2-0.2-3.3,0.6-3.2-1.4
	c0.1-1.8,2.1-1.3,3.4-1.3c13.7-0.1,27.5-0.2,41.2-0.3c33.6-0.3,67.2-0.6,100.8-0.9c0.2,0,0.5,0,0.7,0c1.2,0.2,3.3-0.8,3.4,1.1
	c0.1,2.1-2,1.3-3.2,1.3c-10.2,0.2-20.5,0.3-30.7,0.4c-13.6,0.1-27.2,0-40.8,0C214.3,242.6,214.3,242.9,214.3,243.3z M248.3,220.9
	c-17.5,0-34.9,0-52.4,0c-0.7,0-1.5,0-2.2,0c-1,0-2.2,0.1-2.1-1.4c0.1-1.2,1.2-1.1,2-1.1c3.9-0.1,7.7-0.2,11.6-0.2
	c32-0.4,63.9-0.7,95.9-1.1c0.7,0,1.5,0,2.2,0c0.9,0,1.8,0.2,1.7,1.4c-0.1,1-0.9,1.1-1.6,1.1c-2.9,0.1-5.7,0.2-8.6,0.2
	c-15.5,0-31,0-46.4,0C248.3,220.1,248.3,220.5,248.3,220.9z M286,320.3c-45.3,0-90.7,0-136,0c-6.9,0-13.7-0.3-20.3-2.6
	c-12.7-4.5-17.5-16.2-11.6-28.3c5.1-10.4,14.3-14.8,25.1-16.7c7.1-1.2,14.2-1.1,21.3-1.2c66.8-0.3,133.6,0.7,200.4,2.8
	c21.8,0.7,43.7,1.5,65.5,2.4c2.2,0.1,5.9-1,5.6,3c-0.3,3.5-3.6,2.2-5.7,2.2c-3.1,0-6.3,0.1-9.4-0.3c-3.5-0.5-5,0.7-6.2,4.1
	c-3.2,9.4-3.7,18.8-1.8,28.4c0.4,2.1,1.2,3.1,3.6,3c5-0.2,10,0,15,0c2,0,4.1,0.2,4,2.8c0,2.7-2.2,2.5-4.1,2.5
	c-35.6-0.3-71.2-0.5-106.8-0.7c-12.9-0.1-25.7,0-38.6,0C286,321,286,320.6,286,320.3z M155.7,278c-0.1,0,0,0,0.3-0.1
	c-1.4,3.6-3.9,6.4-7,8.8c-1.3,1-3.1,2.1-3.3,3.4c-1,5.6-2.9,1.7-4.2,0.5c-4.9-4.7-6.4-4.6-10.4,1.1c-0.5,0.7-0.8,1.2-0.1,1.9
	c1.9,1.8,3.5,4.3,5.7,5.3c3.1,1.3,1.8,2.3,0.4,3.6c-2.9,2.7-6,5.4-9.3,8.4c5,2.5,9.1,3.4,13.4,3.7c10.9,0.8,21.7,0.5,32.6,0.6
	c63.7,0.5,127.4,0.9,191.1,1.3c14.4,0.1,28.7,0,43.2,0c-2.6-11.4-2.2-22.5,2-33.4c1-2.5-0.6-2.1-1.9-2.1c-6.7-0.3-13.5-0.5-20.2-0.7
	c-70.8-2.3-141.6-3.8-212.4-3.7c-5.6,0-11.2,0-16.8,0c-0.3,0.5-0.5,1-0.8,1.4c1.6,1.2,3.2,2.4,4.7,3.6c0.7,0.6,1.3,1.3,0.5,2.2
	c-0.8,0.9-1.6,0.4-2.2-0.3c-1.7-1.8-3.8-3.2-5-5.5C155.8,278,155.8,278,155.7,278z M124.4,302.6c0.8,0.8,1.7,1.5,2.3,2.4
	c1.6,2.2,2.8,1.8,4.5-0.1c3.5-3.8,3.7-3.7-0.1-7.4c-1.1-1.1-1.8-3.1-4.2-2.2c-0.8,0.3-1.5-0.5-1.2-1.3c0.8-2-0.9-2.5-1.9-3.5
	C120,295.7,120.2,298.3,124.4,302.6z M147,283.9c-1.2-3.4-6.6-5.8-9.9-4.4c-0.6,0.3-2.5,0.1-1.4,1.8c0.8,1.2,1.6,0.6,2.4-0.1
	c0.6-0.6,1.3-1.4,2.2-0.6c0.9,0.8,0.3,1.5-0.2,2.3c-0.9,1.4,1.4,5.6,3.1,5.6C144,288.4,147.3,284.6,147,283.9z M128.8,290.3
	c1.5-1.5,3-2.9,4.5-4.4c0.6-0.7,2.1-1.2,0.7-2.6c-1-1-1.9-2-3.3-0.7c-1.5,1.3-2.9,2.6-4.4,4c-0.5,0.5-1.1,1-0.6,1.9
	c0.6,0.9,1.3,1.8,1.9,2.5C128.4,290.5,128.6,290.4,128.8,290.3z M156,278c-3.5-2.1-7.1-0.7-10.8-0.4c3.5,4.8,3.7,5,7.4,1.6
	C153.6,278.2,155.2,279.3,156,278C156,277.9,156,278,156,278z M266.2,290.5c28.5,0,57,0,85.4,0c0.9,0,1.7,0,2.6,0c1,0,2.2,0,2.1,1.4
	c-0.1,1.2-1.2,1.1-2,1.1c-0.7,0.1-1.5,0-2.2,0c-57.1,0.1-114.2,0.2-171.3,0.2c-1.6,0-4.6,1.2-4.6-1.5c0-2.1,2.9-1.2,4.5-1.2
	C209.3,290.5,237.7,290.6,266.2,290.5C266.2,290.5,266.2,290.5,266.2,290.5z M320.7,304.4c-19,0.4-37.9,0.8-56.9,1.1
	c-0.9,0-1.8,0.1-2.6-0.1c-0.4-0.1-0.8-0.7-0.8-1.1c0-0.4,0.4-1,0.8-1.1c1-0.2,2-0.2,3-0.3c37.9-0.9,75.9-1.7,113.8-2.5
	c1.2,0,3.3-0.7,3.3,1.3c0,2-2,1.4-3.2,1.4C358.8,303.6,339.8,304,320.7,304.4C320.7,304.4,320.7,304.4,320.7,304.4z M230.5,148.3
	c-42,0.4-83.9,0.8-125.9,1.3c-4.4,0-8.7-0.5-13-1.4c-20.3-4.2-24.5-24.5-17.2-38.2c6.5-12.1,17.3-18.4,30.3-21.1
	c17.2-3.5,34.7-4.3,52.1-5.2c48.7-2.4,97.4-2.3,146.1-1.4c18.6,0.3,37.2,1.3,55.8,2c1.9,0.1,3.7,0.3,3.8,2.6c0,2.7-2,2.8-4,2.7
	c-3.7-0.2-7.5-0.3-11.2-0.6c-2.1-0.2-3.4,0.3-4.5,2.3c-8.4,14-10.8,29-7.8,45c0.7,3.6,2.6,4.9,6.2,4.7c6.4-0.3,12.7-0.3,19.1-0.4
	c2.1,0,4.8-0.5,4.7,2.7c0,2.8-2.5,2.6-4.5,2.6C317.2,146.6,273.9,147.5,230.5,148.3z M118.6,95.3c0.8,0.9,2.8,1.7,1.2,3.2
	c-1.2,1.1-2.3-0.5-3-1.4c-1.7-2.4-3.2-2.2-4.8,0.1c-0.6,0.8-1.4,1.5-2.1,2.1c-1.4,1.2-2.7,2.4-0.4,4c0.6,0.4,0.8,1.3,0.2,2
	c-0.8,0.9-1.6,0.2-2.2-0.4c-0.8-0.7-1.4-1.5-2.8-0.7c-1.5,0.8-2.2-0.4-1.5-1.7c0.7-1.3,0.1-1.8-0.6-2.5c-3.5-4-5.4-4.3-9.6-1.2
	c-0.4,0.3-1.3,0.4-0.8,1.3c0.3,0.5,0.8,0.9,1.5,0.5c1.9-0.9,2.4,0,1.8,1.6c-0.5,1.5,0.7,2,1.4,2.7c1.6,1.7,3.4,3.4,5,5.1
	c0.6,0.6,1.2,1.4,0.4,2.3c-0.9,1-1.6,0.2-2.2-0.4c-1.9-1.8-3.7-3.7-5.6-5.5c-0.7-0.6-1.1-1.5-2.4-0.6c-3.9,2.7-4.1,4.1-0.9,7.4
	c0.8,0.8,3,1.7,1.3,3.2c-1.4,1.3-2.4-0.7-3.3-1.5c-1.8-1.7-3.4-4-5.7-0.5c-0.4,0.6-1.2,1-1.9,0.3c-0.6-0.6-0.5-1.4,0.1-2
	c0.5-0.6,1-1.1,1.6-1.6c0.8-0.7,0.5-1.3-0.1-1.9c-0.4-0.4-0.8-0.9-1.6-0.5c-2.1,1-2.9,5.2-1.2,6.8c2.9,2.7,5.9,5.3,8.9,8
	c0.1-0.1,0.8-0.8,1.6-1.5c0.6-0.5,1.2-0.9,1.9-0.2c0.7,0.7,0.4,1.3-0.1,2c-3.1,3.9-8,6.3-9.6,11.5c-5.7,1-0.7,2.7,0,3.5
	c1.5,1.7,3.6,2.7,5.7,3.4c5.9,2.1,11.9,2.4,18.1,2.4c74-0.5,147.9-1.8,221.9-3.1c0.7,0,1.5,0.3,2-0.6c-4.5-18.1-2.2-35.3,7.4-52
	c-70.7-2.8-140.8-2.4-211.9,2.4c1.6,1.4,2.4,2,3.1,2.8c0.8,0.9,2.7,1.8,1.1,3.2c-1.3,1.1-2.3-0.6-2.9-1.4c-2.9-4.2-6.7-4.9-12.3-3.2
	C116.7,93.7,117.8,94.4,118.6,95.3z M77.2,116.9c-0.3,2.1-0.5,4.1-0.8,6.2c-0.5,3.7,2.3,5.6,4.6,7.1c2,1.3,2.8-1.9,4.3-2.9
	c0.7-0.5,1.2-1.2,1.2-1.2c-2.8-3.3-5.4-6.6-8.1-9.8C78,116.5,77.6,116.7,77.2,116.9z M101.1,95.4c1.5,1.3,2.7,2.2,3.7,3.2
	c0.8,0.8,1.3,0.8,2.1,0c1.9-1.8,3.8-3.5,5.7-5.2C108.5,93.2,105.1,93.8,101.1,95.4z M84.2,105.6c-0.4,0.6,0.4,1,0.8,1.5
	c0.8,1,1.7,1,2.4-0.1c1-1.7,3.8-2,3.3-4.7c-0.1-0.4-0.9-0.7-1.3-1.1C87.3,102.5,85.5,103.8,84.2,105.6z M210,107
	c-20.4,0-40.7,0-61.1,0c-1.1,0-3,0.7-3.1-1.1c-0.1-2.2,2-1.4,3.1-1.4c40.7-0.2,81.4-0.3,122.2-0.4c0.5,0,1,0,1.5,0
	c1,0,2.3-0.1,2.4,1.2c0.1,1.7-1.3,1.5-2.4,1.5c-9,0-18,0.1-27,0.1c-11.9,0-23.7,0-35.6,0C210,106.9,210,106.9,210,107z M174.7,128.5
	c-16.9,0-33.7,0-50.6,0c-0.7,0-1.5,0-2.2,0c-1.1,0-2.6,0.2-2.7-1.2c-0.1-1.8,1.6-1.5,2.8-1.5c11.6-0.1,23.2-0.1,34.8-0.2
	c23.5-0.1,46.9-0.3,70.4-0.5c0.4,0,0.7,0,1.1,0c1.1,0,2.6-0.2,2.7,1.2c0.1,1.8-1.6,1.5-2.7,1.5c-12.7,0.1-25.5,0.1-38.2,0.2
	c-5.1,0-10.2,0-15.4,0C174.7,128.1,174.7,128.3,174.7,128.5z"/>
</svg>
