<?xml version="1.0" encoding="utf-8"?>
<!-- Generator: Adobe Illustrator 24.2.0, SVG Export Plug-In . SVG Version: 6.00 Build 0)  -->
<svg version="1.1" id="Layer_2" xmlns="http://www.w3.org/2000/svg" xmlns:xlink="http://www.w3.org/1999/xlink" x="0px" y="0px"
	 viewBox="0 0 500 500" style="enable-background:new 0 0 500 500;" xml:space="preserve">
<style type="text/css">
	.st0{fill:#020202;}
</style>
<path class="st0" d="M189.2,132.5c-0.1-2.4,2.1-1.4,3.4-1.5c3.2-0.2,6.5-0.4,9.7-0.3c2.6,0.1,3.1-0.8,2.8-3.2
	c-0.2-1.8-2-4.7,0.6-5.1c2.9-0.5,1.8,3,2,4.6c0.3,2.8,1.1,3.8,4,3.5c3.6-0.3,7.2-0.3,10.8-0.2c2.5,0.1,3-0.8,2.7-3
	c-0.2-1.5-0.3-3-0.3-4.5c0-0.7,0.4-1.4,1.3-1.5c1-0.1,1.3,0.6,1.4,1.4c0.1,0.5,0.1,1,0.2,1.5c0.7,5.9,0.7,5.9,6.9,5.7
	c1.4,0,2.7-0.2,4.1-0.1c3.9,0.2,7.8,0.5,7.4-5.3c-0.1-0.9,0.5-1.7,1.6-1.6c0.8,0.1,1.2,0.8,1.2,1.6c0,1.6-1.6,3.9,0,4.8
	c1.5,0.8,3.9,0.2,5.9,0.2c0.1,0,0.2,0,0.4,0c0,0,0,0,0-0.1c1.1,0,2.3-0.1,3.4,0c2.4,0.3,3.8-0.4,3.5-3.2c-0.1-1.1-0.3-2.9,1.5-2.8
	c1.9,0,1.4,1.8,1.3,2.9c-0.4,2.8,1,3.1,3.2,2.8c2-0.2,4-0.1,6-0.2c2.2-0.1,5,0.6,4.4-3.3c-0.1-0.7,0.6-1.4,1.5-1.3
	c0.9,0.1,1.4,0.7,1.3,1.5c-0.6,3.1,1.3,3,3.4,2.9c5.4-0.2,10.7-0.3,16.1-0.4c1.3,0,3.2-0.6,3.4,1.3c0.2,2-1.9,1.5-3.1,1.5
	c-5.7,0.2-11.5,0.5-17.2,0.5c-2.4,0-3,0.8-2.7,3c0.2,1.5,0.1,3,0.2,4.5c0.1,1-0.2,1.9-1.2,2c-1.2,0.1-1.7-0.8-1.7-1.9
	c0-0.4,0-0.7-0.1-1.1c-0.4-6.3-0.4-6.3-7-6.2c-7.1,0.1-7.1,0.1-6,7.2c0.2,1.2,0.2,2.1-1,2.3c-1,0.2-1.5-0.6-1.8-1.5
	c-0.2-1-0.7-2-0.6-2.9c0.7-4.3-1.2-5.5-5.1-4.7c-0.8,0.2-1.7,0.1-2.6,0.1c-5.8,0.1-5.8,0.1-5.2,5.7c0.1,1.1,0.5,2.4-1.2,2.6
	c-1.3,0.1-1.5-1-1.7-2c-0.3-1.9-0.1-5.1-1.1-5.6c-1.9-0.9-4.6-0.4-6.9-0.4c-1.2,0-2.5,0-3.7,0.1c-1.9,0.1-4.1-0.3-5.5,0.6
	c-1.5,1-0.1,3.2-0.2,4.9c0,1.1-0.2,2.1-1.4,2.2c-1.3,0.1-1.5-1-1.5-2.1c0-0.7-0.2-1.5-0.1-2.2c0.1-2.3-0.7-3.3-3.3-3.1
	c-3.7,0.3-7.5,0.3-11.2,0.2c-2.1-0.1-3,0.5-2.5,2.7c0.3,1.5,0.4,3,0.5,4.4c0.1,0.8-0.4,1.5-1.2,1.6c-0.9,0.1-1.4-0.5-1.5-1.3
	c-0.2-0.8-0.5-1.7-0.4-2.6c0.6-4.8-2.1-5.2-5.8-4.7c-2.6,0.3-5.2,0.3-7.8,0.3C191.2,133.8,189.2,134.3,189.2,132.5z M433.1,381.5
	c-0.7-59.4-1.4-118.7-2.3-178.1c-0.3-17.3-0.7-34.6-2.6-51.9c-2.3-20.8-13.4-34.5-32.9-41.6c-5.9-2.1-12-3.3-18.2-4
	c-2.7-0.3-3.1-1.3-3-3.7c0.3-6.8,0.4-13.7-0.5-20.5c-1.5-11.1-8.7-17.6-19.2-17.3c-9.7,0.2-17.9,7.4-20.4,17.7
	c-1.6,6.4-0.9,12.9-0.5,19.4c0.2,3-0.7,3.4-3.4,3.4c-50.3,0-100.5,0-150.8,0.1c-2.5,0-3.4-0.5-3.3-3.2c0.3-7.1,0.6-14.2-0.7-21.3
	c-1.9-10.6-8.8-16.4-19.1-16.2c-9.9,0.3-18.3,7.8-20.6,18.5c-1.4,6.3-0.7,12.7-0.2,19c0.2,2.5-0.4,3.5-3.1,3.6
	c-4.1,0.1-8.2,0.4-12.3,0.9c-19.5,2.6-33.9,11.7-40.1,31.3c-1.7,5.5-2.8,11.1-3.4,16.8c-2.1,21.6-2.4,43.3-3.7,65
	c-1.5,26.6-3,53.3-4.2,79.9c-1.1,23.8-2.9,47.6-0.4,71.4c2.5,23.2,13.7,40.9,33.9,52.9c15,8.9,31.5,11.7,48.7,11.9
	c37.2,0.3,74.3,0.2,125.7-0.6c20.2-0.4,54.6-1,89-1.7c11.6-0.3,23.2-0.2,34.7-2c17.7-2.8,27.5-12.1,31.1-29.6
	C432.6,394.9,433.1,388.2,433.1,381.5z M424.4,195.4c-0.5,1.5,1.5,4.6-0.8,5.5c-2.3,0.9-3.5-2.2-5-3.6c-1.1-1.1-3.7-2.2-2.8-3.7
	c1.4-2.3,3.8-4.1,6-5.9c0.3-0.2,2.7,0,2.6,2C424.4,191.4,424.4,193.2,424.4,195.4z M397.8,201.2c-3.6,0-6.6,0-9.6,0
	C391.8,195,392.4,195,397.8,201.2z M385.3,200.9c0,0.9-2.2,0.2-3.3,0.5c-1.2-0.3-2.5,0.5-3.7-1c-1.3-1.6-1.9-2.5,0-4.1
	c2.1-1.7,4-3.7,5.8-5.8c2.4-2.8,3.2,0.2,4.5,1.2c1.4,1.1,2.6,2.1,0.5,4C387.5,197.1,385.4,198.2,385.3,200.9z M395.5,193.8
	c1.4-2.9,4.4-5,6.7-7.3c0.5-0.5,1-0.5,1.5,0.1c0.4,0.5,0.9,0.9,1.3,1.3c6.3,6.3,6.3,7.4-0.3,13c-0.5,0.4-1.3,0.4-1.6,0.4
	c-1.4-0.1-2.8,0.4-2.8-1.5c0-0.4-0.5-0.8-0.8-1.2C398.2,196.9,394.8,195.2,395.5,193.8z M408.5,180.1c2.5-2.9,4.1-2.9,6.5,0
	c1.4,1.7,3.3,2.9,5.3,4.5c-2.6,2.6-4.4,4.8-6.6,6.5c-1.5,1.1-2-1.2-3-1.9c-0.7-0.5-1.2-1.2-1.9-1.8
	C405,183.7,405.2,183.9,408.5,180.1z M417.9,201.1c-3.5,0-6.4,0-9.3,0C411.9,195,412.9,195,417.9,201.1z M342.9,76.3
	c4-5.1,9.3-7.1,15.5-5.8c5.9,1.3,8.2,5.9,9.2,11.4c0.8,4.2,0.6,8.4,0.7,12.7c0,1,0.1,2.2-1,2.6c-1,0.4-1.5-0.7-2.1-1.2
	c-0.8-0.6-1.5-2-2.8-0.9c-1.2,1.1-0.2,2.1,0.7,2.8c1.8,1.4,1.5,2.5-0.1,3.8c-0.8,0.6-0.9,1.4-0.7,2.4c1.8,1,2.7-0.3,3.8-1.3
	c0.4-0.4,1.1-0.9,1.5-0.8c1,0.2,0.6,1.2,0.6,1.8c0,1.7,0,3.4,0,5.4c-2.9-0.3-3.4-3.6-6-3.7v0l0,0c-1.4,1.1-0.9,2.3,0.2,3.1
	c2.2,1.6,1.5,2.9-0.2,4.2c-1,0.8-1.6,2.1-2.7,2.6c-4.7,2-1.9,3.8,0,5.8c2,2.1,3.7,4.3,5.5,6.5c-1,0.3-2.5,1.4-3.8,2.9
	c-0.8,1-1.5,1.4-2.7,0.2c-1.2-1.3-0.5-1.9,0.4-2.7c0.4-0.3,0.7-0.7,1-1.1c0.7-0.7,1.1-1.5,0.4-2.3c-0.7-0.8-1.5-0.5-2.3,0.1
	c-1.3,1.1-2.2,3.1-4.6,1.6c-0.7-0.4-1.5,0.6-1.2,1.4c1.4,3.5-2,4.3-3.5,6c-1.3,1.5-1.9-0.7-2.8-1.3c-0.9-0.6-1.6-1.9-2.8-0.7
	c-1.3,1.2,0.1,2,0.7,2.8c1.6,1.9,0.7,4.9-1.6,5.8c-1.2,0.5-1.3-0.5-1.6-1c-1.4-2.5-1.7-5.2-1.7-7.9c-0.2-13.6,0.3-27.1-0.5-40.7
	C338.5,85.6,339.6,80.6,342.9,76.3z M367.5,114.6c-0.2,2.8-0.6,5.6-0.9,9.1c-1-0.9-1.6-1.4-2.1-1.9c-3.8-3.7-3.6-5.4,1-8.4
	C367,112.5,367.6,113.2,367.5,114.6z M351,136.3c1-1.7,2.8-3.1,4.4-4.3c0.6-0.4,1.2,0.7,1.7,1.1c0.9,0.7,0.3,1.2-0.2,1.8
	c-1,1.4-3.2,2.1-2.8,4.4c2.4,1.4,3.1-1,4.4-2c0.6-0.4,1.1-1.6,2.1-0.7c0.9,0.8,0.1,1.5-0.4,2.2c-2.9,3.8-4.1,3.9-7,0.6
	C352.2,138.4,350.2,137.7,351,136.3z M352.7,143.5c-2.9,0.7-5.5,0.7-8.1-0.7C348.5,138.3,347.5,137.6,352.7,143.5z M145,76.1
	c4-4.9,9.2-6.8,15.3-5.5c5.8,1.2,8.1,5.6,9.2,11c1,5.2,1,10.4,0.8,15.6c-0.1,3-1.3,3.5-3.8,1.9c-0.7-0.5-1.4-1.2-2.2-0.3
	c-0.7,0.8-0.5,1.6,0.2,2.3c0.7,0.8,1.6,1.4,1,2.8c-0.6,1.5,0.4,2.1,1.8,1.7c2.3-0.8,2.8,0.6,2.8,2.4c0,1.4,0,2.7-0.2,4.1
	c-0.1,1,0,2.2-1,3.4c-0.8-2.5-3.2-3.3-4.7-4.9c-0.6-0.7-1.4-1-2.3-0.4c-0.9,0.8-0.6,1.7,0.1,2.2c1.7,1.4,1.6,2.5-0.1,3.7
	c-0.9,0.7-1.2,1.7-0.2,2.5c0.9,0.7,1.8,0.2,2.2-0.5c1.4-2.7,3.3-0.6,4.7-0.3c1.6,0.4,0.4,2.1,0.2,3.1c-0.2,2.1-0.7,4.2-1.1,6.2
	c-0.3,0.2-0.5,0.3-0.9,0.2c0.1-0.1,0.1-0.1,0.2-0.2c-1.3-2.6-3.8-4.2-5.7-6.3c-0.6-0.7-1.4-1.3-2.2-0.5c-1,0.9-0.6,1.8,0.2,2.5
	c2.1,1.9,3.7,4.3,6.3,5.8c0.1-0.1,0.1-0.1,0.2-0.2c0.1,0.3,0,0.5-0.2,0.8c-0.5,0.4-1,0.7-1.5,1.1c-1,0.6-1.3,2.5-2.8,1.7
	c-1.4-0.6-0.7-1.8-0.4-2.9c0.2-1-1.1-1.9-1.6-1.2c-1.3,1.3-3.6-1.6-4.2,1.3c-0.9,4.7-2.3,5.6-6.2,4.4c-0.7-0.2-1.3-0.1-1.6,0.4
	c-0.4,0.7-0.3,1.4,0.3,2c2.8,2.9-0.8,3.8-1.9,4.7c-1.8,1.3-2.3-1.1-2.8-2.2c-1.4-3-1.6-6.3-1.6-9.5c0.1-12.8,0.3-25.6-0.3-38.5
	C140.4,85.4,141.5,80.4,145,76.1z M156.5,134.1c0.4-0.3,0.7-0.6,1.1-0.9c0.8,0.8,2.3,1.2,1,2.6c-0.6,0.7-1.2,1.5-0.5,2.3
	c0.8,1,1.8,0.5,2.5-0.3c0.7-0.7,1.8-0.5,1.6,0.2c-0.5,1.8-2.3,2.7-3.7,3.9c-1.1,0.9-1.6,0.2-2.4-0.6
	C152.6,137.8,152.6,137.1,156.5,134.1z M154.1,143.7c-2.1,0.5-4.1,0.3-6.1-0.2C150.6,139.2,150.6,139.2,154.1,143.7z M119.3,112.3
	c0.2,1.1-0.7,1.3-1.1,1.8c-0.6,0.8-1,1.5-0.2,2.3c0.8,0.8,1.7,0.4,2.3-0.3c2.2-3.2,3.6-1.2,5.3,0.5c1.8,1.9,3.7,3.7,5.5,5.6
	c0.7,0.7,1.5,1,2.3,0.2c0.9-0.8,0.4-1.6-0.3-2.3c-2.6-2.6-5.3-5.2-8-7.8c0.2-0.4,0.3-0.7,0.5-0.7c9.8-1.1,9.8-1.1,9.6,8.8
	c-0.1,5.5-0.4,11,0.6,16.4c2.2,11.3,14,16.6,24.3,11c7-3.8,10.7-10.2,12.7-17.7c1.4-5.2,2.3-10.5,2.3-15.9c0-2.8,0.9-3.5,3.7-3.5
	c23.2,0.1,46.4,0,69.6,0c27.1,0,54.1,0,81.2-0.2c3.1,0,3.9,0.7,3.8,3.9c-0.2,6.8-0.6,13.7,0.2,20.5c1.6,13,14.5,19.2,25.6,12.2
	c7.7-4.9,11.1-12.5,12.7-21.1c0.7-4,1.2-8.1,1.4-12.2c0.1-2.1,0.9-2.4,2.7-2.2c8.1,1.1,15.9,2.7,23.3,6.3
	c13.1,6.3,19.8,17.2,22.7,31c0.4,1.8-0.5,2.8-1.7,3.8c-1.7,1.3-2-0.7-2.8-1.3c-0.8-0.6-1.6-1.5-2.6-0.7c-1.2,1-0.2,2,0.6,2.8
	c1.1,1.1,2.4,2,0.7,3.6c-0.5,0.4-0.3,1.2,0.1,1.7c0.6,0.7,1.3,0.5,2,0c3-2,4.1,1.4,5,2.5c1.5,1.9-1.5,2.6-2.5,3.8
	c-0.7,0.8-1.3-0.3-1.8-0.7c-1.4-1.4-2.8-2.8-4.3-4.2c-0.8-0.7-1.6-2.1-2.8-0.9c-1.4,1.3,0,2.2,0.8,3.1c0.9,1,1.9,2,2.9,2.9
	c1.9,1.6,2.9,3,0.3,4.8c-0.9,0.6-1.3,1.7-0.2,2.5c0.9,0.7,1.5-0.1,2.3-0.5c0.9-0.5,1.3-2.8,2.7-1.5c1.3,1.2,3.6,1.9,3.4,4.4
	c-0.2,1.6,0,3.2,0,4.9c0,1,0.1,1.7-1.2,2.2c-1.4,0.6-2,0.2-2.8-0.7c-2.6-2.7-5.3-5.3-7.9-7.9c-0.7-0.7-1.3-1.7-2.5-1.3
	c-1.2,0.5-1,1.4-0.6,2.4c0.3,0.8-0.6,1.3-1.1,1.8c-4.6,4.6-9.3,9.1-13.7,13.8c-2.6,2.8-3.2-0.4-4.5-1.3c-1.4-1-2.7-2-0.5-3.9
	c2.9-2.5,5.5-5.4,8.3-8.1c0.8-0.8,1.9-1.6,0.9-2.8c-1.1-1.1-2-0.2-2.8,0.6c-2.4,2.4-4.7,4.8-7.1,7.1c-1.2,1.1-2,3.4-4.5,2
	c-0.6-0.3-1.4,0.4-1.4,1.3c0,5.4-5.5,6.7-7.8,10.3c-0.5,0.7-1.1,0.2-1.5-0.3c-1.8-1.7-3.5-3.5-5.3-5.2c-1.4-1.3-0.2-1.9,0.5-2.7
	c2.1-2.1,4.2-4.3,6.3-6.4c0.7-0.7,1.5-1.6,0.7-2.6c-1-1.2-2-0.3-2.8,0.6c-1.6,1.6-3.1,3.2-4.8,4.7c-1.4,1.3-2.4,4.1-5.3,1.5
	c-0.8-0.7-2.1,0.9-1.4,1.6c2.5,2.9-0.5,3.7-1.7,5.2c-1.8,2.5-3.4,3-5.9,0.3c-4.6-5.1-4.8-4.9,0-9.9c0.9-0.9,3-1.9,1.3-3.5
	c-1.5-1.4-2.4,0.6-3.2,1.4c-4.2,4.1-8.4,8.1-12.4,12.4c-1.8,1.9-2.8,1.7-4.3-0.1c-1.5-1.8-3.4-3.3-5.3-5.3c2.3-2.2,4.3-4.1,6.2-6
	c0.8-0.8,2.3-1.7,1.1-3c-1.2-1.3-2.2,0.1-3.1,0.9c-3.8,3.8-7.7,7.5-11.3,11.4c-1.6,1.7-2.6,1.9-4,0c-0.7-0.9-1.5-1.7-2.4-2.4
	c-1.4-1.1-1.9-2.1-0.2-3.5c0.8-0.6,1.5-1.6,0.4-2.5c-1-1-1.8-0.2-2.5,0.5c-3.5,3.4-6.9,6.8-10.3,10.3c-1.2,1.2-2,1.7-3.2,0.1
	c-0.8-1.1-1.8-2-2.9-2.9c-1.7-1.4-2.9-2.8-0.4-4.5c0.8-0.5,1.1-1.5,0.4-2.3c-0.9-1-1.8-0.3-2.5,0.4c-2.2,2.2-4.4,4.4-6.6,6.6
	c-1.3,1.3-2.4,3.9-4.9,1.2c-0.4-0.4-1.2-0.2-1.7,0.3c-0.7,0.7-0.3,1.3,0.1,2c2.4,3.1-1.2,3.7-2.3,5c-1.5,1.9-2.1-0.6-3-1.2
	c-3.1-2-3.3-4.1-0.1-6.4c0.9-0.6,1.6-1.5,2.4-2.4c0.8-0.9,2.4-1.7,1.2-3c-1.5-1.5-2.4,0.3-3.3,1.2c-2.8,2.7-5.5,5.4-8.2,8.2
	c-0.4,0.4-1,0.8-1.3,1.3c-1.3,2.3-2.9-0.6-4.2,0.2c-2,1.2,1.4,2.8-0.2,4.2c-1.3,1.1-2.8,0.8-4.3,0.8c-32.9,0.1-65.8,0.2-98.8,0.4
	c-23.7,0.1-47.4,0.3-71.1,0.4c-1.6,0-3.1,0.6-4-1.9c-0.9-2.5,1-2.8,1.9-3.8c3.1-3.4,6.5-6.6,9.7-9.8c0.8-0.8,1.8-1.7,0.7-2.8
	c-0.9-0.9-1.9-0.1-2.5,0.7c-1.1,1.4-1.8,0.9-2.9-0.1c-6.4-5.8-6.4-5.8-0.4-11.7c1.6-1.5,2.7-3.5,5.6-3.7c1.7-0.1,0.9-3.1,1.4-4.7
	c0.3-1-1.4-0.6-2.5-0.5c-2.4,0.3-3.3-2.2-4.7-3.6c-1.5-1.4,0.5-2.1,1.2-2.9c2-2.2,4.2-4.3,6.3-6.3c0.6-0.5,1-1.6,2.1-0.9
	c1.2,0.7,2.9,0.3,2.4-0.8c-0.7-1.5,0.8-4.5-1.8-4.5c-3.3,0-3.9-3-5.9-4.3c-0.5-0.3-0.4-0.9,0-1.3c2.3-2.3,4.3-5,7-6.7
	c1.7-1.1,3.5,1.8,3.5,2.7c0.2,3,2.1,3.2,4.1,3.3c2.9,0.2,0.7-2.3,1.4-3.1c2.5-2.6,4.8-5.5,7.8-7.4c1.9-1.2,2.1-2.9,3.1-4.3
	c0.8-1-0.7-2.4-1.7-1.5c-2.2,1.9-3,0-4.1-1.1c-2.4-2.2-4.7-4.4-7.4-6.9C112.8,113.4,116,112.8,119.3,112.3z M360.1,195.7
	c1.7-1.4,3-3.3,4.9-5.5c2,2.2,3.6,4,5,5.8c0.6,0.8,2.4,1.4,1.6,2.5c-0.8,1.2-1.6,2.9-3.6,2.8c-1.9,0-3.7,0.1-5.6-0.1
	c-0.6,0-2.3,0.7-1.7-0.9C361.4,198.6,357.5,197.8,360.1,195.7z M358.4,201.1c-1,0.5-2.1,0.3-3.5,0.2
	C356.1,199.2,357.2,199,358.4,201.1z M340.9,195.4c1.6-1,3-2.7,4.2-4.2c1.4-1.7,2.4-1.6,3.7,0c0.8,1.1,2.1,1.9,2.8,2.9
	c0.9,1.2,3.4,1.8,2.3,3.5c-1.2,1.8-2.6,3.9-5.5,3.8c-4.2-0.2-8.4-0.1-12.9-0.1c1.2-3.8,3.4-0.4,4.8-1.3
	C342.3,198.8,338.4,196.9,340.9,195.4z M325,197c-3.4-2.5-0.4-3.7,0.9-5.3c1.5-1.9,2.8-2.3,4.3-0.1c0.6,0.9,1.7,1.5,2.3,2.4
	c0.8,1.1,3.2,1.9,2.2,3.3c-1.3,1.8-2.6,4.3-4.9,4.3c-1.5-0.2-2.6,0.3-2.4-1.5C327.5,198.6,326.1,197.7,325,197z M325,201.3
	c-2.8,0-5.4,0-8.4,0C320.8,196.4,320.8,196.4,325,201.3z M315.9,197.5c-1.9,1.1-1.6,4.8-4.9,4.1c-3.2,0.4-4.2-2.6-6.1-4.2
	c-0.8-0.7,0.1-1.3,0.6-1.8c1.2-1.2,2.5-2.5,3.7-3.7c3.3-3.3,3.2-3.1,6.8,0C318.6,194.1,318.8,195.9,315.9,197.5z M304.5,201.4
	c-1.7,0.3-2.9,0.5-4.3,0.1C302.1,198.8,302.1,198.8,304.5,201.4z M288.2,195.5c0-0.5,4.6-5.2,5.1-5.3c0.5,0,6.5,6,6.5,6.5
	c0,0.8-4.2,5-5,5C293.8,201.7,288.1,196.3,288.2,195.5z M289.4,201.6c-2.5,0.5-4.8,0.3-7.3,0.2C285.5,196.7,285.5,196.7,289.4,201.6
	z M276.8,201.9c-2.2,0-3.6,0-4.9,0c-1.4,0-3.1,0.1-3.4-1.4c-0.3-1.5,1.4-2.1,2.3-3c1.5-1.5,2,0.5,2.8,1.1
	C274.6,199.4,275.3,200.4,276.8,201.9z M99.5,119.7c6.3-4.5,6.3-4.5,11.7,0.9c1.8,1.8,5.2,4,5,5.6c-0.3,2.2-3.5,3.9-5.2,6
	c-1.7,2.1-2.9,1.9-4.6,0c-1.4-1.5-1.3-2.3,0.1-3.5c0.9-0.7,1.6-1.5,2.4-2.4c0.7-0.8,1.9-1.6,0.8-2.8c-1.1-1.2-2-0.1-2.8,0.7
	c-1.3,1.4-2.4,2.8-4,4.6c-2.3-2.5-4.6-4.2-6-6.5C96.3,121.2,98.5,120.4,99.5,119.7z M88.2,132.4c0.7-1,1.2-2.2,1.8-3.2
	c3.6-5.6,6.7-5.4,9.9,0.5c0.1,0.2,0.2,0.4,0.5,0.9c-0.4,0.5-0.9,1-1.4,1.5c-1,1.1-2.1,2.1-3.1,3.1c-3.5,3.5-4.7,3.3-7.5-0.9
	C87.9,133.6,87.8,133.2,88.2,132.4z M83.4,146.8c1.2-3.2,1.5-6.7,3-9.9c4.1,3.2,4.1,3.2,1.1,6.7c-0.7,0.8-1.9,1.6-0.6,2.8
	c1,0.9,1.8,0,2.6-0.6c1.1-0.9,2-3.1,3.2-2.6c1.7,0.7,2.9,2.6,4.4,3.9c0.9,0.9,0.5,1.5-0.2,2.1c-2.6,2.5-5.1,5.1-7.6,7.7
	c-0.9,0.9-1.4,0.8-2.4,0C83.6,154.3,81.8,151.4,83.4,146.8z M82,156.9c4.5,2.8,4.5,2.8,0.4,7c-1.2-0.4-0.4-1.6-0.9-2.2
	C81.7,160.1,81.8,158.5,82,156.9z M80.9,172.1c0.1-2.1,5.1-9.3,6.9-9.3c2.2,0,3.1,2.4,4.6,3.8c1.3,1.1-0.3,1.7-0.8,2.3
	c-1.8,1.9-3.6,3.8-5.5,5.5c-0.9,0.8-1.4,2.7-3,1.8C81.5,175.3,80.3,173.9,80.9,172.1z M79.9,194.3c0.1-1.4,0.2-2.7,0.3-4.5
	c0.4-2.1-0.9-5.1,1.9-7.1c0.3-0.2,0.5-0.7,0.8-0.7c3.7-0.2,4.4,3.6,6.8,5.1c1.3,0.8,1.5,1.7,0.2,2.9c-2.1,1.9-4,4.1-6.1,6
	c-0.6,0.6-1,2-2.3,1.1C80.5,196.4,79.8,195.6,79.9,194.3z M224.7,427.5c-1.3-2.8,1.4-2.5,1.8-4.4c1.1,2.9,3.4,4.1,5.1,6.7
	C228.9,429.1,226.4,431.3,224.7,427.5z M239.3,429.4c3-3.9,3-3.9,6.6,0C243.4,429.4,241.4,429.4,239.3,429.4z M268.7,428.8
	c-0.6,0.4-1.3,0.5-1.9,0.4c-4.4,0.7-8.8-0.1-13.1,0.4c-0.5-1.2,0.4-1.5,0.8-2c4-4.2,4-4.2,8.1-0.3c0.9,0.8,1.6,1.9,3.1,1.4
	c0.7-2-0.5-3.3-2-4.3c-3.1-2.2-2.8-4.1,0.1-6.1c0.5-0.3,0.8-0.9,1.4-1.5c1.5,1.4,2.9,2.7,4.2,4.1
	C273.4,424.9,273.4,424.9,268.7,428.8z M273.3,428.8c1.1-1.8,2.1-2.5,3.7,0C275.7,429.2,274.6,429.3,273.3,428.8z M330.8,425
	c-0.9,1.6-2.1,3.4-4.5,3.2c-1-0.1-2,0-3,0c0,0,0,0.1,0,0.1c-1,0-2-0.1-3,0c-1.5,0.2-1.8-1-2.4-1.9c-0.7-1.1,0.3-1.5,0.8-2.1
	c0.7-0.8,1.6-1.6,2.4-2.4c3.8-3.8,3.9-3.9,7.6,0C329.5,422.9,331.5,423.6,330.8,425z M339.4,428c-2,0-2.5-1.9-3.4-3.1
	c-0.7-0.9,0.8-1.5,1.4-2.2c1.3-1.5,2.7-2.9,4.1-4.4c3,3.1,5.8,6,9.5,9.6C346.7,428,343.1,428,339.4,428z M345.6,418
	c-1.5-1.3-1.5-2.3,0-3.5c0.2-0.1,0.3-0.4,0.5-0.5c2.4-2.1,5.1-6.8,6.8-6c3.8,1.8,6.6,5.8,9.7,9c1.1,1.1-0.4,1.7-1,2.3
	c-2.5,2.4-5.1,4.7-7.4,7C351.5,423.6,348.6,420.7,345.6,418z M365.3,427.4c-2.2,0-4.4,0-7.2,0c0.7-0.8,0.9-1.1,1.1-1.4
	c6.6-6.9,6.6-6.9,13.4,1.4C369.9,427.4,367.6,427.4,365.3,427.4z M391.5,426.5c-1.6,0.2-3.3-0.2-4.8,0.3c-8,2.2-13.1-2-17.8-7.6
	c-1.1-1.3-1.1-2,0.1-2.9c0.7-0.6,1.2-1.2,1.9-1.8c5.9-5.8,5.8-5.8,11.5,0c1.5,1.5,1.7,2.4,0,3.8c-1.4,1.2-2.7,2.6-4,3.9
	c-0.7,0.7-1.1,1.4-0.3,2.3c0.8,0.9,1.6,0.4,2.3-0.2c1.1-1,2.2-2,3.2-3.2c1.7-2.1,3.3-2.9,5.1-0.2c0.2,0.3,0.5,0.5,0.8,0.8
	c0.7,0.6,1.5,1.1,2.3,0.4c1.1-0.9,0.5-1.9-0.4-2.5c-3.7-2.5-2.4-4.5,0.3-6.7c1.5-1.1,2.7-2.6,4-3.9c3.8-3.8,5.3-3.6,8.5,1
	c1,1.4,0,1.8-0.6,2.4c-2.1,2.2-4.2,4.2-6.3,6.4c-0.7,0.7-1.6,1.5-0.6,2.5c0.9,0.9,1.8,0.3,2.6-0.4c2-2,4.1-4,6.1-6.1
	c1.3-1.4,2.1-1.7,3.5-0.1c1.6,1.8,3.4,3.3,5.4,5.2C407,424.6,399.3,425.7,391.5,426.5z M384.3,400.9c5.6-5.6,5.6-5.6,11.1,0.1
	c0.6,0.6,1.2,1.3,1.9,2c-0.5,0.6-1,1.1-1.5,1.6c-2.6,2.6-5.4,5.2-7.9,7.9c-1.4,1.5-2.1,1.3-3.5-0.1
	C378.4,406.7,378.4,406.8,384.3,400.9z M402.4,402.1c2.3-2.3,4.5-4.5,6.8-6.8c0.2-0.2,0.6-0.4,1.4-0.9c1.5,1.7,3.3,3.3,4.6,5.2
	c0.9,1.3-1.1,1.9-1.8,2.8c-0.8,1-1.7,1.8-2.6,2.6c-3.8,3.8-5.4,3.5-8.4-1C401.8,403.2,401.8,402.7,402.4,402.1z M417.1,417.3
	c-0.6,0.6-1.1,0.2-1.6-0.3c-1.8-1.7-3.5-3.5-5.3-5.2c-1.1-1-0.5-1.6,0.3-2.4c1.6-1.6,3.1-3.2,4.8-4.7c0.9-0.8,1.6-2.9,3.1-2
	c2,1.3,3.7,3.2,5.2,4.6C421.9,411.7,419.8,414.7,417.1,417.3z M427,391.4c-0.3,4.2-0.9,8.4-2.2,12.7c-2-0.5-2.8-2.3-4.1-3.4
	c-0.9-0.8-0.1-1.2,0.4-1.7c0.7-0.7,1.4-1.4,2.1-2.1c0.8-0.8,1.2-1.7,0.3-2.6c-0.9-0.9-1.6-0.1-2.3,0.4c-1.3,0.9-2,3.3-3.6,2.6
	c-1.7-0.7-2.9-2.7-4.4-4c-1.2-1.1-0.2-1.7,0.5-2.4c1.2-1.3,2.5-2.5,3.7-3.7c0.6-0.6,0.8-1.4,0.2-2c-0.7-0.8-1.5-0.6-2.3,0.1
	c-1,1-2,1.9-2.9,2.9c-1.3,1.5-2.5,2.5-4,0.3c-0.5-0.7-1.4-1.2-2.2-0.3c-0.8,0.8-0.5,1.7,0.2,2.3c2.1,1.6,1.3,2.8-0.3,4
	c-0.4,0.3-0.7,0.7-1.1,1.1c-6.2,6.2-6.2,6.2-11.9-0.8c-1-1.3-0.7-1.8,0.2-2.7c1.8-1.7,3.6-3.5,5.3-5.2c0.9-0.9,2.2-1.9,1-3.1
	c-1.2-1.2-2.2,0.2-3,1c-5.9,5.9-11.9,11.7-17.7,17.8c-1.8,1.9-3,2-4.6,0c-1.5-1.8-3.3-3.4-5-5c-0.8-0.8-1.6-1.4-2.6-0.5
	c-1.1,1-0.1,1.8,0.5,2.5c1.8,1.9,3.6,3.8,5.6,5.5c1.3,1.2,1.7,2.1,0.1,3.5c-2.5,2.2-4.7,6.3-7.3,6.6c-2.7,0.3-4.7-4.3-7.3-6.3
	c-3-2.3-3.2-4.2-0.1-6.7c2.8-2.3,5.2-5,7.7-7.6c0.7-0.7,1.6-1.6,0.8-2.6c-1-1.2-2-0.3-2.8,0.5c-0.5,0.5-1.1,1.1-1.6,1.6
	c-6.1,6.1-12.2,12.1-18.1,18.2c-1.6,1.7-2.8,2.2-4.3,0.1c-0.5-0.7-1.2-1.3-1.9-1.8c-0.7-0.6-1.4-1.3-2.2-0.4
	c-0.8,0.8-0.5,1.6,0.1,2.3c0.7,0.7,1.3,1.5,2.1,2.1c1.9,1.4,1.8,2.5,0,4c-1.6,1.2-3.7,4-4.3,3.7c-2.2-1.1-4-3.3-5.8-5.1
	c-1.4-1.4,0.4-2,1-2.6c4.6-4.7,9.3-9.4,13.9-14.1c0.8-0.8,2.5-1.6,1.2-3c-1.5-1.6-2.4,0.3-3.3,1.1c-4.7,4.6-9.4,9.3-14.1,14
	c-1,1-1.9,2.1-3.2,0.3c-0.5-0.6-1.4-0.8-2-0.2c-0.8,0.7-0.6,1.7,0.1,2.3c1.7,1.4,0.6,2.2-0.4,3.2c-5.7,6-5.7,6-11.6,0
	c-1.5-1.5-2.9-3-5.2-2.9c0,0,0,0,0,0c0,0,0,0.1,0,0.2c1.1,3.8,4.3,5.9,6.9,8.4c1.5,1.5,1.7,2.7,0.8,4.4c-6.7,1.4-13.5,0.3-20.3,0.9
	c1.6-2.9,1.6-2.9,4.5-1.5c0.5,0.2,1.2,0,1.8-0.1c-2.7-4.7,1.2-6.6,3.7-9.3c0.9-0.9,2.2-1.6,2.5-3c0,0,0,0,0-0.1h0c0,0,0,0,0,0
	c0,0,0,0,0,0c3-1.8,5-4.7,7.5-7c0.8-0.7,1.4-1.6,0.4-2.5c-1.1-1-1.8,0-2.5,0.6c-4.2,4.2-8.6,8.3-12.6,12.7c-2.3,2.6-3.9,2.6-5.9-0.1
	c-0.6-0.9-1.5-1.7-2.2-2.5c-2.4-0.4-3.2,0.4-1.7,2.6c0.3,0.4,0.8,0.7,1,1.1c0.9,1.6,4.2,2.1,2.8,4.7c-1.9,3.4-7.9,5.7-10.5,4.4
	c-2.3-1.1-2.9-4.7-1.1-6.5c2.6-2.6,5.3-5.1,8-7.7v0c1.4-1.5,2.9-3.1,4.3-4.6c0.7-0.8,1.5-1.6,0.5-2.6c-1-1-1.8-0.2-2.6,0.5
	c-4.2,4.2-8.5,8.4-12.7,12.7c-1.4,1.4-2.3,1.9-3.8,0.2c-1.8-2.1-5.2-3.8-5.4-5.8c-0.2-1.8,3.3-3.9,5.1-5.9c0.8-0.9,2.8-1.8,1.2-3.3
	c-1.5-1.4-2.4,0.4-3.3,1.3c-3.3,3.2-6.5,6.5-9.8,9.8c-1,1-1.8,2.5-3.7,2c-0.3-0.1-1.2,0.5-1.2,0.6c0.7,4.6-5.7,5.1-5.5,9.5
	c0,0.6-2,0.7-2.1,0.1c-0.3-2.1-2-3.1-3.3-4.4c-1.1-1.1-0.3-1.7,0.4-2.4c1.7-1.7,3.3-3.4,5-5c0.8-0.8,1.4-1.7,0.4-2.5
	c-0.8-0.7-1.6-0.2-2.3,0.4c-1.3,1.3-2.6,2.7-4,4c-1.2,1.2-2.3,3.3-4.3,0.9c-0.4-0.5-1.1-0.4-1.6,0.2c-0.6,0.7-0.4,1.4,0,2.1
	c2.3,3.5-1.7,3.9-2.9,5.5c-1.4,1.8-2.1-0.6-3-1.3c-1.8-1.2-2.8-3.5-6-4.2c2.5-2.3,4.7-4.3,6.8-6.3c0.8-0.7,1.4-1.6,0.4-2.6
	c-1-1-1.8-0.1-2.5,0.6c-2.4,2.4-4.8,4.8-7.2,7.1c-1.4,1.3-2.4,3.5-5,1.4c-1.1-0.9-1.9,0.5-1.6,1.9c0.9,3.3-0.4,5.3-3.9,5.3
	c-15,0.1-29.9,0.1-44.9,0c-11.2-0.1-22.5,0.5-33.6-1.1c-26-3.7-46.7-15.3-57.4-40.7c-4.5-10.7-5.1-22.3-5.4-33.7
	c-0.5-23.5,1.2-46.9,2.3-70.3c1.1-23.3,2.4-46.6,3.6-69.8c0.3-5.6,0.3-5.6,5.7-5.7c56.4-0.3,112.7-0.6,169.1-0.8
	c55.6-0.3,111.2-0.5,166.8-0.9c3.6,0,4.5,0.9,4.6,4.5c0.4,35.3,1,70.6,1.5,105.8c0,0.5,0,0.9,0,1.6c-1.7-0.1-2.1-1.5-3.1-2.1
	c-0.7-0.5-1.4-0.5-2,0.1c-0.7,0.7-0.4,1.4,0.2,2c1.3,1.4,2.7,2.6,3.9,4c1.6,1.8,1.7,6.2,0.1,7.9c-0.9,1-1.8,2.7-3.5,0.9
	c-0.1-0.1-0.2-0.1-0.3-0.1c-0.7-0.3-1.6,0.2-1.5,0.5c0.6,2,0.1,3.9,0.1,5.9c0,0.5,1.1,0.8,1.6,0.4c2.6-2.4,3.5,0.6,4.4,1.8
	c1,1.3,1,3.3-0.4,4.7c-0.8,0.8-1.5,1.9-2.4,2.3c-3.4,1.3-2.1,2.9-0.3,4.2c3.3,2.3,2.5,4-0.1,6.4c-4.7,4.3-4.6,4.4,0,8.9
	c0.7,0.7,1.4,1.5,2.1,2.1c1.2,1,1.7,1.9,0.1,3.1c-1.4,1.2-2.7,2.6-4,3.9c-0.8,0.8-1.4,1.7-2.1,2.5c-0.6-0.4-0.8-0.6-1-0.7
	c-1.3-0.7-2-3.4-3.8-1.8c-1.7,1.5,0.7,2.4,1.4,3.6c2.2,4.2,6.7,6.1,9.9,9.3C426.6,389.6,427.1,390.1,427,391.4z M426.9,358
	c0,2.7,0,5.1,0,7.6C421.7,362.4,421.7,362.1,426.9,358z M427.2,385.7c-7.2-4.2-7.2-6,0-11.5C427.2,378.3,427.2,382,427.2,385.7z
	 M237.7,231.5c-11.8-4-24-5-36-1.4c-10.6,3.1-15.9,11.4-15.1,22.4c0.2,3.1,0.4,6.2,0.9,9.3c1.4,9.4,5.1,12.5,14.6,12.1
	c7.6-0.3,15.2-1,22.8-1.3c16.8-0.8,22.2-6.3,22.3-23.7C247.4,241.7,246.1,234.3,237.7,231.5z M240.5,257.8c-0.9,4.4-3.6,7.2-7.9,7.9
	c-11.2,1.7-22.6,2.1-33.9,2.3c-2.7,0.1-4.5-1.5-4.9-4.2c-0.9-5.5-1.8-11.1-1.2-16.7c0.6-5.2,4.1-8.3,8.5-10.5
	c5-2.4,10.3-2.6,14.3-2.5c6.9,0.2,12.4,0.5,17.7,1.9c5.6,1.4,7.9,4.2,8.2,10.1C241.4,249.9,241.3,253.9,240.5,257.8z M222.5,246.8
	c0.7,0.7,0.6,1.3,0,2c-0.7,0.8-1.6,1.6-2.3,2.4c-1.3,1.4-3.5,2.5-1.5,5.1c0.5,0.6,0.4,1.8-0.6,2.3c-2.1,0.9-1.6-1.9-3.9-2.2
	c-0.8,1-2.1,2.6-3.4,4.1c-0.7,0.8-1.6,1.4-2.5,0.4c-0.7-0.8-0.3-1.6,0.4-2.3c0.8-0.8,1.5-1.6,2.4-2.4c1.3-1.2,2.2-2,0.4-3.8
	c-1.8-1.8-2.7-1.4-4.1,0.3c-1.3,1.5-2.8,2.9-4.2,4.2c-0.5,0.5-1.2,0.9-2,0.3c-0.9-0.7-0.7-1.5,0-2.2c0.7-0.7,1.4-1.4,2.1-2.1
	c1.3-1.3,3.2-2.5,3.6-4.1c0.4-1.5-2-2.5-3.1-3.8c-0.7-0.8-1.3-1.6-0.3-2.5c0.9-0.8,1.6-0.1,2.2,0.5c0.3,0.3,0.6,0.5,0.8,0.8
	c1.9,2.8,3.8,2.8,5.9,0.1c0.7-0.9,1.7-2.8,3.2-1.2c1.4,1.5-0.7,2.2-1.2,3.3c-0.6,1.3-3.7,1.5-1.7,4c1.4,1.8,2.8,2.8,4.6,0.3
	c0.9-1.2,2.1-2.1,3.2-3.1C221.1,246.2,221.8,246.1,222.5,246.8z M398.3,245.3c-0.4-7.8-3.9-12.4-11.5-14.7
	c-6.2-1.9-12.7-2.2-19.2-2.4c-4.8-0.1-9.5,0.2-14,1.6c-11.5,3.6-17,12-15.6,23.8c0.4,3.5,0.6,7,1.2,10.4c1.1,6.4,4.8,9.9,11.2,9.8
	c11.2-0.2,22.4-0.6,33.5-2.2c8.1-1.2,12.1-5.5,13.7-13.6C398.5,253.8,398.5,249.5,398.3,245.3z M391.9,257.5
	c-0.8,4.7-3.7,7.5-8.4,8.3c-1,0.2-1.9,0.5-2.9,0.6c-8.3,0.6-16.7,1.1-23.9,1.6c-10.9,0.4-11.6-0.2-12.4-10.1
	c-0.1-1.2-0.3-2.5-0.4-3.7c-1.2-11.4,4.2-18.3,15.7-19.7c8.2-1,16.4-0.4,24.5,1.4c5.8,1.3,7.9,3.9,8.5,9.8
	C392.9,249.6,392.5,253.6,391.9,257.5z M370.5,246.4c1.1,1.2,0,2.1-0.8,2.8c-1.1,1-1.7,1.8-0.5,3.3c0.9,1.2-0.3,2.6-1.3,1.9
	c-2.7-2-3.7,0.3-4.9,1.6c-1,1.1-1.7,2.5-2.5,3.7c-0.3-0.2-0.6-0.5-0.9-0.7c-0.4-0.2-0.9-0.4-1.2-0.7c-0.6-0.7-0.3-1.4,0.3-2
	c1.3-1.3,2.5-2.8,4-4c1.4-1.2,0.9-1.9-0.1-2.9c-1-1-1.7-1.6-3-0.2c-1.6,1.8-3.3,3.4-5,5c-0.8,0.8-1.8,1.7-2.8,0.6
	c-0.9-1,0-1.8,0.7-2.5c1.1-1.2,2.3-2.3,3.4-3.4c1.4-1.5,4.3-2.8,0.9-5.3c-0.6-0.4-0.6-1.4,0-2c0.7-0.7,1.5-0.5,1.9,0.1
	c2.3,3.2,3.5,0.6,5.1-0.7c1.2-0.9,2.2-3.9,4-2.1c2,2-1.4,2.7-2.1,4.2c-0.5,1.2-3,1.6-2,3.4c0.9,1.5,2.3,3.3,4.2,0.7
	C368.3,246.2,369.4,245.3,370.5,246.4z M324.3,244.8c-0.9-8.1-4.1-12-11.9-14.3c-6.1-1.8-12.5-2.1-18.8-2.3
	c-4.9-0.2-9.7,0.2-14.4,1.7c-9.2,3-15.1,10.1-15.2,19c-0.1,5.1,0.4,10.2,1.3,15.2c1.3,6.5,5,9.8,11.7,9.7
	c10.9-0.3,21.9-0.6,32.8-2.2c8-1.2,12.1-5.2,13.8-13.1C324.6,254,324.8,249.4,324.3,244.8z M318,257.5c-0.8,4.5-3.5,7.5-8,8.2
	c-11.2,1.7-22.6,2.1-33.9,2.3c-2.9,0.1-4.7-1.7-5-4.6c-0.6-4.7-1.3-9.4-1.3-14.1c-0.1-7.9,6.6-13.9,16.2-14.9
	c2.7-0.3,5.5-0.3,6.9-0.4c6.7,0.3,12.1,0.5,17.3,1.8c5.9,1.5,8.1,4.1,8.6,10.1C319.1,249.8,318.7,253.7,318,257.5z M303.7,244.3
	c0.6,0.8,0.2,1.6-0.5,2.3c-1.2,1.1-2.2,2.4-3.4,3.4c-1.8,1.5-3,3-0.3,4.7c0.8,0.5,1.2,1.5,0.5,2.3c-0.9,1-1.9,0.6-2.5-0.3
	c-1.9-2.9-3.3-1.3-4.8,0.4c-0.7,0.7-1.4,1.4-2.1,2.1c-0.8,0.7-1.6,1.9-2.8,0.6c-1-1.2,0-2,0.8-2.8c1-1.1,2.1-2.2,3.2-3.1
	c1.1-0.9,1.1-1.7,0.1-2.7c-1.1-1-1.8-1.4-3-0.1c-1.8,2-3.8,3.9-5.8,5.8c-0.8,0.8-1.7,1.3-2.6,0.4c-1-1-0.1-1.8,0.6-2.5
	c1.8-1.9,3.7-3.7,5.5-5.6c0.5-0.5,1-1.1,1.7-2c-1.2-1-2.3-2-3.4-3c-0.8-0.8-1.9-1.7-0.8-2.8c1.1-1.1,2-0.1,2.8,0.7
	c0.6,0.6,1.3,1.2,1.8,1.9c1.1,1.5,2,1.3,3.2,0c1.2-1.4,2.6-2.7,3.9-4c0.7-0.7,1.5-0.9,2.3-0.2c0.9,0.8,0.4,1.6-0.3,2.3
	c-1,1.1-2.2,2-3.1,3.2c-0.8,1-3.1,1.6-1.1,3.7c2.2,2.3,2.9-0.1,4-1c1.2-1,2.3-2.3,3.4-3.4C301.9,243.8,302.9,243.3,303.7,244.3z
	 M159.1,290.7c-11.7-3.6-23.7-4.9-35.7-1.4c-8.1,2.4-14,7.7-15.3,16.6c-0.8,5.5,0.2,10.9,1.1,16.3c1.3,7.9,4.8,10.9,12.9,10.9
	c1.1,0,2.2,0,3.4,0c8.3-0.5,16.7-0.9,25-1.7c7.7-0.7,14.4-3.2,16.8-11.7c1.6-5.9,1.8-11.8,0.9-17.8
	C167.6,296.5,164.4,292.3,159.1,290.7z M162.2,316.4c-1.1,6-4.4,8.6-11.4,9.2c-7.8,0.6-15.7,1.1-23.5,1.7
	c-11.6,0.3-11.6,0.3-12.9-11.2c-0.1-0.6-0.2-1.2-0.3-1.9c-1.4-12.3,4.3-19.5,16.7-20.7c7.6-0.7,15.2-0.2,22.7,1.4
	c6.5,1.4,8.8,4.1,9.3,10.7C163.2,309.2,162.9,312.9,162.2,316.4z M206.7,333c5.9-0.4,14.2-0.8,22.5-1.6c11.2-1,15.9-5.6,17.5-16.7
	c0.5-3.3,0.4-6.7,0.3-10.1c-0.3-7.8-3.9-12.7-11.4-14.7c-9.9-2.7-20.1-3.6-30.3-1.6c-13.4,2.6-20.1,12.1-18.5,25.6
	c0.1,1.2,0.3,2.5,0.4,3.7C188.4,330.6,191.3,333.3,206.7,333z M203.4,294.9c6.8-2.3,13.8-1.8,20.7-1.2c3.5,0.3,6.9,0.7,10.3,1.8
	c4.2,1.5,6.7,4.2,6.8,8.8c0.1,3.1,0.1,6.2-0.1,9.3c-0.5,7.7-3.9,11.2-11.6,11.9c-7.7,0.7-15.4,1.2-24,1.9c-1.2,0-3.4,0.1-5.5,0
	c-4.7-0.3-6.1-1.7-6.7-6.4c-0.4-3.3-0.7-6.7-0.9-10.1C192,302.6,195.4,297.6,203.4,294.9z M234.1,348.8c-9-2.1-18.2-3-27.4-1.5
	c-11,1.9-22.6,9.2-19.9,26.3c0.5,3.1,0.7,6.2,1.3,9.2c1.4,6.6,4.3,9,11,9.4c2.1,0.1,4.2,0,6.3,0c0,0,0,0.1,0,0.1
	c8.1-0.6,16.1-1.1,24.2-1.8c10.4-0.9,15.1-5.3,16.9-15.6c0.6-3.3,0.6-6.7,0.5-10.1C246.8,355.9,243,350.9,234.1,348.8z M241.3,368.6
	c-0.4,13-2.7,15.6-15.7,16.7c-7.7,0.6-15.4,1.2-23.1,1.5c-7.2,0.3-8.8-1.3-9.4-8.4c-0.2-3-0.5-6-0.8-8.9c-0.6-7.1,3-11.6,9-14.5
	c3.4-1.6,7.1-2.2,10.9-2.4c6.4-0.3,12.7,0.3,19,1.4C239.3,355.5,241.6,358.8,241.3,368.6z M284.3,333c6.1-0.4,14.4-0.8,22.7-1.6
	c10.6-1.1,15.5-5.5,17-15.1c0.6-4,0.9-8.1,0.4-12.3c-0.9-7.8-4.2-12.2-11.7-14.1c-9.8-2.5-19.9-3.4-30-1.5
	c-11.5,2.2-18.9,10.4-18.8,20.7c0,3.2,0.3,6.5,0.8,9.7C266.7,331.7,268.8,333.3,284.3,333z M278.7,295.7c4.8-2.2,9.8-2.5,14.4-2.4
	c6,0,11.3,0.5,16.5,1.6c6.3,1.4,8.7,4.4,9.1,10.9c0.2,3.6-0.1,7.2-0.8,10.8c-1,5.3-4,8.2-10.2,8.7c-9.5,0.9-19.1,1.6-28.7,2
	c-6.4,0.3-7.8-1.1-8.6-7.6c-0.4-2.8-0.5-5.7-0.8-8.6C269,304,272,298.8,278.7,295.7z M155.7,348.8c-9-2.1-18.2-3-27.4-1.5
	c-11.9,2-22.6,10.2-20,25.9c0.5,2.8,0.6,5.7,1.1,8.5c1.5,7.9,4.6,10.5,12.7,10.8c2,0.1,4,0,6,0c0,0,0-0.1,0-0.1
	c3.8-0.3,7.7-0.6,11.5-0.9c3.8-0.3,7.7-0.5,11.5-0.9c11-1,16.3-6.4,17.2-17.4c0.2-2.8,0.3-5.7,0.2-8.6
	C168.2,355.8,164.5,350.9,155.7,348.8z M162.9,369.3c-0.9,12.8-3,14.9-15.7,16c-7.8,0.7-15.7,1.2-23.5,1.5c-6.9,0.3-8.6-1.4-9.1-8.3
	c-0.2-3-0.6-6-0.7-8.9c-0.2-7.1,2.8-11.8,9.3-14.7c3-1.3,6.2-1.9,9.4-2.2c6.1-0.5,12.2,0,18.2,1.1
	C161.1,355.5,163.7,358.9,162.9,369.3z M386.5,289.8c-9.7-2.5-19.7-3.4-29.6-1.6c-11.8,2.2-21.3,10.9-18.9,25.3
	c0.3,1.8,0.3,3.7,0.6,5.6c1.9,12.2,4.2,14.1,18.8,13.9c5.7-0.4,13.7-0.9,21.6-1.5c0.5,0,1,0,1.5-0.1c9.8-1.1,14.8-4.8,16.7-12.3
	c1.2-4.7,1.3-9.6,1-14.5C397.8,296.7,394.2,291.8,386.5,289.8z M392,315.9c-0.9,6.3-4.3,9.1-11.4,9.7c-7.7,0.7-15.4,1.2-23.1,1.8
	c-12.6,0.8-12.6-1-13.6-11.5c-1.4-14.9,4.4-21.9,19.4-22.5c6.6-0.2,13.2,0.1,19.7,1.5c6.7,1.4,9.1,4.1,9.4,11
	C392.7,309.2,392.5,312.6,392,315.9z M311.6,348.8c-9-2.1-18.2-2.9-27.4-1.5c-12.2,1.8-20.5,10.2-20.3,21c0.1,4.5,0.6,9,1.3,13.4
	c1.4,8.1,4.3,10.4,12.6,10.6c1.6,0,3.2,0,4.9,0c6-0.4,11.9-0.7,17.9-1.1c2.2-0.1,4.5-0.4,6.7-0.6c10.1-1.1,15.1-5.6,16.6-15.1
	c0.6-3.9,0.9-7.9,0.4-11.9C323.5,355.2,319.9,350.8,311.6,348.8z M317.9,376.6c-1,4.9-4.4,7.5-9.1,8c-10,1-20.1,1.7-30.2,2.2
	c-5.7,0.3-7.2-1.2-7.9-7.1c-0.5-3.6-0.8-7.2-0.9-10.8c-0.3-6.5,3.1-11.4,9.6-14.1c4.4-1.9,9.1-2.3,15.7-2.2c4.2,0.3,10.2,0.5,16,2
	c4.8,1.3,7.3,4.4,7.7,9.3C319,368.2,318.7,372.4,317.9,376.6z M146.8,313.4c1,0.8,2.6,1.9,1.2,3.3c-1.5,1.5-2.5-0.4-3.2-1.3
	c-1.6-2-3-2.2-4.6,0c-0.4,0.6-1,1.1-1.6,1.6c-0.7,0.6-1.5,1.6-2.5,0.6c-1.2-1.1-0.2-2,0.6-2.8c0.8-0.8,1.5-1.6,2.4-2.3
	c1-0.9,1.3-1.6,0.1-2.7c-1.1-1-1.7-1.4-2.9-0.1c-1.9,2.1-4,4.1-6,6.1c-0.7,0.7-1.6,1.5-2.6,0.6c-0.9-0.9-0.3-1.8,0.5-2.6
	c1.9-1.9,3.9-3.9,5.8-5.8c0.5-0.5,1-1,1.5-1.6c-0.8-0.9-1.4-1.6-2.1-2.3c-0.5-0.6-1-1.3-0.4-2c0.7-0.8,1.7-0.9,2.3-0.1
	c2.2,3.2,3.6,0.9,5.4-0.5c1.3-1.1,2.5-4.4,4.4-2.5c1.9,1.9-1.5,3-2.5,4.5c-0.4,0.7-1.2,1.3-1.8,1.9c-1.2,1-0.5,1.7,0.2,2.4
	c0.8,0.9,1.6,1.6,2.7,0.2c0.3-0.4,0.6-0.8,1.1-1c1.1-0.7,1.8-3.1,3.5-1.6c1.7,1.6-0.5,2.7-1.4,3.5
	C144.6,310.4,144.6,311.8,146.8,313.4z M207.1,315.5c-1.8-1.9,1.4-3.1,2.6-4.5c1-1.2,0.7-1.8-0.2-2.7c-0.8-0.7-2-1.6-0.9-2.8
	c1.3-1.4,2.2,0,3.1,0.8c0.5,0.4,0.9,0.8,1.7,1.5c1.3-1.4,2.5-2.8,3.7-4.2c0.7-0.8,1.6-1.3,2.5-0.3c0.9,0.9,0.1,1.6-0.4,2.2
	c-0.9,1-1.9,2-2.9,2.9c-0.9,0.8-1.1,1.4-0.1,2.4c1,1,1.7,1.1,2.6,0c0.9-1,1.9-2,2.9-2.9c0.8-0.7,1.6-2,2.8-0.9
	c1.4,1.3-0.1,2.2-0.9,3c-0.5,0.6-1,1.1-1.6,1.6c-1.5,1.4-3.2,2.6-0.6,4.6c0.5,0.4,0.4,1.2,0,1.7c-0.5,0.7-1.5,0.8-2,0.2
	c-2-2.6-3.2-0.7-4.6,0.7c-0.7,0.7-1.4,1.4-2.2,2.1c-0.6,0.5-1.4,0.6-2,0c-0.6-0.6-0.4-1.4,0.1-2c1-1.1,2-2.2,3.2-3.2
	c1-0.9,1.2-1.6,0.1-2.7c-1-1-1.5-0.5-2.4,0.2C210.2,314,209,317.4,207.1,315.5z M223.8,364.9c0.9,1,0.2,1.8-0.5,2.6
	c-1.7,1.7-3.2,3.5-5,5c-2,1.6-2.2,2.9-0.1,4.6c0.9,0.7,2.7,1.8,1.2,3.2c-1.6,1.5-2.5-0.5-3.2-1.4c-1.8-2.4-2.9-1.4-4.6,0.2
	c-1.4,1.3-2.9,4.7-4.7,2.9c-2.2-2.2,1.8-3.2,2.8-5c0.6-1.2,3.1-1.5,1-3.7c-2.1-2.2-2.9-0.3-4,0.8c-1.2,1.1-2.3,2.3-3.5,3.4
	c-0.6,0.6-1.4,0.8-2,0.3c-0.8-0.7-0.6-1.5,0-2.3c0.5-0.6,1-1.1,1.6-1.6c1.3-1.3,3.3-2.5,3.6-4.1c0.3-1.5-2.1-2.5-3.1-3.8
	c-0.5-0.7-1.3-1.3-0.5-2.2c1-1.1,1.7-0.3,2.5,0.3c1.4,1,2.1,3.6,4.1,2.9c1.5-0.5,2.4-2.5,3.8-3.5c1.4-1,2.5-4.4,4.5-2.4
	c1.7,1.7-1.4,2.9-2.4,4.2c-0.9,1.2-2.1,2.1-3.1,3.2c-0.5,0.5-1.3,1-0.5,1.8c0.6,0.8,1.3,1.5,2.1,2.3c0.7-0.6,1.3-1,1.8-1.5
	c1.9-1.9,3.9-3.9,5.8-5.8C222,364.7,222.8,363.9,223.8,364.9z M280.9,320.7c-0.8-1,0-1.8,0.7-2.5c2.1-2.1,4.1-4.3,6.4-6.3
	c1.6-1.4,1.6-2.2,0.1-3.8c-1.2-1.3-4.8-2.5-2.6-4.7c1.7-1.7,3.3,1.4,4.4,2.7c1.7,1.9,2.6,1.2,4.1-0.2c1.4-1.3,2.9-4.8,4.6-3
	c2.3,2.2-1.7,3.3-2.8,4.9c-0.9,1.3-2.3,2-0.4,3.8c2,2,2.7,0.2,3.7-0.8c0.6-0.5,1-1.1,1.6-1.6c0.7-0.6,1.3-1.2,2.2-0.4
	c0.8,0.8,0.5,1.6-0.2,2.3c-0.5,0.6-1,1.1-1.6,1.6c-1.6,1.3-2.6,2.7-0.3,4.3c0.7,0.5,0.9,1.2,0.6,2c-0.2,0.4-0.7,0.6-0.8,0.7
	c-2.1,0.1-2.5-2.8-4.3-2c-1.4,0.6-2.4,2.1-3.6,3.1c-0.6,0.4-1.2,0.1-1.6-0.5c-0.4-0.6-0.3-1.2,0.1-1.7c0.6-0.8,1.3-1.5,2.1-2.1
	c1.3-1.1,1.1-1.8,0-3c-1.2-1.2-2-1.5-3.2-0.1c-2.1,2.3-4.4,4.4-6.6,6.6C282.9,320.9,282,321.9,280.9,320.7z M144.2,364.1
	c1.2,1.2,0.2,2.3-0.8,3.1c-1.2,1.1-2.5,2.1-3.8,3.1c0.9,0.9,1.3,1.4,1.7,1.9c0.7,0.9,2.3,1.7,0.8,3c-1.2,1.1-2.1-0.1-2.7-0.9
	c-1.2-1.4-2.2-1.3-3.3,0.1c-0.5,0.7-1.2,1.3-1.8,1.8c-0.9,0.7-1.7,2.4-3,1c-1.2-1.3,0.4-2.1,1-3.1c1.1-1.6,5.1-2.5,1.4-5.5
	c-1.2-1-1.8-1.3-3,0c-1.8,1.9-3.7,3.7-5.5,5.6c-0.6,0.6-1.4,1.2-2.3,0.5c-1-0.9-0.5-1.8,0.2-2.6c1-1,1.9-1.9,2.9-2.9
	c2.1-2.2,5.6-4.1,0.9-7.2c-0.8-0.5-0.9-1.6-0.2-2.3c0.8-0.7,1.7-0.5,2.2,0.3c2.7,4.2,4.6,1.6,6.9-0.6c1.2-1.2,2.5-4.4,4.4-2.6
	c1.9,1.9-1.4,3.1-2.4,4.5c-0.6,0.9-1.5,1.7-2.4,2.4c-1.7,1.4-0.5,2.2,0.4,3.2c1.1,1.2,2,1.8,3.2,0.2c0.6-0.8,1.4-1.4,2.1-2.1
	C142.2,364.3,143.1,363,144.2,364.1z M376.2,305.6c0.7,0.8,0.2,1.6-0.4,2.3c-0.7,0.7-1.4,1.4-2.1,2.1c-1.8,1.7-4.1,3.3-0.6,5.5
	c0.7,0.4,0.7,1.3,0.3,2c-0.2,0.3-0.8,0.5-1,0.6c-0.5-0.1-0.8-0.1-0.9-0.3c-2.8-4.5-4.6-0.9-6.6,0.8c-0.7,0.6-1.4,1.1-2.3,0.3
	c-0.8-0.8-0.5-1.6,0.2-2.3c0.7-0.7,1.3-1.5,2.1-2.1c1.5-1.2,1.1-2,0-3.3c-1.2-1.3-1.9-1.3-3.2-0.1c-1.2,1.1-2.4,4-4.3,2.1
	c-1.6-1.6,1.1-3,2.2-4c1.7-1.6,0.8-2.3-0.3-3.5c-0.9-0.9-3-1.9-1.3-3.5c1.5-1.4,2.5,0.5,3.2,1.4c1.5,1.8,2.5,1.8,4,0
	c1.5-1.8,3.3-3.4,5-5c0.7-0.7,1.5-1.1,2.3-0.3c0.8,0.8,0.5,1.6-0.2,2.3c-1.1,1.2-2.6,2.1-3.3,3.5c-0.8,1.6-5.4,2-2,5.2
	c3,2.9,3.3-1.3,5-2c0.6-0.3,1.1-1,1.6-1.5C374.4,305.1,375.3,304.6,376.2,305.6z M293.8,370.7c0.7,0.6,0.9,1.6,0.2,2.3
	c-0.8,0.8-1.6,0.4-2.2-0.3c-1.5-1.9-2.4-0.6-3.5,0.5c-1.6,1.6-3.2,3.2-4.8,4.7c-0.7,0.7-1.6,1.5-2.5,0.5c-0.9-1-0.1-1.8,0.6-2.5
	c1.6-1.6,3.1-3.3,4.8-4.7c1.5-1.3,1.7-2.2,0.1-3.7c-1.6-1.6-2.5-1.3-3.8,0.2c-1.6,1.8-3.3,3.4-5,5c-0.8,0.7-1.6,2.4-3,0.9
	c-1.3-1.4,0.4-2.2,1.1-3c1.7-1.8,3.5-3.5,5.2-5.3c0.4-0.4,0.8-0.9,1.4-1.5c-1-1-1.9-2-2.8-3c-0.7-0.7-1.6-1.5-0.5-2.5
	c1-0.9,2-0.4,2.5,0.5c2.4,3.7,4.3,2,6.3-0.4c0.7-0.8,1.7-2,2.8-1c1.3,1.3-0.3,2-0.8,3.1c-0.7,1.5-4.5,1.9-1.8,4.7
	c1.3,1.4,2.5,2.5,4,0.3c0.6-0.8,1.6-1.5,2.5-0.6c1.1,1.1,0.2,2.1-0.7,2.8C292.8,368.5,292.2,369.4,293.8,370.7z"/>
</svg>
