<?xml version="1.0" encoding="utf-8"?>
<!-- Generator: Adobe Illustrator 24.2.0, SVG Export Plug-In . SVG Version: 6.00 Build 0)  -->
<svg version="1.1" id="Layer_2" xmlns="http://www.w3.org/2000/svg" xmlns:xlink="http://www.w3.org/1999/xlink" x="0px" y="0px"
	 viewBox="0 0 500 500" style="enable-background:new 0 0 500 500;" xml:space="preserve">
<path d="M434.3,249.9c-0.8-14-1.4-27.9-3.6-41.8c-3.4-21.4-15.3-34.8-36.5-40c-10.1-2.5-20.3-3.9-30.7-4.3c-3.2-0.1-4.4-0.7-4.3-4.4
	c0.6-11.9,0.6-23.7-2-35.4c-4.7-21-17-34.5-38.2-39.4c-8.1-1.9-16.2-2.7-24.5-3.3c-24.2-1.6-48.4-1.6-72.6,0.8
	c-15,1.5-29.9,3.8-44.2,9c-23,8.3-34.9,26.2-33.4,50c0.4,6,2.3,11.7,5,17.5c-1.7,0-2.9,0-4.1,0c-13.6,0.5-27.1,1.5-40.4,5.1
	c-20.8,5.7-33.9,18.5-38.2,40c-2,10.2-2.5,20.6-2.6,30.9c-0.1,19.5-0.3,39-0.1,58.5c0.2,20.1-1.2,40.2,1.5,60.3
	c2.7,20.1,11,36.9,28.6,48.2c12.4,8,26.2,12.2,40.8,13.2c23.1,1.6,46.2,1.7,69.3,2.2c52.1,1,104.2,1.7,156.3,2.6
	c10.5,0.2,21,0.2,31.4-1.6c19.9-3.5,33.2-14.3,39-34c3.6-12.1,4.6-24.5,4.8-37C436.4,314.6,436.2,282.3,434.3,249.9z M353.5,143.5
	c0,2.2,0.5,4.4-0.2,6.5c-2.2-1-3.3-3.1-5.2-4.7c1.7-1.6,3.3-3,5-4.6C353.9,141.6,353.5,142.6,353.5,143.5z M353.4,157.6
	c0,1.7,0,2.9,0,4.2c0,0.9-0.3,1.5-1.3,1.3c-0.8-0.2-2.3,0.7-2.4-0.8c-0.1-1.5-1.2-2.1-1.8-3.1c-0.6-1.1-3.3-1.6-1.7-3.3
	c1.5-1.6,2.6-4.8,6-3.1C355.1,154.1,352.6,156.4,353.4,157.6z M331.6,156.8c1.1-1.9,2.8-3.4,4.6-4.7c0.4-0.3,4.6,3.6,4.7,4.4
	c0.1,0.6-4,4.9-4.7,4.9C335.6,161.4,331.4,157.2,331.6,156.8z M331.9,162c-1.9-0.1-3.4-0.2-5-0.3C329.1,158.5,329.1,158.5,331.9,162
	z M346.8,162.9c-1.8-0.1-3.5-0.2-5.2-0.4c-0.5,0-0.9-0.1-1.8-0.3C343.8,158,343.8,158,346.8,162.9z M172,100
	c11.7-6,24.4-8.6,37.3-10.4c33.8-4.7,67.7-4.7,101.6-0.7c21.8,2.6,35.2,14.2,40.3,34.8c1,4,0.4,4.9-3.9,5.4
	c-0.9,0.1-1.8,0.8-1.3,1.3c1.3,1.2-1.2,4.1,1.6,4.2c2.3,0.1,4.3,1.8,3.9,2.8c-0.9,2.3-3,4.3-5.4,5.4c-0.9,0.4-1.8-1.4-2.7-2.2
	c-0.8-0.7-1.6-1.3-2.6-0.4c-1.1,1-0.1,1.8,0.5,2.5c1.5,1.4,3.5,2.7,1,4.9c-0.5,0.4-0.2,1.2,0.3,1.7c0.7,0.6,1.4,0.4,2-0.2
	c1-1.1,2-1.5,3-0.1c1.1,1.5-0.5,2.1-1.2,2.6c-1.1,0.9-1.9,3.7-3.5,2.2c-1.4-1.3-5.2-2-3-5.5c0.2-0.3,0.1-1-0.1-1.4
	c-0.5-0.6-1.4-1.1-1.9-0.3c-1,1.8-4-1.3-4.3,2c-0.3,3.6-2.4,5.2-5.9,5.1c-1.4,0-2.2,0.7-1.4,2.1c0.5,0.9,0.8,1.5-0.1,2.1
	c-1.7,1.2-2.6,4.3-4.9,3.4c-1.8-0.7-0.4-3.3-0.3-5.1c0.8-18.2-13.9-34.8-32.2-36.5c-12.6-1.2-25.2-0.3-37.8,0.3
	c-13.2,0.6-26.5,0.6-39.6,2.7c-8.5,1.4-16.4,4.2-22.9,10.2c-1,1-1.7,1.5-3,0.2c-1.1-1.2-0.7-1.8,0.2-2.7c0.8-0.8,2.2-1.8,1.1-3.1
	c-1.3-1.4-2.1,0.2-3.1,0.9c-0.6,0.4-0.9,1.5-1.8,1.1c-2.6-1.2-2.5-0.5-2.5,2.2c-0.1,2.8-3.1,4.7-5.5,6c-2.2,1.2-1.5,1.9-0.5,3.3
	c1.4,1.9,4.2,2.7,4.3,5.5c0.2,0,0.3,0,0.2,0c0,0,0,0-0.1,0c0,0-0.2,0.1,0,0c0,0,0,0-0.1,0c0,0,0,0,0,0c3.2-0.3,1.7,1.3,1.1,2.7
	c0,2.6,0,5.2,0,7.8c-5.3-2.6-5.4-3.6-0.7-7.8c0.5-1,1.6-2.1-0.4-2.7c0,0,0,0-0.1,0l0,0c0,0,0,0,0,0c0,0,0,0,0,0c0,0,0,0,0,0
	c0,0,0,0,0,0c-2.3-0.1-2.8,2.1-4.2,3.1c-0.9,0.7-1.5,1.6-2.7,0.3c-0.9-1-1.4-1.6-0.2-2.7c0.9-0.7,1.7-1.7,0.5-2.8
	c-1.3-1.1-2,0.3-2.7,1c-1.8,1.7-3.6,3.5-5.3,5.3c-1.9,2-3.6,4.6-6.4,0.8c-1.2-1.6-2.4-0.5-2.6,1.3c0.9,1.4,3.3,1.8,2.8,4.1
	c-0.1,0.4-0.9,0.7-1.4,1.1c-0.7-1.5-1.4-2.9-2.1-4.4C144.7,133.8,153,109.8,172,100z M315,157.8c-0.3,2.4-1,3.2-3.6,3.1
	c-20.5-0.8-40.9-1.5-69.2-2.5c-12.6,0-33.1-0.1-53.6,0.1c-3,0-3.9-1-4-3.8c-0.3-9.5,4.6-16.1,12.2-20.9c7.2-4.6,15.6-6,23.9-6.5
	c18.9-1.1,37.9-2.2,56.9-2.4c5.2-0.1,10.5,0.1,15.6,1.5C306.8,130.1,316.7,144.4,315,157.8z M181.4,144.3c-2-2.2-3.3-3.6-4.6-5.1
	c1.7-1.6,3.5-3.4,5.4-5.3C188.1,138,180.5,140.1,181.4,144.3z M175,158.4c-2,0-3.9,0-6.3,0C172.1,154.3,172.1,154.3,175,158.4z
	 M165.2,157.5c-0.5,0.5-1.1,1.1-1.8,0.3c-0.5-0.6-1.6-1.8-1.4-1.9c1.6-1.9,3.4-3.7,5.2-5.6c0.7,0.6,1.4,1.2,2,1.7
	c0.8,0.7,0.3,1.3-0.2,1.8C167.7,155,166.5,156.3,165.2,157.5z M70.8,216.4c0.3-5.4,1.3-10.7,2.7-15.8c5.1-19.1,19-28.1,37.1-32.3
	c9.9-2.3,20-3.4,30.1-3.6c56.1-1.4,112.2-0.6,168.2,2c22.2,1,44.4,1.9,66.6,4c6.5,0.6,12.8,1.8,19.1,3.5
	c15.9,4.2,25.4,14.5,29.5,30.2c3.8,14.4,4.5,29.1,5.1,43.8c0.6,15.7,0.6,31.5,1,47.2c0.1,2.7-0.7,3.3-3.3,3.3
	c-48.1,0-96.2,0.1-144.3,0.3c-2.5,0-2.8-0.9-2.8-3c0.2-5.7,0.1-11.5-0.4-17.2c-1.1-11.4-6.3-17.5-17.4-19.9
	c-6.3-1.4-12.6-1.8-19-0.7c-12.2,2-18.8,9.3-19.9,21.7c-0.4,5.2,0.1,10.2,1.1,15.3c0.4,2.2,0.2,2.8-2.2,2.7
	c-24.8-1.3-49.7-2.4-74.5-3.6c0,0,0,0,0,0c-24.8-1.2-49.7-2.4-74.5-3.5c-1.8-0.1-3-0.2-2.9-2.6C70.4,264.1,69.3,240.3,70.8,216.4z
	 M310.4,304.8c-1.5,1.9-1.5,1.9-3.1,0.1C308.3,304.4,309.3,304.6,310.4,304.8z M300,305c-2.4,3.1-2.4,3.1-5.2,0
	C296.6,305,298.2,305,300,305z M279.4,326.7c0-1.1,0.3-2.1,1.4-2.4c1.3-0.3,1.8,1.1,2.6,1.8c1,1,0,1.5-0.6,2.1
	c-0.9,1-1.9,1.9-3.4,3.2C279.4,329.4,279.5,328,279.4,326.7z M280.8,319c-2.7-0.8-0.9-4.4-1.2-6.7c-0.2-1.8,0-3.7,0-5.9
	c3.5,0.7,1.5,3.3,2.3,4.6c1,1.5,3.6-1.4,4.7,1.3c0.4,0.9,0.8,1.4-0.1,2.1C284.5,315.9,283,319.6,280.8,319z M283.4,305.1
	c0.8-0.5,1.6-0.5,2.4,0c0,0-0.2,0.7-0.5,0.8C284.2,306.7,283.8,305.8,283.4,305.1z M231.3,279c5.2-5,5.2-5,9.5-0.1
	c-2.1,2.5-4.2,4.9-6.3,7.3c-1.1,1.2-2,2.4-3.7,0.5c-1.6-1.8-3.5-3.4-1.4-6C229.9,280.1,230.7,279.6,231.3,279z M229.4,275.9
	c0.7-1.4,1.2-2.9,2-4.2c0.3-0.5,0.6-1.5,1.6-0.8c0.8,0.6,1.2,1.2,0.4,2.1c-1,1.2-1.9,2.6-2.9,3.8
	C230.1,276.6,229.8,276.2,229.4,275.9z M235.5,266.8c1.8-1.3,3.6-2.5,6.5-1.8c-1.5,1.3-3,2.5-4.5,3.8c-0.8,0.7-1.4,1.3-2.4,0.3
	C233.9,268,234.7,267.4,235.5,266.8z M237.6,297.5c1,1,0.8,1.6-0.1,2.4c-1.9,1.9-3.8,3.9-6.2,6.3c-0.8-6-1.5-11.3-2.4-17.6
	C232.3,292.1,234.9,294.8,237.6,297.5z M231.5,312.2c2,1.2,4.1,2.5,4.2,4.4c0.1,1.5-2,2.8-4.2,4C231.5,317.5,231.5,315,231.5,312.2z
	 M233.1,323.4c1.4,1.8,2.5,3.3,3.5,4.8c0.6,0.9,2.7,1.5,1.8,2.7c-1.3,1.8-2.8,3.5-4.8,4.5c-0.3,0.1-1.5-0.8-1.5-1.3
	c-0.3-2.8-0.4-5.7-0.4-8.5C231.6,325.3,232.1,324.9,233.1,323.4z M236.1,338.4c-0.5-1.2,0.8-1.6,1.5-2.3c2-2.1,4.1-4.1,6.1-6.1
	c0.6-0.6,1.3-1.3,0.6-2.3c-0.5-0.7-1.2-0.6-2-0.4c-4,1.1-4.8-2.9-6.8-4.7c-1.3-1.2,1.2-2.3,2-3.3c1.5-1.8,3.3-3.4,5-5.1
	c0.5-0.5,0.9-1.2,0.3-2c-0.6-0.6-1.4-1-1.9-0.2c-2.6,3.6-4.1,0.7-5.9-1c-0.7-0.7-1.6-1.2-2.6-2c3.6-2.8,5.7-6.5,9.5-8.4
	c1.4-0.7,2.2-2.8,2.9-4.5c0.4-1-0.8-2.3-1.7-1.4c-2.8,2.7-3.8-0.1-5.5-1.3c-3.1-2.3-3.1-4.4,0.1-6.4c2.6-1.7,3.4-5.6,7.5-5.5
	c1.4,0,0.6-1.7-0.2-2.6c-1.8-1.8-3.5-3.6-5.3-5.3c-1.4-1.2-1.3-2.1,0.1-3.2c1.7-1.3,3.2-2.7,5-4.2c0.7,1.4,5.1,1.9,1.7,5.5
	c-0.4,0.4-0.2,1.2,0.4,1.6c0.6,0.5,1.3,0.4,1.7-0.1c1.7-2.2,2.7-0.8,4,0.5c0.8,0.8,1.8,2.8,3.2,1.1c1.3-1.5-0.5-2.4-1.4-3.3
	c-3.8-3.7,1.4-4.1,2.3-6.1c0.9-2.2,1.8-0.3,2.7,0.3c1.3,0.9,1,1.7,0,2.6c-0.7,0.6-1.2,1.2-1.8,1.9c-0.6,0.7-1.1,1.4-0.2,2.2
	c0.8,0.8,1.8,0.5,2.3-0.3c2.1-2.8,4-3.3,6.2-0.1c0.4,0.6,1.3,0.7,2,0c0.6-0.6,0.4-1.4,0-2c-0.9-1.3-2.6-1.9-3-4.4
	c5.4,2.3,7.4,6.3,8.4,11.1c0.4,1.8,0.7,3.7,0.7,5.6c0,16.5,0.6,33-0.5,49.4c-0.7,10.5-5.1,14.6-15.7,15.2
	c-5.2,0.3-10.5,0.3-15.6-0.9c-3.2-0.7-6.2-2-8.4-5C234.9,340.6,237.5,341.3,236.1,338.4z M246.8,263.6c2.5,0,4.6,0,6.9,0
	C250.5,267.9,250.5,267.9,246.8,263.6z M288.9,410.2c-0.5-1.4,0.6-1.7,1.2-2.4c0.8-1,1.5-0.3,2.1,0.3c1.4,1.4,2.8,2.7,4.2,4.1
	C293.6,412.2,290.3,414.5,288.9,410.2z M302.9,412.7c3.5-4.4,3.5-4.4,6.9,0C307.5,412.7,305.3,412.7,302.9,412.7z M318.2,412.1
	c-0.2,2-2,0.4-2.9,1c-1.4-0.1-3.1,0.5-3-2c0-0.6-1-1.3-1.5-2c-0.6-0.9-2.3-1.5-1.8-2.5c0.8-1.5,2.3-2.6,3.6-3.7
	c0.6-0.5,0.9,0.5,1.3,0.9c1.2,1.3,2.3,2.8,3.7,3.7C320,408.7,318.4,410.5,318.2,412.1z M335.3,412.6c-0.9,2-4,0.5-6.1,0.7
	c-2.8,0.2-5.6,0-8.5,0c-0.1-0.3-0.2-0.7-0.3-1c2-0.3,4.7,0.4,3.9-3.3c-0.2-1,2.1-2.6,3.4-3.7c2.4-1.9,2.8,1.1,3.7,2
	C333.1,408.8,336.3,410.1,335.3,412.6z M342.9,413.5c-1.4,0-2-0.9-2.6-1.8c-0.9-1.2,0.5-1.7,1.1-2.4c1-1.1,2.3-2,3.1-3.2
	c2.3-3.2,4-2.4,6.2,0.2c1.2,1.4,0.7,2-0.3,3c-0.4,0.4-0.7,1.1-0.2,1.7c0.4,0.5,1,1.1,1.6,0.6c2.8-2.9,3.8,0.1,5.9,1.9
	C352.3,413.5,347.6,413.4,342.9,413.5z M362.6,414c-3.5-0.1-3.5-4.1-5.8-5.8c-1.2-0.9,1.2-2.3,2.1-3.2c1.4-1.5,3.1-4.5,4.5-3.9
	c2.3,0.9,4,3.6,6,5.5c0.8,0.8,0.2,1.3-0.3,1.8c-0.7,0.8-1.3,1.7-0.3,2.6c0.9,0.8,1.5-0.1,2.3-0.4c3.4-1.7,3.2,2.3,4.8,3.6
	C371.5,414,367.1,414.1,362.6,414z M369.2,394.6c4.7-4.7,4.7-4.7,9.4,0.1c0.6,0.6,1.3,1.1,2.1,1.7c-0.6,0.8-0.9,1.2-1.3,1.7
	c-1.3,1.3-2.8,2.5-3.9,4c-2.3,3.3-4.1,2.6-6.5-0.1C365.6,398.1,365.5,398.3,369.2,394.6z M402.2,409.2c-6.4,2.7-13.1,3.9-20.4,4.5
	c-2.6,1.4-2.7-1.5-3.9-2.9c-3.2-4-3.2-3.9,0.4-7.6c0.3-0.3,0.5-0.5,0.8-0.8c3.7-3.7,3.6-3.6,7.2,0c1.4,1.4,1.4,2.3,0,3.4
	c-0.8,0.6-1.1,1.5-0.4,2.3c0.7,0.8,1.7,0.5,2.3-0.2c1.7-2.2,2.8-0.8,4.1,0.5c1,0.9,1.9,3.1,3.5,1.4c1.3-1.4-0.4-2.5-1.4-3.3
	c-2.4-1.8-1.8-3,0.1-4.8c4.8-4.6,4.7-4.7,9.3-0.1C408.7,406.4,408.7,406.4,402.2,409.2z M387.2,394.4c0.3-0.5,0.9-0.9,1.3-1.3
	c3.5-3.5,5.4-3.2,7.9,1c0.1,0.2,0.3,0.4,0.4,0.6c0.2,0.7-6.1,7-7.2,6.9c-1.3-1.3-3-2.7-4.2-4.4C384.6,395.7,386.6,395.4,387.2,394.4
	z M411.7,403.7c-1,0.8-1.5,0.1-2.2-0.6c-1.9-1.9-3.8-4-5.9-5.8c-1.7-1.5-2.4-2.5-0.3-4.6c2.1-2.1,3-0.8,4.3,0.5
	c1.9,2,3.9,3.9,5.8,5.8c0.4,0.4,0.9,0.8,1.4,1.1C414,401.8,412.8,402.7,411.7,403.7z M429.7,352.7c-1,1.5,1.6,4.7-2.1,5.1
	c-0.8,0.1-6-5-6-5.7c0-0.8,4.1-4.8,4.5-4.3C427.6,349.2,431.5,348.8,429.7,352.7z M429.9,346.9c-1.2-0.9-2-1.3-1.2-2.3
	c0.2-0.3,0.8-1,1-0.5C430,344.8,429.9,345.7,429.9,346.9z M425.3,316.7c-0.9,0.7-2.3,1.8-1,3c1.3,1.3,2.1-0.3,3.1-1
	c0.3-0.2,0.7-0.6,0.9-0.5c1.1,0.2,1.8,1,1.9,2.1c0.2,2.3,0.2,4.4-1.9,6.1c-1.2,1-1.7,0.1-2.4-0.5c-0.3-0.2-0.5-0.5-0.8-0.8
	c-1-0.8-1.8-2.7-3.3-1.4c-1.7,1.4,0.2,2.5,1.1,3.2c2.2,1.8,2.3,3.2,0,4.9c-0.9,0.6-1.8,1.7-0.6,2.8c1,0.9,1.8-0.1,2.6-0.7
	c1.2-0.9,2-3.4,4-0.9c1.9,2.3,1.8,4.8,0.4,7.1c-0.7,1.1-2,1.9-3,2.8c-1,0.1-1.3-0.9-1.9-1.4c-0.8-0.6-1.7-1.3-2.6-0.4
	c-1.1,1-0.2,1.9,0.6,2.5c1.9,1.5,1.2,2.6-0.3,3.8c-0.8,0.6-1.4,1.4-2.1,2.1c-2,1.9-2.3,3.7,0.1,5.5c0.8,0.6,1.3,1.5,2.2,2.1
	c3.2,2.2,2.8,4,0.1,6.5c-2.2,2-3.2,1.8-4.9-0.2c-0.8-0.9-1.8-2.8-3.3-1.5c-1.7,1.6,0.3,2.7,1.3,3.5c2.4,1.8,2.2,3.3-0.1,4.8
	c-1.8,1.2-2.5,4.4-5.9,2.9c-1.1-0.5-1.5,1.3-0.7,2.1c4.1,4.2,8.2,8.4,12.4,12.5c0.7,0.7,1.5,0.3,2.1-0.3c0-0.1,0-0.2,0.1-0.3l0,0
	c0,0,0-0.1,0.1-0.1c-1.3-3.8-4.8-5.7-7.4-8.3c-2-2-2.5-3.3,0-5.1c0.8-0.6,1.5-1.3,2.1-2.1c1.2-1.4,2.2-1.8,3.5-0.1
	c0.5,0.7,1.2,1.3,1.9,1.8c0.6,0.5,1.4,0.6,2-0.1c0.5-0.5,0.6-1.4,0.1-1.7c-6.1-4.6-0.1-6.6,2-9.4c0.4-0.5,0.9-0.8,2.1-2
	c-1.4,9.8-1.7,18.9-6.3,27c0,0.1,0.1,0.1,0.1,0.2c0,0,0,0-0.1,0l0.1,0c-0.1,0-0.1,0.1-0.2,0.1c-0.8,4.4-3.6,7.6-6.3,11.3
	c-2.7-2.8-5.1-5.5-7.7-8c-1.3-1.3-1.7-2.1-0.1-3.5c0.9-0.8,3.1-1.9,1.4-3.5c-1.4-1.3-2.5,0.4-3.3,1.4c-1.8,2.3-2.7,0.6-4.1-0.5
	c-1.3-1-2.4-4.1-4.3-2.3c-1.8,1.8,1.2,3.1,2.3,4.2c1.5,1.6,2.2,2.4,0.2,4.4c-2.1,2.1-3,1-4.4-0.4c-0.9-1-2.1-1.7-3.1-2.6
	c0.9-1,1.4-1.5,1.9-2.1c0.6-0.7,1.7-1.4,0.7-2.5c-1.1-1.3-2.1-0.3-2.8,0.5c-1.5,2-2.6,0.9-3.8-0.4c-0.7-0.8-1.6-1.9-2.8-0.8
	c-1.3,1.2-0.1,2.2,0.7,2.7c2.5,1.8,1.2,3-0.4,4.6c-4.7,4.6-4.7,4.6-9.3,0c-0.4-0.4-1.2-0.8-1.3-1.3c-1.5-5.6-3.6-2.1-5.5-0.3
	c-2,1.9-3.9,3.8-5.8,5.8c-1.2,1.3-2.2,2.4-3.8,0.5c-0.5-0.6-1.4-0.6-2,0.1c-0.5,0.5-0.5,1.3,0,1.7c2.2,1.8,0.6,2.9-0.6,4.1
	c-0.8,0.8-1.6,1.6-2.4,2.4c-2.5,2.4-5.3,1.9-6.7-1.3c-0.5-1.1,0.3-1.3,0.8-1.8c1.8-1.9,3.7-3.7,5.5-5.6c0.8-0.8,1.8-1.7,0.7-2.8
	c-1.2-1.2-2,0-2.8,0.8c-4.9,4.9-9.9,9.7-14.7,14.7c-1.7,1.7-2.6,1.8-4.3,0c-4.6-4.8-4.7-4.8-0.1-9.4c2.3-2.3,4.6-4.6,6.9-6.9
	c0.9-0.9,2.7-1.9,1.2-3.3c-1.4-1.3-2.4,0.5-3.3,1.4c-5.5,5.4-11,10.9-16.4,16.5c-1.6,1.7-2.7,1.8-4-0.1c-1.3-1.8-2.7-3.5-4.4-5.7
	c1.2-1.1,3-2.7,4.8-4.4c0.7-0.6,1.2-1.5,0.5-2.3c-0.9-1-1.8-0.5-2.5,0.3c-3.1,3.1-6.3,6.1-9.3,9.3c-1.5,1.6-2.6,2.4-4.3,0.2
	c-0.7-0.9-1.7-2.3-3-1.1c-1.3,1.3,0.1,2.3,1,3c3.3,2.5,0.1,3.5-1,5.1c-1.7,2.4-2.8,0.7-4-0.5c-4.4-4.3-4.4-4.3,0-8.8
	c1.9-1.9,3.9-3.9,5.8-5.8c0.8-0.8,2.4-1.7,0.9-3c-1.4-1.3-2.2,0.3-3,1.1c-4.3,4.2-8.6,8.4-12.7,12.7c-1.6,1.7-2.7,2.1-4.3,0.1
	c-0.7-0.9-1.8-2.7-3.2-1.3c-1.4,1.4,0.5,2.3,1.2,3.4c0.6,0.9,2.4,1.2,1.2,3c-0.9,1.3-1.6,2.1-3.4,2.1c-42.2-1-84.4-1.2-126.6-2.6
	c-12.7-0.4-25.4-0.9-37.8-4.6c-25.6-7.6-39.6-25.1-43.8-51c-3-18.6-1.6-37.4-1.8-56.1c0-2.1,1-2,2.6-2c19.6,0.9,39.2,1.8,58.8,2.7
	c23.8,1.1,47.7,2.3,71.5,3.4c6.6,0.3,13.2,0.7,19.8,0.9c2.1,0.1,2.8,0.8,2.8,2.9c0.1,8.1,0.4,16.2,0.6,24.4
	c0.3,14.3,4.9,19.8,19.1,21.8c5.6,0.8,11.2,0.7,16.8,0c7.2-1,12.6-4.5,15.4-11.5c2.9,1.2,2.8,2.7,0.5,4.5c-1.2,0.9-2.1,2.1-3.2,3.2
	c-0.7,0.8-1.4,1.7-0.4,2.6c0.9,0.8,1.8,0.1,2.6-0.6c1.3-1.3,2.5-3.4,4-3.8c3.9-1,3.9-5.1,6.7-6.9c0.9-0.6,1.5-1.6,0.7-2.5
	c-1.1-1.3-1.9,0.1-2.8,0.5c-1.4,0.7-1.7,3.9-4.2,2.3c-3.1-2-3.2-3.1-0.4-5.5c2.2-1.9,3.5-5,7.1-5.6c0.9-0.1,1.6-2.9,1.3-4.5
	c-0.3-1.4-1.4-0.6-2.4-0.3c-1.5,0.6-2.1-1-2.8-1.8c-1-1,0.3-1.5,0.8-2.1c0.7-0.9,1.6-1.6,2.4-2.4c3.8-3.8,4-3.9,0.6-8.3
	c-1.5-2,0.5-2.3,1.1-3.2c0.6-0.9,1.4-1.7,2.6-0.4c2.2,2.4,4.6,4.6,6.9,6.9c0.6,0.7,1.4,1.3,2.3,0.7c0.9-0.5,0.8-1.4,0.3-2.3
	c-2.1-3,1.2-3.9,2.4-4.7c1.7-1.1,2.8,1.1,3.2,2.4c0.3,1,0.3,2.2,1.5,2c1-0.1,2.5,0.1,2.9-1.7c0.4-1.8,2.3-2.6,3.4-3.9
	c1-1.3,1.8-0.7,2.8,0.2c0.9,0.9,1.5,1.6,0.2,2.7c-0.9,0.7-1.9,1.7-0.8,2.8c1.1,1.1,1.9-0.6,2.8-0.7c2.9-0.3,4.4-1.4,4.4-4.6
	c0-2,2.2-1.2,3.4-1.2c14.7-0.1,29.5-0.2,44.2-0.2c18.5-0.1,37-0.2,55.5-0.2c1.2,0,3.3-1,3.3,1.1c0.1,2.4,1.1,4.9-0.7,7.2
	c-1.4,1.7-2.8-1.7-4.3,0.2C423.9,314.3,427.1,315.2,425.3,316.7z M115.4,209.2c0-7.4,0-7.3-7.4-7.4c-1.7,0-4.9,1.4-4.9-1.5
	c0-2.4,3-1.2,4.7-1.2c7.4-0.2,7.4-0.1,7.6-7.7c0-0.6,0-1.3,0-1.9c0.1-0.9,0.4-1.7,1.6-1.7c1,0.1,1.1,0.8,1.2,1.6
	c0.1,0.9,0,1.7,0,2.6c0,6.9,0,6.9,7.1,6.9c1.5,0,3-0.1,4.5,0c3.2,0.4,5.4-0.1,4.7-4.2c-0.2-1,0-2.2,1.4-2.1c1.2,0,1.7,1.2,1.5,2.2
	c-0.8,4.2,1.6,4.3,4.7,4.1c3.6-0.2,7.2-0.1,10.9,0c2,0.1,2.7-0.5,2.5-2.5c-0.1-1.6,0-3.2,0-4.9c0-1,0.2-1.8,1.4-1.8
	c1.1,0,1.5,0.8,1.5,1.8c0,1.7,0,3.5,0,5.2c0,0.8-0.2,2,1,2c2.9,0.1,5.7,0.1,8.6,0c1.3,0,1-1.2,1-2c0.1-1.7,0-3.5,0.1-5.2
	c0-0.8,0.5-1.4,1.4-1.4c0.9,0,1.3,0.6,1.5,1.4c0.1,0.4,0,0.7,0.1,1.1c0.5,6.2,0.5,6.2,6.6,6.2c2.7,0,5.5-0.2,8.2,0.1
	c2.7,0.3,3.6-0.8,3.2-3.3c-0.1-0.7,0-1.5,0-2.2c0-1,0.4-1.8,1.5-1.7c0.9,0,1.3,0.7,1.4,1.5c0.3,1.8-0.8,4.7,0.5,5.3
	c2.1,0.9,4.9,0.4,7.3,0.5c0.6,0,1.3-0.1,1.9,0c3.6,0.4,6.5,0.1,5.4-4.8c-0.2-1.1,0-2.5,1.6-2.4c1.5,0.1,1.5,1.6,1.3,2.6
	c-0.8,4.1,1.2,5.2,4.9,4.6c1.5-0.2,3-0.1,4.5,0c1.3,0,2.4,0,2.5-1.8c0.1-1.6,1.9-2.5,2.3-0.7c0.8,3.7,3.4,2.4,5.5,2.6
	c2.9,0.3,5.7,0.4,4.9-3.9c-0.2-0.8,0.2-1.8,1.4-1.8c1.1,0,1.5,1,1.4,1.8c-0.8,4.4,2,4.1,4.9,4c2.6-0.1,5.2,0,7.9,0
	c0.8,0,1.9-0.1,2,1.2c0.1,1.4-0.9,1.7-1.9,1.7c-3.2,0-6.5,0.1-9.7,0c-2.1-0.1-3.4,0.3-3.1,2.8c0.1,1.1,0.1,2.5-1.5,2.5
	c-1.3,0-1.5-1.3-1.3-2.3c0.4-2.7-1-3.3-3.2-3c-0.4,0-0.7,0-1.1,0c-5.3,0-5.3,0-5.5,5.2c-0.1,1.2,0.3,2.9-1.4,2.9
	c-1.8,0-1.3-1.7-1.4-2.9c-0.2-5.2-0.2-5.2-5.5-5.2c-0.4,0-0.7,0-1.1,0c-5.2,0-5.2,0-5.2,5.3c0,0.7,0,1.5,0,2.2c0,1-0.4,1.7-1.6,1.7
	c-0.9-0.1-1.2-0.7-1.3-1.5c0-0.4,0-0.7,0-1.1c-0.4-6.6-0.4-6.6-6.9-6.6c-0.7,0-1.5,0-2.2,0c-5.3,0-5.4,0-5.9,5.4
	c-0.1,1-0.1,2.2-1.4,2.3c-1.6,0.1-1.5-1.3-1.6-2.4c-0.4-5.2-0.4-5.2-5.7-5.2c-3.2,0-6.5,0.1-9.7,0c-2.1-0.1-3,0.6-2.6,2.7
	c0.1,0.6,0,1.2,0,1.9c0,1.2,0.3,2.9-1.5,2.9c-1.8,0-1.6-1.7-1.4-2.9c0.6-3.8-0.8-5.2-4.6-4.6c-1.2,0.2-2.5,0.2-3.7,0
	c-2.1-0.2-2.7,0.7-2.4,2.6c0.1,0.9,0,1.8,0,2.6c-0.1,1-0.6,1.8-1.6,1.7c-0.8-0.1-1.1-0.8-1.2-1.6c-0.3-1.7,0.9-4.1-0.7-4.9
	c-1.6-0.8-3.9-0.3-5.9-0.3c-2.7,0-5.5,0.2-8.2-0.1c-2.6-0.2-3.5,0.5-3.4,3.2c0.1,1.6,1.3,4.5-1.5,4.5c-2.4,0-1.3-2.9-1.2-4.3
	c0.2-2.9-0.9-3.6-3.6-3.4c-3.2,0.2-6.5,0.2-9.7,0c-2.6-0.2-3.2,0.9-3,3.2c0.2,3.2,0.1,6.5,0,9.7c0,1,0.1,2.2-1.3,2.2
	c-1.4,0-1.5-1.1-1.5-2.1C115.3,212.9,115.4,211.1,115.4,209.2z"/>
</svg>
