<?xml version="1.0" encoding="utf-8"?>
<!-- Generator: Adobe Illustrator 24.2.0, SVG Export Plug-In . SVG Version: 6.00 Build 0)  -->
<svg version="1.1" id="Layer_2" xmlns="http://www.w3.org/2000/svg" xmlns:xlink="http://www.w3.org/1999/xlink" x="0px" y="0px"
	 viewBox="0 0 500 500" style="enable-background:new 0 0 500 500;" xml:space="preserve">
<path d="M218.2,428.3c-12.8-0.4-25.3-2.5-37.8-5c-2.1-0.4-2.4-1.1-1.7-2.9c0.5-1.4-0.3-3.5,2.9-2.8c12.6,2.7,25.2,5,38.2,4.7
	c13.2-0.2,25.8-2.8,36.5-11.2c11.8-9.3,17.1-23.8,13.5-36.8c-1.8-6.6-6.1-11.4-11.2-15.4c-4.8-3.8-9.9-7.2-14.6-11.1
	c-16.2-13.5-17.3-31.9-3.1-47.5c9.1-10.1,20.6-16.9,32.7-22.7c23.8-11.4,48.9-18.3,74.9-22.2c2.2-0.3,4.7-1.1,4.7,2.9
	c0,2.8-1.5,2.6-3.2,2.9c-26.6,3.7-52.1,11.1-76.3,22.8c-10.5,5.1-20.4,11.1-28.3,19.9c-12.3,13.7-11.2,28.3,3,39.9
	c4.2,3.4,8.5,6.6,12.8,9.7c22.5,16.1,17.4,42.9,4.6,56.7c-9.9,10.7-22.3,16-36.6,17.4C225.5,428,221.8,428.1,218.2,428.3z
	 M430.9,116.1c-1.7-25.8-13.2-45.3-37.8-54.8c-24.6-9.4-47.4-4.6-66.2,13.9c-19.3,19-24.2,43-20.1,69c4.3,27.4,16.6,51.5,32.7,73.8
	c5.6,7.8,11.7,15.3,19.3,21.3c4.9,3.8,8.5,3.5,12.7-1.1c2.8-3,5.3-6.3,8-9.4c13.1-15.3,25-31.4,34.4-49.3
	c9.8-18.5,16.9-37.7,16.9-59C430.9,119.1,431,117.6,430.9,116.1z M422.9,134.8c-6.1,30.8-21.3,57.2-40.7,81.5
	c-4.6,5.8-9.3,11.4-14.1,17c-3.3,3.9-5.8,4.1-9,0.2C341,211.3,324,188.2,316,160c-2.8-9.8-4.5-19.7-4.5-29.9
	c0.3-21,6.4-39.5,22.7-53.7C360.9,53.2,404.1,61.1,419,92C425.7,105.8,425.8,120.2,422.9,134.8z M403.4,107.8
	c-5.8-15.6-19.4-25.2-35.8-25.2c-18.1,0-33,11.3-36.8,28.6c-2.9,13.2,1.8,24.8,9.2,35.5c4.8,7,10.9,12.9,19.5,14.7
	c12.1,2.5,22.7-1.5,31.9-9.2C404.4,141.3,409.1,123.2,403.4,107.8z M362.2,89.2c1.1-1.7,4.3-1.1,6.7-0.9c1.8,0.2,3.7,0.4,4.4,2.5
	c-1.6,1.7-3,3.5-4.8,4.8c-1.3,0.9-2-0.9-2.8-1.8C364.4,92.2,361.2,90.7,362.2,89.2z M350.8,93c1.8-0.9,3.6-1.9,5.4-2.8
	c0.3,0.4,0.6,0.7,0.9,1.1c-1.5,1.2-3.1,2.3-4.5,3.6c-0.8,0.7-1.4,0.9-2.2,0.1C349.5,94,349.9,93.5,350.8,93z M341.6,137
	c-1.6-0.4-1.4-2-1.8-3.2c1.3,0.4,2.7,0.8,2.6,2.5C342.3,136.6,341.8,137.1,341.6,137z M386,148.7c-6.5,5-13.7,8.1-22.1,7.8
	c-8.1-0.3-13.1-5.4-17.7-11.2c-0.7-0.9-1.3-1.8-1.9-2.7c-0.8-1.2-2.2-2.4-0.2-3.7c1.7-1.2,2,0.8,2.9,1.3c0.6,0.4,1,1.1,1.6,1.5
	c0.8,0.6,1.6,0.7,2.3-0.1c0.6-0.8,0.2-1.6-0.4-1.9c-5.2-3.3-1.9-5.6,0.8-8c1.1-1,2.1-2.1,3.2-3.2c0.7-0.7,1-1.5,0.2-2.3
	c-0.9-0.9-1.6-0.3-2.2,0.3c-2.1,2-4.2,4-6.1,6.1c-1.1,1.3-1.8,1.1-2.9,0c-2.1-2.3-4.3-4.5-6.4-6.8c-0.1-0.1-0.1-0.3-0.2-0.4
	c-2-5.1-1.4-10.2,0.4-15.3c0.4,0.2,0.6,0.2,0.8,0.4c5.8,5.2,5.8,5.2,0.4,10.8c-1,1-2,1.9-1.4,3.5c2.8,0.5,3.7-2.1,5.4-3.4
	c1.1-0.9,2-2.2,3-3.4c1.8,1.7,3.2,3.1,4.7,4.4c0.6,0.5,1.4,1.2,2.3,0.3c0.8-0.8,0.3-1.5-0.2-2.3c-1.1-1.8-4.5-2.4-3.5-5
	c0.8-1.9,3-3.2,4.6-4.8c1.2-1.3,3.1-2.3,2.8-4.5c-1.1-0.4-2.1-0.4-3,0.6c-0.7,0.7-1.4,1.4-2.1,2.1c-5.3,5.3-5.2,5.2-10.6-0.1
	c-1.5-1.5-1.8-2.6-0.6-4.4c1.7-2.6,3.6-5.1,5.9-7.2c0.9-0.8,1.6-1.4,2.7-0.2c1,1.1,0.5,1.6-0.3,2.4c-0.9,0.9-2.5,2-1.1,3.4
	c1.3,1.3,2.2-0.3,3-1.1c1.1-1.1,1.9-1.4,2.9,0c1.1,1.5,2.9,2.3,3.6,4.2c1.7-0.1,2.7,3.4,4.2,1.6c1.7-2-1.4-2.9-2.3-4.3
	c-0.5-0.8-1.3-1.5-2.1-2.1c-2.5-1.8-3.1-3.6-0.1-5.5c1.4-0.9,2.2-3.6,3.9-2.8c2.1,1.1,3.7,3.3,5.3,5.2c0.8,0.9-0.5,1.4-1,2.1
	c-0.5,0.8-1,1.5-0.2,2.3c0.6,0.6,1.5,0.5,2-0.1c1.4-1.8,2.6-1.3,3.9,0.1c0.6,0.6,1.5,1.1,2.2,0.1c0.6-0.9,0.1-1.6-0.4-2.3
	c-0.5-0.7-2.1-1.1-1-2.3c1.5-1.7,3-3.3,4.9-4.5c0.3-0.2,2.2,2,3.3,3.1c0.1,0.1,0.3,0.5,0.2,0.6c-3.2,5.2-0.9,4.4,2.6,2.5
	c0.2-0.1,1,0.6,1.5,1c0.6,0.4,1.2,0.4,1.6-0.1c0.4-0.5,0.8-1.2,0.2-1.6c-1.7-1.2-0.3-3.1-1.2-4.4c0,0-0.1,0.1-0.1,0.1c0,0,0,0,0,0
	l0,0c0,0,0,0,0,0c0,0,0,0,0.1,0c-2.4,0.6-4-0.4-5.2-3c2.5,0.1,4.2,1.2,5.6,2.6c0,0-0.1,0.2-0.2,0.2c-0.1,0.1-0.2,0.1-0.2,0.2
	c0,0,0,0,0,0c1.4-0.8,2.2,0.6,3,1.2C404.9,108.6,404.5,134.4,386,148.7z M181.7,266.7c-16.3-21.5-47.1-28.5-73.1-16.2
	c-27.5,13.1-38.5,36.5-39.6,64.6c0.3,4.9,0.4,8.6,0.8,12.3c2,17.5,7.9,33.9,15.9,49.5c8.9,17.2,20,32.8,32.6,47.4
	c6.3,7.2,12.1,6.9,18.3-0.3c8.9-10.4,17.9-20.9,25.5-32.3c15.8-23.6,28.4-48.7,31.4-77.5C195.3,297,192.4,280.8,181.7,266.7z
	 M177.9,350.9c-9.5,23.4-23.8,43.7-40.1,62.8c-1.9,2.2-3.7,4.4-5.5,6.6c-3.5,4.2-5.6,4.3-9.5,0.4c-5.2-5.4-9.5-11.5-13.8-17.7
	c-12.5-18.1-24-36.7-30-58.2c-2.7-9.5-4.5-19.2-4.4-29.2c0.6-26.1,10.7-46.8,34.9-58.6c19.2-9.3,38.7-9.4,57.1,2.3
	c13.2,8.4,19.5,21.3,21.3,36.6C190.2,315.2,185,333.3,177.9,350.9z M104.8,309.8c2.2,0.1,3.1-1.9,4.4-3.1c1.2-1.2,1.9-1.2,3,0
	c2.1,2.3,4.3,4.5,6.4,6.8c-1.8,0.9-3.2,2.6-4.6,4.2c-1.1,1.3-1.8,1.1-2.9,0c-2.1-2.3-4.3-4.5-6.4-6.7
	C104.3,310.5,104.3,310.1,104.8,309.8z M169.5,308.4c-0.8-24.4-21.1-41.7-44.9-38.2c-19,2.8-33.5,22.1-30.6,40.9
	c1.7,11.2,7.1,20.6,14.6,28.9c7,7.8,15.5,10.6,25.9,8.9C154.7,345.7,170.2,327.9,169.5,308.4z M147,280.1c1.3,1.1,3.7,1.1,3.4,3.4
	c-0.1,0.5-1,2.2-2.5,1.4C145.7,283.8,146.6,281.9,147,280.1z M146.1,279.5c-2.7,2.5-3.2,0.1-5.2-1.6
	C143.4,277.9,144.6,278.8,146.1,279.5z M141.9,283c-1.7,1.4-2.5,3.7-4.3,3.5c-1.3-0.1-3.3-1.9-3-3.2c0.4-1.5,2-3.5,3.7-3.5
	C139.5,279.9,140.6,281.8,141.9,283z M136.8,276.4c-5.3,5.7-5.3,5.7-9.8-0.6C130.4,275.2,133.5,275.4,136.8,276.4z M115.4,279.8
	c1.6-0.6,2.8-2.5,6.1-1.6c-1.9,1.5-3.3,2.4-4.6,3.5c-0.9,0.8-1.5,0.4-2.1-0.3C114.1,280.6,114.6,280.1,115.4,279.8z M107.4,286.3
	c1.2-1.4,2.4-2.8,4.3-3.6c0.9,1,3,1.5,0.9,3.3c-0.8,0.7-1.9,1.7-0.6,2.8c1,0.8,1.8,0,2.6-0.7c2.7-2.5,3.1,1.1,4.5,1.9
	c2,1.1,0.5,2.2-0.4,3.1c-2.2,2.2-4.5,4.3-6.6,6.6c-1.1,1.2-1.9,1.3-2.9,0c-0.4-0.6-1-1.1-1.6-1.6
	C101.9,292.4,101.9,292.4,107.4,286.3z M101.3,296.5c2.6,1.4,4.1,3.8,6.2,5.7c1.7,1.5-0.3,2-0.8,2.9c-0.9,1.5-3.9,2.1-2,4.7
	c-0.1,0.4-0.1,0.8-0.2,1.1C98.4,305.6,98.2,304.8,101.3,296.5z M100.2,311.7c0.3-0.2,0.6-0.5,0.8-0.7c2.7,3,5.5,6,8.3,9
	c0.8,0.8,0.8,1.4,0,2.2c-1.1,1.1-2.2,2.4-3.5,3.8C102.9,321.3,101.1,316.7,100.2,311.7z M127.6,343.7c-6.9-0.3-17.8-7.9-19.7-14.3
	c-0.8-2.7,2.4-3.6,3.8-5.3c1.2-1.5,1.8,0.4,2.6,0.9c1.5,0.8,2.4,4,4.3,2.3c2-1.9-1-3.1-2.2-4.2c-1.5-1.5-1.7-2.6,0.1-3.8
	c2.2-1.4,2.9-4,4.5-5.9c1-1.2-0.2-2-1-2.8c-1.9-1.9-3.8-4-5.8-5.8c-1.2-1.1-1.3-1.9,0-3c0.9-0.7,1.6-1.6,2.4-2.4
	c2-1.9,3.7-5,5.9-5.4c1.6-0.3,3.8,3.1,5.8,4.8c0.8,0.6,1.5,2.1,2.8,0.9c1.4-1.4-0.2-2.2-1-3c-1.1-1.2-2.3-2.3-3.4-3.5
	c-1.1-1-2.4-2-0.6-3.6c0.5-0.5,0.4-1.1-0.1-1.6c-0.6-0.7-1.3-0.6-2-0.1c-3.2,2.3-3.6-1.5-5-2.5c-1.7-1.2,0.7-1.8,1.1-2.7
	c0.2-0.4,0.6-0.8,1-1.1c1.4-0.9,2.2-3.6,3.8-2.8c1.9,0.9,3.7,2.8,4.5,4.8c0.6,1.4,0.8,2,2.4,2.4c2.9,0.7,3.5,3.2,1.6,5.4
	c-0.6,0.8-1.6,1.5-0.7,2.5c1.1,1.1,2.1,0.2,2.9-0.6c1.2-1.1,2.2-2.5,3.9-0.7c0.4,0.4,1.3,0.2,1.6-0.4c0.5-0.7,0.3-1.5-0.4-2
	c-1.2-1-0.5-1.7,0.3-2.4c1-0.8,1.6-2.7,3.1-2.3c0.9,0.2,2.7,1.3,1.2,3.1c-0.7,0.9-0.3,2.7,0.4,2.3c2.6-1.4,4.2-0.2,5.9,1.4
	c0.4,0.4,0.9,0.1,1.3-0.2c0.5-0.5,0.6-1.1,0.3-1.7c-0.4-0.6-0.9-1.3-1.4-1.7c-1.4-1.1-0.5-1.8,0.2-2.7c1-1.3,1.7-0.9,2.6,0.1
	c5.8,6.1,8.6,13.3,8.8,20.5C164.3,327.3,147.2,344.4,127.6,343.7z"/>
</svg>
