<?xml version="1.0" encoding="utf-8"?>
<!-- Generator: Adobe Illustrator 24.2.0, SVG Export Plug-In . SVG Version: 6.00 Build 0)  -->
<svg version="1.1" id="Layer_2" xmlns="http://www.w3.org/2000/svg" xmlns:xlink="http://www.w3.org/1999/xlink" x="0px" y="0px"
	 viewBox="0 0 500 500" style="enable-background:new 0 0 500 500;" xml:space="preserve">
<style type="text/css">
	.st0{fill:#030303;}
</style>
<path class="st0" d="M419.7,209.1c-3.2-4.9-7.3-9-11.6-12.9c-24.1-22.3-48.1-44.7-72.3-66.9c-13.8-12.8-27.4-25.8-42.5-37.1
	c-11.7-8.8-24.8-13.2-39.5-12.4c-18.4,0.9-34.2,8.5-48.2,20.1c-23.9,19.8-46.9,40.6-70,61.3c-14.5,13-28.9,26-42.9,39.5
	c-7.4,7.1-13.8,14.9-16.3,25.1c-3,12.6,5,23.7,17.8,25c7.6,0.8,14.3-1.5,20.6-5.4c2.2-1.4,4.3-2.9,6.9-4.6c0,2.3,0.1,4,0,5.8
	c-0.7,10.8-1.4,21.7-2.2,32.5c-1.6,22.4-3.3,44.8-4.8,67.2c-0.8,12.2-1.8,24.3-0.3,36.5c2.3,18.4,12.1,29.9,30.1,34.6
	c10.1,2.6,20.5,3.2,30.9,2.9c39.9-1.2,79.9-2.4,119.8-3.8c16.9-0.6,33.8-0.7,50.7-2c16.9-1.3,25.4-8.7,28.9-25.1
	c2.2-10.2,1.9-20.6,2.2-31c1.3-40.8,3.1-81.6,3.7-122.9c6.1,3.2,12.1,5.8,18.9,6.2c9,0.4,16.8-2.2,21.8-10.1
	C426.2,223.8,424.3,216.3,419.7,209.1z M209.2,402.3c0.5-1.4-1-3.8,1.7-4.7c0.4-0.1,5.6,4.9,5.6,5.4c0,0.5-4.5,4.9-5,4.9
	C210.1,407.9,209.1,405.4,209.2,402.3z M210.6,356.3c0.5-2-0.9-5.2,0.9-5.9c1.7-0.6,2.9,2.7,4.7,3.9c3.2,2.2,2.7,4.2-0.1,6.1
	c-1.4,0.9-2,3.5-4,2.8c-2.4-0.9-1.6-3.4-1.5-5.4C210.6,357.3,210.6,356.8,210.6,356.3z M212,330.1c0-4.6,0-9.1,0-13.8
	c0.6,0.1,0.7,0.1,0.8,0.2C220.2,322.7,220.1,324.3,212,330.1z M215,299.6c0.4,0,0.7,0,0.8,0.1c4.6,4.3,4.6,4.2,0.3,8.6
	c-1.1,1.1-2.1,2.3-3.1,3.4C212.8,307.2,213.4,303.3,215,299.6z M212.4,334.8c5.8,5.1,5.7,6-1.3,10.9c-0.2-4,0-7.6,0.5-11.1
	C211.9,334.7,212.2,334.7,212.4,334.8z M212.1,368.5c1.6-0.8,1.9,1,2.7,1.6c1.2,1-0.2,1.6-0.7,2.3c-1,1.3-2.1,2.6-3.1,3.9
	c-0.3-0.2-0.6-0.4-0.9-0.6c0-1.7,0.1-3.4,0-5.1C210,369,211.2,369,212.1,368.5z M210.1,381.5c1.2,0.3,1.8,1.3,2.5,2
	c4.4,4.3,4.4,4.4-0.5,8.4c-0.5,0.4-1,1.2-1.8,0.7c-0.6-0.4-1-1-0.9-1.8c0.1-1.4,0-2.9,0.1-4.3C209.7,384.8,209.4,383.1,210.1,381.5z
	 M292,407.7c-0.2,2.3-0.6,3.3-3.2,3.4c-22.6,0.6-45.1,1.4-67.7,2.1c-2.7,0-5.5,1.2-8-0.8c0.9-3.4,3.9-5.3,6.1-7.7
	c1.3-1.4,3-2.8-0.4-3.7c-0.2-0.1-0.4-0.3-0.6-0.4c-6-4.7-6-4.8-0.6-10.2c1.3-1.3,2.6-2.5,3.8-3.9c0.5-0.6,0.6-1.3,0.1-2
	c-0.4-0.6-1.2-0.6-1.6-0.3c-1.6,1.8-2.4,0.2-3.4-0.7c-5.3-5.1-5.3-6.3,1.1-10.3c1.5-0.9,1.8-2.4,2.9-3.4c0.6-0.5,0.6-1.3,0-1.9
	c-0.6-0.7-1.3-0.6-1.9,0c-1.9,1.9-2.4-0.5-3.2-1.2c-1.3-1.2,0.3-1.9,0.9-2.5c3-3.1,6.1-6.2,9.2-9.2c0.8-0.8,2.1-1.8,0.6-3
	c-1.2-1-2.1,0.3-2.6,1c-1.7,2.4-3,2-4.9,0c-5-5.3-5.1-5.2-0.1-10.3c1.7-1.7,3.4-3.4,5.1-5.1c0.7-0.7,1.4-1.6,0.6-2.5
	c-0.9-1-1.7-0.2-2.5,0.4c-1,0.7-1.5,2.8-3,1.8c-1.7-1.1-3.1-2.7-4.3-4.4c-0.6-0.8,0.6-1.4,1.2-2c2.7-2.8,5.4-5.5,8.2-8.2
	c0.8-0.8,2-1.5,1.2-2.7c-0.8-1.2-1.9-0.7-2.7,0.2c-1.1,1.2-1.6,0.2-2.3-0.5c-1.9-1.8-3.8-3.6-6.3-6c1.8-1.5,3.5-2.7,4.9-4.2
	c2.1-2.1,3.9-4.6,6.5-0.6c0.5,0.8,1.5,1,2.2,0.2c0.7-0.8,0.4-1.6-0.3-2.2c-2.1-1.7-3.3-3.4-0.4-5.5c0.6-0.4,0.4-1.4-0.3-1.9
	c-0.7-0.5-1.4-0.3-1.9,0.4c-3.7,4.2-4.5-0.9-6.4-2c-2.7-1.5-0.7-3.2,0.3-4.7c0.1-0.2,0.2-0.4,0.4-0.6c1.3-0.9,2.1-3.9,4-2.5
	c2.2,1.7-1,2.4-1.6,3.6c-0.4,0.8-1,1.4-0.2,2.2c0.8,0.8,1.7,0.5,2.2-0.2c2.6-4,4.2-1.1,6.3,0.6c1.5,1.3,3.1,4.8,4.8,3.1
	c2.2-2.2-1.6-3.6-3-5.1c-3.1-3.5-3.3-3.4,0-6.7c1.1-1.1,2.3-2,3-4.7c1.2,1.6,1.8,2.7,2.6,3.5c3.6,3.7,3.6,3.7,0.4,7.4
	c-0.7,0.8-1.7,1.6-0.5,2.7c1,0.9,1.8,0,2.4-0.7c0.6-0.6,1.3-1.1,1.8-1.8c1.3-1.7,2.4-1.5,3.6,0.1c0.5,0.7,1.2,1.2,1.8,1.8
	c0.6,0.5,1.3,0.7,2,0.1c0.7-0.6,0.6-1.5,0-1.9c-5-3.3-2.1-5.8,0.8-8.3c0.6-0.5,0.9-1.1,0.7-1.9c-0.2-0.3-0.2-0.6,0.1-0.8
	c0.7,0.6,1.5,1.2,2.2,1.8c3.7,3.6,3.7,3.6,0.2,7.4c-0.7,0.8-2.3,1.6-1,2.9c1.3,1.2,2.1-0.2,3-1c0.5-0.5,1.1-1,1.5-1.5
	c1.4-2,2.6-1.7,4.2,0c4.1,4.3,5.5,4.2,9.6,0.3c0.8-0.7,1.3-2.6,2.7-1.6c0.9,0.7,2.5,1.2,2,3.4c-0.4,1.7,0.9,2.4,2.3,1.1
	c1.8-1.6,3.6-3.2,5.1-5.1c1.7-2.2,3.1-1.7,5.2-0.6c9.7,5.2,13.2,13.8,12.8,24.1c-0.4,10.1-1.4,20.2-2.2,30.3
	C295.7,365.8,293.8,386.7,292,407.7z M238,283.5c0.9-0.1,1.7-0.2,2.5-0.3c2.3,0.2,4.8-1.4,6.7,0.9c-0.1,0.1-0.1,0.2-0.2,0.3
	C242.4,289,242.4,289,238,283.5z M254.6,283.3c2.2,0,3.9-0.1,5.6,0.5C258.2,287.8,258.1,287.7,254.6,283.3z M264.9,284.4
	c1.6,1.5,3.2,3,4.6,4.4c-0.1,1.1-4.6,5.2-4.8,5c-1.5-1.7-3.5-2.9-4.5-5C260.1,288.4,264.7,284.2,264.9,284.4z M270.3,285.7
	c0.9-0.4,1.7-0.4,2.4-0.1c0,0,0,0.6-0.2,0.8C271.4,287.4,270.9,286.4,270.3,285.7z M275,287.2c2-2,3.8,0.3,6.4,0.7
	c-2.4,1-2.5,4.7-5.5,3.3C274.2,290.4,273.6,288.5,275,287.2z M323.8,407.7c-0.7,1.1-1.5,2.3-3,2.3c-1.4,0.1-2.9,0-4.3,0
	c0,0,0,0.1,0,0.1c-1,0-2,0.1-2.9,0c-0.9-0.2-2.3,0.9-2.6-0.9c-0.2-1.1-0.6-2.3,0.7-3.2c0.4-0.2,0.7-0.7,1-1c4.9-4.9,4.9-5,9.7,0.1
	C323,405.9,324.6,406.4,323.8,407.7z M343.7,405.1c-1.3,2-2.8,4.7-6.1,4.3c-0.8-0.1-1.7,0-2.5,0c0,0,0,0.1,0,0.1c-1,0-1.9-0.1-2.9,0
	c-1.6,0.2-2.6-0.9-3.2-2c-0.6-1,0.7-1.6,1.4-2.3c1.2-1.3,2.5-2.6,3.8-3.9c3.5-3.5,3.6-3.6,6.9,0
	C342.1,402.6,344.7,403.6,343.7,405.1z M344.9,408.5c0.5-0.8,0.9-1.9,2.1-1.1c0.3,0.2,0.4,0.7,0.6,1.1
	C346.7,408.8,345.8,409.2,344.9,408.5z M362.4,402.6c-2.4,2.2-5.3,3.5-8.3,4.8c-2.7,1.2-3.9-0.5-5-2.1c-1.1-1.5,1-2,1.6-2.9
	c0.5-0.8,1.3-1.4,2-2.1c5.3-5.3,5.3-5.3,10.3,0.2c0.2,0.2,0.4,0.4,1,0.9C363.4,401.9,362.8,402.2,362.4,402.6z M369.3,388.7
	c-0.9,3.7-1.9,7.4-4.5,10.8c-1-3.1-5.3-3.9-4.9-7.7c0-0.2-0.8-0.7-1.1-0.7c-2,0.6-2.8-1.1-3.8-2.1c-6.4-6.3-6.3-6.2,0.5-12.1
	c2.2-1.9,2.6,0.4,3.6,1.2c1,0.8,2.5,1.6,0.7,3.3c-1.2,1.2-4.3,2.5-2.4,4.3c1.8,1.8,2.9-1.5,4.3-2.5c0.8-0.5,1.3-1.3,2.4-0.3
	c1.6,1.4,2.6,3.5,4.9,4.1C369.7,387.3,369.5,388.1,369.3,388.7z M371.9,347.5c-6.5-5.7-5.9-4.1,0-9.7
	C371.9,341,371.9,343.9,371.9,347.5z M374.6,263.1c-0.7,23.2-1.5,46.3-2.2,69.7c-1.6-0.2-2.1-1.6-3.1-2.3c-0.6-0.4-1.2-0.8-1.9-0.1
	c-0.7,0.6-0.6,1.2-0.2,1.9c0.8,1.2,3,2,2.4,3.2c-1,1.9-2.7,3.9-4.6,4.9c-3.1,1.7-1.9,2.9-0.2,4.5c1.9,1.8,3.8,3.7,5.6,5.6
	c0.7,0.7,1.6,1.2,1.1,2.4c0,3.6,0,7.1,0,10.8c-0.8-0.1-1.1-0.1-1.2-0.2c-4.8-4.1-4.7-4.1-0.6-9c0.4-0.4,0.5-1.1,0.7-1.6
	c-0.4-1.6-1.2-1.6-2.3-0.6c-1.1,1-2.1,2-3.1,3.1c-0.8,0.8-1.5,1.6-2.6,0.3c-0.5-0.6-1.3-0.8-1.9-0.2c-0.7,0.5-0.7,1.7-0.1,1.9
	c2.1,0.8-1.4,4.2,2.1,4.2c3,0,8.6,5.8,8.6,8.9c0,4.6-0.3,9.2-1,14c-1.8-0.4-2.5-2.2-3.7-3.1c-1.2-0.9-0.9-1.6,0.1-2.5
	c0.9-0.8,1.7-1.7,2.5-2.6c0.6-0.7,0.5-1.3-0.1-1.9c-0.5-0.4-1.1-0.5-1.7,0c-0.6,0.4-1.2,0.9-1.6,1.5c-1.8,2.6-3.2,1.8-5-0.1
	c-1.5-1.5-1.5-2.5,0.1-3.7c0.6-0.4,1-1,1.5-1.5c0.7-0.7,1.3-1.5,0.3-2.5c-0.9-0.8-1.6-0.2-2.2,0.4c-0.7,0.7-1.4,1.3-2.1,2
	c-0.8,0.8-1.5,1.7-2.6,0.4c-0.6-0.7-1.4-1-2.2-0.3c-0.9,0.8-0.5,1.6,0.2,2.1c1.5,1.3,0.4,2-0.5,2.9c-1.2,1.2-2.5,2.3-3.6,3.6
	c-1.4,1.6-2.7,2.7-4.3,0.3c-0.5-0.7-1.4-1.5-2.4-0.6c-0.9,0.9-0.4,1.8,0.4,2.5c1.1,1.1,2.6,2,0.6,3.7c-0.6,0.5-0.5,1.4,0.2,1.9
	c0.7,0.5,1.5,0.4,2-0.2c1.2-1.4,1.9-0.6,2.9,0.3c7,6.5,6.9,6.3,0.5,13.2c-2.6,2.8-4.2,2.4-6-0.3c-1-1.5-3.9-1.9-2.8-4.5
	c0.4-0.9,2-1.6,1-2.7c-1.1-1.3-2.2-0.3-3,0.6c-0.8,0.9-1.4,0.5-2.1-0.2c-0.9-1-1.9-1.9-2.8-2.8c-0.6-0.6-1.3-1.2-2.2-0.3
	c-0.8,0.8-0.5,1.5,0.1,2.2c0.1,0.1,0.2,0.2,0.3,0.3c1.1,1.4,3.7,2.5,3.2,3.9c-0.5,1.7-2.6,3-4.1,4.5c-4.6,4.6-4.6,4.6-9.2,0.1
	c-4.4-4.4-4.4-4.4-8.9,0.1c-0.4,0.4-0.9,0.8-1.3,1.3c-2.2,2.9-4.4,4.2-7,0.3c-0.6-0.9-1.6-1.7-2.7-0.6c-1.1,1.2,0.4,1.8,0.8,2.7
	c0.7,1.4,3.7,1.7,2.4,4.1c-1.5,2.7-4.2,2.4-6.8,2.3c-1.7,0-1-1.3-1-2.1c1.2-13.7,2.6-27.4,3.6-41.1c1.3-18.4,4.3-36.7,4-55.2
	c-0.3-15-6.8-24.4-20.9-29.2c-16.3-5.6-33.2-7.2-50.3-4.7c-15.4,2.3-24.9,13.2-26.6,29.4c-2.2,21.6-2.1,43.4-2.9,65.1
	c-0.5,12.8-0.8,25.6-1.2,38.4c0,1.3,0.2,2.5-1.9,2.6c-15,0.4-29.9,1.7-44.9-0.1c-3.3-0.4-6.7-0.9-10-1.7
	c-17-4.3-25.8-15.4-26.9-33.2c-1-15.5,1-30.9,1.8-46.3c0.5-9.5,1.2-19,1.9-28.5c0.1-1.8-0.1-3.6,0.7-5.3c0.2,0,0.3,0,0.4,0.1
	c1.6,0.5,2.4,3.9,4.2,2.2c1.9-1.8-1.2-2.8-2.1-4.1c-0.6-0.8-0.8-1.4,0-2.1c0.5-0.4,0.9-0.8,1.3-1.3c1.9-2,5-3.5,5.4-6.1
	c0.4-2.6-3.1-3.9-4.8-5.9c-1-1.1-0.9-1.7,0.1-2.6c2.3-2.2,4.5-4.4,6.7-6.6c1.3-1.4,2.8-2.4-0.6-3.7c-2.3-0.9-3.9-3.4-5.8-5.3
	c-1.2-1.2,0.3-1.7,0.8-2.2c2.6-2.7,5.3-5.3,7.9-8c0.7-0.7,1.9-1.5,0.9-2.7c-0.8-1-1.7-0.4-2.4,0.4c-0.7,0.8-1.2,0.3-1.8-0.2
	c-0.7-0.7-1.4-1.4-2.1-2c-3.4-3.4-3.2-3.3,0-7c2.1-2.3,3.4-2.3,5.2,0.1c0.6,0.9,1.6,2.4,2.9,1.3c1.6-1.4,0-2.4-1-3.2
	c-2.4-1.8-2.6-3.4,0-5.2c0.3-0.2,0.5-0.5,0.8-0.8c1.7-1.7,3.3-4.4,5.3-4.7c1.8-0.3,3.3,2.8,5,4.3c0.8,0.7,1.7,1.8,2.7,0.5
	c1.3-1.8-1.2-2.3-1.5-3.5c0,0,0,0,0,0c0,0,0,0,0,0c-1.4-1.7-4.6-2.3-3.1-5.8c0.5-1.2-1-1.7-2.2-0.9c-1,0.7-1.6,0.2-2.1-0.5
	c-0.8-1.1,0.4-1.5,0.9-1.9c3.1-2.7,6.3-5.2,9.4-7.9c1-0.9,1.6-0.9,2.7,0c5,4.3,5,4.2,0.5,8.7c-1.5,1.5-3.1,3.1-4.6,4.6
	c-0.9,0.9-1.8,1.7-0.9,3.1c0.9,0.2,1.7,0.2,2.3-0.5c0.5-0.5,1-1,1.5-1.5c2.4-2.4,4.8-4.8,7.2-7.2c6,2.7,1.5-4.7,5-5.2
	c1.7-0.2,3.1-2.8,4.6-4.4c1.8-1.9,3.4-4.5,6-0.8c0.4,0.6,1.2,0.8,1.9,0.1c0.9-0.8,0.6-1.5-0.1-2.2c-1.9-1.9-3.7-3.8-5.6-5.6
	c-1.3-1.1-1.4-1.9-0.1-3.1c2.5-2.3,4.9-4.7,7.2-7.2c1.1-1.2,1.9-1.1,2.9,0.1c1.5,1.7,3.2,3.3,4.8,4.9c0.7,0.7,1.6,1.2,2.5,0.2
	c0.8-0.9,0.1-1.6-0.5-2.2c-1.8-1.9-3.7-3.9-5.6-5.6c-1.4-1.2-1.6-2.1,0-3.3c3.2-2.6,6.3-5.2,9.3-8.1c1.5-1.4,2.1-0.6,3.1,0.3
	c1.2,1.1,1.1,1.8,0,2.9c-2.1,2-4.1,4.1-6.2,6.1c-0.8,0.8-1.6,1.8-0.5,2.8c1,0.9,1.8-0.1,2.4-0.7c1.9-1.9,3.8-3.7,5.6-5.7
	c1.3-1.4,2.3-2.3,3.8-0.2c0.6,0.9,1.6,1.9,2.7,0.8c1.1-1,0.2-2.1-0.7-2.7c-2.1-1.5-1.2-2.6,0.2-3.9c1.9-1.7,3.6-3.6,5.4-5.4
	c2-2,3.8-5.5,6.7-0.8c0.5,0.7,1.4,1,2.1,0.1c0.6-0.8,0.3-1.6-0.4-2.2c-1.8-1.8-3.5-3.6-5.4-5.4c-1-0.9-1.5-1.6-0.1-2.7
	c2.6-2.1,5.2-4.4,7.6-6.7c1.3-1.3,2-0.4,2.9,0.4c1.2,1,1.2,1.8,0,2.9c-1.6,1.4-3.1,3-4.6,4.6c-0.7,0.7-1.2,1.7-0.2,2.5
	c0.8,0.6,1.6,0.2,2.2-0.5c0.8-0.9,1.8-1.7,2.6-2.6c2-2.3,3.9-4.5,6.4-0.6c0.4,0.7,1.3,1.3,2.1,0.4c0.9-0.9,0.6-1.9-0.3-2.4
	c-3.9-2.5-1.7-4.3,0.5-6.2c1.3-1.1,2.4-2.4,3.6-3.6c0.7-0.7,1.2-1.6,2.3-0.4c0.7,0.8,1.4,1.3,0.3,2.3c-0.7,0.6-1.6,1.4-0.5,2.4
	c1.2,1.1,2,0.1,2.7-0.7c2.8-2.8,5.6-5.6,8.4-8.3c0.5-0.5,0.9-1.3,1.5-1.5c5.5-1.6,1.7-3.4,0.3-5.3c-0.8-1.1-3.3-1.4-2-3.5
	c1.3-2.2,2.6-2,4.4-0.2c15.2,14.7,31,28.7,47.3,42.2c22.8,19,46.2,37.2,71,53.6c1.6,1,2.2,2.1,2.4,4
	C375.6,243.8,374.9,253.4,374.6,263.1z M132.2,236.5c0.9,1.2-0.6,1.6-1.1,2.2c-0.9,1.1-1.9,2.2-2.8,3.2c-0.3-0.1-0.6-0.2-1-0.3
	c0-1.5,0-3.1,0-4.6c0-1.4,1.1-2.3,2.2-2.6C130.8,234.1,131.5,235.6,132.2,236.5z M132.1,232.1c2.7-2.3,5.3-4.4,7.8-6.6
	c1-0.9,1.7-0.9,2.7,0.1c1.1,1.1,0,1.7-0.6,2.3c-1.6,1.6-3.4,3.1-4.8,4.9C135.2,235.2,133.7,234.8,132.1,232.1z M127.3,248.4
	c6.7,4.1,6.6,4.9-0.7,11.1C126.9,255.5,127.1,252,127.3,248.4z M129.4,287.1c-0.3,2.3-3.1,3.8-5.5,6.2c0.2-2.5,0.4-4.1,0.5-5.7
	c0.1-1.5,0.2-3.1,0.4-4.9C127,283.6,129.6,285.6,129.4,287.1z M125.3,277.3c0.3-3.9,0.6-7.8,1-12.2c6.4,5.6,6.4,5.6,0.9,11
	C126.8,276.6,126.5,277.1,125.3,277.3z M167.3,204.4c1,1.3,2,0.6,2.6-0.3c1.3-1.8,2.1-0.5,3.1,0.4c1.4,1.2,0.3,1.8-0.4,2.5
	c-2.4,2.4-4.9,4.6-7.1,7.2c-1.5,1.8-2.5,1.5-3.9-0.1c-1.1-1.3-2.4-2.3-3.8-3.6c2.9-2.5,5.5-4.8,8.1-7.1
	C166.4,203.8,166.8,204.1,167.3,204.4z M200.6,173.4c2.6-2.2,5.2-4.3,7.6-6.7c2-2,3.4-2.3,4.8,0.4c-3.5,2.7-6.4,6.1-9.6,9.2
	c-1.1,1.1-1.8,1.6-3.2,0.2C198.8,175,199.5,174.4,200.6,173.4z M226.5,150.5c1.9-1.8,4-3.5,5.8-5.4c1.1-1.2,1.8-0.9,2.9,0.1
	c1.3,1.3,0.2,1.8-0.5,2.6c-1.8,1.8-3.6,3.6-5.4,5.3c-0.4,0.4-0.9,0.8-1.8,1.7c-0.7-0.9-1.4-1.8-1.9-2.7
	C225.1,151.2,226.1,150.9,226.5,150.5z M240,138.2c1.2-1.1,2.5-2.2,3.8-3.4c0.7,1.6-0.6,4.7,3.1,3c1.1-0.5,2.1,1.4,2.9,2.4
	c0.9,1.2-0.7,1.5-1.3,2.1c-1.1,1.3-2.5,2.3-3.5,3.6c-1.8,2.4-3.1,2.3-5.1,0C236,141.8,235.9,142,240,138.2z M416.6,228.8
	c-3.6,5.9-9.5,7.6-16,7.1c-8.3-0.6-15.6-4.2-22.3-8.7c-31.9-21.4-62.2-44.8-91.2-70.1c-11.6-10.2-23-20.7-34.1-31.4
	c-3.5-3.4-3.8-3.4-7.4-0.1c-41.1,37.5-83,74.1-126,109.5c-5.8,4.8-11.9,9-19.6,10.2c-12.7,2-21.2-7.6-17.6-19.9
	c2.2-7.5,6.9-13.5,12.4-18.8c17.5-17,35.7-33.3,53.8-49.5c20.1-17.9,40.2-35.8,60.8-53.1c14.1-11.8,31.6-18.8,47.6-18.6
	c14.4-0.2,26.8,6,38,15.2c20.2,16.7,39,34.9,58.3,52.6c17.3,15.8,34.4,31.8,51.6,47.7c3.7,3.5,7.4,7,10.1,11.3
	C418.4,217.5,420.2,223,416.6,228.8z M201,125.2c1.2,1.1,0.2,1.9-0.6,2.7c-1.1,1.1-2.2,2.2-3.3,3.3c-1.4,1.6-4.4,2.8-1.4,5.6
	c0.4,0.4,0.2,1.2-0.3,1.6c-0.7,0.6-1.5,0.4-1.9-0.2c-1.6-2.3-2.6-0.7-3.8,0.5c-1.7,1.6-3.4,3.1-5.5,5c1.6,0.8,2.4,1.3,3.3,1.7
	c0.9,0.4,1.9,0.8,1.3,2.1c-0.6,1.2-1.7,1-2.5,0.4c-3.6-2.9-5.6-0.3-7.9,2.1c-2.6,2.8-5.5,5.3-8.3,8c1.2,1.5,2.4,1.9,3.6,2.4
	c0.9,0.4,2.1,0.7,1.6,2c-0.5,1.5-1.7,0.9-2.8,0.7c-0.2,0-0.4-0.2-0.7-0.3c-1.6-0.3-2.9-2.7-4.4-1.6c-2.7,2-5,4.6-7.2,7.1
	c-0.9,1.1,0.9,1.7,1.4,2.5c0.7,0.9,2.2,1.7,0.8,2.9c-1.1,1-2.1,0-2.7-0.9c-1.6-2.1-2.9-1.9-4.5,0.1c-1.5,1.9-3.3,3.5-5.1,5.2
	c-1.9,1.9-4.7,3.6-1,6.4c0.7,0.6,0.8,1.5,0,2.2c-0.9,0.7-1.7,0.2-2.1-0.6c-1.8-3.1-3.3-1.8-5,0.1c-2.3,2.6-4.9,5-7.4,7.4
	c-0.7,0.7-1.6,1.4-2.5,0.4c-0.9-0.9-0.1-1.8,0.6-2.5c2.9-2.9,5.7-5.9,8.7-8.7c1.4-1.3,1.5-2.1,0.2-3.5c-1.5-1.6-2.8-3.3-4.1-5
	c-0.7-0.9-2-1.9-0.5-3c1.2-1,1.9,0.4,2.6,1.1c1.8,2.1,3.5,4.3,5.6,6.7c3.1-3.1,6.1-6.2,9.2-9.2c1.1-1.1,0.8-1.7-0.2-2.6
	c-1.3-1.1-2.4-2.3-3.6-3.5c-0.6-0.6-0.8-1.3-0.3-1.9c0.6-0.8,1.5-0.6,2.2,0c0.4,0.3,0.7,0.7,1.1,1c1.5,1.1,3.1,4,4.2,3.3
	c2.9-2,5.3-4.9,7.7-7.6c0.6-0.7-0.7-1.3-1-2c-0.5-1-1.7-2.1-0.2-3.1c1.3-0.8,1.8,0.6,2.5,1.4c0.4,0.5,0.7,0.9,1.4,1.7
	c3.8-3.9,7.4-7.8,11.2-11.5c1.1-1.1,1.1-1.9,0.3-3c-0.5-0.7-0.5-1.4,0.2-1.9c0.6-0.6,1.5-0.5,1.9,0.1c1,1.6,1.7,0.8,2.5-0.1
	c0.8-0.9,1.6-1.8,2.6-2.5c2.8-2,3.8-4.1,0.5-6.6c-0.8-0.6-1.7-1.7-0.7-2.7c1.1-1,2.1,0,2.6,0.9c2,3.1,3.8,2.9,5.8,0.1
	c0.9-1.2,2.2-2.3,3.3-3.3C199,125.3,199.8,124,201,125.2z M361.5,179.7c-1.3-1.1-2.6-2.2-3.9-3.3c-1.8-1.6-3.5-3.5-5.7-0.4
	c-0.5,0.8-1.5,0.8-2.2-0.1c-0.7-0.9-0.1-1.7,0.6-2.1c2.5-1.6,1.3-2.7-0.4-3.9c-1.1-0.8-2.1-1.6-3-2.6c-1.3-1.3-2.6-2.1-4.2-0.4
	c-0.7,0.7-1.8,1.1-2.6,0.1c-0.9-1.1,0-1.8,0.8-2.3c1.9-1.1,0.7-1.8-0.2-2.6c-1.5-1.2-2.9-2.5-4.4-3.7c-3.8-3.2-3.8-3.2-7,0.4
	c-0.6,0.7-1.2,1.4-2.1,0.8c-1.1-0.7-0.7-1.7-0.1-2.5c0.9-1.3,1.9-2.5,2.9-4c-2.4-2-5-4-7.3-6.3c-1.8-1.7-2.8-1.6-4,0.6
	c-0.6,1.1-0.7,3.6-2.7,2.5c-2-1.1-0.4-3,0.5-4c2.1-2.3,1.1-3.7-0.9-5.1c-0.7-0.5-1.4-1-1.9-1.6c-2.4-2.9-4.6-3.3-6.7,0.4
	c-0.6,1-1.6,2.8-3.1,1.5c-1.5-1.3,0.2-2.5,1-3.2c3.4-2.7,2.3-4.7-0.7-6.7c-1.1-0.7-2.1-1.7-3.1-2.6c-0.8-0.7-1.9-1.4-0.8-2.6
	c1-1,1.8-0.2,2.5,0.4c1.5,1.2,3.1,2.4,4.4,3.8c1.7,1.7,3,2.1,4.4-0.3c0.3-0.5,0.8-0.9,1.2-1.4c0.6-0.6,1.3-1.2,2.1-0.5
	c0.8,0.7,0.7,1.7,0,2.2c-4.9,3.6-1.1,5.6,1.5,7.6c1.9,1.4,3.2,4.5,6.6,2.5c0.9-0.5,2,1,1.3,1.7c-1.8,1.8-0.1,2.4,0.8,3.2
	c1.8,1.6,3.7,3.1,5.5,4.7c1,0.9,1.9,1.6,3.4,0.6c1-0.7,2.7-2.3,3.7-0.3c1.2,2.4-2.1,1.7-2.6,3.4c1.5,1.3,3.2,2.7,4.8,4.2
	c2.8,2.7,5.4,5.3,9.1,1.1c0.6-0.7,1.7-1,2.4,0.1c0.6,1-0.1,1.6-0.8,2.1c-0.5,0.4-0.9,0.8-1.5,1.1c-2.1,1.1-1.8,2.1-0.1,3.3
	c1.1,0.8,2.1,1.6,3,2.6c1.5,1.6,2.8,2,4.4,0.1c0.6-0.8,1.6-1.4,2.5-0.5c0.9,0.9,0.2,1.9-0.6,2.4c-2,1.4-1.2,2.4,0.3,3.5
	c1.6,1.2,3.2,2.6,4.7,4c0.8,0.6,1.6,1.5,0.9,2.4C363.4,181.2,362.4,180.4,361.5,179.7z M386,215.4c0.8,0.8,1.7,1.7,0.5,2.7
	c-1,0.9-1.8,0-2.4-0.7c-1.1-1.1-2-2.6-3.8-1c-0.5,0.4-1.1,0.2-1.6-0.3c-0.6-0.7-0.5-1.4,0.2-1.9c0.9-0.7,0.8-1.2,0-2
	c-1-1-1.6-0.5-2.4,0.2c-1.1,1-2.2,1.9-3.3,2.8c-0.6,0.5-1.4,0.5-2-0.1c-0.5-0.6-0.4-1.4,0.2-2c0.2-0.3,0.6-0.4,0.8-0.7
	c0.7-1.4,3.9-1.4,2.7-3.8c-1.6-3-4.6-3.8-7.5-2.8c-1.5,0.5-3.6,2.9-4.6,0.6c-1.1-2.4,2.2-2,3.4-3c0.4-0.3,0.8-0.5,1.7-0.9
	c-2.2-1.7-4-3-5.8-4.4c-0.8-0.6-1.6-1.3-0.7-2.4c0.7-0.8,1.5-0.5,2.2,0.1c1.3,0.9,2.6,1.8,3.8,2.8c2,1.9,4.1,3.3,6.9,1.4
	c0.8-0.5,1.7-0.5,2.2,0.4c0.7,1.2-0.3,1.7-1.2,2.2c-0.5,0.3-1,0.5-1.8,1c2.3,1.4,3.4,5.5,6.9,2c0.7-0.6,1.4-0.2,1.8,0.4
	c0.6,0.7,0.1,1.3-0.4,1.9c-0.5,0.7-2.2,1-0.9,2.5c1,1.2,1.9,1.2,3,0.3c0.7-0.6,1.4-0.2,1.9,0.4c0.5,0.6,0.3,1.2-0.2,1.6
	C384,213.9,385.2,214.6,386,215.4z"/>
</svg>
