<?xml version="1.0" encoding="utf-8"?>
<!-- Generator: Adobe Illustrator 24.2.0, SVG Export Plug-In . SVG Version: 6.00 Build 0)  -->
<svg version="1.1" id="Layer_2" xmlns="http://www.w3.org/2000/svg" xmlns:xlink="http://www.w3.org/1999/xlink" x="0px" y="0px"
	 viewBox="0 0 500 500" style="enable-background:new 0 0 500 500;" xml:space="preserve">
<path d="M256,283.8c0.4,8.4-0.4,16.7-1.6,25c-0.3,2.2,0.1,3.7,1.7,5.2c8.7,8.3,17.2,16.7,25.8,25.1c0.6,0.6,1.3,1.2,1.9,1.8
	c1.3,1.4,1.6,2.9,0.3,4.3c-1.3,1.4-3,1.1-4.3-0.1c-3.8-3.6-7.6-7.3-11.3-10.9c-5.1-5-10.3-9.9-15.2-15c-1.9-2-2.9-1.7-4.6,0.2
	c-7.8,8.3-15.7,16.4-23.6,24.6c-1.5,1.6-3.2,3.4-5.3,1.2c-2.2-2.2-0.3-3.8,1.2-5.4c8.4-8.7,16.7-17.5,25.2-26.2
	c1.6-1.6,2.3-3.3,2.6-5.6c1.6-11.8,1.9-23.6,1.4-35.5c-0.1-2.2-0.3-4.6,2.8-4.7c2.7-0.1,3,2.2,3,4.3C256,276,256,279.9,256,283.8z
	 M308.3,196.8c-6.6-1.2-13.4-1.8-19.8-3.7c-4.6-1.4-8.7-3.6-11.3-8c-1.1-1.8-1.1-2.9,0.7-4.4c6.4-5.1,10.8-11.8,13.9-19.2
	c7.1-17.1,9.2-34.9,7.5-53.2C298,95,293.5,83,283.4,73.7c-12.9-11.9-31.5-13-43.8-3c-2.6,2.1-5.6,2.5-8.8,2.5
	c-7.1-0.1-12.4,3.2-16.5,8.8c-1.9,2.5-3.4,5.2-4.6,8.1c-5.8,13.6-7.9,27.8-6.1,42.5c2.4,19,9.5,35.8,24,48.9
	c1.5,1.4,1.6,2.3,0.7,4.1c-4.1,7.8-11.2,11.4-19.3,13.4c-8.7,2.2-17.5,3.8-25.8,7.6c-10.7,4.9-19.2,12-22.7,23.8
	c-4.1,13.9,1.3,25.4,14.7,31c5.1,2.1,10.5,3.3,16,3.7c22.1,1.7,44.2,0,66.3-0.5c12.5-0.4,25-0.7,37.4-1.1c9.6-0.4,19.2-0.2,28.8-1.3
	c8.6-1,14-6,16.3-14.3C346.4,225.7,331.1,201,308.3,196.8z M278.7,171.8c-5.1,5.8-11,10.4-18.7,12.3c-3.1,1.4-6.5,1.6-9.8,1.3
	c-2.2,0.2-4.2-0.4-6.2-1c-0.7-0.2-2.2-0.1-2-1.2c0.1-0.8,1.1-1.6,1.8-2.2c1.1-0.9,1.5,0.4,2.1,0.9c1.3,0.9,2,3.1,4.3,2.2
	c0.8-2.2-1.2-3-2.3-4.2c-1-1-1.4-1.7-0.1-2.9c1.2-1.2,2.1-1.6,3.2-0.1c1,1.3,2.1,2.3,2.8,4c0.5,1.4,3.2,2.6,5.5,2.4
	c-1.3-3.5,0.5-5.8,3-8.1c1.6-1.4,2.5-1.5,3.7,0.1c0.5,0.7,1.2,1.3,1.9,1.8c0.6,0.5,1.2,0.8,2,0.2c0.9-0.8,0.5-1.5,0-2.2
	c-1-1.4-3.5-2.2-3-3.8c0.6-1.7,2.5-2.9,3.9-4.4c0.5-0.5,1.1-1.1,1.6-1.6c0.6-0.6,1.2-1.3,2.1-0.3c0.9,0.9-0.1,1.3-0.5,1.8
	c-0.6,0.8-1.9,1.6-0.7,2.8c1.1,1,2.1,0.1,2.8-0.8c1.2-1.4,1.9-0.2,2.7,0.5C279.7,170.2,279.5,170.9,278.7,171.8z M251.8,173.1
	c-0.1-0.5,5.6-5.7,5.9-5.5c1.6,1.1,3.2,2.2,3.8,4.2c0.1,0.5-5.4,5.6-6.1,5.5C254.3,176,252.4,175.1,251.8,173.1z M287.2,157.4
	c-3-3.2-5.6-6-8.3-8.8c-1-1-1.3-1.7-0.1-2.7c1.1-1,2.2-2,3.2-3.2c1.1-1.4,2-1.5,3.1,0c0.8,1.1,2.7,1.8,0.6,3.4
	c-1,0.8-2.1,1.9-0.7,3.1c1.1,1,2-0.3,2.8-1c0.7-0.6,1.2-1.5,2.6-1.5C289.9,150.3,288.6,153.5,287.2,157.4z M293.1,131
	c-0.1,0.1-0.8-0.1-0.9-0.4c-0.6-1,0-1.6,1.1-2.1C293.8,129.4,293.7,130.3,293.1,131z M208.9,123.1c0.1-0.7,0-1.5,0-2.9
	c0.4-10.8,2.7-21.8,8.2-32.1c3.2-5.9,7.7-9.3,14.7-9.1c4.1,0.1,7.9-1,11.2-3.7c10.4-8.5,25.7-7.1,36,2.2c10.2,9.2,13.8,21.3,15,34.5
	c0.2,2.5-1.8,2.5-3.2,2.8c-4.9,1.3-9.9,0.7-14.8-0.3c-8.5-1.7-16.4-5-23.9-9.3c-1.9-1.1-2.9-2.1-2.2-4.7c0.7-2.5,1-5.2,0.7-7.8
	c-0.3-2.1-0.3-4.7-3.3-4.4c-2.6,0.2-2.5,2.6-2.5,4.7c-0.2,14.6-6.9,25.2-20.1,31.5c-3.6,1.7-7.6,2.3-11.6,2.7
	C209.5,127.6,208.5,126.3,208.9,123.1z M218.5,160.7c-4.7-8.5-7.5-17.6-8.8-27.4c3.8-0.2,7.5-0.3,11.2-1.3c11.2-3,19.7-9.5,25-19.8
	c1.2-2.4,1.9-2.8,4.4-1.4c11.8,6.6,24.2,11.2,38,10.4c1-0.1,2-0.2,3-0.3c0.9-0.1,2.2-1.1,2.7,0c0.5,1,0.5,2.6-0.8,3.4
	c-1.6,1-2.2,4.7-5.4,2.2c-0.5-0.4-1.2-0.1-1.6,0.6c-0.4,0.8-0.1,1.5,0.5,2c1.7,1.7,3.4,3.3,5,5.1c1.6,1.7,0.7,6.1-1,7.4
	c-1.9,1.5-2.5,0-3.6-0.9c-1.4-1.1-1-2,0.1-3c0.9-0.8,2.2-1.8,1-3.1c-1.4-1.4-2.5,0.2-3,1.1c-1.2,2.2-3-0.2-4.2,0.7
	c-1.6,1.2,1.4,3-0.7,4.2c-1.2,0.8-2,2.2-3.2,3.1c-3.1,2.3-2.3,4.6-0.2,6.8c1.4,1.5,2.6,3.3,4.6,4.1l0,0c0,0,0,0,0,0c0,0,0,0,0,0
	c0,0,0,0,0,0c0,0,0,0,0,0c0,0,0,0,0,0l0,0c0.3,0.5,0.5,1,0.9,1.4c3.9,4.1,3.9,6.2,0.1,10.7c-0.7,0.8-1.1,1.2-2,0.3
	c-0.7-0.8-1.4-1.4-0.3-2.4c1-0.9,2-1.9,2.9-2.9c0.5-0.6,1-1.2,0.3-2c-0.7-0.8-1.6-0.7-2.3,0c-1,0.9-2,1.9-2.9,2.9
	c-0.6,0.6-1.1,0.9-1.9,0.2c-0.8-0.8-0.1-1.3,0.4-1.8c1.8-1.9,4-3.5,4.7-6.2l0-0.2c-2.8-0.3-4.3,1.7-5.8,3.4c-1.4,1.6-2.6,2.2-4,0.1
	c-0.2-0.3-0.5-0.6-0.8-0.8c-1.1-0.8-2.1-3-3.6-1.5c-1.6,1.6,0.5,2.7,1.5,3.5c2.6,2,2.7,3.7,0,5.6c-0.7,0.5-1.2,1.2-1.9,1.8
	c-2.7,2.7-4.3,2.5-6.4-0.8c-1-1.6,0.7-1.8,1.1-2.6c0.9-1.8,4.9-2.8,2.8-5c-1.8-1.8-3.1,1.8-4.8,2.9c-1,0.7-1.7,2.4-3.3,0.7
	c-0.5-0.6-1.4-0.7-2-0.1c-0.8,0.8-0.1,1.5,0.2,2.3c1.2,3.4-2.6,3.7-3.7,5.8c-0.8,1.5-1.9,1.2-2.9,0c-0.7-0.8-1.7-1.3-2.6-0.3
	c-0.8,0.9-0.2,1.7,0.5,2.2c1.6,1.2,1.1,2,0,3.2c-1.5,1.6-2.3,0.5-3.3-0.5c-0.3-0.3-0.5-0.5-0.8-0.8c-0.7-0.8-1.6-1.5-2.6-0.7
	c-1.2,1-0.3,2.1,0.6,2.8c2.1,1.7,2.6,3.1,0.2,5.1c-1.7,1.4-2.7,0.6-3.9-0.2C228.4,175.6,222.9,168.6,218.5,160.7z M224.8,259.7
	c2.6-4.5,2.9-4.5,5.9,0C228.5,259.7,226.7,259.7,224.8,259.7z M236.3,259.6c3.4-5.3,3.5-5.3,7.2-0.4
	C241,259.4,238.8,259.5,236.3,259.6z M248.9,258.7c4.6-4.9,4.6-4.9,8.7,0C254.6,258.7,251.9,258.7,248.9,258.7z M271.4,256.9
	c-0.2,1.1-0.9,1.6-2.1,1.6c-2.4-0.1-4.9,0-8.1,0c2.1-2.1,3.9-3.7,5.7-5.4c0.6-0.6,1.3-0.9,1.8,0
	C269.4,254.3,271.7,254.8,271.4,256.9z M270.4,250.7c-0.7-1.4,0.4-1.8,1-2.4c3.2-3.3,6.5-6.5,9.8-9.8c0.8-0.8,2.3-1.8,1-3.1
	c-1.3-1.3-2.2,0.2-3.1,1c-2.8,2.7-5.5,5.5-8.2,8.2c-0.2,0.2-0.5,0.3-0.5,0.5c-0.6,4-6.6,0.1-5.9,2.9c1.1,4.1-2.4,4.3-3.5,6.4
	c-1.3,2.3-2.4,0.8-3.6-0.4c-1.2-1.2-2.3-2.1-0.4-3.8c2.3-1.9,4.3-4.2,6.4-6.3c0.8-0.8,2-1.6,0.8-2.8c-1.1-1.1-2-0.1-2.8,0.7
	c-4.5,4.4-9,8.8-13.3,13.4c-1.7,1.8-2.6,1.3-4.1-0.2c-1.6-1.5-2.1-2.6-0.1-4.1c0.9-0.7,1.7-1.5,2.4-2.4c0.8-1,3-2,1.4-3.6
	c-1.4-1.4-2.4,0.5-3.3,1.4c-2.6,2.5-5.1,5.1-7.7,7.7c-3.4,3.4-3.4,3.4-7.4-0.7c1.8-1.5,3.6-3,5.4-4.6c0.6-0.6,1.3-1.4,0.5-2.3
	c-0.9-1-1.8-0.5-2.6,0.3c-3.1,3.1-6.2,6.1-9.3,9.3c-1,1-1.7,1.6-2.9,0.2c-0.9-1-2-3.1-3.5-1.4c-1.5,1.6,0.9,2.4,1.6,3.5
	c0.2,0.3,0.4,0.5,0.9,1.3c-13-0.2-25.6,1-37.9-2.4c-16.3-4.5-21.4-18.4-12.3-32.6c2-3.1,4.6-5.6,7.5-7.8c8.5-6.4,18.6-8.8,28.7-11.2
	c4.9-1.1,9.7-2.4,14.2-4.5c5.7-2.7,10.3-6.6,13.3-12.2c1-1.9,1.7-2.5,3.9-1.4c10.3,5.1,20.8,4.7,30.9-0.3c2.7-1.3,3.5-0.8,5,1.5
	c4.2,6.8,11.2,9.3,18.5,10.8c5.7,1.2,11.6,1.7,17.3,3.1c14.4,3.6,22.4,13.4,26,27.3c-1.5-2-5.3-2.3-4.4-6.1c0.2-0.8-5.9-3.1-6.6-2.5
	c-1,0.8-0.6,1.7,0.1,2.2c2,1.5,1.1,2.6-0.3,3.7c-1.7,1.4-2.9,3.3-5.1,4.4c-1.2,0.6-1.7,2.1-1.5,3.5c0.3,1.5,1.6,0.5,2.4,0.7
	c1.8,0.5,3.1,2.2,4,3.7c0.7,1.1-1.1,1.9-1.9,2.7c-4.4,4.5-4.3,4.3-9.1-0.2c-2.2-2.1-2.7-3.5-0.1-5.5c0.9-0.7,2.8-1.7,1.3-3.2
	c-1.5-1.4-2.3,0.5-3.3,1.2c-1.2,0.9-1.9,3-4.2,1.7c-0.7-0.4-1.5,0.6-1.4,1.3c1,4.1-3.2,4.7-4.7,7.1c-0.6,1-1.2,0-1.8-0.4
	c-5.5-4.3-5.6-4.6-0.7-9.6c0.4-0.4,0.9-0.9,1.3-1.3c0.7-0.7,1.6-1.5,0.6-2.5c-1-1.1-1.7-0.3-2.5,0.4c-2.6,1.9-3.9,5.4-7.8,5.9
	c-1,0.1-0.4,2.9-2,4c-1.2,0.9-2,2.3-3.4,0.4c-0.6-0.9-1.6-1.5-2.6-0.7c-1.3,1.1-0.2,2.1,0.6,2.8c1.3,1.1,1.1,2-0.1,3
	c-1.7,1.5-3.2,3.2-4.8,4.7C274.2,254.1,272,253.7,270.4,250.7z M290.4,254.3c-1.1,1.9-2.7,4.3-5.8,3.8c-1-0.1-2,0-3.7,0
	c-1-0.3-3.5,1.3-4.4-0.5c-1.1-2.2,1.8-3.1,2.9-4.6c0.7-1,1.9-1.7,2.6-2.7c2-2.9,4-2.7,5.8,0.1C288.7,251.7,291.5,252.4,290.4,254.3z
	 M293,258.2c-0.6,0.1-1.2,0.1-1.4-0.7c-0.1-0.6,0.5-0.9,0.8-0.9c0.5,0,1,0.4,1.4,0.6C294,258.1,293.5,258.1,293,258.2z M293.3,251.4
	c-0.4,0.3-6.2-5.8-5.8-6.2c0.9-1.3,2-2.5,2.6-3.3c1.3,0.1,6.8,5.8,6.5,6.1C295.6,249.2,294.5,250.4,293.3,251.4z M305.5,257.5
	c-1.8,0-3.8-0.4-5.5,0.1c-3.1,0.8-3-1.9-3.9-3.2c-1.1-1.7,1.1-2.1,1.7-3.1c0.8-1.2,1.6-1.2,2.6,0c1.7,1.9,3.6,3.6,5.5,5.4
	C305.8,256.9,305.6,257.2,305.5,257.5z M309.2,254.5c-3.5-0.2-4.4-3.8-6.8-5.4c-1.4-0.9-0.7-1.7,0.1-2.6c1.5-1.6,3-3.3,5-5.6
	c1.2,1.6,1.9,2.8,2.9,3.7c4.9,5,4.9,5-0.6,9.4C309.6,254.2,309.4,254.5,309.2,254.5z M311.9,256.7c3.9-6.4,4.5-6.4,10.4,0
	C318.4,256.7,315.1,256.7,311.9,256.7z M327.6,255.2c-1.4,0.8-3.1,1.8-3.6-1c-0.1-0.3-0.5-0.5-0.7-0.8c-1.3-1.6-4.4-3-3.8-4.6
	c0.8-2.2,3.4-3.8,5.2-5.7c0.9-0.9,1.4-0.6,2.1,0.1c0.8,0.8,0.7,1.4,0,2.2c-0.8,0.9-2.8,1.7-1,3.2c1.4,1.2,2-0.8,3-1.2
	c2.9-1.1,3.5-4.6,6.5-6C334.6,247.2,333,252.3,327.6,255.2z M335.5,236.5c-0.8,2.3-3.4,3.2-4.9,5c-0.1,0.2-0.4,0.2-0.7,0.4
	c-0.4-0.4-0.9-0.8-1.4-1.2c-1.4-1.4-2.7-3-4.2-4.2c-2.6-2-2.5-3.5-0.2-6c2.7-2.8,4.4-2.9,6.5,0.2c0.5,0.7,1.4,1.1,1.8,1.9
	C333.2,234.2,336.5,234,335.5,236.5z M175.2,237.5c0.2-6.7,3-11.4,7.6-15.1c7.9-6.4,17.3-9.2,26.9-11.3c5.9-1.3,11.8-1.9,17.8-2.2
	c1.4-0.1,3.9-1.1,4,1.2c0.2,2.5-2.4,1.5-3.8,1.6c-12.5,0.8-24.8,2.8-36.2,8.3c-3,1.5-5.9,3.3-8.3,5.7c-4.1,4-6,8.8-4.7,14.6
	c0.2,1.1,0.8,2.4-0.7,2.8c-1.8,0.5-1.9-1.1-2.1-2.3C175.5,239.6,175.3,238.2,175.2,237.5z M196.8,380.5c-4.3-0.9-8.6-1.4-12.9-2.3
	c-4.3-0.9-8.5-2.2-11.3-5.9c-1.3-1.6-1.4-2.8,0.4-4.3c3.4-2.8,6-6.4,8-10.3c7.6-14.3,10-29.6,8.7-45.6c-0.8-10.5-4.2-19.9-11.6-27.7
	c-10.6-11.2-26.8-12-36.6-4c-1.8,1.5-4,1.9-6.3,2c-8,0.1-13.2,4.4-16.6,11.3c-3.3,6.7-5.4,13.7-6.1,21.1
	c-1.7,20.7,3.4,39.1,18.7,53.9c1.6,1.5,1.4,2.5,0.4,4.1c-3.3,5.2-8.4,7.6-14.1,9.2c-5.6,1.6-11.4,2.8-16.9,4.6
	c-8.6,2.8-15.7,7.5-20.1,15.8c-7.2,13.7-1.8,26.8,13,31.4c4.9,1.5,10,2.1,15.1,2.2c15.6,0.3,31.2-0.1,46.8-0.6
	c16.6-0.6,33.2-1,49.8-1.7c9.6-0.4,14.9-4.7,17-13.4C226.4,403,214.4,384.1,196.8,380.5z M173.4,358.8c-0.5,1.8-2,3.3-4,4.4
	c-0.9-1.1-2.6-2.3-2.4-3.1c0.5-1.8,2.2-3.3,4-4C171.6,355.9,173.8,357.6,173.4,358.8z M151.8,369.8c0.3-2-1.4-2.8-2.5-3.8
	c-1.5-1.4-1.6-2.2-0.1-3.8c1.7-1.8,2.4-0.6,3.5,0.4c0.3,0.3,0.5,0.5,0.8,0.8c4.7,4.7,4.8,4.8,9.4,0.3c1.6-1.5,2.2-1,3.5,0.2
	c1.9,1.8-0.1,2.3-1,2.9c-3.1,2-6.4,3.8-10.2,4.1c-2.5,0.9-5,1-7.5,0.1c-0.1,0-0.2-0.1-0.4-0.1c-0.8-0.2-1.7-0.2-2.5-0.6
	c-0.7-0.3-2.1-0.2-1.9-1.3c0.2-0.8,1.2-1.5,1.9-2.2c1.1-1,1.5,0.2,2,0.7c1.1,1,2.1,2.1,3.1,3.1C150.6,370.4,151.2,370.1,151.8,369.8
	L151.8,369.8C151.8,369.8,151.8,369.8,151.8,369.8z M162.2,360c-0.9,1.5-2.3,2.8-3.8,3.9c-0.4,0.3-5.3-4.6-5.1-5.1
	c0.6-1.7,2.1-2.6,3.4-3.7C157,354.7,162.1,359.4,162.2,360z M159.4,352.3c1.1-1.5,2.3-2.9,4-3.8c0.4-0.2,5.1,4.6,5,5.3
	c-1.2,1.3-2.3,3-4.2,3.8C163.9,357.9,159.2,352.6,159.4,352.3z M179.9,346.4c-0.8-2.3-3.7-2.5-1.9-4.7c0.8-1,2.3-3.3,3.2-2.2
	C182.5,341.1,180.8,343.4,179.9,346.4z M118.1,321.4c0.1-0.6,0-1.2,0-1.9c0.3-8.5,2.2-16.5,6.2-24c2.5-4.7,6.1-7.4,11.7-7.2
	c3.4,0.1,6.4-0.9,9-3.1c8.1-6.9,19.7-4.6,26.2,0.8c8.5,7,11.8,16.4,13,26.9c0.2,1.8-0.7,2.3-2.2,2.7c-4.5,1.1-8.9,0.1-13.3-0.8
	c-5.7-1.2-10.9-3.5-15.9-6.2c-1.9-1-2.7-2.2-2.2-4.4c0.4-2.1,0.4-4.2,0.4-6.3c0-1.8-1-3.3-2.9-3.3c-2.1,0-2.9,1.6-2.8,3.6
	c0.2,7-1.9,13.3-6.6,18.6c-4.4,5-10,7.6-16.6,8.5C118.8,325.5,117.5,324.6,118.1,321.4z M119,333.4c-0.3-1.7,0-2.3,2-2.5
	c11.4-0.8,20.1-6.1,25.8-16.1c1.1-2,1.9-2.3,3.9-1.1c7.6,4.5,15.9,6.9,24.7,7.9c2.9,0.3,5.7-0.3,8.6-0.5c0.5,3.7-0.3,7.3-0.8,10.8
	c-0.3,2.2-1.9,3.2-3.9,1.1c-0.8-0.9-1.8-2.3-3-1c-1.2,1.3,0.2,2.2,1.1,3c1,0.9,1.9,1.9,0.2,2.9c-1.2,0.7-1.7,3.7-4,1.3
	c-0.6-0.7-1.4-1.1-2.2-0.1c-0.8,0.9-0.2,1.6,0.4,2.3c0.8,0.8,1.6,1.6,2.4,2.4c5.3,5.3,5.3,5.3,1.5,12c-0.4-0.2-0.6-0.2-0.7-0.2
	c-2.2-4.2-6.9-5.8-9.5-9.5c-1.5-2.1-2.6-1.8-4.1-0.1c-0.7,0.9-1.6,1.5-2.4,2.4c-1.2,1.5-2.4,2.5-4,0.3c-0.6-0.9-1.6-1.3-2.5-0.3
	c-0.8,0.9-0.2,1.7,0.5,2.2c3.1,2.4-0.1,3.4-1.1,4.7c-1.7,2.2-2.3-0.3-3.3-0.9c-1-0.6-1.7-2.4-3-1.3c-1.5,1.3,0,2.4,1,3.4
	c1.1,1.1,2.5,1.9,0.7,3.8c-2,2.1-2.8,0.6-4.1-0.6c-0.8-0.8-1.8-1.8-2.8-0.7c-1.1,1.1,0.1,2,0.9,2.8c1,1.1,2.7,1.9,0.7,3.8
	c-1.7,1.6-2.7,2.3-4.8,0.5C126.7,357.6,121.5,346.3,119,333.4z M129.4,430c-1.7-0.1-2.4-1.2-0.8-2.7c1.6-1.6,3.1-3.2,5-5.3
	c0.9,3.6,4.1,4.8,5.7,7.6C135.9,430.4,132.6,430.1,129.4,430z M144.2,429.8c2.5-4.6,3.1-4.6,6.3,0
	C148.1,429.8,146.2,429.8,144.2,429.8z M158.1,429.2c2-3.1,2-3.1,4.2,0C160.8,429.2,159.5,429.2,158.1,429.2z M167.7,429.1
	c-1,0-5.2-4.2-5.1-5c0.1-0.6,5.4-5.5,5.9-5.4c0.7,0.1,5,4.8,4.9,5.3C173.2,424.8,168.4,429.2,167.7,429.1z M173.4,428.9
	c2.3-3.4,2.3-3.4,4.6-0.3C176.5,429.1,175,429.1,173.4,428.9z M184,428.5c-1.4,0-5.8-3.5-5.8-4.6c0-0.6,5.3-5.9,5.6-5.6
	c2.1,1.7,4.1,3.5,5.6,4.9C189.5,425.2,185.4,428.5,184,428.5z M190.4,428.3c0.9-1.2,1.8-1.4,2.9-0.3
	C192.5,429,191.4,428.2,190.4,428.3z M198.8,428c-2.1-0.6-3.5-2.1-4.3-4.1c-0.2-0.6,5.9-6.2,6.3-5.9c1.7,1.5,3.4,3.1,4.9,4.6
	C205.5,424.3,200.1,428.4,198.8,428z M216.3,419.6c-1.5,5.5-4.7,8-11.4,8c2.8-2.7,5.2-4.9,7.5-7.2c0.8-0.8,1.9-1.8,0.7-2.8
	c-1.1-1.1-2,0.2-2.8,0.8c-0.9,0.7-1.5,2.7-2.8,1.8c-1.7-1.1-3.5-2.7-4.3-4.5c-0.5-1.1,1.8-2.1,2.6-3.2c0.9-1.2,3.5-2.3,2.1-3.7
	c-1.4-1.5-3.1,0.5-4.2,1.7c-1.9,2.3-3.7,3.6-5.9,0.3c-0.6-0.8-1.5-1.4-2.5-0.3c-0.8,0.9-0.2,1.7,0.4,2.3c0.9,0.9,1.9,1.6,3.6,3.1
	c-1.7,1.3-3.2,2-4.2,3.3c-2.3,3.2-4,2.6-6.5,0c-2.4-2.4-2.5-3.9,0.1-6c1.6-1.2,2.9-2.7,4.2-4.2c0.8-0.9,2.7-1.8,1.1-3.3
	c-1.3-1.2-2.2,0.3-3.1,1.1c-3.1,3.1-6.2,6.2-9.3,9.3c-0.8,0.8-1.6,1.6-2.4,2.4c-3.6,3.6-5.3,3.4-8.2-1.1c-0.5-0.7-0.7-1.2,0.1-1.9
	c0.8-0.7,1.4-1.4,2.1-2.1c0.9-0.9,2.1-1.9,0.8-3.1c-1.1-1.1-2,0.2-2.8,1c-2.9,2.9-5.9,5.7-8.7,8.8c-1.8,1.9-3.1,2.7-4.9,0.1
	c-0.9-1.4-2.2-1.7-3.6-0.7c0,0.1-0.1,0.2-0.1,0.3c0,0,0,0,0,0c0,0,0,0-0.1,0.1c0.5,1.1,1.1,2.1,2.1,2.8c2.2,1.5,1.7,2.9-0.2,4.1
	c-0.8,0.5-1.3,2.3-2.4,1.4c-1.4-1.1-2.5-2.6-3.7-4.1c-0.1-0.1,0.4-0.8,0.8-1.1c1.1-1.1,2.3-2.1,3.4-3.2c0,0,0-0.1-0.1-0.1
	c0.1-0.1,0.2-0.1,0.2-0.2c0.4-0.9,0.2-1.7-0.8-2.2c-0.8-0.4-1.4,0.2-2,0.7c-0.8,0.8-1.6,1.6-2.4,2.4c-1,1-1.8,2.2-3.2,0.4
	c-0.5-0.7-1.4-1.1-2.2-0.2c-0.9,0.9-0.4,1.7,0.3,2.2c2.3,2-0.2,2.6-1,3.7c-1.4,1.9-2.2,0.3-3.2-0.6c-1.6-1.5-2.9-3.3-5.3-4.3
	c2.2-2.1,4.2-4,6.1-5.9c0.8-0.8,1.8-1.7,0.7-2.9c-1.2-1.2-2,0-2.8,0.8c-3.8,3.8-7.7,7.5-11.4,11.4c-1.5,1.6-2.4,1.6-3.8,0
	c-0.8-0.9-1.9-2.8-3.3-1.4c-1.6,1.6,0.6,2.5,1.4,3.6c0.5,0.7,1.6,1.1,1.2,2.1c-0.4,1-1.5,1.2-2.5,1.2c-7.8-0.2-15.7,0.4-23.5-1.7
	c-14-3.8-17.8-16.6-8.2-27.6c5.4-6.1,12.6-8.7,20.2-10.7c4.7-1.2,9.4-2.4,14.1-3.8c6-1.9,11.1-5.3,14.1-11c1-1.8,1.8-1.4,3.2-0.8
	c8,3.7,16,3.2,23.9-0.3c1.2-0.5,2.1-1.7,3.3,0.3c3.8,6.3,10.2,8.4,17,9.6c4.3,0.8,8.7,1.2,12.9,2.3
	C211,390.1,220.1,405.8,216.3,419.6z M202.9,402.5c-0.6,0.9-1.1,1.8-1.7,2.5c-0.6,0.7-1.4,1-2.3,0.2c-0.9-0.8-0.4-1.6,0.2-2.2
	c2.2-2.3,4.5-4.5,6.7-6.8c0.8-0.8,1.6-1.3,2.6-0.3c0.8,0.9,0.3,1.8-0.4,2.2c-3.5,2.3-1.2,3.9,0.5,5.6c2,2,4.1,4,6.1,6.1
	c0.7,0.7,1.5,1.5,0.4,2.5c-1,0.9-1.8,0.2-2.6-0.5c-2.5-2.4-4.9-4.9-7.4-7.4C204.6,404,204.1,403.5,202.9,402.5z M396.5,380.5
	c-4.3-0.9-8.6-1.4-12.9-2.3c-4.3-0.9-8.5-2.2-11.3-5.9c-1.3-1.6-1.4-2.8,0.4-4.3c3.4-2.8,6-6.4,8-10.3c7.6-14.3,10-29.6,8.7-45.6
	c-0.8-10.5-4.2-19.9-11.6-27.7c-10.6-11.2-26.8-12-36.6-4c-1.8,1.5-4,1.9-6.3,2c-8,0.1-13.2,4.4-16.6,11.3
	c-3.3,6.7-5.4,13.7-6.1,21.1c-1.7,20.7,3.4,39.1,18.7,53.9c1.6,1.5,1.4,2.5,0.4,4.1c-3.3,5.2-8.4,7.6-14.1,9.2
	c-5.6,1.6-11.4,2.8-16.9,4.6c-8.6,2.8-15.7,7.5-20.1,15.8c-7.2,13.7-1.8,26.8,13,31.4c4.9,1.5,10,2.1,15.1,2.2
	c15.6,0.3,31.2-0.1,46.8-0.6c16.6-0.6,33.2-1,49.8-1.7c9.6-0.4,14.9-4.7,17-13.4C426,403,414,384.1,396.5,380.5z M373.1,358.8
	c-0.5,1.8-2,3.3-4,4.4c-0.9-1.1-2.6-2.3-2.4-3.1c0.5-1.8,2.2-3.3,4-4C371.2,355.9,373.4,357.6,373.1,358.8z M351.4,369.8
	c0.3-2-1.4-2.8-2.5-3.8c-1.5-1.4-1.6-2.2-0.1-3.8c1.7-1.8,2.4-0.6,3.5,0.4c0.3,0.3,0.5,0.5,0.8,0.8c4.7,4.7,4.8,4.8,9.4,0.3
	c1.6-1.5,2.2-1,3.5,0.2c1.9,1.8-0.1,2.3-1,2.9c-3.1,2-6.4,3.8-10.2,4.1c-2.5,0.9-5,1-7.5,0.1c-0.1,0-0.2-0.1-0.4-0.1
	c-0.8-0.2-1.7-0.2-2.5-0.6c-0.7-0.3-2.1-0.2-1.9-1.3c0.2-0.8,1.2-1.5,1.9-2.2c1.1-1,1.5,0.2,2,0.7c1.1,1,2.1,2.1,3.1,3.1
	C350.2,370.4,350.8,370.1,351.4,369.8L351.4,369.8C351.4,369.8,351.4,369.8,351.4,369.8z M361.8,360c-0.9,1.5-2.3,2.8-3.8,3.9
	c-0.4,0.3-5.3-4.6-5.1-5.1c0.6-1.7,2.1-2.6,3.4-3.7C356.7,354.7,361.7,359.4,361.8,360z M359,352.3c1.1-1.5,2.3-2.9,4-3.8
	c0.4-0.2,5.1,4.6,5,5.3c-1.2,1.3-2.3,3-4.2,3.8C363.5,357.9,358.8,352.6,359,352.3z M379.6,346.4c-0.8-2.3-3.7-2.5-1.9-4.7
	c0.8-1,2.3-3.3,3.2-2.2C382.1,341.1,380.5,343.4,379.6,346.4z M317.7,321.4c0.1-0.6,0-1.2,0-1.9c0.3-8.5,2.2-16.5,6.2-24
	c2.5-4.7,6.1-7.4,11.7-7.2c3.4,0.1,6.4-0.9,9-3.1c8.1-6.9,19.7-4.6,26.2,0.8c8.5,7,11.8,16.4,13,26.9c0.2,1.8-0.7,2.3-2.2,2.7
	c-4.5,1.1-8.9,0.1-13.3-0.8c-5.7-1.2-10.9-3.5-15.9-6.2c-1.9-1-2.7-2.2-2.2-4.4c0.4-2.1,0.4-4.2,0.4-6.3c0-1.8-1-3.3-2.9-3.3
	c-2.1,0-2.9,1.6-2.8,3.6c0.2,7-1.9,13.3-6.6,18.6c-4.4,5-10,7.6-16.6,8.5C318.4,325.5,317.1,324.6,317.7,321.4z M318.6,333.4
	c-0.3-1.7,0-2.3,2-2.5c11.4-0.8,20.1-6.1,25.8-16.1c1.1-2,1.9-2.3,3.9-1.1c7.6,4.5,15.9,6.9,24.7,7.9c2.9,0.3,5.7-0.3,8.6-0.5
	c0.5,3.7-0.3,7.3-0.8,10.8c-0.3,2.2-1.9,3.2-3.9,1.1c-0.8-0.9-1.8-2.3-3-1c-1.2,1.3,0.2,2.2,1.1,3c1,0.9,1.9,1.9,0.2,2.9
	c-1.2,0.7-1.7,3.7-4,1.3c-0.6-0.7-1.4-1.1-2.2-0.1c-0.8,0.9-0.2,1.6,0.4,2.3c0.8,0.8,1.6,1.6,2.4,2.4c5.3,5.3,5.3,5.3,1.5,12
	c-0.4-0.2-0.6-0.2-0.7-0.2c-2.2-4.2-6.9-5.8-9.5-9.5c-1.5-2.1-2.6-1.8-4.1-0.1c-0.7,0.9-1.6,1.5-2.4,2.4c-1.2,1.5-2.4,2.5-4,0.3
	c-0.6-0.9-1.6-1.3-2.5-0.3c-0.8,0.9-0.2,1.7,0.5,2.2c3.1,2.4-0.1,3.4-1.1,4.7c-1.7,2.2-2.3-0.3-3.3-0.9c-1-0.6-1.7-2.4-3-1.3
	c-1.5,1.3,0,2.4,1,3.4c1.1,1.1,2.5,1.9,0.7,3.8c-2,2.1-2.8,0.6-4.1-0.6c-0.8-0.8-1.8-1.8-2.8-0.7c-1.1,1.1,0.1,2,0.9,2.8
	c1,1.1,2.7,1.9,0.7,3.8c-1.7,1.6-2.7,2.3-4.8,0.5C326.3,357.6,321.2,346.3,318.6,333.4z M329.1,430c-1.7-0.1-2.4-1.2-0.8-2.7
	c1.6-1.6,3.1-3.2,5-5.3c0.9,3.6,4.1,4.8,5.7,7.6C335.6,430.4,332.3,430.1,329.1,430z M343.9,429.8c2.5-4.6,3.1-4.6,6.3,0
	C347.7,429.8,345.8,429.8,343.9,429.8z M357.7,429.2c2-3.1,2-3.1,4.2,0C360.5,429.2,359.1,429.2,357.7,429.2z M367.3,429.1
	c-1,0-5.2-4.2-5.1-5c0.1-0.6,5.4-5.5,5.9-5.4c0.7,0.1,5,4.8,4.9,5.3C372.9,424.8,368,429.2,367.3,429.1z M373.1,428.9
	c2.3-3.4,2.3-3.4,4.6-0.3C376.1,429.1,374.7,429.1,373.1,428.9z M383.7,428.5c-1.4,0-5.8-3.5-5.8-4.6c0-0.6,5.3-5.9,5.6-5.6
	c2.1,1.7,4.1,3.5,5.6,4.9C389.1,425.2,385.1,428.5,383.7,428.5z M390.1,428.3c0.9-1.2,1.8-1.4,2.9-0.3
	C392.1,429,391,428.2,390.1,428.3z M398.4,428c-2.1-0.6-3.5-2.1-4.3-4.1c-0.2-0.6,5.9-6.2,6.3-5.9c1.7,1.5,3.4,3.1,4.9,4.6
	C405.1,424.3,399.7,428.4,398.4,428z M416,419.6c-1.5,5.5-4.7,8-11.4,8c2.8-2.7,5.2-4.9,7.5-7.2c0.8-0.8,1.9-1.8,0.7-2.8
	c-1.1-1.1-2,0.2-2.8,0.8c-0.9,0.7-1.5,2.7-2.8,1.8c-1.7-1.1-3.5-2.7-4.3-4.5c-0.5-1.1,1.8-2.1,2.6-3.2c0.9-1.2,3.5-2.3,2.1-3.7
	c-1.4-1.5-3.1,0.5-4.2,1.7c-1.9,2.3-3.7,3.6-5.9,0.3c-0.6-0.8-1.5-1.4-2.5-0.3c-0.8,0.9-0.2,1.7,0.4,2.3c0.9,0.9,1.9,1.6,3.6,3.1
	c-1.7,1.3-3.2,2-4.2,3.3c-2.3,3.2-4,2.6-6.5,0c-2.4-2.4-2.5-3.9,0.1-6c1.6-1.2,2.9-2.7,4.2-4.2c0.8-0.9,2.7-1.8,1.1-3.3
	c-1.3-1.2-2.2,0.3-3.1,1.1c-3.1,3.1-6.2,6.2-9.3,9.3c-0.8,0.8-1.6,1.6-2.4,2.4c-3.6,3.6-5.3,3.4-8.2-1.1c-0.5-0.7-0.7-1.2,0.1-1.9
	c0.8-0.7,1.4-1.4,2.1-2.1c0.9-0.9,2.1-1.9,0.8-3.1c-1.1-1.1-2,0.2-2.8,1c-2.9,2.9-5.9,5.7-8.7,8.8c-1.8,1.9-3.1,2.7-4.9,0.1
	c-0.9-1.4-2.2-1.7-3.6-0.7c0,0.1-0.1,0.2-0.1,0.3c0,0,0,0,0,0c0,0,0,0-0.1,0.1c0.5,1.1,1.1,2.1,2.1,2.8c2.2,1.5,1.7,2.9-0.2,4.1
	c-0.8,0.5-1.3,2.3-2.4,1.4c-1.4-1.1-2.5-2.6-3.7-4.1c-0.1-0.1,0.4-0.8,0.8-1.1c1.1-1.1,2.3-2.1,3.4-3.2c0,0,0-0.1-0.1-0.1
	c0.1-0.1,0.2-0.1,0.2-0.2c0.4-0.9,0.2-1.7-0.8-2.2c-0.8-0.4-1.4,0.2-2,0.7c-0.8,0.8-1.6,1.6-2.4,2.4c-1,1-1.8,2.2-3.2,0.4
	c-0.5-0.7-1.4-1.1-2.2-0.2c-0.9,0.9-0.4,1.7,0.3,2.2c2.3,2-0.2,2.6-1,3.7c-1.4,1.9-2.2,0.3-3.2-0.6c-1.6-1.5-2.9-3.3-5.3-4.3
	c2.2-2.1,4.2-4,6.1-5.9c0.8-0.8,1.8-1.7,0.7-2.9c-1.2-1.2-2,0-2.8,0.8c-3.8,3.8-7.7,7.5-11.4,11.4c-1.5,1.6-2.4,1.6-3.8,0
	c-0.8-0.9-1.9-2.8-3.3-1.4c-1.6,1.6,0.6,2.5,1.4,3.6c0.5,0.7,1.6,1.1,1.2,2.1c-0.4,1-1.5,1.2-2.5,1.2c-7.8-0.2-15.7,0.4-23.5-1.7
	c-14-3.8-17.8-16.6-8.2-27.6c5.4-6.1,12.6-8.7,20.2-10.7c4.7-1.2,9.4-2.4,14.1-3.8c6-1.9,11.1-5.3,14.1-11c1-1.8,1.8-1.4,3.2-0.8
	c8,3.7,16,3.2,23.9-0.3c1.2-0.5,2.1-1.7,3.3,0.3c3.8,6.3,10.2,8.4,17,9.6c4.3,0.8,8.7,1.2,12.9,2.3
	C410.7,390.1,419.7,405.8,416,419.6z M402.6,402.5c-0.6,0.9-1.1,1.8-1.7,2.5c-0.6,0.7-1.4,1-2.3,0.2c-0.9-0.8-0.4-1.6,0.2-2.2
	c2.2-2.3,4.5-4.5,6.7-6.8c0.8-0.8,1.6-1.3,2.6-0.3c0.8,0.9,0.3,1.8-0.4,2.2c-3.5,2.3-1.2,3.9,0.5,5.6c2,2,4.1,4,6.1,6.1
	c0.7,0.7,1.5,1.5,0.4,2.5c-1,0.9-1.8,0.2-2.6-0.5c-2.5-2.4-4.9-4.9-7.4-7.4C404.3,404,403.7,403.5,402.6,402.5z"/>
</svg>
