<?xml version="1.0" encoding="utf-8"?>
<!-- Generator: Adobe Illustrator 24.2.0, SVG Export Plug-In . SVG Version: 6.00 Build 0)  -->
<svg version="1.1" id="Layer_2" xmlns="http://www.w3.org/2000/svg" xmlns:xlink="http://www.w3.org/1999/xlink" x="0px" y="0px"
	 viewBox="0 0 500 500" style="enable-background:new 0 0 500 500;" xml:space="preserve">
<path d="M-987.5,129.8l-0.2,0.2C-987.6,129.9-987.5,129.8-987.5,129.8z"/>
<path d="M368.2,210.4c-31.5,0-63.1,0-94.6,0c-30.8,0-61.6-0.1-92.4,0.1c-4.1,0-7.1-0.2-8.9-4.8c-0.9-2.3-1.5-3.1,1.1-4.5
	c37-20.8,73.3-42.6,110-64c21.7-12.7,43.5-25.2,65.3-37.7c4.1-2.4,4.3-3.5,1.4-7.2c-7.3-9.2-14.6-18.3-21.8-27.6
	c-2-2.6-3.9-3.2-6.9-1.6c-28.5,15.2-56.8,30.8-84.7,47.2c-36.6,21.5-72.5,44.2-107.3,68.4c-4.1,2.9-4.2,3.5-1,7.6
	c2.9,3.7,5.8,7.5,8.9,11.1c1.5,1.7,1.9,2.7,0,4.7c-9.2,9.5-6.8,27.1,6.2,31.7c1.7,0.6,1.8,1.6,1.8,3.1c0,7,0,13.9,0,20.9
	c0.1,46.4,0.3,92.8,0.4,139.2c0,3.4,0,6.7,0.3,10.1c1.2,14.3,13.1,25.6,27.4,26.2c12.5,0.5,24.9,1.2,37.4,1.7
	c40.7,1.9,81.5,3.2,122.3,2.7c4.9-0.1,9.6-1,14.2-2.8c16.9-6.7,26.8-21.9,26.8-41.4c0-59.1,0-118.2,0-177.3
	C374,210.9,373.4,210.4,368.2,210.4z M368.2,245c0,1.6,0.2,2.9-2.2,2.8c-6.8-0.1-13.7,0-21.3,0c7.9-9,15.4-17.6,23.5-26.8
	C368.2,229.7,368.2,237.3,368.2,245z M358.1,253.7c-2.1,2.9-2.1,2.9-4.8,0C355.2,253.7,356.6,253.7,358.1,253.7z M346.3,253.8
	c-3.8,5.7-4.4,5.7-8.7,0C340.6,253.8,343.4,253.8,346.3,253.8z M342.7,216.2c7.1,0.1,14.1,0,21.9,0c-9.2,10.4-17.7,20.2-26.2,29.9
	c-0.9,1-1.7,1.6-3.1,1.6c-6-0.1-12,0-18.4,0c2.8-5.2,6.1-9.7,9.4-14.2c4.1-5.5,8.6-10.7,13.4-15.6
	C340.4,217.1,341.2,216.2,342.7,216.2z M326.7,253.7c-2.1,3.3-2.1,3.3-5.1,0C323.7,253.7,325.2,253.7,326.7,253.7z M315.7,216.2
	c5.6,0.1,11.1,0,17.4,0c-6.1,6.8-11.5,13.4-16.3,20.5c-1.6,2.4-3.4,4.7-4.6,7.2c-1.5,3.3-3.7,4-7,3.9c-5.8-0.3-11.6-0.1-18.2-0.1
	c9-10.4,17.5-20.2,25.9-30C313.7,216.8,314.4,216.2,315.7,216.2z M314,254.6c-0.9,0.6-1.9,1.1-2.6,1.8c-2.9,2.8-5.3,2.3-7.2-1.3
	c-0.7-1.3,0-1.5,1.1-1.5c0.4,0,0.7,0,1.1,0c2.3,0,4.6,0,6.9,0C313.5,253.9,313.8,254.2,314,254.6z M295.9,257.8
	c-2,2.8-4.2,4.1-6.5,0.3c-0.6-0.9-2.5-1.3-1.6-2.9c0.7-1.2,1.9-1.9,3.4-1.7c1,0.1,2,0,3.2,0c1.2,0.3,3.5-0.8,4.2,0.6
	C299.2,255.8,296.8,256.6,295.9,257.8z M288.1,216.2c5.9,0,11.7,0,17.6,0c0.6,1-0.3,1.4-0.7,1.8c-8,9.4-16.1,18.7-24.2,28
	c-0.7,0.9-1.4,1.7-2.7,1.7c-6.1-0.1-12.1,0-19,0c8.9-10.5,17.3-20.3,25.5-30.1C285.6,216.4,286.7,216.2,288.1,216.2z M277.4,254.3
	c1.6-1.1,3.1-1.1,4.5,0.5c1.6,1.9-0.5,2.2-1.1,3.2c-0.2,0.3-0.5,0.5-0.8,0.8c-3.4,3.4-3.4,3.4-7.2-0.7
	C274.4,256.8,275.9,255.4,277.4,254.3z M268.9,253.8c1.5,0,2.9,0,4.5,0C271.1,256.2,271.1,256.2,268.9,253.8z M261.1,253.9
	c-5.6,6.1-5.6,6.1-11.3,0C253.6,253.9,257.2,253.9,261.1,253.9z M259.6,216.2c5.9,0,11.9,0,18.5,0c-4.1,4.9-7.9,9.3-11.6,13.7
	c-1.4,1.6-2.7,3.2-4.1,4.8c-3.8,4.3-6.8,10.7-11.5,12.4c-6,2.2-13.4,0.5-21.1,0.5c9.4-10.5,18.3-20.4,27.1-30.3
	C257.8,216.5,258.5,216.2,259.6,216.2z M243.2,253.7c-3.7,5.3-3.7,5.3-8.5,0C237.9,253.7,240.5,253.7,243.2,253.7z M228.9,218
	c1-1.2,2.1-1.9,3.8-1.8c5.6,0.1,11.2,0,16.8,0c0.4,1.3-0.8,1.7-1.4,2.4c-8,9-16.1,18-24.1,27c-1.4,1.5-2.7,2.2-4.8,2.1
	c-5.2-0.1-10.3,0-16.3,0c3.6-4.1,6.7-7.6,9.8-11.2C218.1,230.4,223.5,224.2,228.9,218z M226.7,253.8c-1.3,1.4-2.6,2.8-4,4.2
	c-0.3-0.3-0.7-0.6-1-1c-0.7-0.8-2.1-1.9-1.9-2.4c0.5-1.6,1.8-0.1,2.8-0.2C224,254.3,225.2,252.9,226.7,253.8z M204.2,253.7
	c-2.6,3.7-2.6,3.7-5.9,0C200.6,253.7,202.4,253.7,204.2,253.7z M198.5,216.8c4.8-2.2,11.5-0.6,17.3-0.6c2.1,0,4.1,0,6.9,0
	c-7.1,8.1-14.1,15.3-20.1,23.3c-5,6.7-10.7,9.6-18.9,8.3c-3.6-0.5-7.4-0.1-11.8-0.1c4.6-5.6,8.9-10.7,13.1-15.8
	c0.6-0.8,1.3-1.5,1.9-2.3C190.7,225.2,193.7,219,198.5,216.8z M192.2,253.7c-4.3,6.5-4.3,6.5-10.5,0
	C185.6,253.7,188.8,253.7,192.2,253.7z M176.7,254.4c-1,0.9-2.1,1.7-3,2.7c-2.1,2-4.5,1.7-5.4-1.1c-0.5-1.6,0.9-2.2,2.2-2.4
	c0.4-0.1,0.7,0,1.1,0c1.6,0,3.1,0,4.7,0C176.4,253.9,176.5,254.1,176.7,254.4z M334.6,82.1c3.3,4.1,5.9,7.6,8.7,10.9
	c1.2,1.4,1.2,2.1-0.6,3c-3.7,2-7.3,4.1-11.6,6.6C332.3,95.7,333.4,89.2,334.6,82.1z M309.9,77.9c0-1.6,0.6-2.5,2-3.2
	c3.2-1.6,6.4-3.3,9.5-5.1c1.6-1,2.6-0.9,4,0.7c3.2,3.4,4.6,6.8,3.4,11.7c-1.8,7.5-2.7,15.2-3.9,22.8c-0.2,1.2-0.6,1.7-1.5,2.3
	c-4.7,2.7-9.4,5.4-14.7,8.5C309.1,102.6,309.6,90.3,309.9,77.9z M281.3,128.6c0.5-11.8,1-23.7,1.5-35.5c0.1-1.2-0.2-2.5,1.2-3.2
	c6.5-3.5,13-7.1,20-10.9c-0.4,13.2-0.9,25.7-1.3,38.3c0,1.7-1,2.4-2.2,3.1c-6.1,3.6-12.2,7.2-18.3,10.8c-0.3,0.6-0.9,0.7-1.1,0.3
	C280.5,130.5,280.7,129.5,281.3,128.6z M259.3,119.5c0.4-4.7,0.7-9.4,1-14.1c0.1-1.3,0.2-2.3,1.6-3c4.9-2.7,9.7-5.5,14-7.9
	c0,8.5,0,17,0,25.5c0,1.9-0.5,3.8-0.3,5.6c1.2,7.5-2,12-8.9,14.8c-3.6,1.4-6.9,3.9-11,6.3C257.3,137,258.6,128.3,259.3,119.5z
	 M234.6,120.1c0.1-1.3,0.6-2.2,1.9-2.9c5.8-3.3,11.6-6.8,18.1-10.6c-0.5,6.3-1,11.9-1.5,17.5c-0.8,8.2-2,16.3-3.5,24.4
	c-0.3,1.5-0.8,2.5-2.1,3.2c-5.7,3.3-11.3,6.6-17.6,10.3C231.5,147.5,233,133.8,234.6,120.1z M209.5,134.8c0.2-1.1,0.6-1.8,1.5-2.4
	c5.6-3.4,11.2-6.8,17.5-10.6c-0.6,5.6-1.2,10.6-1.8,15.6c-1,8.6-2.1,17.3-3.1,25.9c-0.1,1.3-0.3,2.4-1.6,3.1c-6,3.4-12,7-18.6,10.9
	C204.9,162.5,206.8,148.6,209.5,134.8z M183,162.1c0.3-2.5,1-4.9,1-7.4c-0.1-4.4,1.9-7,5.7-9c4.4-2.4,8.6-5.3,13.1-8.2
	c-1.4,9.8-2.7,19.1-4,28.5c-0.5,3.3-1.1,6.7-1,10c0.1,3.8-1.5,5.8-4.8,7.4c-4.5,2.2-8.8,5-13.8,7.8C180.6,181,181.8,171.5,183,162.1
	z M161.6,166.2c0.1-1.1-0.2-2.3,1-3c5.1-3.3,10.1-6.6,15.8-10.3c-1.5,10.5-2.8,20.4-4.2,30.2c-0.4,2.6-0.8,5.2-1.1,7.8
	c-0.6,5.6-5.4,8.5-10.8,6.5c-1.9-0.7-3.8-1.1-5.7-1.7C159.6,186,161.1,176.2,161.6,166.2z M134.5,184.8c-1.2-1.4-1.1-2,0.5-3.1
	c6.4-4.2,12.8-8.5,19.1-12.8c0.5-0.8,1.3-1.5,1.6-0.1c0.3,1.3,0.3,2.8-0.6,4.1c-0.4,7.1-2.3,13.9-4,20.8c-0.7,2.8-2.8,2.2-4.5,2.9
	c-1.6,0.6-2.7,0.2-3.8-1.3C140.2,191.7,137.4,188.2,134.5,184.8z M137.5,217.4c-0.6-7.8,4.2-14.2,11.5-15.4
	c4.3-0.7,8.4-0.6,12.4,1.3c9.2,4.4,10.6,15.2,2.7,21.6c-3.8,3.2-8.3,4.3-13.9,4.4C143.2,229.4,138.1,224.8,137.5,217.4z M151.2,236
	c1.2-2.3,4.9-1,7.5-1.8c8-2.6,13.9-7.2,15.9-15.7c0.4-1.8,1.1-2.4,3-2.3c4.1,0.2,8.1,0,12.9,0c-8.6,10.4-16.7,20.1-24.8,29.9
	c-1,1.2-2,1.7-3.5,1.6c-2.7-0.1-5.5-0.2-8.2,0c-2.8,0.3-3.4-0.8-3.2-3.3C151.1,241.6,150.1,238.3,151.2,236z M151,254.6
	c0.2-0.3,0.4-0.7,0.6-1c3,0,6.1,0,9.1,0c1,0,1.6,0.6,2.1,1.3c0.8,1.1-0.4,1.5-0.9,2c-3.5,4-3.6,4-7.5,0.3
	C153.4,256.2,152.2,255.5,151,254.6z M151.2,263.9c0-1.8,0-3.4,0-5.1C155,261,155,261.1,151.2,263.9z M333.6,431.9
	c-1.7,0.2-3.8-0.2-3.6-2c0.2-1.7,2.2-3.7,3.7-3.7c1.8,0,3.9,2.1,4,3.8C337.8,432.2,335.2,431.7,333.6,431.9z M343.4,429.5
	c1.5-1.4,2.3-5.4,5.6-1.9C347.3,428.7,345.6,429.6,343.4,429.5z M351.5,426.2c-1.7,0.9-1-1.2-1.8-1.6c-1.1-0.6-0.6-1.4,0.1-2.1
	c1.3-1.2,2.4-2.5,3.7-3.7c0.8-0.7,1.2-2.1,2.6-1.6c1.4,0.6,0.2,1.7,0.3,2.6c0,0.4,0.4,0.9,0.8,1.6
	C355.7,423.3,353.7,424.9,351.5,426.2z M367.6,400.4c0,3-0.7,5.9-2.2,8.5c-0.3,0.4-0.6,0.7-0.9,1.1c-0.5,2.5-3,3.5-4.4,5.3
	c-0.9,1.1-1.5,0.2-2.1-0.4c-1.6-1.6-3.2-3.2-4.8-4.8c-0.7-0.7-1.6-1.5-2.6-0.7c-1,0.9-0.4,2,0.4,2.5c3.8,2.5,0.8,4-0.7,5.9
	c-2.2,2.7-4.3,4.4-6.9,0.4c-0.6-0.9-1.8-1.8-2.8-0.5c-0.8,1,0.3,1.7,0.7,2.6c0.7,1.5,4.6,1.8,1.8,4.8c-2.7,2.8-4.6,2.5-6.6-0.9
	c-0.8-1.4,0.5-1.7,1-2.4c0.5-0.7,1.2-1.4,0.4-2.3c-1-1.1-1.8-0.4-2.5,0.4c-1.8,1.7-3.5,3.6-5.3,5.3c-1.1,1-1.8,3.1-4.2,1.7
	c-0.7-0.4-1.7,0.5-1.5,1.6c0.9,3.8-1.7,3.6-4,3.6c-16.3-0.2-32.7-0.2-49-0.7c-32.4-0.9-64.8-2.1-97.1-4c-14-0.8-22.8-10.5-22.9-24.5
	c-0.1-38.5-0.2-77-0.3-115.6c0-5.2,0.2-10.5-0.1-15.7c-0.3-4.1,2.9-5.5,4.8-7.8c0.1-0.1,0.3-0.2,0.3-0.2c4.8,3.2,4.7-2.7,7.1-4
	c1.5-0.8,2.1-2.5,4.1-0.5c1.7,1.8,1.8,2.9-0.1,4.2c-0.3,0.2-0.6,0.5-0.8,0.8c-0.6,0.7-1.3,1.3-0.4,2.2c1,1.1,1.8,0.4,2.5-0.3
	c1.4-1.4,2.7-3.6,4.9-0.9c0.4,0.5,1.1,0.3,1.6-0.2c0.6-0.7,0.4-1.4-0.1-2c-2.9-4.1,2-4.4,3.3-6.3c1.6-2.3,2.6,0.6,3.5,1.5
	c1.6,1.4,4.7,2.8,1.3,5.5c-0.5,0.4-0.5,1.2,0.1,1.6c0.7,0.6,1.5,0.7,2,0c1.8-2.3,3-1.1,4.4,0.4c0.7,0.8,1.7,1.3,2.6,0.3
	c0.8-1,0.2-2-0.7-2.5c-2.3-1.6-1.9-3,0.1-4.5c0.9-0.7,1.7-1.5,2.4-2.4c1.2-1.5,2.2-1.3,3.2,0.1c0.8,1.1,3.2,1.8,0.8,3.7
	c-0.9,0.7-1.8,1.7-0.7,2.8c1.2,1.2,2.1,0,2.8-0.8c1.4-1.6,2.2-0.7,3.3,0.3c0.8,0.8,1.7,2.4,3,1.1c1.3-1.3,0-2.4-1-3
	c-2.2-1.6-1.2-2.7,0.3-3.9c1.9-1.7,3.3-4.2,6.5-3.5c0.9,0.2,2.2-0.3,2.6,0.9c0.4,1-0.8,1.4-1.3,2c-1.1,1.2-2.3,2.3-3.4,3.5
	c-0.7,0.7-1.5,1.5-0.4,2.5c0.8,0.7,1.6,0.3,2.3-0.3c0.1-0.1,0.2-0.2,0.3-0.3c1.9-1.4,3.1-4.8,5.5-4.3c2.1,0.5,3.6,3.2,5.4,5
	c0.6,0.6,1.3,1.2,1.9,1.8c0.5,0.5,1.2,0.5,1.7,0c0.4-0.4,0.9-1.2,0.4-1.6c-3.3-2.9-0.1-4.2,1.4-6c0.7-0.9,1.4-1.7,2.6-3.2
	c1.5,1.8,2.6,3.3,4,4.6c1.4,1.3,2.5,2.5,0.4,4.1c-0.6,0.5-0.8,1.3-0.2,2c0.7,0.9,1.7,0.6,2.2-0.1c1.4-1.8,2.5-1.3,3.7,0.1
	c0.4,0.5,1.1,0.5,1.7,0.1c0.5-0.4,0.8-1.2,0.4-1.6c-3.1-2.9,0.2-4.1,1.5-5.7c0.5-0.7,1.1-1.4,2-2.5c1.8,2,3.3,3.7,4.8,5.3
	c1.1,1.1,2.3,2.1,0.3,3.5c-0.6,0.5-0.7,1.3-0.1,2c0.6,0.7,1.5,0.6,2,0c1.6-2.1,2.7-0.7,3.8,0.5c0.6,0.6,1.2,1.3,1.9,1.8
	c0.7,0.6,1.6,0.8,2.3,0c0.6-0.7,0.3-1.3-0.2-2c-1.1-1.5-3.9-2.7-3.4-4.1c0.6-1.9,3-3.2,4.4-4.9c1.7-2.1,3-2.4,4.9-0.1
	c1.1,1.4,1.8,2.2,0.1,3.5c-0.9,0.7-2.4,1.6-1.2,3c1.2,1.3,2.3,0.1,3.1-0.8c1.4-1.8,2.5-1.4,3.8,0.2c0.8,1,1.7,1.8,2.6,2.6
	c0.9,0.8,1.5,2.3,3,1.8c1.5-0.5,0.8-1.7,0.4-2.8c-0.2-0.4,5.6-6,5.8-5.8c1.7,1.5,3.5,2.8,4.8,4.6c0.9,1.3-1.1,1.9-1.8,2.8
	c-0.5,0.8-1,1.5-0.2,2.3c0.8,0.9,1.7,0.5,2.2-0.2c2.1-3,3.6-1.6,5.3,0.4c0.8,0.9,1.7,2.8,3.2,1.1c1.2-1.3-0.3-2.3-1.2-3
	c-2.8-2.1-2.6-3.9,0.1-5.9c1.4-1.1,2.4-2.5,3.6-3.8c0.6,0.4,0.9,0.6,1.2,0.8c4.2,3.9,4.1,3.8,0.3,7.9c-0.8,0.8-2.4,1.7-1.3,3
	c1.3,1.5,2.4-0.1,3.4-0.9c0.2-0.2,0.4-0.3,0.5-0.5c2.3-3.4,4.4-2.9,6.7,0.1c1,1.2,2.4,4,4.3,2.2c1.7-1.6-1.1-2.9-2.1-4
	c-3.5-3.7-3.5-3.6-0.1-7.1c1.2-1.2,2.3-2.6,3.5-3.9c0.8,0.7,1.1,1.1,1.5,1.3c3.1,2.1,3.7,4.2,0.3,6.7c-0.9,0.7-2.8,1.8-1.3,3.2
	c1.4,1.4,2.6-0.3,3.3-1.3c2.5-3.5,4.4-2.6,6.7,0.3c1.1,1.3,2.1,3.3,4.4,2.9c0,0,0,0,0,0c1.4-3-1.8-3.6-2.8-5.3
	c-0.7-1.2-3.1-1.9-2.4-3.3c1-1.9,3-3.2,4.6-4.7c0.2-0.2,0.7-0.1,1,0.1c0.3,0.1,0.6,0.4,0.8,0.7c1.9,1.9,4.8,3.6,5.5,5.9
	c0.7,2.4-2.9,3.7-4.4,5.6c-0.7,0.8-1.2,1.5-1.1,2.6c2.7,1.8,3.5-1,4.7-2.2c3.7-3.4,3.7-3.5,7.2,0c1.1,1.1,2.2,2.3,3.4,3.4
	c0.7,0.7,1.6,0.7,2.3-0.1c0.6-0.7,0.2-1.4-0.3-2c-1.7-1.8-3.4-3.6-5.3-5.3c-1.4-1.3-1.6-2.2,0-3.4c0.9-0.7,1.7-1.5,2.4-2.4
	c1.4-1.9,2.5-1.6,4.1,0c1.8,1.7,1.1,2.6-0.3,3.8c-0.6,0.5-1.1,1.1-1.6,1.6c-0.7,0.7-1.1,1.4-0.4,2.3c0.7,0.9,1.7,0.7,2.2-0.1
	c3.2-5,5.7-2.3,8.2,0.7c0.7,0.9,1.7,2.3,3,0.8c1.1-1.2-0.3-2-0.9-2.8c-0.2-0.3-0.6-0.5-0.8-0.8c-0.8-1.6-4.2-2.2-2.8-4.3
	c1.6-2.6,3.9-5.3,7.8-4.2c0.6,0.2,1.2,0,1.6,0.7c0.8,1.4-0.2,9.6-1.5,10.6c-2.4,1.9-3.6,5.2-7.5,5.6c-1.2,0.1-1.7,3.3-1.6,5
	c0.1,1.3,1.6,0.7,2.7,0.1c0.8-0.5,5.8,3.9,5.5,4.7c-0.3,0.8-0.9,1.9-2.1,1.1c-0.6-0.4-1.1-1.1-1.6-1.5c-0.8-0.7-1.6-1.9-2.8-0.6
	c-1,1.1-0.1,1.9,0.7,2.5c2.3,1.6,2.3,3.1,0,4.8c-1,0.7-2.6,1.8-1.1,3.3c1.3,1.3,2.2-0.5,3-1.2c1.3-1.2,2.2-3,4.4-0.7
	c2,2.2,2.8,4.4,1.3,7c-0.9,1.6-1.7,0.3-2.6-0.3c-1.4-0.9-2.4-4.1-4.3-2.2c-1.8,1.9,1.3,3,2.4,4.2c1.2,1.4,1,2-0.2,3.2
	c-4.9,5.1-4.9,5.1,0.2,10.3c0.7,0.7,2.2,1.3,1.6,2.5c-0.4,1-1.3,2.1-3,1.3c-0.6-0.3-2.8,4.6-2.3,5.5c1,1.8,2,0,2.9,0
	c2.9,0.1,4.4,2.8,5.7,4.9c1.1,1.8-0.3,3.7-1.9,4.7c-1.3,0.8-1.8-0.9-2.6-1.4c-0.8-0.6-1.5-1.5-2.5-0.5c-1,1-0.3,1.8,0.5,2.5
	c1.1,1.1,2.7,2.1,0.6,3.8c-0.8,0.6-0.7,1.6,0,2.3c0.7,0.6,1.3,0.1,2-0.3c3.5-2,4.2-1.6,4.2,2.3c0,2.2,0,4.4,0,7.9
	c-2.7-2.9-4.7-5-6.8-7.1c-0.7-0.7-1.5-1.5-2.5-0.6c-1,0.9-0.3,1.8,0.5,2.6c0.9,0.9,1.9,1.7,2.6,2.7c0.6,0.7,2.4,1.2,1.2,2.6
	c-0.7,0.8-1.2,2.3-2.9,1.6c-1.7-0.6-2.7-0.1-1.9,2c0.7,2-1.3,2.3-2.1,3.5c-0.5,0.8-1.1,1.5-0.3,2.3c0.8,0.8,1.7,0.6,2.2-0.2
	c2.4-3.5,4.3-1.9,6.2,0.5c0.5,0.6,1.2,1,1.6,1.6c0.7,1.1,3.2,1.9,1.2,3.5c-1.5,1.2-2,4.9-5.3,2.7c-0.6-0.4-1.4-0.6-2,0
	c-0.7,0.7-0.5,1.5,0.1,2c1.7,1.4,0.6,2.3-0.4,3.2c-0.8,0.7-1.4,1.6-0.4,2.6c0.8,0.8,1.5,0.2,2.3-0.4c0.8-0.6,1.4-2.4,2.6-1.2
	c1.6,1.6,4.2,2.7,4.2,5.4c0,1.7-1.8,2.7-3,3.6c-1.3,1-1.8-0.8-2.6-1.3c-0.8-0.5-1.5-1-2.3-0.2c-0.6,0.6-0.5,1.6,0.1,2
	c3.2,2.2,0.8,3.5-0.7,5.1c-1,1-2.4,1.8-2.5,3.5c0,0,0,0,0,0c0,0,0,0,0,0c2.5,2.4,3.5-0.5,4.5-1.6c1.9-2.1,3.4-2.7,5.6-0.6
	c0.6,0.5,1,0.8,1,1.6C367.9,391.3,368.8,395.9,367.6,400.4z M367.8,282.4c0.8,1,0.6,1.9,0.2,3.2
	C366.1,284.5,366.3,283.5,367.8,282.4z M368.2,268c0,1.9,0,3.4,0,5c0,1.4,0,2.9,0,4.6C361.6,272,361.9,273.5,368.2,268z
	 M368.2,305.7c-0.7,1.1,0.9,4.1-1,3.7c-2-0.4-4.2-2.8-5-4.8c-0.4-0.9,2.5-4.1,4.2-4C368.9,300.8,368,303.7,368.2,305.7z M365.6,316
	c0.2-0.6,1.3-1.5,1.6-1.3c1.9,1,0.7,2.8,0.8,4.4C366.9,318.2,365,317.9,365.6,316z M367.9,354.3c-1.6-1.6-4.2-2.4-4.2-4.9
	c0-0.6,1.2-2.5,2.7-1.8C369.2,349.1,368,351.8,367.9,354.3z M367.6,382.1c-0.3-0.3-0.8-0.6-0.8-1c-0.1-0.7,0.4-1.1,1-1.3
	c0.2,0.4,0.4,0.8,0.4,1.2C368.3,381.4,368.4,381.9,367.6,382.1z M367.9,368.6c0,0-0.2,0-0.2,0c-0.1-0.1-0.2-0.2-0.2-0.3
	c-0.9-0.9-3.5-1.5-0.8-3.3c0.5-0.4,0.9-2.1,1.5-0.4C368.5,365.8,368.6,367.4,367.9,368.6z M268.7,323.5c18.2-0.2,44-1.2,69.8-2.6
	c1-0.1,2-0.1,3,0c1.7,0.1,2.5,1.2,2.6,2.7c0.1,1.3-0.7,2.4-2.1,2.7c-1.3,0.3-2.7,0.4-4.1,0.5c-51.8,2.8-103.6,3.6-155.4,1.8
	c-0.9,0-1.8,0-2.6-0.2c-1.3-0.3-2.2-1.3-2.2-2.6c0-1.4,0.7-2.5,2.1-2.7c1.3-0.2,2.7-0.2,4.1-0.2
	C209.5,323.6,235.3,324.1,268.7,323.5z M261,349.4c-13.3,0-26.7,0-40,0c-2.1,0-4.4-0.2-4.4-2.8c-0.1-2.9,2.3-3.1,4.5-3.1
	c26.5,0.6,53.1,1.3,79.6,1.9c2.1,0,4.3,0.3,4.3,2.9c-0.1,2.6-2.2,2.8-4.4,2.8c-13.2,0-26.4,0-39.6,0C261,350.6,261,350,261,349.4z
	 M328.3,368.1c-10.8-2.9-20.8-0.4-29.1,7.1c-4.6,4.1-6.3,9.9-6.4,15.8c-0.1,8.7,8.1,15.4,20,15.4c9.2-0.8,18.9-4.5,24.9-14.4
	C343.7,382.4,339.3,371.1,328.3,368.1z M333.4,388.3c-3.9,8.5-18.8,14.8-27.5,11.6c-2.3-0.9-6-1.5-3.7-5.7c0.2-0.4-0.3-1.4-0.6-2
	c-2.7-5.6-1.9-9.9,2.9-13.8c4.8-4,10.7-5.1,16.4-5.6c2.5,0.2,4.7,0.4,6.9,1.3C333.8,376.4,336.1,382.3,333.4,388.3z M218,370.7
	c-5.8-5.3-12.6-5.7-19.6-3.2c-7.4,2.6-13.1,7.1-14.8,15.3c-0.3,1.5-0.2,3.3,0.1,4.8c1.9,9.2,11.1,16.6,20.5,16.6
	c8.4,0,16.1-5.2,19-12.7C225.9,384.6,223.8,376.1,218,370.7z M203.9,398.6c-7-0.1-14.5-6.9-14.6-13.4c-0.1-6.5,8.1-13.2,16.4-13.3
	c7.1-0.1,12.8,5.8,12.9,13.2C218.6,392.2,211.6,398.6,203.9,398.6z M279.4,382.3c-0.9-8.8-8.6-15-19.5-14.9
	c-7.4,0.4-14.5,3.3-18.9,11c-4.6,8-2.1,16.7,6,21c5.4,2.9,11.3,3.7,17.4,2.4C274.1,399.8,280.3,391.8,279.4,382.3z M268.4,394.1
	c-2.9,1.9-6.1,2.7-9.5,2.5c-3,0.1-5.8-0.5-8.4-1.8c-6.3-3.1-7.8-9.3-3.6-14.9c4.4-6,13.7-8.3,20.5-5.3c3.9,1.8,6,4.9,6.3,9
	C274,388,272,391.6,268.4,394.1z M232.6,287.2c0.7-0.8,1.3-1.6,0.3-2.5c-0.9-0.8-1.6-0.2-2.3,0.5c-1.4,1.4-2.8,2.8-4.2,4.2
	c-5.1,5.1-5.1,5.1-10.1-0.1c-1.2-1.3-1.3-1.9,0-3.2c3.1-2.9,6-6,9-9c0.8-0.8,1.4-1.6,0.4-2.6c-1-1-1.8-0.2-2.5,0.5
	c-2.6,2.5-5.3,5-7.6,7.7c-2.1,2.4-3.7,2.9-5.7,0.1c-0.6-0.8-1.5-2.1-2.7-0.9c-1.4,1.3,0,2.2,0.8,3.1c0.8,0.9,2.4,2.5,2.2,2.7
	c-1.4,1.9-3.1,3.6-4.8,5.2c-1.6,1.4-2-0.7-2.9-1.2c-0.7-0.4-1.3-0.8-2-0.4c-0.7,0.5-0.9,1.5-0.3,2c3.9,2.9,0.5,4.4-1.2,6.2
	c-1.4,1.5-3,3-4.5,4.5c-0.7,0.7-1.7,1.4-0.8,2.5c1,1.1,2,0.4,2.9-0.5c2.1-2.1,4.3-4.1,6.3-6.4c1.3-1.4,2.2-1.6,3.5,0
	c1.8,2.1,3.8,3.9,5.8,5.9c0.9,0.9,2.1,1.9,3,0.1c1.4-2.9,4.2-4.5,6.2-7c0.5,0.4,0.8,0.7,1.2,1c1,0.7,1.9,2.6,3.3,1.1
	c1.2-1.3-0.3-2.3-1.1-3c-1.3-1.1-0.6-1.8,0.2-2.7C227.5,292.4,230,289.8,232.6,287.2z M218.1,297.7c-4.5,5.1-4.4,5.1-9.2,0.3
	c-0.7-0.7-1.5-1.3-2.3-1.9c0.6-0.7,0.9-1.1,1.2-1.5c5.3-5.5,5.4-5.5,10.3,0.3C218.9,296.1,219.1,296.6,218.1,297.7z"/>
</svg>
