<?xml version="1.0" encoding="utf-8"?>
<!-- Generator: Adobe Illustrator 24.2.0, SVG Export Plug-In . SVG Version: 6.00 Build 0)  -->
<svg version="1.1" id="Layer_2" xmlns="http://www.w3.org/2000/svg" xmlns:xlink="http://www.w3.org/1999/xlink" x="0px" y="0px"
	 viewBox="0 0 500 500" style="enable-background:new 0 0 500 500;" xml:space="preserve">
<path d="M-987.5,129.8l-0.2,0.2C-987.6,129.9-987.5,129.8-987.5,129.8z"/>
<path d="M337.1,121.1c-1-15.1-5.3-29.4-12.2-42.8c-6.9-13.5-16.5-17.5-31.1-12.7c-16.1,5.2-31.1,13.3-46.2,21
	c-2.9,1.5-5.2,3.8-7.2,6.5c-5.3,7.2-4.6,13.9,2,19.9c4.2,3.8,9.1,6.7,14.3,8.7c3.3,1.3,3.3,2.5,1.7,5.3c-14,25.1-34.2,44-59.1,58
	c-21.8,12.3-45,19.4-70.3,18.6c-3.7-0.1-7.5-0.6-11.2-0.9c-1.3-0.1-2.6-0.2-3.1,1.4c-0.5,1.7,0.7,2.5,1.9,3.1c0.7,0.3,1.4,0.6,2,0.9
	c20.3,9.5,41.8,13.1,68.8,13.3c21.1-0.1,45.9-5.4,69-17.4c25.9-13.4,46.2-32.5,58.2-59.5c1.2-2.7,2.3-3.5,5.3-3.2
	c10.8,1.1,16.3-3.9,16.9-14.9C337.2,124.6,337.2,122.8,337.1,121.1z M179.4,217.7c-1.3,0-2.9-0.1-2.9-1.6c0-1.3,1.5-2.6,2.6-2.9
	c1.3-0.3,1.8,1.6,2.8,2.5C181.4,217,180.7,217.7,179.4,217.7z M195.4,215.1c-0.7,2.1-2.8,3-5,2.6c-1.4,0.2-2.7,0.2-3.4-1.1
	c-0.9-1.7,1.1-1.8,1.5-2.8c0.1-0.2,0.3-0.4,0.5-0.5c1.1-0.8,2.5-3,3-2.3C193.1,212.4,196,212.9,195.4,215.1z M200.7,215.4
	c-0.4-0.9,0-1.6,0.7-1.8c2.1-0.6,2.3,1.6,3.8,2.5C203.3,216.4,201.7,217.5,200.7,215.4z M216,213.8c-0.9,1.7-2.5,0.7-3.9,1
	c0.7-1.1,1-2.7,2.7-2.3C215.4,212.6,216.1,213.6,216,213.8z M224.2,212.2c-1.3,0.4-2.2,0.7-3.1,0.9c-2.1,0.5-2.7-1.4-3.8-2.4
	c-1.3-1.3,0.5-1.8,1.1-2.6c0.7-0.9,1.5-1.6,2.3-2.4c0.9-0.8,1.5-2.4,3.2-0.7c1.3,1.3,1.7,2.2,0,3.5
	C222.5,209.7,222.3,211,224.2,212.2z M225,211.8c1.2-1.2,1.5-2.8,3.2-2.3c0.4,0.1,0.8,1,0.8,1.1C228,211.5,226.7,211.8,225,211.8z
	 M239,207.3c-1.8,1-3.9,1.6-5.8,2.3c-1.5-0.1-2.1-1.3-2.9-2.2c-0.9-1.1,0.5-1.4,0.9-2c0.6-0.8,1.4-1.4,2.1-2.1
	c2.6-2.6,4.9-2.1,6.6,1.1C240.5,205.7,239.8,206.9,239,207.3z M245.3,203.5c1.6-1.3,3.4-2.5,4.7-4c2-2.3,3.5-2.3,4.8,0.7
	C251.9,201.7,249.1,203.5,245.3,203.5z M257.7,198c-1.1,0.3-3-1.6-2.8-2.9c0.3-1.3,1.9-2.9,3.2-3.3c1.5-0.4,2,1.8,3.6,2.7
	C260.2,195.9,259.1,197.7,257.7,198z M281.3,181.7c-1.7,1.5-3.6,2.9-6.1,5c0.8-3.4,3.1-4.5,4.5-6.2c0.7-0.9,1.8-1.7,0.7-2.8
	c-1.1-1.1-2,0-2.8,0.8c-0.8,0.8-1.6,1.6-2.4,2.4c-1.3,1.3-2.5,3-4.3,0.5c-0.5-0.6-1.4-0.7-2-0.1c-0.6,0.6-0.6,1.5,0,2
	c2.5,1.8,0.9,3-0.5,4.3c-1.1,1-2.1,2.2-3.2,3.1c-0.7,0.6-1.3,2.4-2.6,0.9c-0.8-1-3.4-1.6-1.2-3.7c0.6-0.6,0.7-1.3,0.1-2
	c-0.6-0.6-1.4-0.6-2,0c-1.4,1.3-3.8,0.9-4.4,4c-0.6,3-2.9,3.1-5.3,0.9c-0.8-0.8-1.6-2.4-3-1.1c-1.4,1.4,0.1,2.4,1,3
	c2.6,1.9,2,3.5-0.2,5.1c-0.4,0.3-0.7,0.7-1.1,1.1c-4.3,4.3-4.3,4.3-9-0.9c1.1-0.8,2.2-1.5,3.3-2.4c0.8-0.7,1.4-1.6,0.4-2.5
	c-1-1-1.8-0.1-2.5,0.6c-3.1,3.1-6.2,6.2-9.3,9.2c-0.9,0.9-1.6,2.4-3.2,0.7c-1.4-1.4-1.5-2.2,0-3.5c0.7-0.6,1.6-1.4,0.6-2.5
	c-1.2-1.2-2-0.1-2.8,0.7c-2.1,2.1-4,4.5-6.4,6.3c-3.4,2.5-5.9,5.9-8.7,8.9c-1.4,1.5-2.1,0.7-2.8-0.3c-0.6-1-3.2-1.5-1.1-3.4
	c1-0.9,2-1.9,2.9-2.9c0.6-0.7,1.2-1.4,0.3-2.3c-0.8-0.7-1.7-0.5-2.3,0.2c-1.7,1.6-3.4,3.3-5,5c-2.6,2.6-5.9,2.2-7.2-1.4
	c-1.1-3.1-2.1-1.9-3.5-0.6c-1.4,1.4-2.9,2.8-4.2,4.2c-1,1-1.7,2-3.3,0.5c-1.3-1.2-1.6-1.9-0.1-3.1c0.7-0.6,1.1-1.4,0.3-2.3
	c-1-1.1-1.8-0.2-2.5,0.5c-1.4,1.4-2.8,2.8-4.3,4.2c-1.1,1-1.7,2.6-3.8,0.9c-1.2-1-2.6,0.4-1.6,1.8c1.8,2.8,0,2.6-1.8,2.4
	c-11.1-1.1-21.8-3.3-32.3-7.2c9.9-0.9,19.7-2,29.2-4.8c43.8-13.1,77.9-38.4,99.8-79.1c2.8-5.2,2.5-5.5-2.9-8
	c-5.1-2.3-10.3-4.5-14.8-7.9c-6.1-4.7-6.4-10-1-15.5c1.7-1.7,3.6-3.1,5.7-4.2c13.1-6.4,26.1-13,39.7-18.1c15.1-5.7,22.3-2.5,29.1,12
	c3.4,7.2,5.7,14.9,7.7,22.6c0.6,2.2-0.7,2.6-1.7,3.5c-1.4,1.3-1.9-0.3-2.7-0.9c-1.6-1.5-3.2-3.2-4.8-4.7c-0.8-0.7-1.5-2.1-2.8-0.9
	c-1.3,1.3,0,2.2,0.8,3.1c2.1,2.1,4.3,4.2,6.6,6.5c-2.2,0.9-2.3,3.9-5.3,3.5c-1.4-0.2-1.4,1.5-0.5,2.5c1.2,1.3,2.4,2.5,3.7,3.7
	c1.3,1.2,2.2,2.1,0.4,3.8c-1.6,1.5-2.6,1.4-3.8-0.2c-1-1.4-2.7-2-2.4-4.6c0.2-2.2-1.6-1.5-2.8-0.4c-2.8,2.7-5.4,5.5-8.2,8.2
	c-1.2,1.1-2,2.9-4.2,2.7c-1.1-0.1-1.3,0.9-1.1,1.9c0.3,1.1-0.2,2.5,1.8,2.7c2.5,0.2,1.8,1.4,0.6,2.6c-1.4,1.4-2.8,2.8-4.3,4.2
	c-0.4,0.4-1.1,1.1-1.5,1c-1.2-0.2-3.1-1.6-2.8,0.7c0.2,1.1-1.9,5.6,2.9,4.3c0.8-0.2,1.4,1,0.5,1.9c-2.4,2.5-5,4.9-7.4,7.4
	c-0.7,0.7-1.2,0.5-2,0.2c-0.6-0.2-1.6-0.1-1.5,0.5c0.6,4.3-3.4,5.6-5.4,8.2c-1.5,2-1.7,3,0.2,4.9C286.1,177.4,286,177.5,281.3,181.7
	z M292.1,170.8c-1.5,1.3-2.7,2.9-4,4.3c-1.8-1.7-3.4-3.2-5.1-4.8c1.3-1.3,2.7-2.3,3.6-3.6c1.9-2.5,3.3-2.5,5.4-0.1
	C293.5,168.3,293.8,169.3,292.1,170.8z M302.2,157c-1.4,2.1-2.7,4.1-4.2,6.2c-2.6,3.6-2.5,3.5-5.4,0.2c-0.9-1.1-1-1.7,0-2.6
	c2.3-2.1,4.4-4.3,6.6-6.6c0.8-0.8,1.5-1.2,2.5-0.3c0.5,0.4,1.6,0,1.5,1.4C303,155.7,302.6,156.4,302.2,157z M308.7,145
	c-1.4,2.6-2.7,5.3-4.1,8.3c-0.7-0.9-1.3-1.6-1.8-2.3c-1-1.4-3.9-2.5-2.9-4.1c1.3-2.4,3.8-4.3,6-6.1c1-0.8,1.6,0.8,2.3,1.4
	C309.2,142.9,309.4,143.8,308.7,145z M314.4,135.7c-2.5,0.5-2.7,2.7-3.9,4.7c-0.9-1-2.2-1.3-1.8-2.8c0.6-2-0.1-2.5-2-2
	c-0.7,0.2-1.3,0.2-1.5-0.6c-0.1-0.4,0.3-0.9,0.6-1.2c2.4-2.4,4.7-4.8,7.1-7.2c2-2,2.4,0.6,3.3,1.3c0.9,0.8,3.1,2,2.1,2.8
	C316.7,132.2,316.9,135.2,314.4,135.7z M318,136.1c3-4,3-4,6.4,0.1C322,137.1,320,136.7,318,136.1z M331.5,123.6
	c-0.3,3.9-0.3,7.1-2,9.8c-0.5,0.7-1.1,2.2-2.2,1.1c-1.3-1.3-3.7-2.3-3.4-4.4c0.1-0.9,1.4-3.2,3.4-2.3c1,0.4,1.7,1.1,2.5-0.1
	c0.8-1.2-0.3-1.8-1-2.5c-1.6-1.7-3.4-3.3-5-5c-0.5-0.5-2.2-1.3-0.3-2c1.4-0.6,1.7-3.7,4.1-1.7C330.1,118.5,332.3,120.7,331.5,123.6z
	 M397.8,398.7c-7.5-0.5-15-0.7-22.5-0.8c-40.2-0.4-80.4,0-120.7,0.6c-31,0.6-61.9,1.1-92.9,1.9c-18.5,0.5-37,0.3-55.4,2
	c-8.6,0.8-16.2,3.5-20.2,12c-3.7,7.6-0.3,16,7.7,18.9c1.6,0.6,3.3,1.1,5,1.4c9.5,1.9,19.1,1.9,28.7,1.9c40.1-0.2,80.2-0.7,120.3-0.9
	c44.7-0.3,89.4-0.3,134.2-0.5c7.9,0,15.7-0.5,23-4.1c4.9-2.4,8.7-5.8,10-11.4C417.3,409.5,409.1,399.4,397.8,398.7z M402.2,426.2
	c-3.1,1.6-6.3,2.3-9.7,2.4c-31.5,1.1-63,0.5-94.4,0.8c-15.7,0.1-31.5,0-47.2,0c0,0.4,0,0.9,0,1.3c-41.7,0-83.4,0-125.2,0
	c-8.9,0-17.7-0.2-26.4-2.2c-1.3-0.3-2.6-0.7-3.9-1.3c-4.7-2.2-6.1-6.1-3.8-10.8c2.2-4.4,6.1-6.5,10.6-7.5
	c10.6-2.2,21.4-1.9,32.1-2.1c46-1,91.9-1.8,137.9-2.7c35.1-0.7,70.2-0.6,105.3-0.4c6.6,0,13.2,0.4,19.8,0.7
	c5.9,0.2,10.8,4.1,12.1,9.4C410.4,418.6,407.6,423.4,402.2,426.2z M294.3,261.5c-1-10.6-6.1-18.6-16.2-22.3
	c-15.8-5.8-31.9-5.6-47.4,1.3c-8.9,4-14.8,10.9-16.4,20.9c-0.7,4.5-0.1,9-0.1,11.3c2,32.4,3.9,62.7,5.8,93
	c0.6,9.8,5.4,16.6,14.7,20.1c5.4,2.1,11.1,2.9,16.8,3.3c8.5,0.5,17,1.3,25.4-0.4c7.5-1.5,10.9-5.6,11.4-13.2
	c0.2-3.7,0.5-7.5,0.7-11.2c1.4-23.6,2.9-47.1,4.2-70.7C293.8,283,295.2,272.3,294.3,261.5z M238.2,381.4c2.4-1.8,2.9-5.1,6.3-2.8
	c0.7,0.5,1.6-0.7,1.2-2c-0.5-1.6,3.3-7.5,4.6-7c1.5,0.6,2.6,2.2,3.8,3.3c1.2,1.1,0,1.7-0.6,2.4c-0.8,0.9-2.2,1.8-1,3.1
	c1.3,1.4,2.3-0.1,3-1c1.4-1.7,2.3-1.1,3.4,0.2c0.7,0.8,1.7,1.8,2.8,0.6c0.9-1,0.1-1.9-0.7-2.5c-2.1-1.6-1.3-2.8,0.3-4.1
	c0.4-0.3,0.7-0.7,1.1-1.1c3.7-3.7,3.6-3.6,7.4-0.2c2.1,1.9,2.4,3.3,0,5.1c-1.5,1.1-2.7,2.6-4,3.9c-0.8,0.8-1.3,1.6-0.3,2.5
	c0.9,0.8,1.6,0.2,2.3-0.4c0.5-0.4,0.9-0.9,1.3-1.3c5.7-5.6,5.7-5.6,11.4,1.3C266.3,386,252.7,383.3,238.2,381.4z M253.4,366.2
	c1.7-1.8,3.5-3.5,5.3-5.3c0.2-0.2,0.6-0.4,0.9-0.6c1.3,1.4,2.9,2.5,3.8,4.1c0.8,1.2-1,1.7-1.6,2.6c-0.6,0.8-1.4,1.4-2.1,2.1
	c-2.5,2.5-4.9,2-6.5-1.2C252.8,367.1,252.9,366.7,253.4,366.2z M268.6,365c-0.1-0.7,3.9-5,4.7-5.1c0.5,0,5.7,5,5.8,5.6
	c0.1,0.4-4.1,5.1-4.7,5.1C274.1,370.7,268.7,365.5,268.6,365z M282.2,378.7c-1.3-1.2-2-1.8-2.7-2.5c-3-3-2.6-5.6,1.3-7.6
	c1.4-0.7,2.1-0.2,2,1.3C282.8,372.5,282.5,375.2,282.2,378.7z M284.3,340.1c-0.8-0.4-1.7-0.7-1-1.9c0.2-0.4,0.7-1,1.1-0.5
	C285,338.4,284.8,339.3,284.3,340.1z M280.7,336.4c-0.6,0-7.3-6.6-6.9-7c2.2-2.3,4.4-4.6,7-6.5c1-0.7,4.6,4.6,4.6,6.7
	C285.2,331.8,282.1,336.4,280.7,336.4z M285.8,322.9c-4.2-2-2.5-3.6,0.3-5.4C285.9,319.4,285.9,321,285.8,322.9z M287,298.9
	c-1.2-1.3-0.9-2.2-0.1-3.4C287.9,296.8,287.6,297.6,287,298.9z M287.6,288.9c-6.6-4.2-6.6-5.1,0.8-11
	C288.1,281.9,287.9,285.4,287.6,288.9z M287.6,274.7c-2,0.7-2.9,2.7-4.5,3.9c-1.6,1.2-2.7,4.4-5.5,1.6c-0.2-0.2-0.8-0.1-1.1,0.1
	c-0.7,0.5-1,1.7-0.5,1.8c3.2,0.6-1.8,5.2,2.3,4.8c4.1-0.4,4.8,3.5,7.2,5.2c0.8,0.6-0.6,1.6-1.2,1.9c-4,2-5.4,6.5-8.9,9
	c-0.8,0.6-2,1.6-0.8,2.8c1.1,1.2,2,0.1,2.8-0.6c1.2-1.1,2.2-2.4,3.5-3.4c0.9-0.7,1.4-2.6,2.8-1.8c1.3,0.8,2.9,1.8,2.9,3.6
	c-0.1,4.8,0.5,9.8-4.3,13.1c-1.5,1-2.3,1.7-3.5,0c-0.5-0.7-1.2-1.2-1.8-1.9c-0.7-0.7-1.5-1-2.3-0.2c-0.9,0.8-0.4,1.8,0.3,2.2
	c4.6,3,2.2,5.4-0.7,7.7c-1.6,1.2-2.2,3.2-3.6,4.6c-1.2,1.2,0,2,0.7,2.8c2.3,2.3,4.7,4.5,7.3,7c-2.6,2.5-5,4.7-7.3,6.9
	c-0.8,0.7-2,1.6-0.7,2.8c1.2,1.1,2,0,2.8-0.8c1.5-1.5,2.9-3.1,4.5-4.5c0.8-0.7,1.4-2.7,2.8-1.7c1.4,1,3.4,2,3.3,4.2
	c-0.2,4.9-0.6,9.7-0.9,14.6c-0.1,1.2-0.5,2.4-1.6,2.7c-1.1,0.4-1.7-0.9-2.3-1.6c-4.4-4.3-8.6-8.7-13-12.9c-1-1-2-3.4-3.8-1.9
	c-2,1.7,1.2,2.5,1.5,3.8c1.4,1.4,2.8,2.9,4.4,4.1c2.7,2,2.4,3.5,0,5.7c-1.9,1.7-2.8,2.3-4.9,0.1c-2.1-2.2-1.7-3.3,0.2-4.9
	c1.4-1.2,3.2-2.8-0.4-3.6c-0.6,0.6-1.3,1.2-1.8,1.9c-1.5,2.2-2.9,2.2-4.5,0c-0.7-0.9-1.6-2.5-3-1.3c-1.6,1.4,0,2.5,1,3.3
	c2.3,1.7,1.8,3.1-0.2,4.6c-0.3,0.2-0.5,0.5-0.8,0.8c-3.6,3.6-3.6,3.6-7.4,0.2c-0.9-0.8-1.9-2.1-3.1-0.8c-1.1,1.2,0.2,2,0.9,2.8
	c3.6,3.9,3.3,5.5-1.3,8.8c-1,0.7-1.4,0.4-2.1-0.3c-1.3-1.4-2.6-2.7-4-4c-0.6-0.5-1.4-0.6-2,0c-0.7,0.6-0.5,1.4,0,2
	c0.5,0.6,1,1.1,1.5,1.6c3.6,3.7,3.6,4.5-0.2,8c-1,0.9-1.5,0.1-2.2-0.3c-5.3-2.8-8-7.3-8.4-13.2c-1.2-19.1-2.5-38.1-3.6-57.2
	c-0.8-13.8-1.6-27.7-2.4-41.5c-0.6-10.1,4.1-17.1,12.9-21.2c14.3-6.6,29-6.7,43.7-1.3c6.6,2.4,10.2,7.8,11.6,14.6
	c0.7,3.3-1.4,5.4-4.8,4.9c-0.8-0.1-1.9,0.2-1.7,0.8c0.9,2.3,0,3.8-1.5,5.4c-0.4,0.4-0.3,1.2,0.3,1.7c0.9,0.6,1.7,0.2,2.3-0.5
	c2.7-3.5,3.8,0,5.3,1.3C288.6,273.5,288.7,274.3,287.6,274.7z M288.7,269.2c-1.8-1.1-1.7-2.1,0-3.2
	C289.2,267.1,289.2,268.1,288.7,269.2z M201.3,312.2c-0.1-10.3-3.3-14.6-13.1-18c-12.4-4.3-25.1-3.8-37.8-2.5
	c-6.6,0.7-13.1,2-19.1,5c-7.8,3.9-10.8,9.2-10,17.8c1.7,17.8,3.3,35.6,5.1,53.3c1.4,13.6,5.8,18.1,19.1,20.3
	c7.2,1.2,14.4,1.4,22.1,1.6c5,0.5,10.6,0.7,16-0.2c9-1.5,11.6-4.6,12.2-12c0.6-7.5,1.5-14.9,2.1-22.4
	C199.2,340.8,201.5,326.6,201.3,312.2z M166,380.2c-0.1,0.1-0.3,0.2-0.3,0.3c-0.1,5-3.9,3-6.2,3c-6.7-0.1-13.4-0.6-19.8-3.1
	c0.4-1,0.8-1.7,1.6-1.6c2.2,0.4,3,0.1,2.4-2.5c-0.2-0.8,1.5-2.3,2.6-2.9c1.3-0.8,1.8,0.9,2.5,1.5c1.6,1.4,3,3,4.5,4.5
	c0.5,0.5,1.1,1,2,0.5c0.6-0.3,0.9-0.8,0.8-1.5c-0.7-3.9,3.3-4.6,4.9-6.9c0.4-0.5,1.1,0.2,1.5,0.6c1.1,1.1,2,2.2,3.2,3.1
	C167.8,376.9,168.8,378.4,166,380.2z M189.1,380.7c-0.2,0.6-1.1,1.1-1.7,1.6c0,0.1-0.1,0.1-0.1,0.2l0-0.1c0,0,0,0.1,0,0.1
	c0,0-0.1,0-0.1-0.1c-6.5,2-13.2,1.6-20.1,1.4c1.6-2.3,1.6-2.3,5-3.1c0.8-0.2,1.6-0.6,1.2-1.5c-1.3-3.2,2-3.8,3.2-5.5
	c0.9-1.3,1.7,0.2,2.3,0.8c2.8,2.6,5.6,5.2,8.3,7.8c0,0,0,0,0,0c0,0,0.1-0.1,0.2-0.1c1.1-2.2-0.2-3.6-1.7-5c-2.1-2-5.4-3.9-5.6-6.2
	c-0.2-2.3,3.4-4.2,5.5-6.2c0.7-0.6,0.9-2.5,2.3-1.7c1.2,0.7,3,2,2.9,3.1C190.7,371.1,190.5,376,189.1,380.7z M192.8,348.3
	c-0.4,4.5-0.9,8.9-1.5,14c-1.3-1.3-2.2-2.1-3.1-2.9c-6.9-6.9-6.8-6.8,0.6-13.3c1.3-1.1,2.1-0.5,3.2-0.2
	C193.7,346.4,192.9,347.6,192.8,348.3z M193.3,342.8c-0.4,0.3-0.8,0.5-1.2,0.8c-0.3-0.7-0.6-1.5-1.1-2c-6-6-6-6,0.6-11.6
	c0.5-0.5,1-1.3,1.8-0.9c0.8,0.4,1.1,1.2,1,2.2C194.1,335.2,193.7,339,193.3,342.8z M195.1,322.2c-0.3,1.6-1.5,2.5-3.6,1.3
	c-1.3-0.8-2.6,0.4-1.5,1.9c1.2,1.6,0,2.2-0.8,3c-1.6,1.6-3,3.3-4.8,4.7c-2.7,2.2-2.2,3.9,0.1,6.1c3.8,3.6,3.6,3.6,0,7.4
	c-2.6,2.8-5.9,4.9-8.2,8.1c-0.6,0.9-2,1.6-0.9,2.8c1.1,1.2,2.1,0.2,2.8-0.7c1.4-1.8,2.3-1,3.5,0.2c3.8,3.7,3.8,3.6,0.2,7.2
	c-0.4,0.4-0.9,0.8-1.3,1.3c-1.9,2.3-3.8,4-6.2,0.5c-0.6-0.9-1.7-1.2-2.5-0.2c-0.9,1.1,0.2,1.8,0.8,2.5c1.3,1.4,2.9,2.2,0.6,4.6
	c-2.5,2.5-3.8,2.3-6-0.2c-3.7-4.1-3.9-4,0.1-8c1.2-1.2,2.5-2.5,3.7-3.7c0.8-0.8,1.6-1.8,0.5-2.9c-1-0.9-1.8,0-2.5,0.7
	c-1.6,1.6-3.1,3.2-4.8,4.8c-1.5,1.4-2.7,4-5.2,1.1c-0.4-0.5-1.2-0.4-1.7,0.2c-0.3,0.3-0.5,1.1-0.4,1.3c3.8,3.6-0.7,4.7-2,6.7
	c-1.5,2.2-2.7,1.5-4.3,0c-1.8-1.7-1.8-2.7,0-4.4c2.5-2.2,4.8-4.7,7.2-7.1c0.8-0.8,1.9-1.6,0.8-2.8c-1.2-1.2-2,0-2.8,0.7
	c-2.2,2.2-4.6,4.3-6.6,6.6c-1.9,2.3-3.5,2.9-5.3,0.1c-0.3-0.4-0.7-0.7-1.1-1.1c-0.7-0.6-1.5-1.6-2.5-0.4c-0.9,1-0.1,1.8,0.6,2.6
	c0.5,0.5,1,1.1,1.6,1.6c1.2,1.1,2.1,1.9,0.4,3.5c-1.5,1.4-2.5,1.8-3.8,0c-0.2-0.3-0.5-0.5-0.8-0.8c-0.8-0.8-1.8-1.7-2.9-0.6
	c-1,1,0,1.8,0.6,2.6c0.4,0.6,1,1.1,1.6,1.6c0.9,0.8,1.2,1.4,0.1,2.3c-0.9,0.7-1.5,1.6-2.7,0.4c-1.5-1.4-2.1-3.1-2.3-5
	c-1.5-14.4-3-28.8-4.4-43.2c-0.6-5.5-0.9-11-1.6-16.4c-0.7-5.6,2.1-9,6.7-11.4c5.3-2.7,11.1-3.8,16.9-4.5c4.7-0.6,9.5-0.7,12.9-1
	c9.6,0.3,18,0.8,25.8,4.3c3.1,1.4,5.1,3.5,5.8,6.8c0.3,1.5,0.4,2.9-1.1,4c-1.9,1.4-2.2-0.7-3.2-1.3c-0.9-0.6-1.8-1.8-2.8-0.7
	c-1.1,1.1,0,2.2,0.8,2.8c2.3,1.7,1.9,3.1-0.1,4.5c-0.4,0.3-0.7,0.7-1.1,1.1c-0.8,0.9-2.3,1.8-1,3.1c1.3,1.2,2.2-0.3,3.1-1.1
	c0.4-0.3,0.7-0.7,1.1-1c1.1-1.2,2.5-2.9,4-1.8C196.4,318.2,195.5,320.5,195.1,322.2z M379.9,340.4c-2.2-0.3-3.2-2.6-5-3.7
	c-0.3-0.1-1.2,0.6-1.6,1.1c-2,1.9-3.9,3.9-5.8,5.8c-0.7,0.7-1.6,1.4-2.5,0.3c-0.7-0.8-0.2-1.6,0.4-2.3c1.9-1.8,3.6-3.8,5.6-5.5
	c1.7-1.4,1.5-2.4-0.1-3.8c-1.9-1.6-3.6-3.5-5.3-5.3c-1-1.1-1.9-2.2,0.4-2.9c0.9-0.4,1.3,0.1,1.5,0.8c1.8,1.7,3.7,3.4,5.3,5.2
	c1.5,1.7,2.6,1.9,4,0.1c0.8-1,1.9-2.6,3.3-1c1.1,1.3-0.5,2.2-1.3,3c-3.6,3.3,0.9,3.7,1.7,5.6C380.2,338.7,380,339.5,379.9,340.4z
	 M380.6,321.3c-0.8,0.8-1.7,0.5-2.2-0.3c-3-4.6-5.3-2.2-7.7,0.6c-0.9,1.1-2.1,2-3.2,3c-0.5-0.3-1-0.5-1.5-0.8c0.2-3.2,3-4.4,4.8-6.3
	c1.6-1.6,2-2.6,0-4c-0.6-0.4-1.1-1-1.6-1.6c-0.6-0.7-1.1-1.4-0.3-2.2c0.8-0.9,1.7-0.6,2.2,0.1c3,4.7,4.8,1.4,8-0.3
	c1-0.5,1.7-1.1,2.2-1.7c-0.1,0.7-0.2,1.3-0.3,2c-0.1,0.5-0.1,1-0.1,1.6c-0.1,0.1-0.2,0.2-0.4,0.3c-2.7,2.2-4.9,4.4-0.5,7.2
	C381,319.4,381.7,320.3,380.6,321.3z M390.5,199.1c-0.5-10.7-2.4-20.9-11.4-28.2c-7.4-6-16.1-8.2-25.4-8.5
	c-19.7-0.6-35.1,9.6-40.7,27.1c-2.4,7.2-2.5,14.7-2.2,22.2c1.4,32.9,2.8,65.9,4.2,98.8c0.7,15.3,1.1,30.7,2.2,46
	c0.9,12.3,6.7,21.5,19.1,25.4c10.7,3.3,21.8,4.3,32.9,3.2c9.8-0.9,14.5-6.2,15.4-16.1c0.3-3.4,0.5-6.7,0.6-10.1
	c1.1-25.8,2.2-51.6,3.3-77.5c0.3,0,0.6,0,0.8,0c0-6.2-0.2-12.5,0-18.7C390.1,241.5,391.4,220.3,390.5,199.1z M364.6,379.6
	c-9.5,0-18.9-0.5-28-3.9c-0.9-0.3-2.7-0.3-2.1-1.8c0.6-1.5,1.6,0,2.4,0.2c1.9,0.4,2.1-0.6,1.6-2.2c-0.5-1.4,3.5-7,4.8-6.7
	c1.8,0.5,2.9,2.2,4,3.6c0.9,1.1-0.7,1.6-1.1,2.3c-0.6,0.9-2.1,1.5-0.9,2.8c1.4,1.5,2.2-0.1,3-0.9c1.1-1.2,2-1.8,3.2-0.2
	c0.7,0.9,1.8,2.2,3,0.8c1.2-1.2-0.2-2.1-0.9-2.7c-1.7-1.4-1.2-2.4,0.2-3.5c0.7-0.6,1.4-1.1,1.8-1.9c2.3-3.2,4.1-2.9,6.8-0.1
	c2.4,2.5,2.5,3.9-0.1,6c-1.4,1-2.5,2.4-3.7,3.7c-0.7,0.7-1.1,1.5-0.3,2.3c0.8,0.7,1.6,0.4,2.3-0.3c1.7-1.7,3.4-3.3,5-5
	c1.2-1.4,2-1.4,3.2,0c1.6,1.8,3.4,3.3,5.2,5.1C371.1,379.4,367.8,379.6,364.6,379.6z M347.4,360.7c1.7-1.5,3-3.3,4.9-5.5
	c1.6,1.8,2.9,3.1,4,4.5c1,1.2-0.5,1.7-1.1,2.3c-0.8,1-1.9,1.7-2.6,2.7c-1.9,2.7-3.3,2.2-5.4,0C345.8,363.1,345.7,362.2,347.4,360.7z
	 M361.6,360.6c-0.3-0.3,3.9-5,4.5-5.1c0.5-0.1,6,5.1,6.1,5.8c0,0.5-4.3,5.1-4.7,4.9C365.1,364.8,363.4,362.6,361.6,360.6z
	 M379.4,360.5c-0.4,5,0.3,10.2-2.7,15c-2.5-1.5-4.2-3.9-6.3-5.8c-0.8-0.7-1.1-1.5-0.1-2.1c1.9-1.2,2.4-4.5,5.8-3.5
	c0.8,0.2,1.5-0.8,1.2-1.5c-0.9-1.8,0.8-2.4,1.3-3.5C380,359,379.7,359.8,379.4,360.5z M382.2,295.8c-4.4-2.8-4.4-2.8,0-6.2V295.8z
	 M383.6,266.1c-1.9,0-3.1-1.5-3.3-2.5c-0.3-1.7,1.9-2.2,3.3-3.2V266.1z M383.9,253.7c-0.1,3-4.6,6.5-7.7,6.3c-0.7,0-1.7,0.3-1.5,0.7
	c2.1,2.9-2.8,4.6-1.2,7.2c0.4,0.7,1.5,0.4,1.9-0.3c2.1-3,3.6-1.3,5.1,0.5c0.6,0.7,1.2,1.5,1.8,2.3c1.5,5.2,0.2,10.3,0.1,15.9
	c-3-1.7-4.7-4-6.6-6c-1.3-1.3,0.4-1.8,1-2.6c1.7-2.5,5.2-3.6,5.4-7.1l0,0c-3.4-1-4.2,2.4-6.2,3.8c-1.6,1.1-2.5,4.2-5.2,1.5
	c-0.2-0.2-1-0.1-1.4,0.2c-0.7,0.5-0.9,1.7-0.2,1.8c2.7,0.6-2,5,2.5,4.6c1.5-0.1,6.8,3.9,7.1,5.3c0.2,0.9-0.6,1.4-1.1,1.7
	c-4.4,1.8-5.4,6.8-9.1,9.2c-0.8,0.6-2,1.5-0.8,2.7c1.2,1.2,2,0,2.8-0.7c0.1-0.1,0.2-0.2,0.3-0.3c1.8-1.7,3.4-4.4,5.5-4.8
	c2-0.4,3.1,3.1,5.3,4.1c0.7,2.4,0.2,4.9,0.3,7.4c0,0.4-0.4,1-1,1.6c0.1,0.6,0.1,1.1,0.1,1.7c0.1,0,0.3,0,0.4,0
	c-0.2,8.3-0.5,16.6-0.7,24.9c-0.9,0.8,0.6,2.8-0.9,3.2c0,0.6-0.1,1.3-0.2,1.9c0.9,1,1.4,2.2,0.6,4.2c-0.1,2.2-0.2,4.4-0.2,6.6
	c-0.5,1.5-0.1,3.1-0.3,4.6c-0.1,0.6,0.2,1.6-1,1.3c-0.2-0.1-0.3-0.4-0.6-0.4c-1.8-0.5-2.3,2.9-3.9,1.8c-2.2-1.6-3.8-3.9-5.7-5.8
	c-3.6-3.5-7.2-7-10.8-10.4c-0.6-0.6-1.3-0.8-2-0.1c-0.8,0.8-0.4,1.5,0.1,2.3c0.7,1.2,3,1.5,2.3,3.5c0,0,0,0.1,0.1,0.1
	c3,0.3,4.9,2.7,5.5,4.8c0.5,1.5-2.3,3.8-4.2,4.5c-1.8,0.7-2.7-2-4.1-3.1c-1.3-1,0-1.6,0.5-2.4c0.8-1.3,3.2-1.7,2.2-3.9
	c0,0-0.1,0-0.1,0l0-0.1c-1.7-1.4-2.5,0.3-3.2,1.2c-1.6,1.9-2.8,2.5-4.6,0.2c-0.7-0.9-1.7-2.8-3.2-1.2c-1.5,1.5,0.4,2.5,1.3,3.2
	c2,1.6,1.9,2.9-0.1,4.3c-0.4,0.3-0.7,0.7-1.1,1c-3.6,3.6-3.6,3.6-7.4,0.1c-0.8-0.7-1.6-1.9-2.8-1c-1,0.8-0.5,1.7,0.3,2.5
	c1.3,1.3,3.6,2.8,3.5,4.1c-0.1,2.1-2.8,3.3-4.2,4.9c-0.3,0.4-0.7,0.6-1.6,1.4c-1.4-1.6-2.8-3.2-4.2-4.8c-0.7-0.8-1.6-1.4-2.6-0.5
	c-1.1,1-0.2,1.8,0.5,2.5c1.1,1.2,2.3,2.3,3.4,3.5c0.7,0.7,1.2,1.2,0.3,2.2c-0.9,1-1.6,0.8-2.5,0c-4.2-3.7-6-8.5-6.9-13.8
	c-1.3-7.7-0.8-15.4-1.2-23.2c-1.9-40.9-3.6-81.8-5.4-122.7c-0.3-7.3-0.2-14.5,2.1-21.5c4.8-14.4,18.3-23,35.2-22.3
	c8.7,0.3,16.8,2.3,23.2,8.6c5.3,5.2,6.8,11.8,7.3,18.7C386,215,384.6,234.4,383.9,253.7z M327.9,205.9c1.1,17,2.2,33.9,3.3,50.9
	c0,0.2,0.1,0.5,0.1,0.7c0,1.1,0.8,2.7-1.3,2.8c-1.9,0.1-1.4-1.5-1.5-2.4c-0.3-3.9-0.6-7.7-0.8-11.6c-0.8-12.7-1.7-25.4-2.5-38.1
	c-0.2-3.7-0.3-7.5,0.3-11.2c2-12.6,8.8-18.9,21.5-19.7c3.9-0.2,7.7-0.1,11.6-0.1c1.3,0,3.2-0.4,3,1.7c-0.2,1.7-1.9,1.3-3.1,1.1
	c-4-0.4-8-0.3-12,0.1c-11.6,1.1-17.5,7-18.4,18.7c-0.2,2.4,0,4.7,0,7.1C328,205.9,328,205.9,327.9,205.9z"/>
</svg>
