<?xml version="1.0" encoding="utf-8"?>
<!-- Generator: Adobe Illustrator 24.2.0, SVG Export Plug-In . SVG Version: 6.00 Build 0)  -->
<svg version="1.1" id="Layer_2" xmlns="http://www.w3.org/2000/svg" xmlns:xlink="http://www.w3.org/1999/xlink" x="0px" y="0px"
	 viewBox="0 0 500 500" style="enable-background:new 0 0 500 500;" xml:space="preserve">
<path d="M-987.5,129.8l-0.2,0.2C-987.6,129.9-987.5,129.8-987.5,129.8z"/>
<path d="M419.9,366.1c-4.1-24.1-22.7-41.4-47.1-43.5c-1.9-0.2-2.8-0.2-2.4-2.7c2.8-23.2-11.2-43.5-33.9-49.7
	c-12.4-3.3-25.1-4.5-37.8-5.2c-15.8-0.9-31.7-1.5-47.5-2.1c-2.3-0.1-2.9-0.7-2.8-3c0.2-8.6,0.3-17.2,0.2-25.9c0-2.4,0.5-2.8,3-2.4
	c14.3,2.2,28.7,4.4,43.2,3.3c22-1.7,38.5-11.7,48.3-32c5.5-11.4,7.9-23.6,8.4-36.2c0.8-17.3,1.8-34.6-1.8-51.8
	c-3.2-15.7-10.9-27.8-27.1-32.8c-5.9-1.8-11.9-2.9-18-3.2c-18.7-0.8-37.4-1.6-56.2-2.2c-17.7-0.5-35.4-2-53.2-0.2
	c-23.9,2.5-40.5,14.1-48.1,37.5c-4.1,12.4-6,25.2-7,38.2c-1,14.1-2.3,28.2,0.4,42.2c3.5,17.8,11.9,32,29.9,38.5
	c11.5,4.1,23.4,3.6,35.1,0.7c11.5-2.9,22.9-4.8,34.8-3.4c1.8,0.2,2.6,0.5,2.6,2.6c-0.2,9.2-0.3,18.5-0.3,27.7c0,1.7-0.5,2.1-2.1,2.1
	c-4.4-0.1-8.7-0.1-13.1-0.1c-21.8,0-43.7-0.9-65.5,2.4c-29.3,4.4-45.8,29.3-37.8,57.5c-16.2,2.4-29,10-38.3,23.3
	c-4.7,6.7-7.4,14-5.6,22.2c4.3,19.6,14.1,36,30.5,47.8c13.7,9.8,28.5,11.3,43.7,3.5c19.9-10.3,30.1-33.6,25.3-56.7
	c-4.5-21.4-24-38.4-46-39.8c-2.7-0.2-3.8-1-4.5-3.6c-5.2-17.4,3.6-36.8,20.2-44.4c7.4-3.4,15.3-4.5,23.2-5.2c22.3-1.9,44.7-1.3,67-1
	c2.6,0,3,0.9,3,3.2c-0.3,16.2-0.5,32.5-0.7,48.7c0,2-0.6,2.6-2.6,3.1c-14.4,3.6-25.9,11.5-33.7,24.2c-3.5,5.6-5.8,11.6-4.5,18.5
	c3.8,20.3,14,36.7,30.2,49.2c9.4,7.2,20.4,10.1,32.1,8c24.9-4.6,42.8-32,38-57.8c-4.5-24.7-24.1-41.9-49.5-43
	c-3.4-0.2-4.3-1.4-4.3-4.4c0.2-15.6,0.4-31.2,0.5-46.8c0-2.1,0.6-2.7,2.7-2.7c8.6,0.4,17.2,0.4,25.8,0.9c18.1,0.9,36.2,1.5,54,5.2
	c22.9,4.8,36.2,22.2,34,44.3c-0.2,2.4-0.8,3.5-3.6,4c-16.3,2.8-28.9,11.3-37.5,25.4c-3.8,6.2-5.9,13.1-4,20.4
	c5.3,20,15.3,37.1,32.9,48.7c9.9,6.5,21,8.3,32.7,5.1C408.5,416.3,424.1,390.8,419.9,366.1z M126.5,417c-0.6-0.1-1.6-0.2-1.5-1.2
	c0.1-2,1.2-3.4,2.7-4.5c0.8-0.6,1.3,0,1.9,0.5c2.1,1.7,3.3,4.3,6.2,6.1C132.2,418.4,129.4,417.6,126.5,417z M132.5,406.6
	c0.8-1,1.9-1.7,2.6-2.7c2.3-3.6,3.9-1.2,5.6,0.6c0.6,0.6,0.8,1.2,0.1,1.9c-1.8,1.7-3.5,3.5-5.3,5.3c-0.2,0.2-0.6,0.4-1.5,0.9
	c-1-1.2-2.2-2.4-2.9-3.7C130.4,407.7,131.9,407.3,132.5,406.6z M142.2,417.5c-2.6,0.8-3.6-0.5-4.7-2.1c-1.5-2.1,1.1-2.3,1.7-3.4
	c0.8-1.2,2.1-2.1,3.1-3.2c0.9-1,1.6-1.2,2.7-0.1c1,1,1.6,1.8,0.2,3c-0.8,0.7-2,1.5-1,2.7c1,1.3,2,0.2,2.8-0.6
	c1.2-1.2,2.2-0.7,3.3,0.6C147.4,415.6,144.9,416.7,142.2,417.5z M148.8,407.8c-1.1,0.5-2.6-1.4-2.5-2.1c0.3-1.9,2.1-3.1,3.7-4.1
	c0.3-0.2,1.7,1.4,2.7,2.2C151.6,405.6,150.4,407.2,148.8,407.8z M159.9,408.1c-1.4,1.8-3.4,2.9-5.2,4.2c-1.5,1.1-2.2-0.1-3.1-0.9
	c-1.2-1.1-0.3-1.8,0.5-2.4c1.3-1.1,2.2-3.8,4.6-1.2c0.9,1,1.8-0.1,2.5-0.8c0.1-1.4-2.9-2.1-1.4-3.6c2.5-2.6,4.4-7.3,9.5-3.8
	C165.3,402.7,163,405.8,159.9,408.1z M173,386.6C173,386.6,172.9,386.6,173,386.6c-0.9,2.4-1.7,4.9-2.7,7.3c-0.6,1.6-1.6,3-2.4,4.7
	c-2.3-3.3-5.1-5.7-7.8-8.2c-1.9-1.7-1.7-2.8,0.1-4.3c1.2-1,2.4-2.2,3.4-3.4c1-1.1,1.7-1,2.7,0c1,1,1.3,1.7,0.1,2.7
	c-0.7,0.5-1.3,1.2-1.8,1.8c-0.7,0.9-2.4,1.6-1.1,3c1.3,1.5,2.3,0,3-0.9C168.2,387.2,170.2,386.1,173,386.6
	C172.9,386.6,172.9,386.5,173,386.6L173,386.6C173,386.6,172.9,386.5,173,386.6c-0.1-0.1-0.1-0.1,0-0.2c-0.3-1.3-1.9-2.7,0.5-3.9
	c0.4,1.5,0.1,2.7-0.5,3.9C173,386.5,173,386.5,173,386.6z M173.3,361.7c0.4,2.5,0.8,4.9,1.2,7.4c0.1,0.5,0,0.9,0,1.5
	c-6.9-4.6-6.9-5-2.5-9.7C172.9,360.4,173.1,361.2,173.3,361.7z M130.3,328.4c19.6,1.1,34.2,10.6,41.8,29.4c0.2,0.2,0.2,0.4,0.2,0.5
	c-0.1,0.2-0.1,0.2-0.2,0.2c-0.4,0-0.9-0.1-1.1,0c-3,3-5.9,5-9.1,0.2c-0.3-0.4-1.2-0.3-1.6,0.3c-0.5,0.7-0.4,1.6,0.2,2
	c5.2,3.3,1.9,5.7-0.9,8.2c-0.9,0.8-2.1,1.9-0.7,3.1c1.2,1.1,2-0.3,2.8-1c5-4.5,5-4.5,9.6,0.8c0.1,0.1,0.2,0.2,0.2,0.3
	c1,1.1,3.4,0.7,3.3,3.2c-0.1,2.9-2.8,3.6-4.1,5.4c-1,1.3-1.7,0-2.4-0.6c-0.9-0.7-1.1-1.4-0.2-2.4c1.3-1.5,3.8-2.4,3.1-5.1
	c-2.4-0.8-3.2,1.5-4.5,2.6c-1,0.8-1.6,1.9-3,0.4c-0.8-0.9-1.9-2.7-3.3-1.4c-1.6,1.6,0.6,2.5,1.4,3.6c0.3,0.4,0.6,0.7,1.5,1.7
	c-1.9,1.6-3.7,3.3-5.6,4.9c-0.5,0.4-1.1,1.2-1.4,1c-3.2-1.3-2.9-0.9-2.9,2.6c0,3.4-0.7,3.3,2.7,2.6c1.7-0.4,3.6,2.5,4.7,4.3
	c0.8,1.3-1.1,1.9-1.9,2.8c-0.8,1-1.8,1.8-2.6,2.7c-0.7,0.8-1.4,1.5-2.4,0.3c-0.6-0.8-2.2-1.2-1-2.6c0.8-0.9,1.1-1.7,0.2-2.6
	c-0.9-0.8-1.6,0-2.3,0.5c-1.7,1.3-2-0.7-2.9-1.2c-1.5-0.8-2-3.6-4.5-2c-0.4,2,1.2,2.9,2.3,3.9c1.6,1.4,2.2,2.4,0.3,4.4
	c-2,2-3.1,1.7-4.6-0.2c-0.4-0.6-1-1.1-1.5-1.6c0.5-1.8,3.4-2.3,2.6-4.6c-0.4-1.1-1.7-0.5-2.7-0.2c-3.2,3.3-6.5,6.5-9.6,9.9
	c-1.4,1.5-2.3,1.5-3.5-0.1c-0.5-0.7-1.2-1.2-1.9-1.8c-0.6-0.5-1.3-0.7-2,0c-0.6,0.7-0.5,1.4,0,2c0.6,0.8,1.3,1.5,2.1,2.1
	c1.5,1.1,1.2,2,0,3.2c-1.2,1.2-2.1,1.9-3.5,0.2c-0.9-1.2-2.1-2.1-3.2-3.2c-0.9-0.8-1.9-2.2-3-0.9c-1.2,1.3,0.3,2.2,1.2,3
	c1.5,1.4,3.2,2.7,5.1,4.4c-2.5,1.2-3.6-0.1-4.7-0.8c-11.8-7.3-19.6-17.9-25.7-30c-2-4-3.5-8.2-4.8-12.5c-2-6.8-1.2-13.2,2.5-19
	C98.5,336.2,112.2,327.4,130.3,328.4z M337,201.2c-1.5,4.3-4.3,7.7-7.1,11.3c-1.1,1.4-1.8,1-2.9-0.1c-2.8-3-5.7-5.9-8.7-8.7
	c-1.5-1.4-1-2.2,0.2-3.2c2.4-2.3,4.5-6.1,7.3-6.6c2.9-0.5,4.7,4,7.2,6.1c1,0.8,1.8,1.7,3.2,1.2c0.9-2.2-1.1-3-2.2-4.3
	c-1-1.1-2-2.2-3-3.3c-2.1-1.4-3.6-2.8-0.7-4.9c0.6-0.5,0.8-1.3,0.2-2c-0.7-0.8-1.4-0.5-2.3,0c-0.9,0.6-1.3,2.7-2.9,1.4
	c-1.7-1.4-3.2-3.1-4.7-4.8c-0.5-0.6,0.4-1.1,0.8-1.5c2.7-2.7,5.5-5.4,8.2-8.2c1.2-1.2,1.9-1,3,0.1c2.7,2.8,5.4,5.5,8.4,8.4
	c-2.6,2.5-5.1,4.9-7.6,7.3c-1,0.9-2.2,1.8-1.7,3.4c1.6,1,2.5-0.1,3.5-1.1c2.4-2.5,4.8-4.9,7.5-7.2
	C341.8,190.6,340.2,196.2,337,201.2z M346.2,160.4c-0.4,0.2-0.8,0.4-1.2,0.7c-0.9-1.1-1.7-2.4-2.8-3.4c-5.8-5.8-5.8-5.8,0.5-11.3
	c0.8-0.7,1.4-1.2,2.6-0.8c1.2,0.5,0.8,1.4,0.8,2.2C346.2,152,346.2,156.2,346.2,160.4z M346.1,137.5c0.1,1.3-0.3,2.3-1.4,2.8
	c-1.5,0.6-2-1.1-2.9-1.8c-1.4-1.3,0.2-1.9,0.8-2.6c0.8-1.1,1.6-2.1,2.4-3.2c0.3,0.2,0.7,0.4,1,0.6C346,134.7,346,136.1,346.1,137.5z
	 M186.9,230c-0.9,0-1.7-0.1-2.9-0.2c-1.4-0.9-4.1,1.2-5.2-1.6c-1.1-2.8,1.6-3.8,3-5.3c1-1.1,2.3-3.4,3.5-2.8
	c2.2,1.2,3.9,3.3,5.6,5.3C191.6,226,188.1,230,186.9,230z M197.1,229C197.1,229,197.1,229,197.1,229C197.1,229,197.1,229,197.1,229
	c-1.5,0.8-3.2,0.8-4.8,0.5c0.5-1.8,1.7-1.4,2.9-1.2c1.4-0.7,0.4-2.2,1.1-3.3c2.9-4.3,4.4-4.5,8.1-0.8c0.9,1,1.8,2,2.9,3.2
	C204,228.1,200.7,229.1,197.1,229z M209.3,225c-1.9-2-4-4.1-5.9-6.3c-0.3-0.4,4.8-6.1,5.5-6.2c0.4-0.1,6.3,5.4,6.4,6
	C215.5,219.1,210.2,224.9,209.3,225z M269.8,415.4c-1,0.4-2,0.6-3,0.9c0,0,0,0.1,0,0.1c-0.1,0-0.2,0-0.3,0c-7.9,2.8-15.6,2-23.3-1
	c0.2-0.4,0.3-0.8,0.5-1c3.7-4,3.7-4,7.4-0.2c3.7,3.7,4.8,3.7,8.5,0c1.2-1.2,2.4-2.5,3.7-3.7c0.8-0.6,1.2-2.5,2.9-0.9
	c1.6,1.6-0.2,2-0.8,2.8c-0.6,1-2.3,1.5-1.6,3c0.5,1.2,1.7,0.9,2.7,0.9c0,0,0.1,0,0.1,0c0,0,0,0,0,0c0,0,0.1,0,0.1,0
	c-0.4-1.8,1.3-2.3,2.3-3.1c0.6-0.5,1.4,0.4,1.7,1C271.1,415,270.3,415.3,269.8,415.4z M250.1,408.1c2.3-2.3,4.5-4.6,6.9-6.8
	c0.5-0.4,5.7,4.4,5.7,5.6c-0.2,0.3-0.6,0.7-1,1.2c-0.9,0.9-1.8,1.8-2.6,2.6c-3.6,3.6-6.1,3.2-8.7-1.3
	C250.1,409,249.7,408.5,250.1,408.1z M295.7,377.4c-1.1,14.3-7.3,26-19.2,34.3c-1.3,0.9-2.5,2-4.1,0.1c-1.8-2.1,0.6-2.5,1.3-3.4
	c1.3-1.6,2.9-3.1,4.5-4.5c0.8-0.8,1.3-2.8,3.1-1.1c0.4,0.4,1.2,0,1.5-0.7c0.3-0.6,0.1-1.2-0.4-1.7c-1.1-1.2-2.2-2.4-3.2-3.6
	c-0.4-0.3-0.9-0.5-1.2-0.9c-1.7-2.3-6.3-4.4-5.3-6.3c2-3.8,5.7-6.9,9.2-9.5c1.5-1.1,2.8,2.1,4.3,3.2c1.2,0.9,0.3,1.7-0.4,2.4
	c-2.3,2.3-4.6,4.6-6.8,6.9c-0.6,0.6-1.4,1.2-0.9,2.2c0.6,1.2,1.6,0.7,2.6,0.5c3.5-3.6,7-7.1,10.4-10.7c0.6-0.7,1.7-1.3,1.1-2.5
	c-0.6-1.3-1.5-0.4-2.5-0.5c-2.1,0-3.1-2.2-4.4-3.5c-1.5-1.5,0.6-2,1.2-2.9c0.4-0.8,1.1-1.4,0.2-2.3c-0.8-0.8-1.5-0.3-2.3,0.2
	c-0.9,0.6-1.5,2.9-3.1,0.9c-1.2-1.4-3.9-2.5-3.3-4.3c0.6-1.8,2.5-3.4,4.5-4.3c0.3-0.1,1.1,0.8,1.6,1.3c2.2,2.2,4.4,4.4,6.6,6.6
	c0.6,0.6,1.3,1.3,2.2,0.5c1-0.9,0.5-1.8-0.3-2.6c-2.2-2.2-4.3-4.5-6.6-6.6c-1.5-1.4-1.3-2.2,0.1-3.5c1.9-1.8,3.5-3.8,5.7-6.2
	C295.4,362.7,296.2,370,295.7,377.4z M289.4,349.8c1.1,1.8,2.4,3.3-0.6,4.8c-1.4,0.7-2.3,2.2-3.5,3.4c-1.6,1.6-3,4-5.3,0.7
	c-0.4-0.6-1.4-0.7-2,0c-0.7,0.8-0.5,1.7,0.3,2.3c2.7,1.9,1,3.1-0.5,4.6c-4.1,4.1-4.2,5.3,0,9.2c2.2,2,2.2,3.3-0.1,5.1
	c-1.9,1.6-3.6,3.5-5.3,5.3c-1.3,1.3-2.4,3.5-4.5,0.9c-0.6-0.7-1.9-0.1-1.8,0.4c0.4,2.1,1.2,4.2,1.8,6.3c3.7-1.3,4.6,2.5,6.7,3.9
	c1.4,1,2.7,2.3,4.5,3.8c-4.1,1.5-5.7,4.4-8.1,6.5c-0.8,0.7-1.4,1.9-2.7,0.6c-1.3-1.4,0.1-2,0.8-2.7c1.2-1.3,2.5-2.5,3.7-3.8
	c0.7-0.7,0.8-1.5,0-2.3c-0.8-0.7-1.4-0.2-2,0.3c-0.2,0.1-0.4,0.3-0.5,0.5c-1.5,1.5-3,3-4.6,4.5c-0.1,0.1-0.5,0.1-0.6,0
	c-1.8-1.8-3.5-3.6-5.6-5.8c1.7-1.5,3.5-3,5.2-4.7c0.7-0.6,1.7-1.5,0.7-2.5c-1-1.1-2-0.4-2.9,0.5c-4.2,4.2-8.6,8.4-12.7,12.8
	c-1.6,1.7-2.8,2.1-4.3,0c-0.5-0.7-1.2-1.2-1.9-1.8c-0.7-0.7-1.5-1.1-2.3-0.3c-0.8,0.8-0.4,1.6,0.3,2.3c0.2,0.2,0.3,0.4,0.5,0.6
	c1,1.2,3.2,2.9,2.9,3.4c-1,1.8-2.8,3.2-4.2,4.7c-1,1.1-1.8,0.3-2.6-0.2c-2.2-1.4-4.6-2.7-6.5-4.4c-12.4-11.3-21-25-24.9-41.3
	c-1.8-7.6,1.3-14.3,5.9-20.2C237.3,316.2,275.1,327.2,289.4,349.8z M246.7,224.7c-6.1-1.1-12.6-0.4-18.9-0.5c-1.6,0-3.2,0.1-4.8,0.1
	c-3.1,0.5-6.3,1.1-9.5,1.6c0.3-1.5,1.5-2,2.2-2.9c1.3-1.8,2.7-2.5,4.2-0.2c0.7,1.1,1.8,1.2,3,0.7c0-0.6,0.1-1.6-0.2-1.8
	c-4.3-2.9-1-4.7,0.9-6.6c2.6-2.7,5.3-5.4,8-8.1c0-0.1,0-0.1,0-0.2l0,0c0.1,0,0.1,0,0.2,0c1-0.9,2-1.8,2.9-2.7
	c0.7-0.7,1.6-1.6,0.8-2.5c-1-1.2-2-0.4-2.8,0.5c-4.1,4.1-8.3,8-12.1,12.2c-2,2.1-3.4,2.4-5.1,0c-0.6-0.8-1.3-1.5-2.1-2.1
	c-1.4-1.2-2.4-2.3-0.3-3.8c0.6-0.5,1.3-1.3,0.5-2.2c-0.9-1-1.7-0.4-2.6,0.2c-3.1,2.2-5.2,5.4-7.9,8c-1.5,1.5-2.5,2.2-4,0.1
	c-0.7-0.9-1.8-2.2-3-0.8c-1.1,1.2,0.2,2.1,1,2.8c3.5,3-0.6,3.7-1.5,5.3c-1.4,2.3-2.6,1.1-3.9-0.2c-4.1-4.2-4.1-4.1,0-8.3
	c0.5-0.5,1.1-1.1,1.6-1.6c0.8-0.8,1.3-1.7,0.4-2.6c-1-1-1.7,0-2.5,0.6c-2.5,1.8-3.5,5.5-7.5,5.3c-0.2,0-0.8,0.9-0.7,1.1
	c0.8,1.9-0.9,2.6-1.8,3.6c-4.6,4.7-4.6,4.6-9.2,0.3c-0.8-0.8-1.7-2.4-3-1.1c-1.3,1.2,0,2.2,0.9,3.1c0.9,0.9,1.8,1.7,2.6,2.7
	c0.6,0.7,2,1.2,1.3,2.4c-0.7,1-1.8,0.3-2.7-0.1c-6.5-2.5-11.7-6.7-15.8-12.2c-6.1-8.3-9.1-17.8-9.6-27.9c-1.1-23.8,0-47.4,7.2-70.4
	c6.4-20.5,20.8-31.1,41.8-33.7c11.2-1.4,22.4-1.1,33.7-0.7c26.5,1,52.9,2,79.4,3c3.9,0.1,7.7,0.9,11.4,1.9
	c14.4,3.7,21.4,14,24.8,27.6c0.3,1.1,0.4,2.2,0.7,3.3c2,6.8,1.7,12.9-5,17.2c-2.7,1.7-2.1,3.7,0.2,5.3c2.6,1.8,2.6,3.3,0.1,5.3
	c-2.2,1.8-4.1,4-6.1,6c-0.9,1-1.8,2.6,0,2.8c2.7,0.3,3.5,2.5,5.3,3.7c2.2,1.6,3.4,4.6,6.5,5.2c1.1,0.2,0.6,1.2,0.5,1.8
	c-0.4,4-0.9,7.9-1.2,11.9c-0.1,0.9-0.3,1.8-1.1,2.2c-1.1,0.6-1.4-0.7-2-1.2c-0.9-0.7-1.6-1.6-2.4-2.4c-1.8-1.9-4.7-3.6-5.1-5.7
	c-0.3-1.9,3-3.5,4.6-5.3c0.8-0.9,1.7-1.8,0.5-2.8c-1.1-1-1.8,0.1-2.5,0.8c-1.3,1.2-2.3,3.2-3.8,3.5c-3.2,0.7-4.1,2.7-5.5,5.3
	c-1.5,3-4.8,5-7.2,7.6c-1.2,1.3-2.2,1.9-3.5,0.1c-0.7-0.9-1.7-1.2-2.5-0.2c-0.6,0.8-0.1,1.6,0.6,2.3c2.6,2.6,5.2,5.3,7.9,7.9
	c1.3,1.2,1.4,2.1,0,3.2c-1.1,0.9-2,1.9-2.9,2.9c-5.1,5.1-5.7,5.5-9.5-0.7c-1.5-2.3-2.3-3.9-5-4.8c-1.7-0.6-2.7-2.8-4.3-4
	c-1.9-1.5-3.9-5.8-5.7-3.9c-2.1,2.3,2.4,3.9,3.9,6c1.1,1.5,2.5,2.8,3.9,4c1.5,1.2,1.3,2.1-0.1,3.2c-1.3,1.1-2.5,2.4-3.7,3.7
	c-3.3,3.3-5.9,2.9-8.2-1.4c-0.3-0.5-0.5-0.9-0.2-1.4c1.5-2.6,0.7-3.3-2-2.3c-2,0.8-2.3-1.3-3.4-2.1c-1-0.6-1.8-2.1-3.1-0.7
	c-1.1,1.3,0.2,2.2,1,2.7c2.8,2,2.5,3.8-0.1,5.7c-0.9,0.7-1.6,1.6-2.4,2.4c-4.8,4.8-4.8,4.8-9.6,0.1c-1.7-1.6-2.1-2.8,0-4.3
	c0.9-0.7,1.8-1.7,0.6-2.8c-1.2-1.2-2,0.2-2.8,0.9c-4.1,4-8.3,8-12.2,12.2c-1.8,1.9-2.7,0.9-3.7-0.5c-0.9-1.1-3.4-2-0.8-3.9
	c0.4-0.3,0.7-0.7,1.1-1.1c0.6-0.7,1.6-1.5,0.6-2.5c-1.2-1.2-2-0.2-2.8,0.6c-3.1,3.1-6.4,6-9.2,9.3c-2.1,2.5-3.5,2.3-5.3-0.1
	c-1.1-1.6-2.6-2.8-4.6-3.1c0,0,0,0-0.1,0.1l0,0c0,0,0,0,0,0c0,0-0.1,0.1-0.1,0.1c-0.1,2.4,1.4,3.9,3.1,5.3c1.9,1.5,2.3,2.7,0.3,4.6
	c-1.3,1.2-4.7,2.6-2.5,4.7c1.7,1.6,3.3-1.5,4.4-2.8c1.8-2.1,2.9-1.6,4.5,0.2c4.1,4.3,4.1,4.2,8.2,0.2c0.1-0.1,0.2-0.2,0.3-0.3
	c5.5-5.5,5.5-5.5,10.5,0.4c0.5,0.6,1.3,1.1,0.9,2.2c-0.7,1.9,0,2.3,1.9,2c2.9-0.4,3.5,3,5.6,4c2.7-0.7,2-2.4,0.5-3.4
	c-3.7-2.6-2.7-4.7,0.3-7c1.2-0.9,2.3-2,3.2-3.2c2.1-2.9,3.5-2.6,6.2-0.2c3,2.8,1.4,3.9-0.5,6c-1.4,1.5-5,3.1-3.2,4.9
	c2.1,2.2,3.7-1.5,4.9-2.9c2.6-3,4.2-2.8,6.8,0.1c4.5,5,5.6,4.8,10.4,0.1c0.8-0.8,1.6-1.6,2.4-2.4c1.4-1.4,2.7-3.5,4.4-3.8
	c1.6-0.3,2.7,2.2,4.1,3.4c0.8,0.7,1.6,1.4,2.6,0.5c0.9-0.9,0.1-1.8-0.5-2.6c-1.1-1.5-3.8-2.4-3.3-4.4c0.4-1.6,2.5-2.7,3.7-4
	c1.3-1.5,2.6-3,4.2-4.8c3.4,3.5,6.1,6.8,9.3,9.5c2.9,2.4,1.9,3.7-0.4,5.5c-6.6,5-14,8-22.1,9.4c-10.9,2-21.8,1.6-32.8-0.1
	C261.3,227.1,254,226,246.7,224.7z M288.1,214c0.8-1.1,1.9-2,2.9-2.9c4.8-4.8,6-4.7,10.1,1c0.5,0.7,0.8,1.2,0.1,1.9
	c-2.7,2.7-5.5,5.5-8.2,8.2c-0.2,0.2-0.6,0.4-1,0.8c-1.9-1.9-4.1-3.7-5.7-5.8C285.1,215.6,287.4,215,288.1,214z M285.2,212.9
	c-1.4,1.4-2.2,1.3-3.5-0.1c-3.9-3.9-4-3.8-0.1-7.7c0.4-0.4,0.7-0.7,1.1-1.1c5.5-5.5,5.5-5.5,10.9,0.8
	C290.7,207.5,287.8,210.1,285.2,212.9z M298.2,204.9c-0.9-1.4,1.4-2.2,2.3-3.3c0.8-1,1.9-1.7,2.6-2.7c2.1-2.9,3.9-3.1,6.4-0.1
	c3.1,3.7,3.3,3.4-0.1,6.9c-1.6,1.6-3.2,3.2-4.8,4.7c-0.1,0.1-0.4,0.1-1.1,0.4C301.8,208.9,299.6,207.1,298.2,204.9z M273.4,209
	c-0.4,0.5-0.8,0.9-1.2,1.4c-1,1.1-2.1,2.1-3.2,3.2c-5.4,5.4-5.4,5.4-10.5-0.2c-1-1.1-1.3-1.9-0.1-3c1.3-1.1,2.4-2.5,3.7-3.7
	c1.6-1.5,3.3-4.6,4.7-4.1c2.3,0.8,4,3.5,5.9,5.4C273,208.2,273.2,208.6,273.4,209z M253.3,211.3c-2.9,2.9-4.9,5.4-7.4,7.1
	c-1.3,0.9-2.2-1.5-3.3-2.3c-1.4-0.9-1.2-1.9,0-3c1.4-1.2,2.6-2.7,4-3.9c0.7-0.6,1.1-2,2.4-1.2C250.5,208.9,251.8,210.1,253.3,211.3z
	 M358.6,414c2.9-4,2.9-4.1,6.3-0.7c1,1,2,2.1,3,3.1C364.2,416.5,361.3,415.6,358.6,414z M414.3,376.2c-1.1,20.6-14.2,37.1-32.5,41.3
	c-5.5,1.3-9.5,0.5-13.3-4.4c-4.1-5.3-4.6-4.9,0.1-9.6c0.1-0.1,0.2-0.2,0.3-0.3c3.6-3.6,6-3.2,8.8,1.4c0.7,1.2-0.1,1.5-0.6,2.1
	c-1.6,1.6-3.2,3.2-4.7,4.8c-0.6,0.7-1.2,1.4-0.4,2.3c0.8,0.8,1.6,0.5,2.3-0.1c1.4-1.4,2.8-2.9,4.3-4.2c0.7-0.6,1.3-2.4,2.6-1.1
	c1.2,1.1,3.3,2,3,3.9c-0.1,1.1-1.6,2.6,0.2,2.9c1.2,0.3,3.4-0.6,4.1-1.7c4.7-7.3,11.9-12.3,17.6-18.7c0.6-0.7,1.3-1.2,1.8-1.9
	c0.6-0.8,0.7-1.7-0.1-2.3c-0.7-0.6-1.4-0.2-2,0.3c-1.8,1.7-3.7,3.4-5.3,5.3c-1.5,1.7-2.5,1.8-4.1,0.1c-4-4.3-8.2-8.3-12.4-12.5
	c-0.8-0.8-1.7-2.3-3.1-1.1c-1.4,1.3,0.2,2.1,0.9,3.1c1,0.5,1.7,1.3,2.2,2.2c5.9,5.8,5.9,5.8,0.1,11.6c-0.6,0.6-1.3,1.2-1.8,1.9
	c-1.3,1.6-2.4,1.9-3.8,0.1c-0.7-0.9-1.5-1.7-2.4-2.4c-1.4-1.1-1.3-2,0-3.3c2.4-2.6,5.7-4.5,7.1-8c-0.7-0.3-1.4-0.5-2.2-0.8
	c-1.4,1.4-3,2.7-4.3,4.1c-2.5,2.8-4.8,5.7-7.9,0.7c-0.4-0.7-1.3-1.2-2.2-0.3c-1,1-0.3,1.8,0.4,2.5c0.7,0.7,1.4,1.5,2.1,2.1
	c1.2,1,1,1.8-0.1,2.7c-0.4,0.3-0.7,0.7-1.1,1.1c-2,1.9-3.7,5-5.9,5.5c-2.4,0.5-3.9-3.3-6-4.9c-0.8-0.6-1.6-2-2.8-0.6
	c-1.2,1.3,0.2,2,0.9,2.8c0.9,1,2.1,1.8,2.9,3c0.8,1.1,3.8,1.6,1.4,4c-1.7,1.8-3,3.2-5.7,1c-14.5-11.7-23.8-26.7-27.6-45
	c-1.1-5.1,0.9-9.8,3.3-14.3c10.2-18.1,32.4-27.1,52.5-21.3C402.5,336.3,415.5,354.4,414.3,376.2z M384.3,403.5c2.2-1.8,4.1-4,6.1-6
	c0.5-0.5,1.1-1,1.9-1.7c1.3,1.4,2.6,2.6,3.6,4c0.8,1.2-0.8,1.6-1.3,2.2c-1.9,2-4,3.8-5.7,5.9c-1.6,2-2.6,1.4-4-0.2
	C383.6,406.4,381.8,405.4,384.3,403.5z M280.4,395.6c0.1-0.1,0.2-0.2,0.3-0.3C280.6,395.4,280.5,395.5,280.4,395.6z M173.3,361.7
	c-0.4-0.3-0.9-0.5-1.3-0.8c0-0.8,0-1.5,0-2.3c0-0.3,0-0.5,0.1-0.8C172.9,359,173.1,360.4,173.3,361.7z M170,146.8
	c-0.4,4.1-0.4,8.3,0,12.5c0.2,1.3,1.3,3.4-1,3.7c-2.3,0.3-1.5-2.1-1.8-3.4c-0.8-3.7-0.9-7.5-0.3-11.2c0.6-3.2-0.2-5-2.9-6.8
	c-1.3-0.8-4.5-1.7-3-3.8c1.5-2.1,3,0.9,4.6,1.5c0.8,0.3,1.4,0.9,2.3,1.5c1.5-5.1,3.1-9.9,5.5-14.5c1.6-3.1-2.1-3.3-3-5.1
	c-0.7-1.3-4.5-0.9-2.5-3.3c1.4-1.8,3.6,0.1,4.7,1.4c2.5,3.1,4,2.3,5.8-0.7c1.9-3.1,4.5-5.7,7.3-8c1.8-1.4,2-2.6,0.5-4.2
	c-0.2-0.2-0.3-0.4-0.4-0.6c-0.4-1.4-2.9-2.9-1-4.1c2.3-1.5,2.8,1.4,3.5,2.7c1.3,2.4,2.4,2.4,4.5,0.8c3.1-2.3,6.6-4,10.3-5.1
	c2.3-0.7,2.4-1.6,1.1-3.2c-0.3-0.4-0.5-0.8-0.7-1.3c-0.5-1.1-1.7-2.3,0-3.2c1.4-0.7,2,0.6,2.4,1.6c1.4,3.9,3.9,4.9,7.7,3.2
	c1-0.4,2.2-0.4,3.3-0.5c3.2-0.4,6.8-0.3,4.6-5.3c-0.4-0.8,0-1.9,1.1-2c1.3-0.2,1.9,0.7,1.8,1.8c-0.3,4.3,2.1,4.9,5.5,4.5
	c1.7-0.2,3.5,0.1,5.2,0.3c2.3,0.2,5.2,1.4,4.4-3c-0.1-0.8,0.6-1.4,1.4-1.4c1.1,0,1.5,0.8,1.4,1.8c-0.5,3.4,1.5,3.7,4.2,4
	c3.7,0.4,7.4,1.3,11,2.1c1.5,0.3,3,0.8,2.8-1.7c-0.1-1.2,0.3-2.5,1.8-2.2c1.6,0.2,1.3,1.7,1.1,2.7c-0.5,2.2,0.6,2.8,2.4,3.2
	c2.8,0.6,5.6,1.2,8.3,2.1c1.2,0.4,3.6,0,3,2.3c-0.6,2-2.3,0.7-3.5,0.4c-2.9-0.7-5.8-1.4-8.7-2.2c-1.5-0.4-2.3-0.2-2.3,1.7
	c-0.1,2.4-0.4,4.7-0.7,7.1c-0.1,1.1-0.1,2.5-1.6,2.4c-1.7,0-1.4-1.5-1.3-2.5c0.2-2.6,0.5-5.2,0.7-7.8c0.1-1,0.2-2.1-1.2-2.3
	c-5-0.8-9.9-2.4-15.2-2.5c0.3,3.2,1.3,6,2.5,8.7c0.4,1,0.7,2-0.5,2.5c-1.2,0.5-1.8-0.4-2.2-1.5c-0.7-2-1.9-4-2-6
	c-0.2-3.9-2.3-4.9-5.7-4.9c-3.1,0-6.1,0-9.5,0c1,2.5,0.5,5.8,4.4,6.2c0.7,0.1,1.1,0.6,1.1,1.3c0,0.9-0.6,1.3-1.4,1.4
	c-2.5,0.4-3.7-1.1-5.1-3c-1.3-1.8-0.1-5.3-3.3-5.5c-2.2-0.2-4.4,0.5-6.7,0.8c-1.4,0.2-2.7,0.6-4.3,0.9c0.7,2.1,2.3,3.5,3.6,5
	c0.7,0.8,1.4,1.6,0.3,2.6c-1.1,1-1.8,0.1-2.5-0.6c-0.7-0.7-1.5-1.4-2-2.2c-2-3.9-4.8-4-8.2-2c-2.6,1.5-5.2,2.9-7.9,4.2
	c-2.2,1.1-2.2,2.3-0.6,3.9c1,1,1.7,2.1,2.6,3.2c0.5,0.7,1,1.5,0,2.2c-0.9,0.6-1.7,0.2-2.3-0.5c-1.4-1.7-2.8-3.5-4.2-5.3
	c-4.4,3.2-7.6,7.3-10.6,11.5c-1.5,2,0.6,2.5,1.3,3.5c0.6,0.8,2,1.5,0.8,2.8c-1.2,1.3-2.1,0.1-2.7-0.7c-1.6-1.9-2.4-0.9-3,0.8
	c-1.1,2.9-2.2,5.8-3.3,8.7c-1.2,3-1.6,5.7,2.2,7.3c1.1,0.4,2.5,1.4,1.4,2.9c-0.9,1.3-2,0.1-2.9-0.4
	C171.9,147.4,171.4,146.5,170,146.8z M407.7,380.5c3.8-3.9,4-4,0.1-8c-1.6-1.6-1.7-2.5,0-4.1c1-0.9,3.5-1.9,1.7-3.7
	c-1.6-1.5-2.4,0.9-3.5,1.6c-0.2,0.1-0.4,0.3-0.5,0.5c-1.3,2-2.3,1-3.4-0.2c-1-1.1-2.4-1.9-0.5-3.5c2-1.7,3.8-3.6,5.6-5.5
	c0.6-0.7,1-1.6,0.2-2.3c-0.8-0.8-1.6-0.4-2.3,0.3c-1.7,1.7-3.3,3.4-5,5c-0.6,0.6-1.4,1.7-1.9,1.6c-1.7-0.3-3.2-0.7-2.6,1.8
	c0.4,1.7-2.5,2.3-1.5,3.9c1.6,2.4,2.5-0.2,3.7-0.7c0.1-0.1,0.2-0.1,0.6-0.3c0.9,1,2.7,2,2.8,3.2c0.3,2.3-2.4,3.1-3.6,4.7
	c-0.9,1.3-1.6,0.4-2.3-0.3c-0.8-0.8-1.7-1.8-2.8-0.7c-1.3,1.2,0,2.1,0.8,2.7c1.4,1.2,0.8,2-0.3,3c-0.7,0.7-1.4,1.4-2.1,2.1
	c-0.7,0.7-1,1.5-0.1,2.3c0.6,0.6,1.4,0.4,2-0.2c0.6-0.5,1-1.1,1.6-1.5c1.1-0.9,1.9-3,3.7-0.8c1.2,1.4,3.1,2.5,0.5,4.3
	c-0.9,0.6-1.3,1.6-0.3,2.5c0.9,0.8,1.7,0.2,2.2-0.5c1.3-1.6,2.4-1.9,3.8-0.2c0.5,0.6,1.3,0.7,2,0.2c0.6-0.5,0.7-1.3,0.3-1.6
	C403.2,383.5,406.1,382.1,407.7,380.5z M402.7,381.5c-1.7-1-3.9-2.5-3.6-3.6c0.6-2.1,2.6-4.1,4.7-4.8c1.3-0.4,3.7,2.6,3.4,3.1
	C406.1,378.2,404.2,379.8,402.7,381.5z"/>
</svg>
