<?xml version="1.0" standalone="no"?>
<!DOCTYPE svg PUBLIC "-//W3C//DTD SVG 20010904//EN"
 "http://www.w3.org/TR/2001/REC-SVG-20010904/DTD/svg10.dtd">
<svg version="1.0" xmlns="http://www.w3.org/2000/svg"
 width="600.000000pt" height="600.000000pt" viewBox="0 0 600.000000 600.000000"
 preserveAspectRatio="xMidYMid meet">
<metadata>
Created by potrace 1.16, written by Peter Selinger 2001-2019
</metadata>
<g transform="translate(0.000000,600.000000) scale(0.100000,-0.100000)"
fill="#000000" stroke="none">
<path d="M2535 4687 c-6 -7 -19 -43 -29 -82 -29 -108 -31 -282 -6 -545 11
-124 20 -251 20 -282 -1 -36 3 -58 10 -58 7 0 10 -32 8 -97 l-3 -98 -605 0
c-333 -1 -614 -4 -625 -8 -24 -8 -65 -129 -65 -189 0 -21 -4 -38 -8 -38 -12 0
-12 -164 0 -171 5 -4 3 -13 -6 -22 -12 -12 -16 -38 -16 -116 0 -66 4 -101 11
-101 7 0 8 -14 4 -40 -4 -25 -3 -40 4 -40 5 0 13 -17 17 -37 18 -94 72 -162
149 -188 49 -17 279 -22 397 -9 31 4 213 3 403 -1 l345 -7 0 -64 c0 -41 -4
-64 -11 -64 -9 0 -10 -30 -5 -110 7 -107 6 -110 -13 -110 -19 0 -21 -6 -21
-77 0 -120 21 -407 30 -417 5 -5 6 -22 3 -37 -3 -16 -1 -29 4 -29 5 0 15 -37
22 -82 19 -122 39 -173 82 -208 21 -16 45 -30 53 -30 9 0 16 -5 16 -11 0 -6 7
-9 15 -5 8 3 15 1 15 -4 0 -7 102 -9 283 -8 303 3 282 0 345 58 66 61 89 188
77 440 -4 91 -8 301 -8 467 l-2 302 355 -5 c195 -2 436 -9 535 -15 319 -17
413 12 440 139 3 17 11 32 16 32 6 0 7 9 4 20 -4 11 -2 20 4 20 7 0 11 46 11
135 0 92 -4 135 -11 135 -7 0 -9 10 -5 27 4 15 3 29 -4 33 -7 4 -15 71 -21
176 -9 175 -25 270 -47 297 -7 8 -34 23 -60 33 -63 23 -451 31 -715 15 -106
-7 -262 -14 -348 -16 l-156 -5 -11 53 c-6 28 -14 71 -17 95 -4 23 -11 42 -17
42 -6 0 -9 19 -6 45 2 25 0 46 -3 47 -9 4 -21 217 -21 374 0 144 10 244 24
244 17 0 0 139 -20 175 l-18 30 -395 2 c-300 2 -396 -1 -404 -10z m781 -109
c-3 -29 -9 -163 -12 -298 -5 -195 -3 -274 10 -390 19 -159 43 -292 56 -300 4
-3 10 -16 11 -30 l4 -25 235 3 c144 2 237 7 241 13 4 6 34 8 82 3 55 -5 77 -3
77 5 0 8 67 11 240 11 172 0 240 -3 240 -11 0 -8 14 -10 40 -6 22 3 40 2 40
-3 0 -4 12 -10 28 -13 34 -7 70 -38 65 -54 -3 -7 0 -13 6 -13 6 0 11 -16 11
-35 0 -19 -4 -35 -10 -35 -6 0 -10 -28 -10 -65 0 -37 4 -65 10 -65 6 0 10 -20
10 -45 0 -25 -5 -45 -10 -45 -6 0 -10 -6 -8 -12 5 -26 -42 -98 -68 -104 -34
-9 -314 17 -314 28 0 5 -20 6 -46 2 -33 -5 -48 -3 -54 6 -12 19 -448 20 -460
1 -5 -10 -19 -12 -44 -7 -20 4 -36 3 -36 -2 0 -5 -39 -12 -87 -16 -94 -8 -145
-26 -168 -60 -8 -11 -15 -17 -15 -13 0 5 -7 1 -16 -8 -15 -14 -16 -41 -10
-248 13 -502 4 -865 -25 -938 -9 -23 -19 -28 -82 -38 -148 -22 -384 -43 -434
-38 -67 7 -124 39 -147 82 -10 19 -25 36 -32 39 -8 3 -14 13 -14 23 0 10 -7
38 -16 62 -23 66 -28 244 -14 451 16 238 16 413 -1 469 -7 25 -28 59 -49 78
-35 35 -89 69 -102 65 -5 -1 -8 2 -8 7 0 5 -35 17 -77 27 -66 14 -110 16 -312
10 -130 -3 -279 -10 -331 -16 -131 -13 -305 -12 -352 2 -59 18 -71 43 -71 151
0 99 19 227 35 227 5 0 8 8 6 18 -3 16 34 17 634 20 l638 2 6 27 c9 35 -2 244
-27 538 -23 269 -23 539 1 588 l13 27 365 0 364 0 -6 -52z m568 -1540 c-10
-33 -42 -96 -51 -100 -5 -1 -23 -32 -42 -68 -18 -36 -41 -72 -50 -80 -10 -8
-32 -34 -50 -57 -17 -23 -47 -51 -66 -63 -19 -12 -37 -30 -40 -40 -6 -18 -16
-20 -86 -20 -43 0 -79 3 -79 6 0 4 35 41 78 83 42 43 95 104 117 137 22 32 45
64 52 69 7 6 27 37 45 70 39 68 63 85 131 85 46 0 48 -1 41 -22z m185 -15
c-12 -21 -29 -45 -39 -53 -9 -8 -34 -47 -55 -85 -21 -39 -44 -73 -49 -77 -7
-5 -7 -8 -1 -8 6 0 5 -4 -2 -8 -12 -8 -63 -117 -63 -137 0 -23 43 -26 63 -5
10 11 14 20 10 20 -4 0 -3 4 2 8 6 4 28 44 50 90 21 45 42 82 47 82 4 0 15 15
24 33 9 17 36 57 60 89 24 31 44 63 44 71 0 12 14 13 73 9 75 -5 88 -8 71 -20
-5 -4 -16 -27 -23 -52 -26 -90 -81 -171 -207 -301 -42 -45 -54 -69 -34 -69 23
0 213 207 241 263 12 23 26 45 31 48 6 4 19 31 29 60 l18 54 68 -3 c121 -4
116 -1 111 -90 -6 -81 -36 -223 -50 -233 -5 -3 -14 -34 -20 -68 -11 -56 -14
-62 -32 -57 -12 3 -48 6 -81 7 -36 0 -53 3 -42 8 37 14 167 302 167 370 0 62
-41 71 -58 12 -7 -21 -12 -46 -12 -55 0 -9 -4 -16 -10 -16 -5 0 -7 -7 -4 -15
4 -8 2 -15 -3 -15 -5 0 -24 -38 -42 -85 -18 -47 -37 -85 -42 -85 -6 0 -7 -4
-4 -10 3 -5 2 -10 -3 -10 -11 0 -32 -45 -32 -70 0 -19 -8 -20 -172 -20 -95 0
-230 3 -300 7 l-127 6 59 63 c32 35 71 84 85 109 15 25 30 45 35 45 4 0 25 38
46 85 21 47 42 85 46 85 4 0 8 14 8 30 l0 30 71 0 71 0 -23 -37z m-405 -7 c-3
-9 -10 -16 -16 -16 -5 0 -6 -4 -3 -10 3 -5 2 -10 -4 -10 -5 0 -26 -27 -46 -60
-20 -33 -40 -60 -45 -60 -5 0 -15 -11 -22 -24 -7 -13 -34 -47 -60 -76 l-48
-52 0 50 c0 46 2 51 40 77 23 16 53 51 71 84 17 31 34 58 38 61 3 3 11 14 17
25 6 11 26 22 45 25 41 7 41 7 33 -14z m976 -66 c5 -19 10 -43 10 -52 0 -9 7
-24 16 -33 9 -9 13 -23 10 -32 -4 -9 -3 -19 3 -22 9 -6 16 -78 13 -138 -1 -19
-11 -41 -24 -53 l-23 -21 -5 87 c-4 67 -9 89 -22 98 -26 16 -33 0 -31 -75 1
-39 -2 -69 -7 -69 -6 0 -10 -13 -10 -30 0 -23 -4 -30 -20 -30 -12 0 -20 7 -20
18 0 27 54 246 62 252 8 6 9 20 10 119 1 49 2 52 15 36 7 -11 18 -35 23 -55z
m-2345 40 c11 -5 42 -12 68 -15 27 -4 50 -12 53 -19 4 -11 -61 -166 -75 -176
-15 -11 -61 -100 -61 -118 0 -11 7 -23 17 -26 23 -9 62 35 103 119 19 39 38
72 43 73 4 2 5 8 1 13 -3 5 -1 9 3 9 5 0 15 16 22 35 13 38 28 45 38 18 4 -10
14 -23 22 -29 13 -10 10 -17 -21 -52 -20 -22 -44 -52 -54 -67 -9 -14 -30 -40
-46 -57 -32 -35 -33 -62 -2 -66 14 -2 31 9 53 35 17 21 45 54 61 73 l30 35 -2
-75 -3 -75 -142 -3 c-93 -2 -143 1 -143 8 0 5 -23 10 -51 10 l-51 0 31 26 c17
14 31 31 31 38 0 7 12 26 26 41 35 38 65 109 71 173 l6 54 -29 -4 c-23 -2 -30
-9 -32 -30 -2 -16 -8 -28 -13 -28 -5 0 -9 -9 -9 -20 0 -36 -39 -103 -95 -167
-30 -33 -55 -66 -55 -71 0 -12 -115 -21 -149 -12 l-24 6 29 19 c16 11 34 22
41 25 6 3 36 37 67 75 41 51 62 89 78 140 12 39 25 75 29 80 9 13 108 17 134
5z m-208 -8 c15 -9 0 -80 -20 -97 -7 -5 -19 -26 -28 -45 -43 -90 -179 -200
-249 -200 -22 0 -40 -4 -40 -10 0 -5 -10 -10 -21 -10 -22 0 -15 10 76 113 14
15 35 47 46 70 12 23 28 49 36 57 8 8 28 38 44 67 28 50 31 52 76 56 27 2 53
4 58 5 6 1 16 -2 22 -6z m-187 -6 c0 -3 -6 -11 -13 -18 -7 -7 -32 -47 -57 -88
-25 -41 -55 -86 -67 -100 -13 -14 -23 -30 -23 -36 0 -6 -23 -34 -52 -62 l-52
-52 -93 0 c-59 0 -93 4 -93 11 0 5 -8 9 -17 8 -10 -2 -29 3 -43 10 -27 15 -74
61 -62 61 4 0 1 4 -6 9 -12 7 -12 10 0 19 7 6 33 28 58 49 25 21 63 52 85 68
22 16 58 46 80 66 35 31 49 37 105 42 55 6 62 5 48 -7 -10 -7 -18 -17 -18 -21
0 -4 -16 -34 -36 -67 -41 -67 -120 -150 -164 -173 -35 -18 -39 -35 -10 -35 67
0 210 132 270 249 17 35 19 45 9 52 -8 5 11 9 46 12 33 2 70 4 83 5 12 1 22 0
22 -2z m1300 -1281 c0 -8 -5 -15 -11 -15 -7 0 -8 -11 -4 -30 4 -19 3 -30 -4
-30 -6 0 -11 -9 -11 -20 0 -11 -16 -69 -35 -129 l-35 -109 -113 -7 c-61 -4
-137 -5 -168 -3 l-57 3 23 68 c13 38 30 76 38 85 8 10 28 49 45 87 27 61 34
70 59 73 15 2 35 6 43 9 29 13 61 10 55 -5 -3 -8 -8 -25 -11 -38 -3 -13 -11
-24 -16 -24 -6 0 -8 -6 -5 -14 3 -8 2 -16 -2 -18 -16 -6 -74 -199 -63 -210 17
-17 50 1 57 32 4 17 11 30 17 30 6 0 8 7 4 15 -3 8 -2 15 2 15 5 0 24 48 42
108 19 59 39 110 45 114 6 5 4 8 -5 9 -19 2 46 16 83 18 18 1 27 -4 27 -14z
m-458 -6 c2 -5 22 -13 46 -16 44 -6 50 -13 29 -35 -13 -14 -70 -136 -82 -175
-3 -13 -11 -23 -16 -23 -6 0 -7 -9 -4 -20 4 -11 2 -20 -4 -20 -6 0 -11 -8 -11
-17 -1 -14 -6 -12 -25 10 -33 37 -41 74 -25 111 27 68 59 162 60 179 0 18 26
24 32 6z"/>
</g>
</svg>
