<?xml version="1.0" encoding="utf-8"?>
<!-- Generator: Adobe Illustrator 24.2.0, SVG Export Plug-In . SVG Version: 6.00 Build 0)  -->
<svg version="1.1" id="Layer_2" xmlns="http://www.w3.org/2000/svg" xmlns:xlink="http://www.w3.org/1999/xlink" x="0px" y="0px"
	 viewBox="0 0 500 500" style="enable-background:new 0 0 500 500;" xml:space="preserve">
<path d="M434.5,218.7c0-3.9-1.5-5.4-5.2-6.1c-9.9-1.7-19.8-3.9-29.7-5.7c-2.2-0.4-3.1-1.3-3.6-3.3c-2.3-8.3-5.4-16.3-9.5-23.8
	c-1.3-2.4-1.4-4.3,0.1-6.7c5.8-9.4,10.4-19.5,14.6-29.7c1.1-2.8,0.6-4.5-1.5-6.5c-14-13.2-27.9-26.4-41.6-39.8
	c-2.5-2.4-4.4-2.3-7.1-0.4c-8.2,5.7-16.6,11.1-24.7,16.8c-2.2,1.5-3.8,1.4-5.9,0.2c-7.6-4.3-15.6-7.7-23.9-10.3
	c-2.4-0.8-3.6-2-4.2-4.5c-2.6-10.7-6.4-20.9-10.6-31c-1.1-2.7-2.7-3.7-5.7-3.6c-18.9,0.6-37.9,1-56.8,1.3c-3.8,0.1-5.5,1.3-6.2,5.1
	c-1.6,9.4-3.6,18.8-5.4,28.2c-0.4,2-1.1,3.1-3.3,3.8c-9.5,3-18.6,7-27.3,12c-2,1.1-3.4,1.1-5.4,0c-9.6-5.6-19.6-10.2-30-14.2
	c-2.9-1.1-4.7-0.6-6.8,1.6c-13,14.2-26,28.2-39.2,42.2c-2.3,2.4-2.2,4.3-0.3,6.8c5.4,7.5,10.5,15.1,15.9,22.6
	c1.2,1.7,1.2,2.8,0.1,4.5c-6.2,9.1-11.7,18.5-15.5,28.8c-0.6,1.7-1.8,2.1-3.3,2.5c-8.2,2.5-16.2,5.5-24.2,8.8
	c-2.6,1.1-3.8,2.6-3.7,5.6c0.5,19.1,1,38.1,1.2,57.2c0,4,1.7,5.4,5.3,6c7.7,1.3,15.4,3,23.1,4.4c2.2,0.4,3.1,1.4,3.7,3.4
	c3.4,10.8,7.8,21.2,13.6,31c1,1.8,1,3,0,4.7c-4.8,8.3-8.7,17-12.3,25.9c-1,2.6-0.7,4.3,1.4,6.2c14,13.3,28,26.6,41.9,40
	c2.4,2.3,4.2,2.3,6.8,0.5c7.4-5.1,14.9-10,22.2-15.1c2-1.4,3.5-1.5,5.7-0.4c8.8,4.6,18.1,8.2,27.7,10.8c2.3,0.6,3.2,1.7,3.7,3.9
	c2.6,10.1,6.2,19.9,10.3,29.5c1.1,2.6,2.6,3.5,5.4,3.4c19.1-0.5,38.1-1,57.2-1.3c4-0.1,5.4-1.6,6.1-5.3c1.7-9.6,3.7-19.1,5.4-28.6
	c0.4-2.3,1.3-3.6,3.7-4.3c9.2-2.9,17.9-6.7,26.2-11.5c1.8-1.1,3.2-1,5,0.1c10,5.9,20.5,10.7,31.3,14.8c2.4,0.9,4.1,0.6,5.9-1.4
	c13.2-14.4,26.6-28.7,39.9-43.1c0.8-0.8,1.6-1.6,1.6-3c0.2-1.4-0.9-2.4-1.7-3.5c-6-8.7-12-17.4-18.2-26c-1.4-1.9-1.4-3.4-0.4-5.4
	c3.4-6.5,6-13.4,8.1-20.4c0.7-2.5,2-3.6,4.4-4.1c11.5-2.7,22.6-6.7,33.5-11.3c2.5-1.1,3.5-2.6,3.4-5.4
	C435.2,256.9,434.7,237.8,434.5,218.7z M387.1,153.5c-1.2,0.6-1.5-0.4-2-0.9c-0.9-0.6-0.8-1.3,0-2.1c1.2-1.1,2.6-2.2,2.6-4.2
	C391,149.2,390.6,151.9,387.1,153.5z M395.1,142.1c-0.8,1.6-0.7,3.7-2.5,4.6c-0.4,0.2-6.3-6-6-6.3c1.2-1.3,2.6-2.5,3.8-3.7
	C391.6,136.8,395.5,141.2,395.1,142.1z M84.5,283.9c-1.6,0.1-3.4-0.8-3.3-2.2c0.1-1.4,2.3-1.5,3.5-2.5c1.3,0.4,2.5,1.3,2.4,2.4
	C87,282.8,85.9,283.9,84.5,283.9z M146.3,398.2c-0.6,0.3-6.1-4.7-5.8-5.3c0.9-1.9,2.5-3.3,4.3-4.3c0.6-0.3,5.3,5.3,5.4,6.8
	C149.5,396.7,147.8,397.3,146.3,398.2z M156.5,386.2c-1.1,2-2.9,3.3-4.8,5c-1.6-1.8-4.1-3.3-4.3-5.1c-0.2-1.9,2.6-3.4,4.3-4.7
	C152.2,381.1,156.8,385.6,156.5,386.2z M227.3,429.7c-0.4-0.4-0.3-0.6,0-1c1.5-2,2.3-0.8,3.5,1C229.2,429.7,228.3,429.7,227.3,429.7
	z M236.7,429.6c-1.4,0-5.5-3.3-5.4-4.4c0-0.6,4.6-5.1,5.1-5.1c0.6,0.1,5.7,5.4,5.4,5.8C240.4,427.6,239.3,429.7,236.7,429.6z
	 M243.2,429.3c-0.3-1.1,0.7-0.9,1.4-0.7c0.3,0.1,0.8,0,0.8,0.6C244.7,429.9,243.4,429.9,243.2,429.3z M252.3,429.3
	c-2.9,0.5-4.2-1.6-5.5-3.5c-0.3-0.4,4.7-5.4,5.3-5.4c0.5,0,5.7,5.1,5.8,5.7C258,427.4,254.7,429.3,252.3,429.3z M273.9,428.8
	c-2.5,0-5,0.1-7.5,0.2c-2.2,1.1-4.5,0.4-6.9,0.7c0.6-1.9,2.3-0.7,3.1-1.6c-0.1-4.3,3.9-5.6,6-8.3c0.7-0.9,1.2,0.2,1.7,0.6
	c2,1.8,3.7,5.2,6.1,5c2.2-0.2,4-3.2,6.1-5.1c0.1,0.3,0.3,0.5,0.3,0.7C281.7,428.7,281.7,428.7,273.9,428.8z M363.1,391.6
	c-1,0.8-1.5,2.6-3.2,2c-4.1-1.6-8.2-3.4-12.3-5.1c-0.9-0.4-1.2-0.8-0.5-1.6c1.9-1.9,3.8-3.9,5.8-5.8c0.2-0.2,0.6-0.4,0.8-0.6
	c1.5,0,5.1,5,4.7,6.4c-0.5,1.9,0.2,2.9,2,1.8c1.5-0.9,2,0.1,2.8,0.8C364.1,390.2,363.9,391,363.1,391.6z M366.3,387.9
	c-0.6,0.5-1.8-1.1-2.4-2c-0.3-0.5,4.7-5.7,5.2-5.4c0.8,0.4,1.5,1.2,2.4,2C369.7,384.5,368.2,386.5,366.3,387.9z M381.2,371.9
	c-0.3-2.5-6.4-2.2-2.8-6.3c1.3-1.5,2.2-3.3,4.8-0.8C387.6,368.9,382.4,369.6,381.2,371.9z M385,362.5c-0.2,0.2-1.9-0.9-1.5-1.7
	c1.1-1.9,2.7-3.6,4.7-4.6c0.6-0.3,1.3,0.8,1.8,1.7C388.3,359.6,386.7,361.1,385,362.5z M405.5,284.5c-1.5-0.9-3.5-2.3-4-4.4
	c-0.2-0.9,1.9-3.3,3.2-3c1.7,0.4,3.7,2,3.6,4.1C408.3,281.8,408.6,284.8,405.5,284.5z M412.3,277.6c-2.3,2-2.6-0.6-3.7-1.3
	c-1.9-1.2-1.5-2.3,0-3.7c1.2-1,3-2,2.3-4c-0.1-0.2-0.2-0.4-0.3-0.6c-1.1-0.2-1.9,0.4-2.6,1.1c-3.9,3.9-7.8,7.8-11.6,11.6
	c-0.7,0.7-1.7,1.5-0.9,2.5c0.7,1,1.6,0.5,2.6,0c2.4-1.2,2.5,1.5,4.5,2.4c-3.2,0.8-5.7,1.6-8.2,2.1c-2.5,0.5-3.8,1.6-4.6,4.2
	c-2.5,8.8-5.8,17.4-10.2,25.6c-1.2,2.2-0.9,3.8,0.5,5.8c6,8.5,12,17.1,17.9,25.8c0.7,1,2.8,2.1,0.9,3.7c-1.1,1-1.8,4-4.1,1.2
	c-4.8,2.6-5.9-2.5-8.5-4.2c-0.9-0.6-1.7-1.9-2.8-0.9c-1.2,1-0.1,2,0.7,2.8c1.1,1,2.6,2.2,0.5,3.3c-1.7,0.8-2,5.4-5.3,2.1
	c-0.6-0.6-1.4-1.1-2.2-0.2c-0.9,0.9-0.4,1.6,0.3,2.2c0.8,0.9,2.1,1.9,0.3,2.9c-1.4,0.7-1.5,3.9-4.2,2.2c-0.9-0.6-1.6-0.8-2.2,0.2
	c-0.5,0.9-0.1,1.6,0.6,2.3c1.7,1.7,3.2,3.5,5.1,5c2.3,1.8,2,3.3,0,5c-0.9,0.7-1.5,1.6-2.3,2.5c-0.6,0.6-1.2,1.4-2.1,0.4
	c-0.6-0.7-1.7-1.2-0.6-2.4c0.7-0.7,1.1-1.5,0.4-2.3c-0.7-0.9-1.6-0.6-2.2,0.1c-1,1.1-1.7,0.5-2.4-0.3c-1-1.1-2.1-2.1-3.2-3.1
	c-0.6-0.5-1.4-0.7-2-0.1c-0.6,0.6-0.5,1.4,0,2c0.6,0.7,1.1,1.4,1.8,1.9c2.5,1.8,2.3,3.1,0.2,5.4c-2.6,2.8-4.1,2.3-6.3-0.2
	c-1.4-1.7-2.8-2.8-0.3-4.6c0.9-0.6,1.9-1.6,0.6-2.7c-1.1-1-1.8,0-2.5,0.7c-1,0.9-1.8,2.4-3.7,1.2c-0.7-0.4-1.5,0.4-1.4,1.2
	c0.5,5.3-4.8,6.2-7,9.5c-0.7,1.1-1.8,0-2.6-0.5c-4.5-2.4-9-4.8-13.4-7.3c-1.8-1-3.4-1.1-5.2,0c-9.9,5.9-20.4,10.4-31.3,13.8
	c-2,0.6-3.1,1.7-3.5,3.8c-0.9,5-2,10-3.1,15.7c-2.9-2.9-5.5-5.5-8.1-8c-0.7-0.7-1.5-2.1-2.7-1c-1.5,1.3,0,2.1,0.8,3
	c1,1.1,2,2.2,3,3.3c7,5.9,7,6.8-0.2,12.5c-0.4,0.3-0.8,1.2-1.5,0.6c-1.5-1.3-3.3-2.6-4.1-4.3c-0.8-1.5,1.5-2.2,2.3-3.3
	c1-1.5,3.5-2.2,2.8-4.8c-3.2-0.7-4.1,2.3-5.8,3.8c-1.5,1.3-2.4,2-3.8,0.1c-0.7-0.9-1.8-1.7-2.8-0.6c-1,1.2,0.1,2.1,1,2.8
	c1.7,1.3,1.2,2.4-0.2,3.5c-0.4,0.3-0.7,0.7-1.1,1c-4.1,4.1-6,3.8-9.3-1.1c-0.9-1.4,0-1.8,0.7-2.4c2.1-2.1,4.2-4.2,6.3-6.4
	c0.7-0.7,1.6-1.6,0.7-2.6c-1-1.2-2-0.2-2.8,0.6c-2,2-4.1,4-6,6.1c-1.3,1.4-2.2,1.5-3.5,0c-0.8-0.9-1.7-2.8-3.2-1.2
	c-1.4,1.5,0.6,2.3,1.3,3.3c0.4,0.6,1,1.1,1.7,2c-0.9,0.7-2,1.3-2.6,2.2c-2.3,3.3-4.1,2.7-6.7,0c-2.2-2.3-2.4-3.7,0.2-5.4
	c0.2-0.1,0.4-0.3,0.5-0.5c0.8-1.1,3.1-2,1.5-3.6c-1.6-1.6-2.4,0.7-3.5,1.5c-1.5,1.1-2.3,3.7-5.1,2.4c-0.6-0.3-1.4,0.8-1,1.6
	c0.9,1.9-0.7,2.6-1.5,3.7c-2,2.8-3.9,3.4-6.1,0.2c-0.6-0.9-1.7-1.9-2.8-0.8c-1.4,1.4,0.1,2.3,0.9,3c2.7,2.1,3,3.9-0.6,5.7
	c-4.2-9.3-7.4-18.9-9.8-28.8c-0.8-3.2-2.2-4.8-5.4-5.6c-10.8-2.6-21-6.9-30.9-12c-1.2-0.6-2.7-2.1-3.7-1.3c-4.2,3.3-5.5-0.8-7.7-2.7
	c-1.2-1-2.3-2.3-3.5-3.4c-0.7-0.6-1.4-1.1-2.3-0.2c-0.9,0.9-0.4,1.6,0.3,2.2c2.4,2.4,4.7,4.8,7.1,7.2c-0.6,1.3-2,1.7-3,2.5
	c-0.7,0.5-1.6,1.6-2.6,0.7c-0.9-0.9,0.3-1.5,0.8-2.1c0.6-0.8,0.9-1.5,0-2.3c-0.9-0.8-1.7-0.2-2.2,0.4c-1.1,1.4-2.2,1-2.8-0.2
	c-0.8-1.6-4.3-1.8-2.5-4.7c0.5-0.8,0.9-1.5,0.1-2.3c-0.7-0.6-1.3,0-2,0.1c-4.2,0.2-3.8,4.6-6.3,6.4c-1.5,1.1-2.4,2.6-4,0.3
	c-0.5-0.8-1.5-1.1-2.3-0.4c-1.1,0.9-0.4,1.8,0.3,2.5c3.3,2.9-0.7,3.5-1.6,5c-1.4,2.2-2.4,0.4-3.4-0.6c-9.8-9.4-19.6-18.8-29.5-28.1
	c-1.5-1.4-1.8-2.5-1-4.5c3.5-8.5,7.5-16.8,12.1-24.7c1.3-2.2,1.4-4,0-6.2c-6.6-10.6-11.3-22.1-14.9-34c-0.8-2.6-1.8-4.5-4.9-4.8
	c-2.6-0.2-3.6-2.9-5.3-4.4c-1.1-1,0.4-1.7,1-2.3c0.6-0.8,1.5-1.5,0.4-2.5c-0.8-0.8-1.7-0.4-2.3,0.3c-1.5,2.1-2.7,1.5-4-0.2
	c-1.5-2.1-3.2-1.5-4.9-0.3c-2.8,2.1-5.2,2.5-7.4-0.8c-0.6-0.9-1.6-1.2-2.6-0.8c-0.8,1.8,0.6,2.7,1.6,3.8c0.5,0.5,1.4,1,0.9,1.8
	c-0.4,0.7-1.4,1-2.3,0.8c-0.8-0.2-1.7-0.3-1.7-1.6c0.1-2.1,0-4.2,0.1-6.3c-0.4-15.8-0.7-31.7-1.1-47.5c-0.1-2,0.7-2.8,2.4-3.5
	c7.6-3.2,15.3-6,23.2-8.1c2.5-0.7,3.9-2,4.8-4.5c3.8-10.7,9.5-20.5,16.1-29.8c2.4-3.3,2.2-5.7-0.2-8.9c-5.1-6.9-9.8-14.1-14.8-21.1
	c-1.2-1.6-1.5-2.6,0.1-4.4c12-12.7,23.8-25.5,35.6-38.4c1.3-1.4,2.3-1.6,4.2-0.9c9.9,3.8,19.4,8.3,28.5,13.7c2.8,1.7,5,1.8,7.9,0.1
	c9.6-5.6,19.7-10.2,30.3-13.2c2.7-0.8,3.8-2.3,4.3-4.9c1.7-9.3,3.6-18.6,5.3-27.9c0.4-2.3,1-3.5,3.9-3.6c17.1-0.2,34.1-0.6,51.2-1
	c2.2-0.1,3.2,0.5,4.1,2.6c4.2,10,7.6,20.2,10.2,30.8c0.6,2.4,1.8,3.6,4.1,4.3c10.2,3,19.8,7.2,29,12.5c2.2,1.3,4,1.2,6.2-0.3
	c8.4-5.8,16.9-11.4,25.4-17.2c1.1-0.8,2-1.6,3.5-0.2c10.9,10.5,22,21,33.2,31.7c-2.3,1-2.6,5.3-6.2,2.7c-0.3-0.2-1-0.1-1.3,0.5
	c-0.9,1.7,1.3,3,0.5,4.9c-0.3,0.7,0.9,1.1,2,0.8c2-0.6,2.1,1.7,3.9,2c-1.3,0.9-2.4,1.3-3,2.1c-1.5,1.9-2.9,2.5-4.5,0.1
	c-0.5-0.8-1.5-1.2-2.3-0.6c-1,0.8-0.6,1.8,0.3,2.6c4.2,4-1.2,4.7-2.5,6.6c-1.7,2.8-2.7-0.4-3.9-1.1c-1-0.6-1.7-2.3-3-0.9
	c-1.2,1.3,0.2,2.3,1.1,3.1c1.6,1.4,3,2.7,0.5,4.5c-0.6,0.5-0.5,1.4,0.2,1.9c0.5,0.4,1.3,0.5,1.7,0c2.1-3,3.4-0.6,4.8,0.7
	c0.4,0.4,0.9,0.9,1.3,1.3c0.9,0.8,1.9,2.2,3.1,0.9c1.3-1.4-0.4-2.1-1.1-3c-0.1-0.1-0.2-0.2-0.3-0.3c-1.1-1.3-3.6-2.4-3.1-3.8
	c0.7-1.9,2.8-3.3,4.4-4.9c0.9-0.9,1.5-0.2,2.2,0.4c0.7,0.7,0.9,1.3,0.2,2.2c-1,1.3-4.1,2.5-2.3,4.2c2,1.8,3-1.7,4.6-2.5
	c0.3-0.2,0.7-0.2,1.6-0.4c-1.6,4.4-3.6,8.2-6.1,11.6c-2.9,4.1-3.2,7.6-0.5,12.1c4.6,7.6,7.6,15.9,9.7,24.5c0.9,3.6,2.7,5.1,6.2,5.7
	c9.6,1.6,19.1,3.7,28.6,5.4c2.3,0.4,3.4,1.2,3.3,3.8c-0.2,5.8-0.1,11.7-0.1,17.7c-0.2,0-0.5,0-0.8-0.1c-1.1-0.5-1.8-2.7-3.3-1.2
	c-1.3,1.2,0.1,2.2,1,3.1c1.7,1.8-0.6,2.2-1.2,3.1c-0.7,1.1-2.6,1.9-1.1,3.3c1.3,1.2,2.2-0.4,3.1-1.2c0.7-0.6,1.4-1.3,2.4-2.1
	c0.9,3.1,0.9,6,0.5,8.7c-0.2,1.8-2.4,2.5-4.3,1.6c-0.9-0.4-1.7-1.3-2.6-0.2c-0.7,0.9-0.2,1.6,0.5,2.3c1.7,1.8-0.7,2.2-1.1,3.2
	c-0.5,1.2-3.3,1.7-1.1,3.7c0.5,1.9,1.9,3.6,1.6,5.7c-2-0.6-2.9,1.2-3.8,2.3c-1.9,2.3-3.3,2-4.6-0.4c-0.3,0-0.5-0.1-0.8-0.2
	c-0.6-0.1-1.1-0.1-1.6,0.5c-0.7,1,0,1.7,0.7,2.2C413.7,274.9,414.3,275.9,412.3,277.6z M429.8,257.6c-0.2,0.3-0.4,0.7-0.6,1.1
	c-0.3-0.3-0.9-0.6-1-0.9c0-0.4,0.4-1,0.7-1.1C429.8,256.3,429.5,257.2,429.8,257.6z M413.6,281.2c-0.8-0.9,0.9-1.7,1.6-2.4
	c2-2,2.1,1,3.3,1.4C416.8,280.8,415.3,283,413.6,281.2z M426.3,277.6c-3.2,1.2-6.1,2.8-7.6-2.3c0.6-2,4.6-2.5,3.9-5.9
	c1.8-0.9,2.5,1.8,4.3,1.3c-0.9-3-4.9-3.8-5-7.3c0.6-0.4,1.1-0.9,1.7-1.3c0.9-0.6,1.5-2.7,2.7-1.8c1.4,1,3.5,2,3.3,4.5
	c-0.2,2.5-0.2,5,0.1,7.4C430.2,275.2,429.1,276.6,426.3,277.6z M321.7,159.3c-33.3-26.3-70.5-34.1-111.2-19.9
	c-23.8,8.3-42.2,24-57.8,43.4c-9.4,11.8-18.2,24.1-22.4,38.9c-5.3,18.4-3.7,36.7,0.8,55c13.2,54.6,63.6,92.9,119.2,90.6
	c8.2-0.4,16.4-1.3,24.4-3.3c51.5-13,86.8-55.5,89.7-108.7C366.5,216.1,352.5,183.6,321.7,159.3z M235.6,139.4c-4,5.1-4,5.1-6.9,0.8
	C231,140,233.1,139.1,235.6,139.4z M223.8,141.5c0.2,0.2,0.3,0.4,0.2,0.5c-0.1,0.2-0.1,0.3-0.2,0.3c-1.1,1-2.2,2-3.2,3
	c-3.5,3.5-3.5,3.5-7.1-0.5C216.8,143,220.3,142.3,223.8,141.5z M173.9,169.1c1-2,3.3-3.3,5.1-4.8c0.8-0.6,1.3,0.4,1.7,0.9
	c1.5,1.4,3,3,4.5,4.5c4.2,4.2,4.1,4.1-0.2,8.3c-1.1,1.1-1.8,1.7-3.3,0.2c-1.4-1.4-1.3-2.3,0.1-3.5c0.8-0.7,1.8-1.4,2.1-2.8
	c-0.2-0.3-0.4-0.8-0.8-1c-1.2-0.7-1.7,0.4-2.6,0.9c-1.2,0.8-1.9,3.7-3.9,1.1C175.7,171.7,173,170.8,173.9,169.1z M164.8,177.7
	c1.5-1.3,2.7-2.9,4.2-4.2c0.7-0.6,1.2-2.3,2.4-1.5c1.7,1.1,3.1,2.7,4.7,4.2c-1,1.1-1.7,1.8-2.3,2.5c-1,1-2.1,1.8-2.8,2.9
	c-2.2,3.2-3.9,2.5-6.1-0.1C163.5,179.9,163.2,179.1,164.8,177.7z M138.8,215.3c0.3-0.7,0.6-2.5,1.8-0.9c0.9,1.2,3.7,2,2.3,3.8
	c-1.9,2.5-4.2,4.8-7.6,6C136.5,221.2,137.6,218.2,138.8,215.3z M132.9,241.1c0.4-3.4,0.2-6.9,1.7-11.5c1.2,1.7,1.8,2.9,2.7,3.9
	c4.9,5,4.9,5-0.3,9.6c-0.9,0.8-1.5,1.3-2.8,0.5C133.1,243,132.8,242.4,132.9,241.1z M132.8,246.9c0.3-0.3,0.6-0.5,1-0.8
	c2.5,2.7,4.9,5.5,7.4,8.2c1,1.1,0.5,1.7-0.3,2.4c-2,2-4,4.1-6.5,6.7C133.2,257.4,132.9,252.1,132.8,246.9z M135.1,269.4
	c6.5,4.5,6.6,5,2.2,8.1C136.6,274.9,135.9,272.4,135.1,269.4z M268.5,359.3c-56.1,11.2-111.4-21.1-129.2-75.3
	c-0.8-2.5,0.8-6,3.1-6.9c1-0.4,1.3,0.3,1.8,0.8c1.3,1.3,2.6,2.6,4,4c0.8,0.8,1.7,1.9,2.8,0.9c1.2-1,0.1-2-0.7-2.8
	c-1.2-1.2-2.4-2.6-3.7-3.7c-1.5-1.3-1.4-2.2,0-3.5c0.9-0.9,3.1-1.8,1.7-3.5c-1.6-1.8-2.7,0.4-3.5,1.3c-1.6,1.9-2.6,1.4-4.1-0.2
	c-4.8-4.9-4.8-4.8-0.1-9.5c5.6-5.6,5.5-5.6,0.1-11.2c-1-1-3.5-2.1-2.5-3.4c1.7-2.1,3.2-5,6.4-5.4c0.6-0.1,1.7,0.1,1.6-0.3
	c-0.5-2.7,1.8-4.1,2.8-6c0.3-0.5-0.1-1.2-0.7-1.5c-0.8-0.4-1.5,0.1-1.9,0.7c-2.1,3.1-3.6,1.4-5.3-0.5c-1.4-1.6-3.1-2.9-4.5-4.3
	c2.2-2.3,4.3-4.5,6.4-6.6c1.4-1.4,2.6-3.8,4.9-1c0.4,0.5,1.2,0.4,1.7-0.1c0.7-0.6,0.6-1.4,0.1-2c-1.1-1.2-2.1-2.2-0.3-3.6
	c0.5-0.4,0.4-1.2,0-1.7c-0.6-0.6-1.3-0.8-2-0.1c-2.8,2.5-3.3-1.1-4.8-1.9c-1.9-1.1-1-2.5-0.2-3.8c2.5-4,4.9-8.1,7.4-12.1
	c3.5,1.9,4,3.8,0.7,6.2c-1.1,0.8-2,1.9-2.9,2.9c-0.7,0.7-1.4,1.6-0.4,2.5c1,0.9,1.8,0.1,2.6-0.6c0.8-0.8,1.6-1.5,2.4-2.4
	c2-2.2,3.8-4.6,6.4-0.6c0.5,0.8,1.4,1.2,2.2,0.3c0.8-0.8,0.6-1.8-0.2-2.3c-3.9-2.5-1.7-4.4,0.5-6.4c0.8-0.7,2-1.5,0.7-2.8
	c-1.2-1.2-1.9,0.2-2.8,0.7c-1.6,0.9-2.2,4.9-5.3,1.6c-1.4-1.5-1.6-2.4-0.2-3.9c2.2-2.5,4.3-5.2,6.3-7.9c1.3-1.9,2.1-1.4,3.6,0
	c2.1,2,3,5.2,6.1,6.3c0.8,0.3,1.3,1.2,2.3,0.4c1.1-1,0.5-1.8-0.3-2.5c-1.3-1.1-0.7-1.8,0.2-2.7c0.9-0.8,1.8-1.8,2.6-2.6
	c3.7-3.7,3.8-3.8,7.6-0.2c1.3,1.3,2.1,0.9,3.1-0.1c3.4-3.4,6.9-6.9,10.3-10.3c0.7-0.7,1.5-1.5,0.6-2.5c-0.9-0.9-2-0.4-2.6,0.4
	c-1.6,2.2-2.6,1.1-4-0.3c-2.3-2.4-4.8-4.7-7.4-7.2c4.3-3.5,8.4-6.6,13.8-9.5c-0.5,2.6-2,3.4-2.9,4.5c-1,1.1-2.2,2.1-3.1,3.2
	c-0.7,0.8-2.4,1.6-1.1,3c1.3,1.4,2.2-0.2,3-0.9c0.9-0.8,1.8-1.8,2.7-2.6c1.3-1.3,2.5-3.3,4.1-3.7c1.9-0.5,2.7,2.1,4.1,3.2
	c0.7,0.5,1.3,1.2,2.3,0.4c0.9-0.8,0.5-1.5-0.1-2.3c-1.1-1.4-3.9-2.6-3.4-4.1c0.7-2,3-3.6,4.7-5.2c1.8-1.7,3.5-3.3,6.3-0.8
	c2.8,2.6,3,4.3-0.1,6.5c-0.8,0.6-1.5,1.4-2.1,2.1c-0.5,0.6-0.6,1.4,0.1,2c0.7,0.7,1.4,0.4,2-0.1c1-0.9,2-1.9,3-2.9
	c1.3-1.3,2.5-3,4.3-0.5c0.5,0.7,1.4,0.6,2,0c0.6-0.6,0.6-1.5-0.1-2c-2.6-1.9-0.6-2.9,0.6-4.2c1.5-1.8,3.8-2.9,4.5-5.3
	c0.2-0.3,0.4-0.3,0.6,0c2.7,1.9,2.6,3.8-0.1,5.6c-0.8,0.6-1.4,1.4-2.1,2.1c-0.5,0.6-0.6,1.3,0,2c0.7,0.7,1.4,0.5,2,0
	c0.9-0.8,1.8-1.7,2.7-2.6c1.2-1.2,2.2-2.9,4-0.7c0.5,0.6,1.4,0.6,2,0c0.8-0.8,0.3-1.5-0.2-2.3c-0.9-1.4,1.6-6,3.3-5.8
	c0.6,0.1,1.2,0.8,1.7,1.3c0.9,0.7,0.3,1.3-0.2,1.8c-0.6,0.6-1.3,1.2-1.8,1.9c-0.5,0.6-0.9,1.2-0.2,2c0.8,0.9,1.6,0.7,2.2,0
	c1.6-1.7,3-3.5,5.3-0.9c0.1,0.1,0.2,0,0.4,0c0.9-0.2,1.4-1.4,1.2-1.5c-3.7-0.8,2-6.4-2.5-5.5c-2.3,0.4-2.6-0.4-4-1.8
	c9.1-0.7,17.8-0.5,26.3,1.3c40.2,8.5,69.9,30.6,85,69.2C374.2,266.7,343.6,344.4,268.5,359.3z M223.8,142.3c0-0.3,0-0.5,0-0.8
	c2-1.4,2.1,0.8,3,1.6l-0.3,0l-0.3,0C225.4,142.8,224.6,142.5,223.8,142.3z M123.3,193.9c2.9-4.4,5.7-8.7,8.7-13
	c1.4-2-0.6-2.2-1.4-3.1c-0.8-0.8-2.5-1.3-1.4-2.9c1-1.3,2.1-0.4,2.9,0.4c1.9,2,3.2,1.4,4.6-0.7c1.2-1.8,2.5-3.4,4-4.9
	c2.4-2.5,5.1-4.8,1.4-8.4c-0.8-0.7-0.8-1.9,0.4-2.5c1-0.5,1.7,0.2,2,1c1.4,3.4,2.8,2.6,4.9,0.4c2.9-3.1,6.1-5.8,9.3-8.7
	c1.2-1,2.4-1.8,0.8-3.6c-0.7-0.7-1.5-2,0.1-2.8c1.2-0.7,1.8,0.2,2.3,1.2c0.8,1.8,1.8,1.1,2.9,0.2c2.4-1.8,4.8-3.6,7.2-5.3
	c1.9-1.4,4.6-2.4,2.4-5.6c-0.5-0.7-0.3-1.8,0.8-2.2c0.9-0.3,1.5,0.3,1.7,1c0.8,2.8,2.2,2,4,0.9c2.1-1.4,4.3-2.4,6.4-3.8
	c1.8-1.1,5.5-1.5,2.1-4.9c-0.5-0.5-0.3-1.4,0.5-1.9c0.8-0.5,1.6-0.1,1.9,0.5c1.7,3.7,4,1.9,6.3,0.9c3.2-1.4,6.4-2.8,9.6-4.1
	c0.9-0.4,2.1-0.8,2.6,0.4c0.7,1.5-0.6,1.9-1.6,2.4c-3.5,1.5-7.1,3-10.6,4.5c-1.3,0.5-2.6,1-1.2,2.7c0.6,0.7,0.3,1.4-0.4,1.9
	c-0.8,0.5-1.6,0.2-1.9-0.5c-1.2-2.2-2.6-1.2-4-0.4c-2.6,1.5-5.2,3-7.8,4.4c-1.4,0.8-3.4,1.4-1.2,3.6c0.5,0.5,0.1,1.2-0.5,1.6
	c-0.7,0.4-1.5,0.3-2-0.3c-1.5-1.9-2.8-0.8-4.1,0.2c-2.9,2.1-5.8,4.2-8.9,6.4c0.8,1.2,3.5,0.7,2.6,2.8c-0.7,1.6-2.5,1-3.7,0.5
	c-1.5-0.7-2.5-0.3-3.6,0.8c-3.5,3.3-7.1,6.6-10.7,9.9c-1.2,1.1-1.8,2,0.2,2.9c0.7,0.3,1.2,1,0.6,1.8c-0.6,0.9-1.6,1-2.3,0.4
	c-2.1-1.7-3.2-0.4-4.5,1.1c-1.9,2.4-4,4.8-6,7.2c-0.8,1-2.1,1.9-1,3.5c0.4,0.6,0,1.5-0.5,1.6c-5.2,0.5-5.8,5.5-8.1,8.6
	c-1.4,2-5.2,4.2-1.4,7.6c0.7,0.6-0.6,2.1-1.6,1.5c-2.6-1.7-2.9,0.6-3.5,1.9c-2.1,4.2-4,8.5-6.1,12.8c-0.5,1-0.7,2.8-2.4,2.1
	c-1.8-0.7-0.7-2.2-0.3-3.2c2.2-4.7,4.4-9.5,6.8-14.1c0.9-1.7,1.2-2.7-0.7-3.9c-1.1-0.7-3.4-1.4-2.1-3.2c1.3-1.8,2.5,0.3,3.7,0.9
	C122.2,193.1,122.7,193.5,123.3,193.9z M323.1,294.8c1.2-2,2.3-4,3.4-5.9c1.1-1.9,2.7-3.8-0.5-5.4c-0.7-0.3-0.8-1.3-0.3-2
	c0.5-0.7,1.2-0.7,2-0.2c0.6,0.4,1.1,1.1,2.1,0.9c0.7-1.6,1.2-3.4,2.2-4.9c1.6-2.3-0.5-3.7-0.8-5.5c-0.4-2.4,3.8,0.5,3.8-2.7
	c0-1.4,0.8-2.9,1.3-4.3c0.3-0.9,0.6-2.2,1.9-1.8c1.5,0.4,1.1,1.7,0.8,2.8c-0.3,0.8-0.5,1.7-0.8,2.5c-0.9,2.7-2.7,5.6,1.5,7.4
	c0.9,0.4,1.1,1.4,0.4,2.2c-0.8,0.9-1.5,0.5-2.3-0.1c-0.7-0.5-1.4-1-2.3-1.6c-0.9,2-1.7,3.9-2.6,5.8c-0.7,1.4-1.3,2.7,0.5,3.8
	c0.7,0.4,1.1,1.1,0.7,1.9c-0.4,0.7-1.2,1.1-1.9,0.6c-2-1.5-2.5,0.1-3.1,1.4c-0.7,1.4-1.5,2.9-2.4,4.2c-1,1.6-2.3,3.1,0.1,4.7
	c0.6,0.4,0.7,1.4,0,2c-0.6,0.6-1.5,0.6-2,0c-1.3-1.5-2-0.6-2.8,0.5c-1.8,2.4-3.6,4.7-5.4,7.1c-0.5,0.6-1.2,1.1-0.7,2.3
	c1,2.1,0.3,3-1.9,2c-1.2-0.5-1.6,0.4-2.1,0.9c-1.9,1.8-3.8,3.6-5.7,5.4c-0.7,0.7-1.5,1.3-1,2.5c0.3,1-0.2,1.7-1.3,1.8
	c-4.4,0.6-12,5.4-14.1,9.1c-0.3,0.6-0.8,1.1-1.4,0.9c-4.4-1.5-7.1,2.6-10.8,3.4c-1.1,0.2-1.1,1.1-0.4,2c0.6,0.8,0.7,1.6-0.3,2.2
	c-1,0.5-1.7,0.1-2.2-0.8c-1-2.1-2.4-1.5-4.1-0.9c-2.7,0.9-5.5,1.6-8.2,2.4c-0.8,0.2-1.8,0.3-2.2-0.8c-0.4-1.3,0.4-1.8,1.5-2.1
	c2.5-0.7,5-1.5,7.5-2.1c2.1-0.5,2.9-1.1,1.3-3.1c-0.7-0.9-1.2-2.1,0.1-2.9c1.2-0.6,1.9,0.5,2.3,1.4c1.1,3,3,2.6,5.2,1.4
	c2.2-1.1,4.5-2.1,7-3.2c-1-1.3-2-2.5-2.9-3.6c-0.6-0.8-0.7-1.6,0.2-2.3c0.8-0.6,1.4-0.1,1.9,0.4c1.2,1.2,2.6,3.7,3.5,3.5
	c2.2-0.4,4.2-2.1,6.2-3.2c0.5-0.3,1-0.7,1.5-1.1c4.7-3.3,4.7-3.3,1.7-7.9c-0.5-0.8-1.5-1.6-0.5-2.6c1.2-1,2-0.1,2.8,0.8
	c3.7,4.1,3.7,4.1,7.7,0.2c0.7-0.7,1.3-1.5,2.1-2.1c2.1-1.5,2.1-3,0.2-4.8c-0.9-0.8-2.5-2-0.9-3.3c1.4-1.1,2.3,0.5,2.9,1.4
	c1.6,2.5,2.7,1.6,4-0.3c1.1-1.5,2.2-3,3.4-4.5c1.4-1.8,3.1-3.5,0-5.3c-0.8-0.4-1-1.5-0.2-2.3c0.6-0.6,1.4-0.5,2,0
	C321.6,293.5,322.3,294.1,323.1,294.8z M246.6,192.8c-12.6,0-25.1,4.1-35.4,13c-21.6,18.9-27.3,36-21,58.6
	c7.8,28.5,35.2,46.3,64.9,42.4c27.3-3.7,49-29.3,48.9-57.9C303.8,218,279.3,193.6,246.6,192.8z M236.9,199.9c-2.5,5.1-4,5.5-7,1.8
	C232.4,201.1,234.4,199.7,236.9,199.9z M218.7,207.6c1.5-0.9,3.1-1.7,4.4-2.8c3-2.6,5.1-1.4,6.8,1.5c0.8,1.4,0.5,3.8,3.3,3.4
	c0,0,0.4,0.8,0.2,0.9c-2.4,2.4-4.8,4.7-7.3,7.1c-0.3-0.3-0.8-0.6-1.2-1c-2.1-2.1-4.2-4.3-6.4-6.3
	C217.2,209.2,217.3,208.4,218.7,207.6z M209.1,216c1.6-1.4,3.1-2.9,4.6-4.3c0.6-0.6,1.1-0.8,1.9-0.3c0.7,0.5,1.5,0.8,2.5,1.3
	c-2.8,2.8-4.7,4.9-6.8,6.7c-1.1,0.9-1.5-0.7-2.2-1.1C208,217.6,208.1,216.8,209.1,216z M196.8,233.2c2.8,2.9,5.1,5.5,7.6,7.9
	c1.2,1.1,1.2,1.9,0,3c-2.2,2-4.2,4.2-6.4,6.3c-0.7,0.7-1.2,2.2-2.6,1.5c-1.1-0.6-1.7-1.6-1.7-3.1
	C193.7,243.6,194.2,238.6,196.8,233.2z M194.8,259c-0.2-0.8-0.1-1.5,0.6-1.9c0.9-0.6,1.3,0.3,1.8,0.7c0.7,0.7,1.4,1.4,2.1,2.1
	c5.3,5.3,5.3,5.3-0.9,10.3C196.5,266.7,195.9,262.8,194.8,259z M267.2,297.2c-23.3,10.6-52.1,1.5-65.7-20.6c-1.6-2.5-1.4-4,0.9-5.8
	c3.6-2.9,7-6.1,9.9-9.8c0.6-0.8,1.6-1.5,0.8-2.5c-1-1.2-1.9-0.3-2.8,0.5c-4.2,3.5-4.2,3.5-8.1-0.5c-4-4-4-4,0-7.9
	c1.1-1.1,2.4-2.2,3.4-3.5c1.4-1.6,2.7-3,4.5-0.4c0.5,0.7,1.6,0.9,2.3,0.1c0.6-0.6,0.4-1.5-0.2-2c-2.4-1.7-1.6-3.1,0.3-4.6
	c0.8-0.7,2.5-1.6,1.1-3c-1.5-1.6-2.5,0.2-3.2,1.1c-1.6,2-2.9,2.2-4.6,0c-1.5-1.9-3.4-3.6-5.1-5.4c-2.2-1.1-2.7-2.5-1-4.6
	c1.8-2.2,3.2-4.7,4.9-6.9c0.6-0.8,1.1-2.4,2.8-0.8c1.3,1.2,1.4,2,0,3.2c-1.7,1.6-3.3,3.3-5,4.9c-0.9,0.9-1.9,1.7-1.5,3.1
	c2.2,1.2,3.1-0.6,4.3-1.8c1.9-1.8,3.5-4.6,5.6-5.1c2.1-0.5,3.5,2.9,5.3,4.5c1.7,1.5,2.7,1.6,3.3-0.9c-0.8-0.8-1.6-1.5-2.4-2.3
	c-4-4-4-4,0.1-8.1c2.4-2.4,5.1-1.8,6.5,1.4c0.8,1.7-1.1,1.9-1.6,2.9c-0.9,1.7-4.3,2.2-2.6,5.2c3.9-0.8,5.7-4.5,8.5-6.7
	c1.8-1.4,3.3-3.5,5-5.3c1.5-1.7,3-4.4,5.5-0.9c0.4,0.6,1.4,0.6,2,0c0.9-0.8,0.4-1.6-0.2-2.2c-1-1-2.2-1.9-1.5-3.7
	c0.1-0.2-0.5-0.9-0.9-1.1c-2.3-1.2-2.3-1.1-0.3-3.2c1.7-1.8,3.5-3.5,5.2-5.3c0.5-0.3,1-0.4,1.5-0.4c3.6-0.8,7.2,0,11,0.5
	c-1.9,3.3-3.7,4.2-6.1,0.9c-0.8-1.1-1.9-1.6-3.2-0.9c-0.6,1.7,0.7,2.6,1.7,3.4c2,1.6,2.2,3,0,4.6c-0.3,0.2-0.6,0.5-0.8,0.8
	c-0.6,0.7-1.7,1.4-0.7,2.5c1.1,1.3,2,0.3,2.8-0.5c1.6-1.5,3-4.1,5.4-0.8c0.5,0.8,1.6,0.8,2.3-0.1c0.5-0.7,0.1-1.4-0.3-2
	c-0.6-0.8-2.3-1.4-1.6-2.6c1-1.7,2.4-3.7,4-4.2c1.8-0.6,2.7,2.1,4.1,3.2c1.1,0.8,0.9,1.5,0,2.4c-0.9,0.8-2.3,1.8-1.1,3.1
	c1.5,1.6,2.3-0.4,3.3-1.1c2-1.4,3.6-3.2,3.5-4.5c13.3,6.6,22.8,16.2,27.3,30.2C303.7,258.5,291.3,286.2,267.2,297.2z"/>
</svg>
